<?xml version="1.0" encoding="iso-8859-1"?>
<!-- Generator: Adobe Illustrator 19.0.0, SVG Export Plug-In . SVG Version: 6.00 Build 0)  -->
<svg version="1.1" id="Capa_1" xmlns="http://www.w3.org/2000/svg" xmlns:xlink="http://www.w3.org/1999/xlink" x="0px" y="0px"
	 viewBox="0 0 480 480" style="enable-background:new 0 0 480 480;" xml:space="preserve">
<polygon style="fill:#D4C8B8;" points="395.655,8 395.655,448 64,448 64,472 416,472 416,8 "/>
<rect x="64" y="8" style="fill:#EBE5DD;" width="331.656" height="440"/>
<polygon style="fill:#1C313D;" points="384,64 384,40 96,40 96,120 120,120 120,64 "/>
<rect x="120" y="64" style="fill:#29485A;" width="264" height="56"/>
<path style="fill:#A6001E;" d="M128,152v16c0,8.836-7.164,16-16,16H96c0,8.836,7.164,16,16,16h16c8.836,0,16-7.164,16-16v-16
	C144,159.163,136.836,152,128,152z"/>
<path style="fill:#E7B900;" d="M208,152v16c0,8.836-7.164,16-16,16h-16c0,8.836,7.164,16,16,16h16c8.836,0,16-7.164,16-16v-16
	C224,159.163,216.836,152,208,152z"/>
<path style="fill:#1E81CE;" d="M288,152v16c0,8.836-7.164,16-16,16h-16c0,8.836,7.164,16,16,16h16c8.836,0,16-7.164,16-16v-16
	C304,159.163,296.836,152,288,152z"/>
<path style="fill:#5EAC24;" d="M368,152v16c0,8.836-7.164,16-16,16h-16c0,8.836,7.164,16,16,16h16c8.836,0,16-7.164,16-16v-16
	C384,159.163,376.836,152,368,152z"/>
<g>
	<path style="fill:#CCCCCC;" d="M128,232v16c0,8.836-7.164,16-16,16H96c0,8.836,7.164,16,16,16h16c8.836,0,16-7.164,16-16v-16
		C144,239.163,136.836,232,128,232z"/>
	<path style="fill:#CCCCCC;" d="M208,232v16c0,8.836-7.164,16-16,16h-16c0,8.836,7.164,16,16,16h16c8.836,0,16-7.164,16-16v-16
		C224,239.163,216.836,232,208,232z"/>
	<path style="fill:#CCCCCC;" d="M288,232v16c0,8.836-7.164,16-16,16h-16c0,8.836,7.164,16,16,16h16c8.836,0,16-7.164,16-16v-16
		C304,239.163,296.836,232,288,232z"/>
</g>
<path style="fill:#6C2C91;" d="M368,232v16c0,8.836-7.164,16-16,16h-16c0,8.836,7.164,16,16,16h16c8.836,0,16-7.164,16-16v-16
	C384,239.163,376.836,232,368,232z"/>
<g>
	<path style="fill:#CCCCCC;" d="M128,312v16c0,8.836-7.164,16-16,16H96c0,8.836,7.164,16,16,16h16c8.836,0,16-7.164,16-16v-16
		C144,319.164,136.836,312,128,312z"/>
	<path style="fill:#CCCCCC;" d="M208,312v16c0,8.836-7.164,16-16,16h-16c0,8.836,7.164,16,16,16h16c8.836,0,16-7.164,16-16v-16
		C224,319.164,216.836,312,208,312z"/>
	<path style="fill:#CCCCCC;" d="M288,312v16c0,8.836-7.164,16-16,16h-16c0,8.836,7.164,16,16,16h16c8.836,0,16-7.164,16-16v-16
		C304,319.164,296.836,312,288,312z"/>
</g>
<path style="fill:#6C2C91;" d="M368,312v16c0,8.836-7.164,16-16,16h-16c0,8.836,7.164,16,16,16h16c8.836,0,16-7.164,16-16v-16
	C384,319.164,376.836,312,368,312z"/>
<g>
	<path style="fill:#CCCCCC;" d="M128,392v16c0,8.836-7.164,16-16,16H96c0,8.836,7.164,16,16,16h16c8.836,0,16-7.164,16-16v-16
		C144,399.164,136.836,392,128,392z"/>
	<path style="fill:#CCCCCC;" d="M208,392v16c0,8.836-7.164,16-16,16h-16c0,8.836,7.164,16,16,16h16c8.836,0,16-7.164,16-16v-16
		C224,399.164,216.836,392,208,392z"/>
	<path style="fill:#CCCCCC;" d="M288,392v16c0,8.836-7.164,16-16,16h-16c0,8.836,7.164,16,16,16h16c8.836,0,16-7.164,16-16v-16
		C304,399.164,296.836,392,288,392z"/>
</g>
<path style="fill:#6C2C91;" d="M368,392v16c0,8.836-7.164,16-16,16h-16c0,8.836,7.164,16,16,16h16c8.836,0,16-7.164,16-16v-16
	C384,399.164,376.836,392,368,392z"/>
<path style="fill:#F40E34;" d="M128,168v-16h-16c-8.836,0-16,7.163-16,16v16h16C120.836,184,128,176.836,128,168z"/>
<path style="fill:#FFD422;" d="M208,168v-16h-16c-8.836,0-16,7.163-16,16v16h16C200.836,184,208,176.836,208,168z"/>
<path style="fill:#5AAAE7;" d="M288,168v-16h-16c-8.836,0-16,7.163-16,16v16h16C280.836,184,288,176.836,288,168z"/>
<path style="fill:#69C229;" d="M368,168v-16h-16c-8.836,0-16,7.163-16,16v16h16C360.836,184,368,176.836,368,168z"/>
<g>
	<path style="fill:#FFFFFF;" d="M128,248v-16h-16c-8.836,0-16,7.163-16,16v16h16C120.836,264,128,256.836,128,248z"/>
	<path style="fill:#FFFFFF;" d="M208,248v-16h-16c-8.836,0-16,7.163-16,16v16h16C200.836,264,208,256.836,208,248z"/>
	<path style="fill:#FFFFFF;" d="M288,248v-16h-16c-8.836,0-16,7.163-16,16v16h16C280.836,264,288,256.836,288,248z"/>
</g>
<path style="fill:#8034AD;" d="M368,248v-16h-16c-8.836,0-16,7.163-16,16v16h16C360.836,264,368,256.836,368,248z"/>
<g>
	<path style="fill:#FFFFFF;" d="M128,328v-16h-16c-8.836,0-16,7.164-16,16v16h16C120.836,344,128,336.836,128,328z"/>
	<path style="fill:#FFFFFF;" d="M208,328v-16h-16c-8.836,0-16,7.164-16,16v16h16C200.836,344,208,336.836,208,328z"/>
	<path style="fill:#FFFFFF;" d="M288,328v-16h-16c-8.836,0-16,7.164-16,16v16h16C280.836,344,288,336.836,288,328z"/>
</g>
<path style="fill:#8034AD;" d="M368,328v-16h-16c-8.836,0-16,7.164-16,16v16h16C360.836,344,368,336.836,368,328z"/>
<g>
	<path style="fill:#FFFFFF;" d="M128,408v-16h-16c-8.836,0-16,7.164-16,16v16h16C120.836,424,128,416.836,128,408z"/>
	<path style="fill:#FFFFFF;" d="M208,408v-16h-16c-8.836,0-16,7.164-16,16v16h16C200.836,424,208,416.836,208,408z"/>
	<path style="fill:#FFFFFF;" d="M288,408v-16h-16c-8.836,0-16,7.164-16,16v16h16C280.836,424,288,416.836,288,408z"/>
</g>
<path style="fill:#8034AD;" d="M368,408v-16h-16c-8.836,0-16,7.164-16,16v16h16C360.836,424,368,416.836,368,408z"/>
<g>
	<rect x="128" y="88" style="fill:#FFFFFF;" width="16" height="16"/>
	<rect x="168" y="88" style="fill:#FFFFFF;" width="48" height="16"/>
</g>
<path d="M416,0H64c-4.418,0-8,3.578-8,8v464c0,4.422,3.582,8,8,8h352c4.418,0,8-3.578,8-8V8C424,3.578,420.418,0,416,0z M408,464H72
	V16h336V464z"/>
<path d="M96,128h288c4.418,0,8-3.578,8-8V40c0-4.422-3.582-8-8-8H96c-4.418,0-8,3.578-8,8v80C88,124.422,91.582,128,96,128z M104,48
	h272v64H104V48z"/>
<path d="M112,208h16c13.234,0,24-10.766,24-24v-16c0-13.234-10.766-24-24-24h-16c-13.234,0-24,10.766-24,24v16
	C88,197.234,98.766,208,112,208z M104,168c0-4.414,3.59-8,8-8h16c4.41,0,8,3.586,8,8v16c0,4.414-3.59,8-8,8h-16c-4.41,0-8-3.586-8-8
	V168z"/>
<path d="M208,144h-16c-13.234,0-24,10.766-24,24v16c0,13.234,10.766,24,24,24h16c13.234,0,24-10.766,24-24v-16
	C232,154.766,221.234,144,208,144z M216,184c0,4.414-3.59,8-8,8h-16c-4.41,0-8-3.586-8-8v-16c0-4.414,3.59-8,8-8h16
	c4.41,0,8,3.586,8,8V184z"/>
<path d="M288,144h-16c-13.234,0-24,10.766-24,24v16c0,13.234,10.766,24,24,24h16c13.234,0,24-10.766,24-24v-16
	C312,154.766,301.234,144,288,144z M296,184c0,4.414-3.59,8-8,8h-16c-4.41,0-8-3.586-8-8v-16c0-4.414,3.59-8,8-8h16
	c4.41,0,8,3.586,8,8V184z"/>
<path d="M368,144h-16c-13.234,0-24,10.766-24,24v16c0,13.234,10.766,24,24,24h16c13.234,0,24-10.766,24-24v-16
	C392,154.766,381.234,144,368,144z M376,184c0,4.414-3.59,8-8,8h-16c-4.41,0-8-3.586-8-8v-16c0-4.414,3.59-8,8-8h16
	c4.41,0,8,3.586,8,8V184z"/>
<path d="M112,288h16c13.234,0,24-10.766,24-24v-16c0-13.234-10.766-24-24-24h-16c-13.234,0-24,10.766-24,24v16
	C88,277.234,98.766,288,112,288z M104,248c0-4.414,3.59-8,8-8h16c4.41,0,8,3.586,8,8v16c0,4.414-3.59,8-8,8h-16c-4.41,0-8-3.586-8-8
	V248z"/>
<path d="M208,224h-16c-13.234,0-24,10.766-24,24v16c0,13.234,10.766,24,24,24h16c13.234,0,24-10.766,24-24v-16
	C232,234.766,221.234,224,208,224z M216,264c0,4.414-3.59,8-8,8h-16c-4.41,0-8-3.586-8-8v-16c0-4.414,3.59-8,8-8h16
	c4.41,0,8,3.586,8,8V264z"/>
<path d="M288,224h-16c-13.234,0-24,10.766-24,24v16c0,13.234,10.766,24,24,24h16c13.234,0,24-10.766,24-24v-16
	C312,234.766,301.234,224,288,224z M296,264c0,4.414-3.59,8-8,8h-16c-4.41,0-8-3.586-8-8v-16c0-4.414,3.59-8,8-8h16
	c4.41,0,8,3.586,8,8V264z"/>
<path d="M368,224h-16c-13.234,0-24,10.766-24,24v16c0,13.234,10.766,24,24,24h16c13.234,0,24-10.766,24-24v-16
	C392,234.766,381.234,224,368,224z M376,264c0,4.414-3.59,8-8,8h-16c-4.41,0-8-3.586-8-8v-16c0-4.414,3.59-8,8-8h16
	c4.41,0,8,3.586,8,8V264z"/>
<path d="M112,368h16c13.234,0,24-10.766,24-24v-16c0-13.234-10.766-24-24-24h-16c-13.234,0-24,10.766-24,24v16
	C88,357.234,98.766,368,112,368z M104,328c0-4.414,3.59-8,8-8h16c4.41,0,8,3.586,8,8v16c0,4.414-3.59,8-8,8h-16c-4.41,0-8-3.586-8-8
	V328z"/>
<path d="M208,304h-16c-13.234,0-24,10.766-24,24v16c0,13.234,10.766,24,24,24h16c13.234,0,24-10.766,24-24v-16
	C232,314.766,221.234,304,208,304z M216,344c0,4.414-3.59,8-8,8h-16c-4.41,0-8-3.586-8-8v-16c0-4.414,3.59-8,8-8h16
	c4.41,0,8,3.586,8,8V344z"/>
<path d="M288,304h-16c-13.234,0-24,10.766-24,24v16c0,13.234,10.766,24,24,24h16c13.234,0,24-10.766,24-24v-16
	C312,314.766,301.234,304,288,304z M296,344c0,4.414-3.59,8-8,8h-16c-4.41,0-8-3.586-8-8v-16c0-4.414,3.59-8,8-8h16
	c4.41,0,8,3.586,8,8V344z"/>
<path d="M368,304h-16c-13.234,0-24,10.766-24,24v16c0,13.234,10.766,24,24,24h16c13.234,0,24-10.766,24-24v-16
	C392,314.766,381.234,304,368,304z M376,344c0,4.414-3.59,8-8,8h-16c-4.41,0-8-3.586-8-8v-16c0-4.414,3.59-8,8-8h16
	c4.41,0,8,3.586,8,8V344z"/>
<path d="M112,448h16c13.234,0,24-10.766,24-24v-16c0-13.234-10.766-24-24-24h-16c-13.234,0-24,10.766-24,24v16
	C88,437.234,98.766,448,112,448z M104,408c0-4.414,3.59-8,8-8h16c4.41,0,8,3.586,8,8v16c0,4.414-3.59,8-8,8h-16c-4.41,0-8-3.586-8-8
	V408z"/>
<path d="M208,384h-16c-13.234,0-24,10.766-24,24v16c0,13.234,10.766,24,24,24h16c13.234,0,24-10.766,24-24v-16
	C232,394.766,221.234,384,208,384z M216,424c0,4.414-3.59,8-8,8h-16c-4.41,0-8-3.586-8-8v-16c0-4.414,3.59-8,8-8h16
	c4.41,0,8,3.586,8,8V424z"/>
<path d="M288,384h-16c-13.234,0-24,10.766-24,24v16c0,13.234,10.766,24,24,24h16c13.234,0,24-10.766,24-24v-16
	C312,394.766,301.234,384,288,384z M296,424c0,4.414-3.59,8-8,8h-16c-4.41,0-8-3.586-8-8v-16c0-4.414,3.59-8,8-8h16
	c4.41,0,8,3.586,8,8V424z"/>
<path d="M368,384h-16c-13.234,0-24,10.766-24,24v16c0,13.234,10.766,24,24,24h16c13.234,0,24-10.766,24-24v-16
	C392,394.766,381.234,384,368,384z M376,424c0,4.414-3.59,8-8,8h-16c-4.41,0-8-3.586-8-8v-16c0-4.414,3.59-8,8-8h16
	c4.41,0,8,3.586,8,8V424z"/>
<g>
</g>
<g>
</g>
<g>
</g>
<g>
</g>
<g>
</g>
<g>
</g>
<g>
</g>
<g>
</g>
<g>
</g>
<g>
</g>
<g>
</g>
<g>
</g>
<g>
</g>
<g>
</g>
<g>
</g>
</svg>
