<svg xmlns="http://www.w3.org/2000/svg"  viewBox="0 0 48 48" width="48px" height="48px"><path fill="#8a4581" d="M11.946,8.935c0.587-0.195,1.21,0.226,1.574,0.726c0.364,0.5,0.592,1.102,1.031,1.539l2.316-0.968 c-0.309-0.422-0.591-0.863-0.844-1.32c-0.195-0.352-0.375-0.775-0.209-1.142c0.309-0.685,1.528-0.573,1.761-1.288 c0.12-0.369-0.128-0.78-0.47-0.965c-0.342-0.185-0.749-0.194-1.137-0.178c-1.053,0.045-2.125,0.263-3.012,0.833 c-0.886,0.571-1.561,1.538-1.585,2.592c-0.001,0.05,0,0.102,0.021,0.147C11.479,9.097,11.752,8.999,11.946,8.935z"/><path fill="#8a4581" d="M6.78,15.888c0.2-0.142,0.357-0.339,0.566-0.466c0.384-0.233,0.888-0.187,1.294,0.005 s1.146,0.742,1.469,1.055l1.333-1.953c-0.343-0.584-1.548-0.431-1.997-0.939c-0.313-0.354-0.175-0.905-0.003-1.345 c0.125-0.321,0.263-0.654,0.233-0.997c-0.008-0.086-0.026-0.172-0.067-0.249c-0.094-0.177-0.295-0.276-0.494-0.301 c-0.364-0.045-0.728,0.125-0.998,0.372c-0.271,0.247-0.464,0.565-0.654,0.879c-0.611,1.011-1.23,2.041-1.52,3.186 c-0.074,0.293-0.098,0.667,0.153,0.836C6.298,16.109,6.581,16.03,6.78,15.888z"/><path fill="#8a4581" d="M5.583,24.169c0.294-0.451-0.053-1.215,0.399-1.508c0.154-0.1,0.35-0.097,0.534-0.099 c0.692-0.004,1.61-0.072,2.272-0.274l0.207-1.92c-0.91,0.141-1.831,0.208-2.752,0.198c0.017-0.4,0.035-0.799,0.052-1.199 c0.006-0.138,0.01-0.284-0.055-0.406c-0.12-0.225-0.421-0.278-0.675-0.254c-0.829,0.076-1.691,0.593-1.879,1.403 c-0.07,0.303-0.069,0.617-0.067,0.927c0.005,0.853,0.01,1.706,0.015,2.559c0.001,0.147,0.006,0.307,0.097,0.422 c0.079,0.099,0.206,0.144,0.326,0.184C4.542,24.363,5.305,24.597,5.583,24.169z"/><path fill="#8a4581" d="M7.82,30.314c0.7-0.183,1.886-0.538,2.586-0.72l-0.778-2.427c-0.796,0.353-1.607,0.67-2.432,0.95 c-0.126,0.043-0.274,0.082-0.384,0.008c-0.098-0.066-0.126-0.194-0.17-0.303c-0.161-0.401-0.628-0.62-1.059-0.589 c-0.431,0.031-0.823,0.269-1.141,0.562c-0.132,0.121-0.256,0.256-0.324,0.421c-0.12,0.292-0.042,0.625,0.05,0.927 c0.221,0.722,0.519,1.418,0.817,2.112c0.089,0.208,0.179,0.418,0.319,0.595c0.185,0.235,0.448,0.399,0.722,0.519 c0.303,0.132,0.668,0.212,0.956,0.049c0.253-0.143,0.382-0.44,0.417-0.729c0.035-0.288-0.006-0.58-0.004-0.87 c0.001-0.114,0.01-0.234,0.078-0.326C7.553,30.388,7.692,30.348,7.82,30.314z"/><path fill="#8a4581" d="M12.442,33.783c-0.479,0.466-0.959,0.932-1.438,1.397c-0.144,0.14-0.301,0.287-0.499,0.323 c-0.195,0.035-0.39-0.043-0.57-0.125c-0.299-0.136-0.595-0.288-0.918-0.349c-0.323-0.061-0.684-0.017-0.929,0.202 c-0.229,0.204-0.32,0.527-0.319,0.833c0.002,0.617,0.334,1.195,0.775,1.626s0.986,0.737,1.524,1.038 c0.388,0.217,0.894,0.428,1.243,0.153c0.519-0.408,0.035-1.313,0.373-1.881c0.103-0.173,0.272-0.294,0.437-0.41 c0.547-0.385,1.093-0.77,1.64-1.156L12.442,33.783z"/><path fill="#8a4581" d="M17.074,37.838c-0.1,0.252-0.201,0.504-0.301,0.756c-0.171,0.43-0.387,0.906-0.822,1.066 c-0.652,0.24-1.476-0.36-2.03,0.057c-0.151,0.114-0.248,0.287-0.307,0.467c-0.186,0.563-0.011,1.227,0.427,1.626 c0.222,0.202,0.497,0.335,0.768,0.464c0.387,0.186,0.774,0.371,1.162,0.556c0.332,0.159,0.672,0.32,1.038,0.354 c0.366,0.034,0.769-0.085,0.977-0.388c0.364-0.53-0.025-1.236-0.047-1.878c-0.023-0.668,0.563-1.53,0.936-2.085L17.074,37.838z"/><path fill="#8a4581" d="M25.026,42.255c-0.396-0.634-0.54-1.889-0.339-2.609l-2.392,0.101c0.04,0.43,0.054,0.864,0.04,1.295 c-0.004,0.139-0.02,0.296-0.129,0.382c-0.075,0.059-0.176,0.07-0.27,0.078c-0.243,0.021-0.486,0.043-0.729,0.064 c-0.388,0.034-0.855,0.126-0.987,0.492c-0.06,0.166-0.031,0.349-0.001,0.523c0.07,0.409,0.163,0.86,0.496,1.108 c0.275,0.205,0.644,0.218,0.987,0.222c0.594,0.007,1.188,0.014,1.781,0.021c0.649,0.008,1.432-0.06,1.731-0.636 c0.091-0.175,0.12-0.384,0.066-0.573C25.232,42.551,25.121,42.406,25.026,42.255z"/><path fill="#8a4581" d="M32.296,41.653c-0.222-0.172-0.467-0.335-0.745-0.374c-0.161-0.022-0.338-0.005-0.474-0.094 c-0.128-0.084-0.185-0.24-0.233-0.384c-0.165-0.489-0.484-1.582-0.649-2.071l-2.066,0.372c0.288,0.593,0.648,1.942,0.706,2.599 c0.006,0.073,0.011,0.148-0.016,0.216c-0.049,0.121-0.183,0.181-0.304,0.23c-0.422,0.172-0.895,0.431-0.96,0.882 c-0.058,0.399,0.26,0.778,0.639,0.919c0.378,0.141,0.798,0.097,1.196,0.03c0.996-0.167,1.97-0.463,2.897-0.865 c0.189-0.082,0.389-0.179,0.49-0.359C32.991,42.373,32.642,41.922,32.296,41.653z"/><path fill="#8a4581" d="M39.047,36.35c-0.466,0.059-0.988,0.179-1.368-0.091c-0.385-0.274-1.192-1.257-1.585-1.467 l-1.803,1.726c0.357,0.296,0.845,0.769,1.202,1.066c0.177,0.147,0.364,0.309,0.422,0.529c0.162,0.609-0.733,1.092-0.656,1.717 c0.032,0.265,0.246,0.484,0.497,0.592c0.363,0.155,0.79,0.104,1.154-0.049c0.364-0.153,0.676-0.4,0.984-0.643 c0.256-0.203,0.512-0.405,0.768-0.608c0.65-0.514,1.349-1.111,1.448-1.921c0.027-0.224-0.002-0.47-0.154-0.64 C39.742,36.321,39.369,36.309,39.047,36.35z"/><path fill="#8a4581" d="M43.376,30.071c-0.084-0.296-0.366-0.559-0.671-0.515c-0.335,0.048-0.524,0.413-0.821,0.577 c-0.319,0.175-0.712,0.095-1.066,0.01c-0.443-0.106-1.341-0.385-1.784-0.491l-0.671,2.02c0.641,0.244,1.955,0.226,2.369,0.772 c0.221,0.292,0.215,0.69,0.268,1.053c0.053,0.363,0.236,0.773,0.597,0.837c0.453,0.08,0.774-0.423,0.943-0.851 c0.319-0.814,0.581-1.649,0.785-2.5C43.397,30.683,43.461,30.367,43.376,30.071z"/><path fill="#8a4581" d="M36.131,8.494c-0.298-0.695-0.927-1.192-1.583-1.568c-0.656-0.375-1.366-0.661-1.984-1.096 c-0.504-0.355-1.106-0.832-1.66-0.563c-0.479,0.232-0.562,0.888-0.45,1.408c0.083,0.381,0.242,0.756,0.526,1.023 c0.17,0.16,0.388,0.286,0.484,0.5c0.146,0.323-0.047,0.691-0.234,0.992c-0.37,0.597-0.892,1.573-1.262,2.17l1.969,1 c0.359-0.534,0.615-1.304,0.864-1.897s0.723-1.18,1.365-1.219c0.377-0.022,0.737,0.15,1.111,0.203s0.839-0.08,0.93-0.447 C36.249,8.831,36.199,8.653,36.131,8.494z"/><path d="M32.353,12.639l-0.83-0.559c0.243-0.36,0.45-0.887,0.632-1.351c0.063-0.16,0.125-0.315,0.185-0.461 c0.38-0.909,1.052-1.479,1.796-1.524c0.312-0.023,0.598,0.058,0.848,0.124c0.121,0.032,0.241,0.065,0.364,0.083 c0.19,0.027,0.352-0.039,0.375-0.073c0-0.001,0.007-0.049-0.052-0.187C35.462,8.203,35.014,7.768,34.3,7.36 c-0.236-0.135-0.479-0.258-0.722-0.381c-0.434-0.219-0.883-0.446-1.302-0.742l-0.107-0.076c-0.374-0.265-0.796-0.567-1.046-0.444 c-0.207,0.1-0.253,0.512-0.179,0.853c0.051,0.232,0.158,0.555,0.379,0.764c0.039,0.036,0.082,0.071,0.125,0.106 c0.159,0.13,0.356,0.291,0.474,0.553c0.27,0.599-0.105,1.203-0.265,1.461c-0.182,0.294-0.401,0.681-0.621,1.068 c-0.227,0.398-0.453,0.798-0.641,1.102l-0.851-0.527c0.183-0.294,0.402-0.681,0.621-1.068c0.227-0.398,0.453-0.798,0.641-1.102 c0.221-0.356,0.222-0.48,0.203-0.523c-0.021-0.047-0.114-0.123-0.195-0.189c-0.06-0.049-0.12-0.099-0.175-0.15 c-0.329-0.31-0.555-0.74-0.672-1.281c-0.157-0.728,0.004-1.617,0.72-1.965c0.783-0.38,1.523,0.146,2.062,0.529l0.104,0.074 c0.359,0.254,0.757,0.455,1.177,0.667c0.258,0.131,0.516,0.262,0.767,0.404c0.91,0.521,1.497,1.111,1.794,1.806 c0.13,0.304,0.164,0.573,0.103,0.822c-0.162,0.649-0.886,0.907-1.487,0.822c-0.162-0.023-0.321-0.064-0.48-0.107 c-0.195-0.052-0.383-0.108-0.53-0.092c-0.418,0.025-0.756,0.488-0.934,0.912c-0.059,0.14-0.117,0.288-0.177,0.441 C32.884,11.607,32.656,12.187,32.353,12.639z"/><path fill="#8a4581" d="M42.688,15.462c-0.422-0.688-0.845-1.376-1.267-2.064c-0.324-0.528-0.716-1.106-1.325-1.224 c-0.654-0.127-1.362,0.501-1.247,1.157c0.066,0.379,0.359,0.728,0.277,1.104c-0.069,0.318-0.38,0.515-0.664,0.677 c-0.676,0.384-1.351,0.767-2.027,1.151l1.169,2.174c1.101-0.997,2.981-1.818,4.466-1.85c0.282-0.006,0.614-0.017,0.771-0.251 C43.017,16.076,42.852,15.729,42.688,15.462z"/><path d="M37.939,18.809l-0.671-0.742c1.232-1.114,3.248-1.946,4.791-1.979c0.092-0.002,0.301-0.006,0.371-0.04 c-0.017-0.007-0.035-0.105-0.169-0.324l-1.268-2.064c-0.282-0.46-0.593-0.917-0.994-0.994c-0.159-0.032-0.355,0.039-0.498,0.181 c-0.123,0.121-0.184,0.271-0.161,0.398c0.017,0.091,0.063,0.202,0.111,0.32c0.109,0.264,0.245,0.592,0.162,0.977 c-0.121,0.56-0.631,0.85-0.905,1.006l-2.027,1.151l-0.494-0.869l2.027-1.151c0.118-0.067,0.396-0.226,0.423-0.349 c0.017-0.078-0.047-0.232-0.109-0.382c-0.064-0.154-0.138-0.331-0.172-0.53c-0.08-0.452,0.087-0.933,0.445-1.285 c0.383-0.376,0.901-0.542,1.39-0.449c0.798,0.155,1.272,0.831,1.655,1.453l1.268,2.064c0.129,0.211,0.521,0.851,0.143,1.415 c-0.306,0.454-0.851,0.466-1.176,0.473C40.774,17.115,38.994,17.855,37.939,18.809z"/><path fill="#8a4581" d="M44.068,21.936c-0.061-0.342-0.127-0.696-0.341-0.981c-0.214-0.284-0.623-0.477-0.974-0.352 c-0.404,0.144-0.536,0.602-0.598,0.997c-0.062,0.395-0.151,0.85-0.531,1.042c-0.124,0.063-0.266,0.088-0.406,0.113 c-0.488,0.086-1.23,0.169-1.718,0.255l0.166,2.441c0.45-0.193,1.576-0.556,2.073-0.571s1.036,0.202,1.224,0.625 c0.07,0.158,0.093,0.342,0.221,0.465c0.195,0.188,0.558,0.134,0.759-0.049s0.276-0.451,0.321-0.708 C44.453,24.129,44.261,23.021,44.068,21.936z"/><path d="M43.499,26.587c-0.24,0-0.479-0.077-0.663-0.255c-0.177-0.17-0.243-0.369-0.292-0.515 c-0.012-0.036-0.023-0.072-0.038-0.106c-0.087-0.196-0.445-0.343-0.753-0.329c-0.387,0.011-1.42,0.328-1.89,0.529l-0.395-0.918 c0.477-0.205,1.671-0.595,2.256-0.611c0.608,0.004,1.4,0.259,1.694,0.923c0.028,0.062,0.051,0.129,0.073,0.195 c0.013,0.037,0.03,0.09,0.042,0.114c-0.007-0.024,0.046-0.038,0.072-0.062c0.095-0.086,0.137-0.272,0.164-0.424 c0.177-1.011-0.012-2.075-0.194-3.105c-0.05-0.281-0.102-0.572-0.249-0.769c-0.101-0.135-0.296-0.218-0.406-0.181 c-0.125,0.045-0.217,0.247-0.272,0.604c-0.06,0.381-0.17,1.092-0.798,1.411c-0.19,0.095-0.384,0.13-0.54,0.158 c-0.256,0.045-0.569,0.089-0.884,0.132c-0.301,0.041-0.602,0.082-0.84,0.124l-0.174-0.984c0.25-0.044,0.563-0.088,0.878-0.131 c0.301-0.041,0.602-0.082,0.84-0.124c0.108-0.02,0.21-0.038,0.27-0.068c0.155-0.079,0.216-0.389,0.26-0.673 c0.044-0.279,0.179-1.125,0.926-1.39c0.594-0.211,1.225,0.103,1.54,0.521c0.292,0.389,0.371,0.836,0.435,1.196 c0.188,1.063,0.402,2.268,0.194,3.451c-0.054,0.309-0.156,0.7-0.476,0.991C44.078,26.476,43.787,26.587,43.499,26.587z"/><path fill="#8a4581" d="M26.146,4.83c-0.599-0.639-1.615-0.563-2.482-0.438c-0.534,0.077-1.069,0.153-1.603,0.23 c-0.428,0.062-0.866,0.126-1.244,0.334c-0.379,0.208-0.691,0.592-0.687,1.024c0.002,0.175,0.065,0.361,0.211,0.457 c0.102,0.066,0.228,0.08,0.349,0.083c0.554,0.013,1.194-0.131,1.598,0.249c0.261,0.245,0.322,0.635,0.312,0.993 c-0.01,0.358-0.132,1.219-0.066,1.571L25,9.771c-0.003-0.607-0.003-1.653-0.005-2.26c-0.001-0.261,0.026-0.573,0.254-0.701 c0.201-0.112,0.455-0.018,0.679-0.067c0.259-0.058,0.44-0.301,0.522-0.554C26.6,5.725,26.479,5.185,26.146,4.83z"/><path d="M24.5,9.772l-0.005-2.26c-0.001-0.233-0.003-0.853,0.51-1.14c0.241-0.135,0.481-0.123,0.657-0.118 c0.058,0.004,0.128,0.005,0.157-0.001c0.038-0.008,0.113-0.09,0.155-0.221c0.093-0.287,0.015-0.641-0.192-0.86 c-0.423-0.451-1.232-0.403-2.046-0.286l-1.604,0.229c-0.378,0.055-0.77,0.11-1.075,0.277c-0.214,0.117-0.429,0.343-0.427,0.581 c-0.025,0.037-0.001,0.043,0.073,0.045c0.117,0.003,0.24-0.002,0.362-0.007c0.489-0.024,1.103-0.045,1.566,0.392 c0.329,0.309,0.486,0.771,0.469,1.372c-0.004,0.122-0.019,0.299-0.036,0.495c-0.027,0.299-0.071,0.798-0.039,0.97l-0.982,0.184 c-0.054-0.284-0.023-0.694,0.025-1.241c0.015-0.173,0.029-0.329,0.032-0.437c0.009-0.294-0.046-0.513-0.154-0.614 C21.788,6.984,21.458,7,21.104,7.012c-0.144,0.006-0.29,0.011-0.426,0.008c-0.173-0.004-0.4-0.026-0.61-0.164 c-0.271-0.175-0.435-0.501-0.438-0.872c-0.005-0.581,0.357-1.144,0.947-1.467c0.464-0.254,0.969-0.326,1.414-0.391l1.604-0.229 c0.674-0.097,2.08-0.301,2.917,0.592c0.459,0.488,0.622,1.217,0.414,1.854c-0.152,0.466-0.484,0.798-0.89,0.888 c-0.156,0.034-0.298,0.029-0.415,0.023c-0.039-0.002-0.092-0.004-0.125-0.002c0.014,0.016-0.001,0.092,0,0.257l0.005,2.26 L24.5,9.772z"/><path d="M14.199,11.554c-0.316-0.314-0.526-0.678-0.729-1.03c-0.112-0.194-0.223-0.389-0.354-0.569 c-0.257-0.352-0.687-0.653-1.012-0.545c-0.597,0.196-0.983,0.102-1.164-0.284c-0.073-0.152-0.07-0.3-0.069-0.37 c0.027-1.149,0.722-2.299,1.814-3.002c0.853-0.548,1.95-0.855,3.26-0.913c0.463-0.018,0.949-0.004,1.397,0.237 c0.589,0.318,0.894,0.989,0.708,1.56c-0.192,0.59-0.735,0.805-1.172,0.977c-0.266,0.104-0.542,0.214-0.609,0.363 c-0.086,0.191,0.123,0.569,0.191,0.693c0.242,0.438,0.515,0.863,0.81,1.266l-0.807,0.592c-0.32-0.437-0.615-0.898-0.878-1.373 c-0.142-0.258-0.52-0.94-0.228-1.589c0.235-0.52,0.745-0.721,1.154-0.883c0.278-0.109,0.542-0.213,0.588-0.355 c0.035-0.106-0.079-0.286-0.233-0.369c-0.234-0.127-0.56-0.135-0.878-0.118c-1.131,0.049-2.061,0.303-2.763,0.755 c-0.701,0.451-1.183,1.131-1.318,1.832c0.841-0.196,1.602,0.37,2.016,0.939c0.152,0.209,0.282,0.433,0.412,0.657 c0.178,0.31,0.347,0.602,0.568,0.821L14.199,11.554z"/><path d="M9.762,16.841c-0.29-0.281-0.989-0.799-1.335-0.962c-0.296-0.141-0.62-0.15-0.821-0.028 c-0.075,0.045-0.154,0.118-0.239,0.195c-0.096,0.088-0.192,0.176-0.298,0.251c-0.411,0.292-0.902,0.327-1.254,0.088 c-0.223-0.15-0.569-0.53-0.356-1.371c0.311-1.227,0.955-2.292,1.578-3.323c0.196-0.324,0.418-0.691,0.744-0.989 c0.413-0.377,0.922-0.558,1.397-0.499c0.385,0.047,0.712,0.257,0.875,0.562c0.067,0.128,0.109,0.276,0.123,0.442 c0.039,0.445-0.115,0.838-0.25,1.185c-0.234,0.599-0.165,0.799-0.103,0.868c0.108,0.122,0.431,0.201,0.714,0.271 c0.493,0.12,1.051,0.256,1.339,0.746l-0.861,0.508c-0.075-0.127-0.43-0.213-0.715-0.282c-0.427-0.104-0.911-0.223-1.227-0.58 c-0.569-0.643-0.21-1.558-0.093-1.858c0.12-0.305,0.219-0.558,0.2-0.771c-0.014-0.062-0.056-0.088-0.124-0.097 c-0.178-0.021-0.408,0.07-0.601,0.245c-0.219,0.2-0.394,0.489-0.563,0.769c-0.585,0.968-1.19,1.969-1.463,3.051 C6.392,15.4,6.39,15.496,6.395,15.547c0.014-0.02,0.055-0.037,0.096-0.065c0.071-0.051,0.135-0.111,0.199-0.171 c0.112-0.103,0.239-0.22,0.399-0.316c0.493-0.3,1.153-0.308,1.765-0.02c0.463,0.219,1.243,0.798,1.604,1.149L9.762,16.841z"/><path d="M5.035,24.914c-0.423,0-0.858-0.146-1.135-0.237c-0.144-0.048-0.384-0.128-0.559-0.348 c-0.205-0.257-0.206-0.565-0.206-0.731L3.12,21.068c-0.002-0.348-0.004-0.71,0.08-1.072c0.256-1.105,1.382-1.702,2.32-1.788 c0.53-0.053,0.964,0.145,1.163,0.518c0.13,0.247,0.119,0.496,0.112,0.662l-0.029,0.675c0.723-0.015,1.445-0.078,2.153-0.188 l0.154,0.988c-0.931,0.145-1.884,0.218-2.834,0.203c-0.135-0.001-0.265-0.058-0.358-0.156c-0.093-0.099-0.142-0.23-0.136-0.366 l0.052-1.198c0.002-0.041,0.005-0.124-0.001-0.157c0,0.018-0.038,0.012-0.099,0.013c-0.025,0-0.053,0.001-0.084,0.004 c-0.61,0.056-1.3,0.424-1.438,1.019c-0.058,0.247-0.056,0.521-0.054,0.812l0.015,2.559c0,0.027,0,0.091,0.005,0.128 c0.007-0.016,0.056,0,0.076,0.007c0.719,0.24,0.907,0.193,0.954,0.164c0.047-0.075,0.05-0.273,0.053-0.449 c0.005-0.355,0.014-0.893,0.488-1.201c0.272-0.176,0.57-0.178,0.788-0.179c0.846-0.005,1.641-0.099,2.144-0.253l0.292,0.957 c-0.851,0.26-1.972,0.293-2.415,0.296c-0.096,0-0.23,0.001-0.267,0.02c-0.025,0.044-0.028,0.252-0.03,0.376 c-0.004,0.295-0.01,0.662-0.22,0.983C5.768,24.802,5.406,24.914,5.035,24.914z"/><path d="M6.612,33.01c-0.244,0-0.508-0.062-0.786-0.183c-0.399-0.175-0.698-0.394-0.915-0.669 c-0.182-0.229-0.291-0.482-0.386-0.707c-0.297-0.693-0.605-1.41-0.834-2.162c-0.117-0.381-0.213-0.828-0.035-1.264 c0.109-0.266,0.297-0.46,0.448-0.599c0.462-0.424,0.948-0.657,1.444-0.693c0.681-0.044,1.313,0.314,1.552,0.884 c0.828-0.281,1.586-0.579,2.327-0.907l0.405,0.914c-0.812,0.359-1.645,0.685-2.474,0.966c-0.135,0.048-0.497,0.17-0.824-0.05 c-0.215-0.146-0.291-0.356-0.336-0.482c-0.088-0.222-0.334-0.356-0.578-0.326c-0.331,0.023-0.639,0.247-0.839,0.431 c-0.074,0.069-0.166,0.159-0.2,0.243c-0.058,0.143,0,0.378,0.066,0.591c0.214,0.7,0.511,1.393,0.798,2.062 c0.078,0.184,0.152,0.355,0.251,0.481c0.112,0.142,0.29,0.267,0.531,0.372c0.223,0.097,0.415,0.126,0.509,0.071 c0.08-0.045,0.146-0.187,0.167-0.353c0.019-0.157,0.009-0.315,0.001-0.475c-0.005-0.112-0.01-0.225-0.01-0.338 c0.001-0.117,0.003-0.39,0.178-0.622c0.187-0.25,0.467-0.325,0.619-0.365c0.349-0.091,0.817-0.225,1.285-0.357 c0.475-0.136,0.951-0.271,1.303-0.362l0.253,0.967c-0.347,0.091-0.815,0.225-1.283,0.357c-0.475,0.136-0.951,0.271-1.303,0.362 c-0.011,0.003-0.029,0.008-0.048,0.014c-0.002,0.134,0.001,0.216,0.005,0.298c0.01,0.215,0.018,0.429-0.008,0.643 c-0.061,0.495-0.304,0.897-0.668,1.103C7.044,32.958,6.837,33.01,6.612,33.01z"/><path d="M10.916,39.514c-0.468,0-0.905-0.245-1.091-0.349c-0.533-0.298-1.138-0.636-1.63-1.117 c-0.594-0.58-0.923-1.284-0.925-1.981c-0.001-0.5,0.171-0.929,0.487-1.209c0.338-0.3,0.833-0.42,1.353-0.319 c0.337,0.063,0.64,0.203,0.907,0.327l0.125,0.058c0.144,0.064,0.237,0.104,0.274,0.089c0.055-0.01,0.179-0.131,0.239-0.189 l1.438-1.397l0.697,0.717l-1.438,1.397c-0.16,0.156-0.403,0.392-0.758,0.457c-0.327,0.059-0.61-0.045-0.869-0.164l-0.129-0.06 c-0.235-0.108-0.457-0.211-0.671-0.252c-0.208-0.037-0.401-0.007-0.503,0.084c-0.096,0.085-0.152,0.256-0.152,0.458 c0.001,0.421,0.229,0.884,0.624,1.271c0.397,0.389,0.917,0.679,1.419,0.959c0.521,0.292,0.667,0.216,0.69,0.196 c0.083-0.064,0.071-0.32,0.06-0.567c-0.016-0.353-0.037-0.791,0.192-1.176c0.16-0.268,0.392-0.432,0.579-0.563l1.64-1.156 l0.576,0.818l-1.64,1.155c-0.121,0.085-0.246,0.173-0.295,0.257c-0.076,0.127-0.064,0.377-0.053,0.619 c0.02,0.429,0.047,1.016-0.44,1.399C11.397,39.45,11.153,39.514,10.916,39.514z"/><path d="M17.135,43.69c-0.057,0-0.115-0.003-0.173-0.008c-0.461-0.042-0.875-0.241-1.208-0.4l-1.161-0.556 c-0.287-0.138-0.61-0.292-0.889-0.546c-0.587-0.534-0.815-1.399-0.565-2.153c0.1-0.305,0.262-0.544,0.48-0.709 c0.481-0.361,1.03-0.254,1.472-0.168c0.269,0.052,0.522,0.1,0.687,0.041c0.237-0.087,0.398-0.449,0.53-0.781l0.301-0.757 l0.93,0.369l-0.302,0.758c-0.153,0.385-0.438,1.102-1.114,1.35c-0.427,0.157-0.85,0.075-1.223,0.002 c-0.345-0.067-0.563-0.104-0.678-0.015c-0.051,0.038-0.098,0.118-0.133,0.224c-0.124,0.373-0.002,0.836,0.289,1.1 c0.17,0.155,0.413,0.271,0.648,0.384l1.162,0.556c0.288,0.139,0.584,0.281,0.867,0.307c0.222,0.026,0.436-0.05,0.521-0.173 c0.113-0.165,0.066-0.428-0.022-0.84c-0.054-0.248-0.105-0.497-0.113-0.738c-0.028-0.823,0.595-1.749,1.008-2.362l0.843,0.539 c-0.333,0.494-0.868,1.29-0.852,1.789c0.006,0.184,0.05,0.373,0.091,0.561c0.104,0.483,0.235,1.085-0.131,1.618 C18.133,43.465,17.66,43.69,17.135,43.69z"/><path d="M23.605,44.434c-0.047,0-0.09-0.001-0.127-0.001l-1.782-0.021c-0.343-0.004-0.863-0.01-1.28-0.32 c-0.513-0.383-0.624-1.036-0.69-1.426c-0.033-0.192-0.082-0.482,0.023-0.775c0.26-0.72,1.129-0.796,1.414-0.821l0.668-0.06 c0.015-0.454,0-0.838-0.035-1.217l0.996-0.092c0.042,0.45,0.056,0.907,0.042,1.357c-0.005,0.143-0.017,0.521-0.319,0.759 c-0.195,0.155-0.419,0.174-0.539,0.184l-0.726,0.064c-0.512,0.045-0.561,0.163-0.561,0.164c-0.016,0.046,0.007,0.186,0.021,0.27 c0.056,0.327,0.125,0.658,0.302,0.791c0.145,0.107,0.4,0.119,0.694,0.122l1.782,0.021c0.75,0.006,1.147-0.109,1.281-0.367 c0.035-0.067,0.046-0.146,0.029-0.206c-0.018-0.063-0.074-0.149-0.133-0.239l-0.064-0.1c-0.456-0.73-0.641-2.137-0.396-3.01 l0.963,0.27c-0.168,0.602-0.026,1.717,0.281,2.21c0.142,0.217,0.252,0.386,0.312,0.596c0.086,0.305,0.048,0.647-0.104,0.94 C25.217,44.376,24.138,44.434,23.605,44.434z"/><path d="M28.762,44.541c-0.248,0-0.498-0.032-0.743-0.124c-0.552-0.205-1.059-0.772-0.959-1.46 c0.115-0.803,0.951-1.145,1.265-1.273l0.021-0.01c-0.084-0.617-0.421-1.848-0.667-2.355l0.9-0.436 c0.309,0.637,0.689,2.037,0.753,2.773c0.008,0.093,0.023,0.264-0.051,0.448c-0.13,0.324-0.434,0.447-0.58,0.506 c-0.409,0.167-0.629,0.333-0.652,0.49c-0.019,0.13,0.132,0.311,0.318,0.379c0.266,0.1,0.61,0.062,0.939,0.006 c0.937-0.157,1.872-0.437,2.78-0.831c0.188-0.081,0.241-0.123,0.253-0.145c0.01-0.05-0.082-0.253-0.351-0.461 c-0.158-0.123-0.342-0.252-0.508-0.275l-0.1-0.009c-0.156-0.011-0.37-0.025-0.578-0.161c-0.28-0.184-0.38-0.483-0.435-0.645 c-0.083-0.246-0.206-0.647-0.329-1.048c-0.119-0.391-0.238-0.78-0.32-1.021l0.947-0.32c0.083,0.247,0.207,0.648,0.329,1.049 c0.119,0.391,0.238,0.78,0.32,1.021c0.01,0.03,0.034,0.101,0.052,0.136c0.001-0.013,0.048-0.01,0.082-0.008 c0.057,0.004,0.114,0.008,0.169,0.016c0.4,0.056,0.722,0.271,0.983,0.476c0.672,0.521,0.911,1.205,0.607,1.742 c-0.19,0.339-0.539,0.489-0.726,0.571c-0.983,0.426-1.997,0.729-3.014,0.899C29.241,44.51,29.002,44.541,28.762,44.541z"/><path d="M36.241,41.013c-0.242,0-0.474-0.044-0.682-0.133c-0.438-0.187-0.744-0.566-0.796-0.99 c-0.061-0.494,0.21-0.878,0.428-1.186c0.118-0.167,0.265-0.375,0.241-0.463c-0.02-0.075-0.175-0.204-0.259-0.273 c-0.183-0.152-0.398-0.349-0.615-0.545c-0.207-0.188-0.413-0.376-0.587-0.521l0.64-0.77c0.184,0.153,0.402,0.352,0.62,0.55 c0.205,0.187,0.41,0.372,0.582,0.517c0.193,0.16,0.484,0.402,0.585,0.785c0.144,0.54-0.165,0.977-0.391,1.297 c-0.125,0.176-0.266,0.376-0.253,0.486c0.007,0.057,0.083,0.144,0.196,0.192c0.203,0.086,0.482,0.068,0.764-0.05 c0.304-0.128,0.591-0.354,0.868-0.574l0.769-0.607c0.622-0.493,1.188-0.986,1.261-1.59c0.016-0.128-0.005-0.217-0.03-0.245 c-0.033-0.037-0.167-0.088-0.473-0.048l-0.167,0.022c-0.473,0.066-1.058,0.15-1.554-0.201c-0.208-0.148-0.462-0.409-0.757-0.712 c-0.248-0.256-0.624-0.642-0.774-0.723l0.472-0.881c0.267,0.143,0.577,0.451,1.02,0.906c0.227,0.233,0.485,0.498,0.619,0.593 c0.171,0.123,0.508,0.074,0.834,0.027l0.181-0.024c0.604-0.079,1.056,0.049,1.345,0.373c0.229,0.256,0.328,0.623,0.277,1.033 c-0.119,0.979-0.872,1.65-1.633,2.253l-0.769,0.607c-0.314,0.249-0.671,0.531-1.1,0.712C36.819,40.952,36.523,41.013,36.241,41.013 z"/><path d="M41.7,34.842c-0.063,0-0.125-0.005-0.189-0.017c-0.521-0.093-0.905-0.574-1.005-1.257l-0.03-0.249 c-0.024-0.232-0.049-0.453-0.141-0.573c-0.153-0.203-0.796-0.316-1.221-0.391c-0.341-0.06-0.663-0.116-0.928-0.217l0.355-0.936 c0.176,0.067,0.452,0.116,0.745,0.167c0.682,0.12,1.455,0.256,1.845,0.771c0.259,0.341,0.303,0.745,0.338,1.069l0.026,0.213 c0.037,0.258,0.144,0.409,0.189,0.417c0.054,0.004,0.239-0.161,0.389-0.542c0.311-0.79,0.567-1.608,0.765-2.433 c0.059-0.246,0.107-0.482,0.057-0.66c-0.023-0.084-0.096-0.149-0.125-0.155c-0.035,0.006-0.15,0.116-0.218,0.182 c-0.117,0.112-0.25,0.24-0.427,0.338c-0.506,0.276-1.08,0.139-1.424,0.058c-0.227-0.055-0.569-0.153-0.913-0.251 c-0.327-0.095-0.654-0.188-0.871-0.24l0.234-0.973c0.227,0.055,0.569,0.153,0.913,0.251c0.327,0.095,0.654,0.188,0.871,0.24 c0.273,0.064,0.553,0.121,0.708,0.038c0.061-0.033,0.135-0.105,0.214-0.182c0.176-0.169,0.416-0.399,0.777-0.451 c0.524-0.085,1.057,0.298,1.222,0.872c0.116,0.41,0.041,0.801-0.046,1.165c-0.208,0.87-0.479,1.733-0.806,2.566 C42.708,34.424,42.239,34.842,41.7,34.842z"/><path fill="#38b47b" d="M36.673,17.416c-1.795-2.955-4.446-4.848-7.63-6.233c-2.503-1.089-5.227-1.749-7.959-1.653 s-5.47,0.984-7.573,2.719c-0.723,0.597-1.365,1.286-1.97,2.001c-1.18,1.396-2.248,2.946-2.697,4.713 c-0.251,0.991-0.3,2.023-0.277,3.045c0.108,4.793,1.846,9.58,5.056,13.161c0.8,0.893,1.693,1.714,2.718,2.341 c0.845,0.518,1.771,0.898,2.717,1.199c5.164,1.645,11.187,0.798,15.378-2.619c4.191-3.418,6.196-9.443,4.411-14.528 C38.287,19.965,37.553,18.864,36.673,17.416z"/><path d="M24.285,40.012c-1.808,0-3.631-0.27-5.379-0.826c-1.102-0.351-2.026-0.759-2.826-1.248 c-0.965-0.593-1.89-1.389-2.828-2.435c-3.181-3.547-5.07-8.462-5.184-13.483c-0.028-1.271,0.064-2.28,0.292-3.18 c0.401-1.581,1.265-3.096,2.799-4.912c0.739-0.874,1.385-1.529,2.034-2.064c2.085-1.721,4.881-2.727,7.873-2.833 c2.632-0.085,5.378,0.477,8.176,1.693c3.664,1.595,6.161,3.639,7.858,6.433l0.317,0.52c0.748,1.218,1.393,2.271,1.901,3.721 c1.796,5.116-0.125,11.458-4.567,15.081C31.924,38.783,28.139,40.012,24.285,40.012z M21.621,10.021 c-0.174,0-0.347,0.003-0.52,0.01c-2.772,0.098-5.355,1.022-7.271,2.604c-0.602,0.496-1.208,1.111-1.907,1.938 c-1.432,1.694-2.231,3.086-2.593,4.513c-0.206,0.809-0.289,1.734-0.262,2.911c0.108,4.786,1.904,9.466,4.928,12.838 c0.873,0.974,1.725,1.709,2.606,2.25c0.73,0.446,1.583,0.822,2.607,1.147c5.159,1.644,11.011,0.649,14.911-2.53 c4.126-3.365,5.917-9.242,4.255-13.975c-0.473-1.35-1.063-2.312-1.81-3.529l-0.319-0.522c-1.585-2.609-3.938-4.526-7.403-6.035 C26.369,10.565,23.942,10.021,21.621,10.021z"/><path fill="#8a4581" d="M18.48,13.986c-0.768,0.114-1.554,0.514-1.766,1.261c-0.212,0.747,0.161,1.612,0.84,1.99 c0.42,0.234,0.935,0.289,1.395,0.149c0.389-0.119,0.73-0.369,0.996-0.678c0.559-0.651,0.755-1.688,0.225-2.362 C19.782,13.853,19.102,13.894,18.48,13.986z"/><path d="M18.43,17.964c-0.388,0-0.776-0.098-1.12-0.29c-0.888-0.494-1.351-1.597-1.077-2.563c0.24-0.847,1.053-1.452,2.173-1.618 l0,0c0.5-0.075,1.545-0.232,2.157,0.545c0.724,0.923,0.417,2.233-0.239,2.998c-0.348,0.404-0.773,0.691-1.229,0.83 C18.878,17.932,18.654,17.964,18.43,17.964z M19.129,14.43c-0.16,0-0.349,0.018-0.575,0.051l0,0 c-0.557,0.083-1.206,0.363-1.359,0.903c-0.146,0.515,0.125,1.15,0.602,1.417c0.302,0.167,0.676,0.208,1.005,0.107 c0.276-0.083,0.54-0.265,0.763-0.525c0.394-0.458,0.587-1.249,0.212-1.728C19.657,14.503,19.457,14.43,19.129,14.43z"/><path fill="#8a4581" d="M27.082,15.544c-0.981-0.121-1.567,0.04-2.117,0.861c-0.55,0.821-0.466,2.015,0.203,2.743 s1.862,0.909,2.71,0.401c0.187-0.112,0.358-0.254,0.486-0.43c0.14-0.192,0.224-0.417,0.3-0.642 c0.167-0.493,0.302-1.025,0.176-1.529C28.607,16.019,28.031,15.661,27.082,15.544z"/><path d="M26.802,20.334c-0.744,0-1.494-0.295-2.002-0.849c-0.824-0.896-0.932-2.34-0.25-3.358c0.718-1.073,1.554-1.212,2.593-1.079 c0.77,0.095,1.833,0.383,2.181,1.778c0.16,0.637-0.005,1.272-0.187,1.811c-0.083,0.243-0.186,0.523-0.369,0.776 c-0.159,0.218-0.372,0.407-0.633,0.564C27.733,20.218,27.269,20.334,26.802,20.334z M26.563,16.008 c-0.555,0-0.857,0.188-1.183,0.676c-0.425,0.635-0.357,1.568,0.155,2.125c0.508,0.556,1.443,0.694,2.084,0.312 c0.146-0.088,0.26-0.188,0.338-0.295c0.101-0.14,0.17-0.328,0.231-0.509c0.143-0.421,0.261-0.862,0.165-1.248 c-0.165-0.658-0.514-0.927-1.333-1.028C26.851,16.02,26.699,16.008,26.563,16.008z"/><path fill="#8a4581" d="M15.127,19.842c-0.24-0.208-0.752-0.388-1.052-0.272c-0.301,0.115-0.545,0.333-0.772,0.553 c-0.201,0.195-0.402,0.408-0.473,0.673c-0.11,0.411,0.117,0.83,0.352,1.19c0.08,0.123,0.165,0.247,0.283,0.339 c0.298,0.231,0.752,0.196,1.077,0.002c0.325-0.195,0.542-0.517,0.714-0.845C15.498,21.016,15.53,20.191,15.127,19.842z"/><path d="M13.975,22.984c-0.301,0-0.591-0.088-0.818-0.264c-0.19-0.148-0.313-0.337-0.395-0.462 c-0.295-0.451-0.577-0.994-0.417-1.592c0.1-0.374,0.352-0.655,0.609-0.903c0.247-0.24,0.545-0.51,0.941-0.661 c0.541-0.206,1.249,0.093,1.558,0.361h0c0.638,0.553,0.551,1.662,0.243,2.25c-0.165,0.314-0.438,0.765-0.899,1.041 C14.543,22.908,14.254,22.984,13.975,22.984z M14.295,20.032c-0.018,0-0.033,0.002-0.044,0.005 c-0.217,0.083-0.416,0.266-0.601,0.445c-0.144,0.139-0.299,0.298-0.338,0.442c-0.059,0.219,0.123,0.535,0.288,0.786 c0.051,0.078,0.114,0.175,0.172,0.22c0.109,0.085,0.34,0.071,0.512-0.033c0.19-0.113,0.353-0.313,0.528-0.648 c0.168-0.32,0.162-0.879-0.012-1.029C14.67,20.108,14.417,20.032,14.295,20.032z"/><path fill="#8a4581" d="M15.318,26.52c-0.934,0.064-1.79,0.824-1.753,1.721c0.02,0.488,0.262,0.939,0.499,1.372 c0.095,0.174,0.192,0.349,0.332,0.492c0.232,0.236,0.568,0.361,0.905,0.393c0.794,0.077,1.615-0.369,1.953-1.062 c0.338-0.693,0.169-1.583-0.402-2.118C16.578,27.061,16.165,26.461,15.318,26.52z"/><path d="M15.485,31.006c-0.078,0-0.155-0.004-0.233-0.011c-0.485-0.047-0.917-0.239-1.213-0.541 c-0.189-0.192-0.309-0.41-0.414-0.602c-0.238-0.435-0.534-0.976-0.56-1.592c-0.047-1.128,0.968-2.153,2.217-2.24l0,0 c0.963-0.058,1.503,0.508,1.797,0.816l0.114,0.116c0.727,0.68,0.941,1.816,0.509,2.701C17.304,30.473,16.415,31.006,15.485,31.006z M15.435,27.016c-0.027,0-0.054,0.001-0.083,0.003l0,0c-0.698,0.048-1.312,0.62-1.288,1.201c0.016,0.382,0.24,0.791,0.438,1.152 c0.081,0.147,0.157,0.286,0.25,0.38c0.131,0.134,0.348,0.224,0.597,0.247c0.586,0.066,1.21-0.28,1.456-0.783 c0.241-0.493,0.114-1.151-0.293-1.533c-0.048-0.045-0.098-0.098-0.153-0.155C16.073,27.229,15.835,27.016,15.435,27.016z"/><path fill="#8a4581" d="M23.228,23.07c-0.797-0.517-1.596-0.421-2.373,0.122c-0.777,0.544-1.107,1.586-0.772,2.44 c0.128,0.328,0.342,0.621,0.589,0.882c0.441,0.465,1.055,0.849,1.717,0.81c0.94-0.056,1.588-0.92,1.887-1.758 c0.111-0.312,0.196-0.641,0.148-0.967C24.315,23.85,23.891,23.499,23.228,23.07z"/><path d="M22.293,27.827c-0.925,0-1.635-0.601-1.985-0.97c-0.324-0.343-0.55-0.684-0.691-1.043 c-0.421-1.077-0.021-2.352,0.952-3.032c0.987-0.689,2-0.733,2.931-0.133c0.691,0.448,1.276,0.899,1.418,1.878 c0.067,0.456-0.057,0.885-0.172,1.207c-0.344,0.963-1.136,2.018-2.327,2.089C22.377,27.826,22.335,27.827,22.293,27.827z M22.154,23.229c-0.324,0-0.656,0.124-1.012,0.372c-0.59,0.413-0.845,1.207-0.594,1.848c0.093,0.237,0.252,0.474,0.486,0.721 c0.198,0.208,0.711,0.675,1.325,0.655c0.705-0.043,1.208-0.765,1.445-1.427c0.076-0.214,0.159-0.488,0.124-0.726 c-0.076-0.519-0.321-0.762-0.973-1.184l0,0C22.689,23.316,22.425,23.229,22.154,23.229z"/><path fill="#8a4581" d="M34.102,19.856c-0.652-0.237-1.163,0.054-1.455,0.684c-0.292,0.629-0.129,1.41,0.304,1.953 c0.423,0.53,1.12,0.862,1.789,0.751c0.669-0.111,1.251-0.718,1.239-1.396c-0.009-0.514-0.281-1.018-0.696-1.323 C34.868,20.219,34.586,20.032,34.102,19.856z"/><path d="M34.483,23.764c-0.714,0-1.441-0.355-1.922-0.96c-0.582-0.73-0.726-1.702-0.367-2.476c0.417-0.896,1.213-1.256,2.079-0.942 l0,0c0.562,0.204,0.896,0.434,1.306,0.734c0.544,0.401,0.889,1.06,0.9,1.718c0.016,0.907-0.711,1.741-1.656,1.898 C34.71,23.755,34.597,23.764,34.483,23.764z M33.67,20.272c-0.192,0-0.396,0.104-0.569,0.478c-0.198,0.426-0.101,1.001,0.242,1.431 c0.332,0.416,0.862,0.646,1.316,0.569c0.452-0.075,0.827-0.484,0.82-0.895c-0.006-0.354-0.195-0.71-0.493-0.93 c-0.412-0.303-0.649-0.453-1.055-0.601l0,0C33.85,20.296,33.761,20.272,33.67,20.272z"/><path fill="#8a4581" d="M35.606,27.765c-0.401-0.325-0.855-0.253-1.299,0.015c-0.85,0.513-1.434,1.405-1.545,2.356 c-0.034,0.296-0.019,0.617,0.161,0.861c0.217,0.296,0.621,0.41,1,0.441c0.265,0.022,0.537,0.011,0.787-0.074 c0.479-0.163,0.816-0.578,1.032-1.015C36.145,29.532,36.324,28.356,35.606,27.765"/><path d="M34.149,31.947c-0.086,0-0.175-0.004-0.268-0.012c-0.62-0.051-1.091-0.273-1.362-0.643 c-0.227-0.309-0.313-0.718-0.254-1.216c0.128-1.108,0.795-2.127,1.782-2.725c0.919-0.555,1.568-0.223,1.873,0.023l0.003,0.003 c0.905,0.746,0.786,2.141,0.266,3.191c-0.317,0.644-0.774,1.082-1.319,1.267C34.656,31.91,34.418,31.947,34.149,31.947z M35.021,28.049c-0.11,0-0.257,0.039-0.457,0.159c-0.713,0.432-1.214,1.192-1.306,1.985c-0.027,0.235-0.004,0.41,0.067,0.508 c0.092,0.125,0.325,0.212,0.638,0.238c0.241,0.019,0.432,0.004,0.583-0.049c0.367-0.125,0.608-0.483,0.746-0.764 c0.344-0.695,0.453-1.596-0.003-1.975C35.24,28.112,35.161,28.049,35.021,28.049z"/><path fill="#8a4581" d="M27.676,32.524c-1.09,0.005-1.756,0.47-2.035,1.525c-0.152,0.574-0.038,1.252,0.416,1.635 c0.456,0.385,1.124,0.384,1.706,0.257c0.261-0.057,0.522-0.138,0.748-0.281c0.806-0.513,0.918-1.742,0.406-2.549 C28.7,32.767,28.082,32.522,27.676,32.524z"/><path d="M27.102,36.517c-0.546,0-1.011-0.151-1.366-0.45c-0.568-0.479-0.794-1.321-0.577-2.146 c0.331-1.252,1.177-1.891,2.516-1.896l0,0c0.002,0,0.005,0,0.007,0c0.55,0,1.338,0.312,1.659,0.818 c0.615,0.971,0.537,2.54-0.56,3.239c-0.321,0.204-0.673,0.296-0.91,0.347C27.599,36.487,27.342,36.517,27.102,36.517z M27.679,33.023c-0.889,0.004-1.338,0.338-1.554,1.152c-0.116,0.438-0.011,0.901,0.254,1.126c0.354,0.297,0.952,0.222,1.277,0.149 c0.259-0.057,0.445-0.124,0.587-0.214c0.574-0.366,0.607-1.301,0.252-1.86c-0.105-0.166-0.538-0.354-0.813-0.354 C27.681,33.023,27.68,33.023,27.679,33.023L27.679,33.023z"/><path fill="#8a4581" d="M29.508,25.701c-0.591-0.235-1.071-0.239-1.545,0.176c-0.474,0.415-0.629,1.136-0.365,1.7 c0.272,0.581,0.973,0.946,1.621,0.833s1.177-0.701,1.193-1.338S29.977,25.887,29.508,25.701z"/><path d="M28.983,28.931c-0.763,0-1.515-0.453-1.837-1.142c-0.357-0.764-0.152-1.726,0.488-2.288c0.76-0.667,1.539-0.47,2.058-0.265 l0,0c0.622,0.246,1.241,0.96,1.22,1.847c-0.021,0.867-0.727,1.666-1.607,1.819C29.199,28.921,29.091,28.931,28.983,28.931z M28.793,26.041c-0.206,0-0.351,0.081-0.5,0.212c-0.308,0.271-0.412,0.749-0.242,1.112c0.177,0.378,0.663,0.63,1.083,0.553 c0.42-0.073,0.769-0.459,0.779-0.859c0.01-0.409-0.292-0.775-0.588-0.893l0,0C29.104,26.079,28.935,26.041,28.793,26.041z"/><path fill="#8a4581" d="M21.661,31.906c-0.568-0.503-1.657-0.383-2.28,0.05c-0.623,0.433-0.878,1.324-0.577,2.021 c0.049,0.113,0.11,0.22,0.181,0.32c0.331,0.464,0.886,0.755,1.455,0.787c0.807,0.046,1.623-0.449,1.938-1.193 S22.266,32.442,21.661,31.906z"/><path d="M20.547,35.587c-0.045,0-0.09-0.001-0.136-0.004c-0.733-0.041-1.418-0.414-1.834-0.996 c-0.095-0.135-0.174-0.273-0.234-0.414c-0.392-0.908-0.062-2.063,0.752-2.628c0.787-0.548,2.139-0.684,2.896-0.014l0,0 c0.904,0.8,1.205,1.706,0.846,2.554C22.458,34.984,21.529,35.587,20.547,35.587z M20.661,32.077c-0.353,0-0.739,0.111-0.995,0.289 c-0.43,0.299-0.611,0.932-0.404,1.412c0.033,0.077,0.077,0.153,0.13,0.229c0.237,0.331,0.649,0.553,1.076,0.577 c0.579,0.026,1.22-0.349,1.449-0.89c0.228-0.538-0.194-1.066-0.587-1.414l0-0.001C21.169,32.139,20.924,32.077,20.661,32.077z"/></svg>