<svg xmlns="http://www.w3.org/2000/svg" enable-background="new 0 0 24 24" viewBox="0 0 24 24" id="r-project"><linearGradient id="a" x1="-1812.841" x2="-1811.841" y1="-2187.047" y2="-2187.047" gradientTransform="matrix(12.7555 9.3608 -14.2385 8.3859 -8008.242 35316.055)" gradientUnits="userSpaceOnUse"><stop offset="0" stop-color="#c9cbce"></stop><stop offset="1" stop-color="#7b7a81"></stop></linearGradient><path fill="url(#a)" d="M12,2.956v3.077c0.485-0.051,0.986-0.077,1.5-0.077c6.314,0,9.241,2.429,9.241,5.429c0,3-3.226,5.571-8.741,5.571c-0.684,0-1.354-0.047-2-0.135v1.914c6.486-0.011,12-3.286,12-7.778C24,6.456,18.5,2.956,12,2.956L12,2.956z"></path><linearGradient id="b" x1="-1812.841" x2="-1811.841" y1="-2186.84" y2="-2186.84" gradientTransform="matrix(12.7555 9.3608 -14.2385 8.3859 -8008.242 35316.055)" gradientUnits="userSpaceOnUse"><stop offset="0" stop-color="#afb1b3"></stop><stop offset="1" stop-color="#6b6a70"></stop></linearGradient><path fill="url(#b)" d="M12,2.956c-6.5,0-12,3.5-12,8l0,0c0,4.25,5.467,7.778,11.967,7.778c0.011,0,0.022,0,0.033,0V16.82c-4.083-0.559-7.249-2.78-7.249-5.369c0-2.692,3.018-4.977,7.249-5.419V2.956L12,2.956L12,2.956z"></path><path fill="#2165B6" d="M9.933,7.815v13.229h3.998v-5.145c0.999,0,1.595-0.218,2.248,0.979c1,1.715,2.249,4.165,2.249,4.165h4.747c0,0-2.998-4.9-3.248-5.145c-0.461-0.49-0.999-0.49-1.749-0.735c1.499-0.244,2.897-0.866,3.383-2.2c0.425-1.224,0.375-2.783-0.536-3.828c-0.788-0.826-1.598-1.321-3.597-1.321H9.933L9.933,7.815z M13.931,10.57h2.623c0.622,0,1.124,0.612,1.124,1.224c0,0.612-0.499,1.225-1.124,1.225h-2.623V10.57L13.931,10.57z"></path><path fill="#1D589E" d="M15.586,7.815H9.933v13.229h3.998v-5.145c0.266,0,0.504-0.016,0.722-0.016c0.351,0,0.649,0.04,0.933,0.249V13.02h-1.655V10.57h1.655V7.815L15.586,7.815z"></path></svg>