<svg xmlns="http://www.w3.org/2000/svg" viewBox="0 0 50 50" id="sql-server"><path fill="#525252" d="M40.3 33.9h-1.5v-8.2H11.2v8.2H9.7v-9.7h30.6z"></path><path fill="#cdcccc" d="M19.9 41.6v5.3c0 1.2-4.2 2.1-9.4 2.1S1 48.1 1 46.9v-5.3h18.9z"></path><ellipse cx="10.4" cy="41.6" fill="#e6e6e5" rx="9.4" ry="2.1"></ellipse><path fill="#6ab7e6" d="M18.7 36.4V41c0 1-3.7 1.9-8.3 1.9S2.2 42 2.2 41v-4.6h16.5z"></path><ellipse cx="10.4" cy="36.4" fill="#676767" rx="8.3" ry="1.9"></ellipse><path fill="#cdcccc" d="M19.9 33.9v5.3c0 1.2-4.2 2.1-9.4 2.1S1 40.3 1 39.2v-5.3h18.9z"></path><ellipse cx="10.4" cy="33.9" fill="#e6e6e5" rx="9.4" ry="2.1"></ellipse><path fill="#cdcccc" d="M49 41.6v5.3c0 1.2-4.2 2.1-9.4 2.1s-9.4-.9-9.4-2.1v-5.3H49z"></path><ellipse cx="39.6" cy="41.6" fill="#e6e6e5" rx="9.4" ry="2.1"></ellipse><path fill="#9b7cab" d="M47.8 36.4V41c0 1-3.7 1.9-8.3 1.9s-8.2-.9-8.2-1.9v-4.6h16.5z"></path><ellipse cx="39.6" cy="36.4" fill="#676767" rx="8.3" ry="1.9"></ellipse><path fill="#cdcccc" d="M49 33.9v5.3c0 1.2-4.2 2.1-9.4 2.1s-9.4-.9-9.4-2.1v-5.3H49z"></path><ellipse cx="39.6" cy="33.9" fill="#e6e6e5" rx="9.4" ry="2.1"></ellipse><path fill="#525252" d="M24.3 14.5h1.5V25h-1.5z"></path><path fill="#cdcccc" d="M34.4 10.8v5.3c0 1.2-4.2 2.1-9.4 2.1s-9.4-.9-9.4-2.1v-5.3h18.8z"></path><ellipse cx="25" cy="10.8" fill="#e6e6e5" rx="9.4" ry="2.1"></ellipse><path fill="#ed7161" d="M33.3 5.6v4.6c0 1-3.7 1.9-8.3 1.9s-8.3-.8-8.3-1.9V5.6h16.6z"></path><ellipse cx="25" cy="5.6" fill="#676767" rx="8.3" ry="1.9"></ellipse><path fill="#cdcccc" d="M34.4 3.1v5.3c0 1.2-4.2 2.1-9.4 2.1s-9.4-.9-9.4-2.1V3.1h18.8z"></path><ellipse cx="25" cy="3.1" fill="#e6e6e5" rx="9.4" ry="2.1"></ellipse><circle cx="25" cy="25" r="2.2" fill="#525252"></circle><circle cx="39.6" cy="25" r="2.2" fill="#525252"></circle><circle cx="10.4" cy="25" r="2.2" fill="#525252"></circle></svg>