<svg xmlns="http://www.w3.org/2000/svg"  viewBox="0 0 58 53" width="94px" height="94px"><path fill="#e7eced" d="M16,18c-0.219,0-0.44-0.072-0.624-0.219l-10-8C4.944,9.436,4.874,8.807,5.219,8.375 c0.345-0.433,0.975-0.501,1.405-0.156l10,8c0.432,0.345,0.501,0.974,0.156,1.405C16.583,17.872,16.292,18,16,18z"/><path fill="#e7eced" d="M43,18c-0.228,0-0.458-0.078-0.646-0.237c-0.421-0.356-0.474-0.987-0.117-1.409l11-13 c0.356-0.421,0.987-0.475,1.409-0.117c0.421,0.356,0.474,0.987,0.117,1.409l-11,13C43.565,17.88,43.284,18,43,18z"/><path fill="#e7eced" d="M45.999,49c-0.185,0-0.373-0.051-0.54-0.159l-14-9c-0.465-0.299-0.599-0.917-0.301-1.382 c0.299-0.465,0.917-0.599,1.382-0.301l14,9c0.465,0.299,0.599,0.917,0.301,1.382C46.65,48.838,46.328,49,45.999,49z"/><path fill="#e7eced" d="M5,49c-0.219,0-0.44-0.072-0.624-0.219c-0.432-0.345-0.501-0.974-0.156-1.405l12-15 c0.345-0.432,0.975-0.5,1.405-0.156c0.432,0.345,0.501,0.974,0.156,1.405l-12,15C5.583,48.872,5.292,49,5,49z"/><path fill="#e7eced" d="M20.001,18c-0.333,0-0.659-0.167-0.849-0.47c-0.292-0.468-0.15-1.085,0.318-1.378l8-5 c0.468-0.292,1.085-0.15,1.378,0.318c0.292,0.468,0.15,1.085-0.318,1.378l-8,5C20.365,17.951,20.182,18,20.001,18z"/><path fill="#e7eced" d="M39.999,18c-0.181,0-0.364-0.049-0.529-0.152l-8-5c-0.469-0.293-0.611-0.91-0.318-1.378 c0.293-0.469,0.911-0.611,1.378-0.318l8,5c0.469,0.293,0.611,0.91,0.318,1.378C40.658,17.833,40.333,18,39.999,18z"/><path fill="#e7eced" d="M42,31c-0.552,0-1-0.448-1-1V20c0-0.552,0.448-1,1-1s1,0.448,1,1v10C43,30.552,42.552,31,42,31z"/><path fill="#e7eced" d="M33.564,37.218c-0.367,0-0.72-0.202-0.896-0.553c-0.247-0.494-0.047-1.095,0.447-1.342l4.873-2.437 c0.495-0.247,1.095-0.046,1.342,0.447c0.247,0.494,0.047,1.095-0.447,1.342l-4.873,2.437 C33.867,37.185,33.714,37.218,33.564,37.218z"/><path fill="#e7eced" d="M26.435,37.218c-0.15,0-0.303-0.034-0.446-0.105l-4.873-2.437c-0.494-0.247-0.694-0.848-0.447-1.342 c0.247-0.494,0.847-0.694,1.342-0.447l4.873,2.437c0.494,0.247,0.694,0.848,0.447,1.342C27.155,37.016,26.802,37.218,26.435,37.218 z"/><path fill="#e7eced" d="M18,31c-0.552,0-1-0.448-1-1V20c0-0.552,0.448-1,1-1s1,0.448,1,1v10C19,30.552,18.552,31,18,31z"/><circle cx="30" cy="11" r="4" fill="#ebba16"/><circle cx="30" cy="38" r="4" fill="#c5411e"/><circle cx="42" cy="18" r="4" fill="#b02721"/><circle cx="18" cy="18" r="4" fill="#ed8a19"/><circle cx="4" cy="8" r="4" fill="#366db6"/><circle cx="54" cy="4" r="4" fill="#25ae88"/><circle cx="48" cy="49" r="4" fill="#57abc1"/><circle cx="4" cy="49" r="4" fill="#f76363"/><circle cx="42" cy="32" r="4" fill="#dd352e"/><circle cx="18" cy="32" r="4" fill="#dc691d"/></svg>