<svg xmlns="http://www.w3.org/2000/svg" width="64" height="64" viewBox="0 0 16.933 16.933" id="matlab"><g transform="translate(-214.313 -431.367) scale(.26458)"><path d="m 850.00114,1636.3618 c -1.287,0 -2.18409,0.9307 -2.92002,1.9902 -0.73592,1.0596 -1.39107,2.402 -2.07624,3.8242 -1.37032,2.8445 -2.90325,5.9937 -4.63687,7.4102 -0.77773,0.6354 -1.87441,0.9842 -3.1212,1.3398 -1.24678,0.3557 -2.6389,0.7159 -3.85169,1.6387 -1.04281,0.7935 -2.03169,2.0758 -2.84189,3.1953 -0.70782,0.9781 -1.09908,1.6128 -1.22465,1.8125 l -14.75243,6.8828 a 1.000134,1.0001013 0 0 0 -0.20899,1.6797 l 11.00036,9 a 1.000134,1.0001013 0 0 0 0.8555,0.2012 c 0,0 0.65429,-0.1483 1.43559,-0.2227 0.7813,-0.074 1.69743,0.034 1.85358,0.1211 1.79508,1.0031 3.84364,4.1243 5.25603,6.9981 1.41239,2.8737 2.28522,5.4492 2.28522,5.4492 a 1.000134,1.0001013 0 0 0 1.57233,0.4609 c 0,0 6.6669,-5.3334 10.00032,-8 1.82043,-1.4562 3.26403,-3.4475 4.75407,-5.0273 1.49003,-1.5798 2.92506,-2.6808 4.66421,-2.7559 1.81481,-0.079 4.49352,1.691 6.57248,3.6504 2.07896,1.9594 3.58605,3.9531 3.58605,3.9531 a 1.000134,1.0001013 0 0 0 1.70514,-1.0234 c 0,0 -4.02464,-8.6579 -5.99629,-12.9922 -2.14353,-4.7121 -4.40065,-11.9645 -6.61545,-18.0449 -1.1074,-3.0402 -2.2011,-5.7879 -3.31261,-7.8418 -0.55576,-1.027 -1.11213,-1.8823 -1.72857,-2.5352 -0.61645,-0.6528 -1.35067,-1.164 -2.25398,-1.164 z m 0,2 c 0.0967,0 0.38215,0.094 0.8008,0.5371 0.41867,0.4434 0.91408,1.1748 1.42193,2.1133 1.01569,1.8768 2.09908,4.5697 3.19346,7.5742 2.18877,6.0089 4.43109,13.2588 6.67404,18.1894 1.12715,2.4779 2.08406,4.5271 3.41613,7.4024 -2.14823,-1.9648 -4.75332,-3.9377 -7.54907,-3.8164 -2.52573,0.1089 -4.42286,1.6752 -6.0334,3.3828 -1.61055,1.7076 -3.03596,3.6256 -4.54898,4.8359 -2.98911,2.3912 -7.82767,6.2623 -8.96709,7.1739 -0.3041,-0.846 -0.70254,-2.0783 -1.84576,-4.4043 -1.47729,-3.0058 -3.42766,-6.3824 -6.07442,-7.8614 -1.00783,-0.5631 -2.09186,-0.4554 -3.01963,-0.3672 -0.64606,0.062 -0.89304,0.128 -1.17777,0.1856 l -9.4261,-7.7129 13.55905,-6.3262 a 1.000134,1.0001013 0 0 0 0.42579,-0.3789 c 0,0 0.55904,-0.8996 1.32426,-1.957 0.76523,-1.0574 1.77595,-2.2764 2.43172,-2.7754 0.80749,-0.6144 1.93277,-0.9501 3.18956,-1.3086 1.25679,-0.3585 2.64987,-0.7421 3.83801,-1.7129 2.34784,-1.9183 3.81456,-5.268 5.174,-8.0898 0.67973,-1.411 1.32092,-2.6939 1.91609,-3.5508 0.59516,-0.8569 1.06433,-1.1328 1.27738,-1.1328 z" style="line-height:normal;font-variant-ligatures:normal;font-variant-position:normal;font-variant-caps:normal;font-variant-numeric:normal;font-variant-alternates:normal;font-feature-settings:normal;text-indent:0;text-align:start;text-decoration-line:none;text-decoration-style:solid;text-decoration-color:#000;text-transform:none;text-orientation:mixed;white-space:normal;shape-padding:0;isolation:auto;mix-blend-mode:normal;solid-color:#000;solid-opacity:1" color="#000" enable-background="accumulate" font-family="sans-serif" font-weight="400" overflow="visible"></path><path d="m 830.65089,1657.602 -1.30082,1.5176 7.00023,6 1.30082,-1.5176 z" style="line-height:normal;font-variant-ligatures:normal;font-variant-position:normal;font-variant-caps:normal;font-variant-numeric:normal;font-variant-alternates:normal;font-feature-settings:normal;text-indent:0;text-align:start;text-decoration-line:none;text-decoration-style:solid;text-decoration-color:#000;text-transform:none;text-orientation:mixed;white-space:normal;shape-padding:0;isolation:auto;mix-blend-mode:normal;solid-color:#000;solid-opacity:1" color="#000" enable-background="accumulate" font-family="sans-serif" font-weight="400" overflow="visible"></path><path d="m 849.04213,1637.0766 c 0,0 -1.56257,5.247 -3.95521,11.2168 -2.39265,5.9699 -5.72441,12.6773 -8.74443,15.3145 -1.74121,1.5205 -3.73484,4.0373 -5.34978,6.209 -1.61495,2.1716 -2.82432,3.9902 -2.82432,3.9902 l 1.66412,1.1074 c 0,0 1.18437,-1.7778 2.76572,-3.9043 1.58134,-2.1264 3.58654,-4.6091 5.0607,-5.8965 3.68494,-3.2178 6.85414,-10.0097 9.28547,-16.0761 2.43133,-6.0664 4.01575,-11.3907 4.01575,-11.3907 z" style="line-height:normal;font-variant-ligatures:normal;font-variant-position:normal;font-variant-caps:normal;font-variant-numeric:normal;font-variant-alternates:normal;font-feature-settings:normal;text-indent:0;text-align:start;text-decoration-line:none;text-decoration-style:solid;text-decoration-color:#000;text-transform:none;text-orientation:mixed;white-space:normal;shape-padding:0;isolation:auto;mix-blend-mode:normal;solid-color:#000;solid-opacity:1" color="#000" enable-background="accumulate" font-family="sans-serif" font-weight="400" overflow="visible"></path></g></svg>