<svg xmlns="http://www.w3.org/2000/svg" xmlns:xlink="http://www.w3.org/1999/xlink" width="822.91921" height="685.33508" viewBox="0 0 822.91921 685.33508"><defs><style>.cls-1{isolation:isolate;}.cls-2{fill:url(#linear-gradient);}.cls-3{fill:url(#linear-gradient-2);}.cls-4{fill:url(#linear-gradient-3);}.cls-5{mix-blend-mode:screen;fill:url(#linear-gradient-4);}.cls-6{fill:url(#linear-gradient-5);}.cls-7{fill:url(#linear-gradient-6);}.cls-8{fill:#b4abc9;}.cls-9{fill:#a99bc9;}.cls-10{fill:url(#linear-gradient-7);}.cls-11{fill:url(#linear-gradient-8);}.cls-12{fill:url(#linear-gradient-9);}.cls-13{fill:url(#linear-gradient-10);}.cls-14{fill:url(#linear-gradient-11);}.cls-15{fill:url(#linear-gradient-12);}.cls-16{fill:url(#linear-gradient-13);}.cls-17{fill:url(#linear-gradient-14);}.cls-18{fill:url(#linear-gradient-15);}.cls-19{fill:url(#linear-gradient-16);}.cls-20{fill:url(#linear-gradient-17);}.cls-21{fill:url(#linear-gradient-18);}.cls-22{fill:url(#linear-gradient-19);}.cls-23{fill:url(#linear-gradient-20);}.cls-24{fill:url(#linear-gradient-21);}.cls-25{fill:url(#linear-gradient-22);}.cls-26{fill:url(#linear-gradient-23);}.cls-27{fill:url(#linear-gradient-24);}.cls-28{fill:url(#linear-gradient-25);}.cls-29{fill:url(#linear-gradient-26);}.cls-30{fill:url(#linear-gradient-27);}.cls-31{fill:url(#linear-gradient-28);}.cls-32{fill:url(#linear-gradient-29);}.cls-33{fill:url(#linear-gradient-30);}.cls-34{fill:url(#linear-gradient-31);}.cls-35{fill:url(#linear-gradient-32);}.cls-36{fill:url(#linear-gradient-33);}.cls-37{fill:url(#linear-gradient-34);}.cls-38{fill:url(#linear-gradient-35);}.cls-39{fill:url(#linear-gradient-36);}.cls-40{fill:url(#linear-gradient-37);}.cls-41{fill:url(#linear-gradient-38);}.cls-42{fill:url(#linear-gradient-39);}.cls-43{fill:url(#linear-gradient-40);}.cls-44{fill:url(#linear-gradient-41);}.cls-45{fill:url(#linear-gradient-42);}.cls-46{fill:url(#linear-gradient-43);}.cls-47{fill:url(#linear-gradient-44);}.cls-48{fill:url(#linear-gradient-45);}.cls-49{fill:url(#linear-gradient-46);}.cls-50{fill:url(#linear-gradient-47);}.cls-51{fill:url(#linear-gradient-48);}.cls-52{fill:url(#linear-gradient-49);}.cls-53{fill:url(#linear-gradient-50);}.cls-54{fill:url(#linear-gradient-51);}.cls-55{fill:url(#linear-gradient-52);}.cls-56{fill:url(#linear-gradient-53);}.cls-57{fill:url(#linear-gradient-54);}.cls-58{fill:url(#linear-gradient-55);}.cls-59{fill:url(#linear-gradient-56);}.cls-60{fill:url(#linear-gradient-57);}.cls-61{fill:url(#linear-gradient-58);}.cls-62{fill:url(#linear-gradient-59);}.cls-63{fill:url(#linear-gradient-60);}.cls-64{fill:url(#linear-gradient-61);}.cls-65{fill:url(#linear-gradient-62);}.cls-66{fill:url(#linear-gradient-63);}.cls-67{fill:url(#linear-gradient-64);}.cls-68{fill:url(#linear-gradient-65);}.cls-69{fill:url(#linear-gradient-66);}.cls-70{fill:url(#linear-gradient-67);}.cls-71{fill:url(#linear-gradient-68);}.cls-72{fill:url(#linear-gradient-69);}.cls-73{fill:url(#linear-gradient-70);}.cls-74{fill:url(#linear-gradient-71);}.cls-75{fill:url(#linear-gradient-72);}.cls-76{fill:url(#linear-gradient-73);}.cls-77{fill:url(#linear-gradient-74);}.cls-78{fill:url(#linear-gradient-75);}.cls-79{fill:url(#linear-gradient-76);}.cls-80{fill:url(#linear-gradient-77);}.cls-81{fill:url(#linear-gradient-78);}.cls-82{fill:url(#linear-gradient-79);}.cls-83{fill:url(#linear-gradient-80);}.cls-84{fill:url(#linear-gradient-81);}.cls-85{fill:url(#linear-gradient-82);}.cls-86{fill:url(#linear-gradient-83);}.cls-87{fill:url(#linear-gradient-84);}.cls-88{fill:url(#linear-gradient-85);}.cls-89{fill:url(#linear-gradient-86);}.cls-90,.cls-91{opacity:0.7;}.cls-90{fill:url(#linear-gradient-87);}.cls-91{fill:url(#linear-gradient-88);}.cls-92{fill:#faf7ff;}.cls-93{fill:url(#linear-gradient-89);}.cls-94{fill:url(#linear-gradient-90);}.cls-95{fill:url(#linear-gradient-91);}.cls-96{fill:url(#linear-gradient-92);}.cls-97{fill:url(#linear-gradient-93);}.cls-98{fill:#564991;}.cls-99{opacity:0.85;}.cls-100{fill:url(#linear-gradient-94);}.cls-101{fill:url(#linear-gradient-95);}.cls-102{fill:url(#linear-gradient-96);}.cls-103{fill:url(#linear-gradient-97);}.cls-104{fill:url(#linear-gradient-98);}.cls-105{fill:url(#linear-gradient-99);}.cls-106{fill:url(#linear-gradient-100);}.cls-107{fill:url(#linear-gradient-101);}.cls-108{opacity:0.8;}.cls-109{fill:url(#linear-gradient-102);}.cls-110{fill:url(#linear-gradient-103);}.cls-111{fill:url(#linear-gradient-104);}.cls-112{fill:url(#linear-gradient-105);}.cls-113{fill:url(#linear-gradient-106);}.cls-114{fill:url(#linear-gradient-107);}.cls-115{fill:url(#linear-gradient-108);}.cls-116{fill:url(#linear-gradient-109);}</style><linearGradient id="linear-gradient" x1="714.90129" y1="502.97595" x2="437.12873" y2="-57.97912" gradientUnits="userSpaceOnUse"><stop offset="0" stop-color="#5f5675"/><stop offset="0.14707" stop-color="#655c79"/><stop offset="0.40323" stop-color="#6a617d"/><stop offset="0.42473" stop-color="#9589b0"/><stop offset="0.98925" stop-color="#a499bf"/><stop offset="1" stop-color="#a291c9"/></linearGradient><linearGradient id="linear-gradient-2" x1="515.55788" y1="501.61165" x2="515.55788" y2="2.66428" gradientUnits="userSpaceOnUse"><stop offset="0" stop-color="#494357"/><stop offset="0.59416" stop-color="#59506c"/><stop offset="1" stop-color="#5f5675"/></linearGradient><linearGradient id="linear-gradient-3" x1="515.55492" y1="489.62198" x2="515.55492" y2="14.65804" gradientUnits="userSpaceOnUse"><stop offset="0" stop-color="#a7a7cc"/><stop offset="0.12537" stop-color="#adaed0"/><stop offset="0.66501" stop-color="#c4c5e0"/><stop offset="1" stop-color="#cdcee6"/></linearGradient><linearGradient id="linear-gradient-4" x1="450.52665" y1="93.06116" x2="450.52665" y2="385.05714" gradientUnits="userSpaceOnUse"><stop offset="0" stop-color="#1c1c1c"/><stop offset="1"/></linearGradient><linearGradient id="linear-gradient-5" x1="20.22305" y1="548.2845" x2="718.75138" y2="548.2845" gradientUnits="userSpaceOnUse"><stop offset="0" stop-color="#ae9cd6"/><stop offset="0.04839" stop-color="#a89fbd"/><stop offset="0.58065" stop-color="#c7bce0"/><stop offset="0.60753" stop-color="#aea5c4"/><stop offset="0.97312" stop-color="#ae9cd6"/><stop offset="0.98033" stop-color="#aa97d4"/><stop offset="0.98893" stop-color="#9e88d0"/><stop offset="0.99822" stop-color="#8b70c9"/><stop offset="1" stop-color="#876bc7"/></linearGradient><linearGradient id="linear-gradient-6" x1="433.80837" y1="614.24273" x2="287.12305" y2="299.9171" gradientUnits="userSpaceOnUse"><stop offset="0" stop-color="#ded5f2"/><stop offset="0.584" stop-color="#eee9f9"/><stop offset="1" stop-color="#f5f2fc"/></linearGradient><linearGradient id="linear-gradient-7" x1="277.83282" y1="572.72495" x2="277.83282" y2="450.88198" gradientUnits="userSpaceOnUse"><stop offset="0" stop-color="#ab9dcc"/><stop offset="0.53628" stop-color="#bbadd9"/><stop offset="1" stop-color="#c3b6e0"/></linearGradient><linearGradient id="linear-gradient-8" x1="306.51086" y1="336.36443" x2="306.51086" y2="309.76984" gradientUnits="userSpaceOnUse"><stop offset="0" stop-color="#141414"/><stop offset="0.60382" stop-color="#2a2a2a"/><stop offset="1" stop-color="#333"/></linearGradient><linearGradient id="linear-gradient-9" x1="340.04948" y1="349.78184" x2="340.04948" y2="329.88881" xlink:href="#linear-gradient-8"/><linearGradient id="linear-gradient-10" x1="366.88201" y1="363.19277" x2="366.88201" y2="343.30848" xlink:href="#linear-gradient-8"/><linearGradient id="linear-gradient-11" x1="393.71256" y1="376.61354" x2="393.71256" y2="356.72259" xlink:href="#linear-gradient-8"/><linearGradient id="linear-gradient-12" x1="420.54089" y1="390.02565" x2="420.54089" y2="370.1391" xlink:href="#linear-gradient-8"/><linearGradient id="linear-gradient-13" x1="447.3718" y1="403.44207" x2="447.3718" y2="383.55289" xlink:href="#linear-gradient-8"/><linearGradient id="linear-gradient-14" x1="474.20433" y1="416.86232" x2="474.20433" y2="396.96829" xlink:href="#linear-gradient-8"/><linearGradient id="linear-gradient-15" x1="501.03541" y1="430.27231" x2="501.03541" y2="410.38623" xlink:href="#linear-gradient-8"/><linearGradient id="linear-gradient-16" x1="527.86719" y1="443.6913" x2="527.86719" y2="423.8023" xlink:href="#linear-gradient-8"/><linearGradient id="linear-gradient-17" x1="554.69998" y1="457.10343" x2="554.69998" y2="437.21853" xlink:href="#linear-gradient-8"/><linearGradient id="linear-gradient-18" x1="581.53159" y1="470.52186" x2="581.53159" y2="450.63245" xlink:href="#linear-gradient-8"/><linearGradient id="linear-gradient-19" x1="608.36159" y1="483.93424" x2="608.36159" y2="464.0494" xlink:href="#linear-gradient-8"/><linearGradient id="linear-gradient-20" x1="635.19636" y1="497.35218" x2="635.19636" y2="477.46409" xlink:href="#linear-gradient-8"/><linearGradient id="linear-gradient-21" x1="662.02378" y1="510.76553" x2="662.02378" y2="490.88165" xlink:href="#linear-gradient-8"/><linearGradient id="linear-gradient-22" x1="196.50149" y1="387.34429" x2="196.50149" y2="363.43279" xlink:href="#linear-gradient-8"/><linearGradient id="linear-gradient-23" x1="227.35375" y1="400.75931" x2="227.35375" y2="380.87004" xlink:href="#linear-gradient-8"/><linearGradient id="linear-gradient-24" x1="254.18867" y1="414.17494" x2="254.18867" y2="394.28669" xlink:href="#linear-gradient-8"/><linearGradient id="linear-gradient-25" x1="281.02251" y1="427.58836" x2="281.02251" y2="407.70553" xlink:href="#linear-gradient-8"/><linearGradient id="linear-gradient-26" x1="307.85077" y1="441.00672" x2="307.85077" y2="421.11915" xlink:href="#linear-gradient-8"/><linearGradient id="linear-gradient-27" x1="334.6817" y1="454.4205" x2="334.6817" y2="434.53552" xlink:href="#linear-gradient-8"/><linearGradient id="linear-gradient-28" x1="361.50954" y1="467.83836" x2="361.50954" y2="447.9492" xlink:href="#linear-gradient-8"/><linearGradient id="linear-gradient-29" x1="388.34366" y1="481.25253" x2="388.34366" y2="461.36727" xlink:href="#linear-gradient-8"/><linearGradient id="linear-gradient-30" x1="415.17517" y1="494.67153" x2="415.17517" y2="474.78315" xlink:href="#linear-gradient-8"/><linearGradient id="linear-gradient-31" x1="334.68369" y1="508.08466" x2="334.68369" y2="434.53552" xlink:href="#linear-gradient-8"/><linearGradient id="linear-gradient-32" x1="442.00558" y1="508.08185" x2="442.00558" y2="488.19814" xlink:href="#linear-gradient-8"/><linearGradient id="linear-gradient-33" x1="468.83845" y1="521.49817" x2="468.83845" y2="501.61187" xlink:href="#linear-gradient-8"/><linearGradient id="linear-gradient-34" x1="495.66977" y1="534.91462" x2="495.66977" y2="515.02582" xlink:href="#linear-gradient-8"/><linearGradient id="linear-gradient-35" x1="447.37291" y1="537.59832" x2="447.37291" y2="517.70825" xlink:href="#linear-gradient-8"/><linearGradient id="linear-gradient-36" x1="474.20335" y1="551.01315" x2="474.20335" y2="531.12231" xlink:href="#linear-gradient-8"/><linearGradient id="linear-gradient-37" x1="501.03565" y1="564.42798" x2="501.03565" y2="544.53975" xlink:href="#linear-gradient-8"/><linearGradient id="linear-gradient-38" x1="527.86517" y1="577.84361" x2="527.86517" y2="557.95679" xlink:href="#linear-gradient-8"/><linearGradient id="linear-gradient-39" x1="538.60023" y1="564.42798" x2="538.60023" y2="528.44384" xlink:href="#linear-gradient-8"/><linearGradient id="linear-gradient-40" x1="252.84488" y1="363.19778" x2="252.84488" y2="336.59961" xlink:href="#linear-gradient-8"/><linearGradient id="linear-gradient-41" x1="286.38462" y1="376.61354" x2="286.38462" y2="356.72207" xlink:href="#linear-gradient-8"/><linearGradient id="linear-gradient-42" x1="313.21679" y1="390.02713" x2="313.21679" y2="370.1391" xlink:href="#linear-gradient-8"/><linearGradient id="linear-gradient-43" x1="340.049" y1="403.44207" x2="340.049" y2="383.55289" xlink:href="#linear-gradient-8"/><linearGradient id="linear-gradient-44" x1="366.88116" y1="416.86232" x2="366.88116" y2="396.96986" xlink:href="#linear-gradient-8"/><linearGradient id="linear-gradient-45" x1="393.71062" y1="430.27621" x2="393.71062" y2="410.38623" xlink:href="#linear-gradient-8"/><linearGradient id="linear-gradient-46" x1="420.54089" y1="443.6913" x2="420.54089" y2="423.80134" xlink:href="#linear-gradient-8"/><linearGradient id="linear-gradient-47" x1="447.3699" y1="457.10343" x2="447.3699" y2="437.21853" xlink:href="#linear-gradient-8"/><linearGradient id="linear-gradient-48" x1="474.20335" y1="470.52186" x2="474.20335" y2="450.63245" xlink:href="#linear-gradient-8"/><linearGradient id="linear-gradient-49" x1="501.03512" y1="483.9363" x2="501.03512" y2="464.05089" xlink:href="#linear-gradient-8"/><linearGradient id="linear-gradient-50" x1="527.86442" y1="497.35218" x2="527.86442" y2="477.46409" xlink:href="#linear-gradient-8"/><linearGradient id="linear-gradient-51" x1="554.69924" y1="510.76553" x2="554.69924" y2="490.88165" xlink:href="#linear-gradient-8"/><linearGradient id="linear-gradient-52" x1="581.53034" y1="524.18265" x2="581.53034" y2="504.30022" xlink:href="#linear-gradient-8"/><linearGradient id="linear-gradient-53" x1="228.69955" y1="379.29334" x2="228.69955" y2="350.01543" xlink:href="#linear-gradient-8"/><linearGradient id="linear-gradient-54" x1="264.92168" y1="392.7114" x2="264.92168" y2="372.82371" xlink:href="#linear-gradient-8"/><linearGradient id="linear-gradient-55" x1="291.75164" y1="406.12852" x2="291.75164" y2="386.23557" xlink:href="#linear-gradient-8"/><linearGradient id="linear-gradient-56" x1="318.58378" y1="419.53889" x2="318.58378" y2="399.65216" xlink:href="#linear-gradient-8"/><linearGradient id="linear-gradient-57" x1="345.41833" y1="432.95416" x2="345.41833" y2="413.06935" xlink:href="#linear-gradient-8"/><linearGradient id="linear-gradient-58" x1="372.24575" y1="446.3726" x2="372.24575" y2="426.48286" xlink:href="#linear-gradient-8"/><linearGradient id="linear-gradient-59" x1="399.07754" y1="459.78553" x2="399.07754" y2="439.90171" xlink:href="#linear-gradient-8"/><linearGradient id="linear-gradient-60" x1="425.91175" y1="473.21064" x2="425.91175" y2="453.31491" xlink:href="#linear-gradient-8"/><linearGradient id="linear-gradient-61" x1="452.7421" y1="486.61832" x2="452.7421" y2="466.73351" xlink:href="#linear-gradient-8"/><linearGradient id="linear-gradient-62" x1="479.56659" y1="500.03321" x2="479.56659" y2="480.14834" xlink:href="#linear-gradient-8"/><linearGradient id="linear-gradient-63" x1="506.40218" y1="513.44829" x2="506.40218" y2="493.56587" xlink:href="#linear-gradient-8"/><linearGradient id="linear-gradient-64" x1="533.23197" y1="526.86485" x2="533.23197" y2="506.97619" xlink:href="#linear-gradient-8"/><linearGradient id="linear-gradient-65" x1="560.06333" y1="540.28182" x2="560.06333" y2="520.39258" xlink:href="#linear-gradient-8"/><linearGradient id="linear-gradient-66" x1="597.62968" y1="551.01612" x2="597.62968" y2="517.70825" xlink:href="#linear-gradient-8"/><linearGradient id="linear-gradient-67" x1="628.48768" y1="524.18265" x2="628.48768" y2="497.58725" xlink:href="#linear-gradient-8"/><linearGradient id="linear-gradient-68" x1="594.94819" y1="504.06138" x2="594.94819" y2="484.17506" xlink:href="#linear-gradient-8"/><linearGradient id="linear-gradient-69" x1="568.11292" y1="490.64542" x2="568.11292" y2="470.7566" xlink:href="#linear-gradient-8"/><linearGradient id="linear-gradient-70" x1="541.28312" y1="477.2293" x2="541.28312" y2="457.34061" xlink:href="#linear-gradient-8"/><linearGradient id="linear-gradient-71" x1="514.45269" y1="463.81618" x2="514.45269" y2="443.92441" xlink:href="#linear-gradient-8"/><linearGradient id="linear-gradient-72" x1="487.61798" y1="450.39417" x2="487.61798" y2="430.51194" xlink:href="#linear-gradient-8"/><linearGradient id="linear-gradient-73" x1="460.7881" y1="436.98382" x2="460.7881" y2="417.09249" xlink:href="#linear-gradient-8"/><linearGradient id="linear-gradient-74" x1="433.95499" y1="423.56231" x2="433.95499" y2="403.67959" xlink:href="#linear-gradient-8"/><linearGradient id="linear-gradient-75" x1="407.12527" y1="410.14922" x2="407.12527" y2="390.2603" xlink:href="#linear-gradient-8"/><linearGradient id="linear-gradient-76" x1="380.29612" y1="396.7334" x2="380.29612" y2="376.84729" xlink:href="#linear-gradient-8"/><linearGradient id="linear-gradient-77" x1="353.46383" y1="383.31808" x2="353.46383" y2="363.4313" xlink:href="#linear-gradient-8"/><linearGradient id="linear-gradient-78" x1="326.63441" y1="369.90585" x2="326.63441" y2="350.01543" xlink:href="#linear-gradient-8"/><linearGradient id="linear-gradient-79" x1="299.80306" y1="356.48601" x2="299.80306" y2="336.59961" xlink:href="#linear-gradient-8"/><linearGradient id="linear-gradient-80" x1="272.97111" y1="343.07635" x2="272.97111" y2="323.18219" xlink:href="#linear-gradient-8"/><linearGradient id="linear-gradient-81" x1="250.16303" y1="441.00672" x2="250.16303" y2="417.09249" xlink:href="#linear-gradient-8"/><linearGradient id="linear-gradient-82" x1="417.85906" y1="524.18265" x2="417.85906" y2="501.60989" xlink:href="#linear-gradient-8"/><linearGradient id="linear-gradient-83" x1="219.30964" y1="423.56231" x2="219.30964" y2="403.67959" xlink:href="#linear-gradient-8"/><linearGradient id="linear-gradient-84" x1="192.47516" y1="410.14922" x2="192.47516" y2="390.2603" xlink:href="#linear-gradient-8"/><linearGradient id="linear-gradient-85" x1="165.64734" y1="396.7334" x2="165.64734" y2="376.84729" xlink:href="#linear-gradient-8"/><linearGradient id="linear-gradient-86" x1="509.37533" y1="485.87208" x2="509.37533" y2="306.32678" xlink:href="#linear-gradient-8"/><linearGradient id="linear-gradient-87" x1="20.44174" y1="559.39916" x2="358.5626" y2="559.39916" gradientUnits="userSpaceOnUse"><stop offset="0" stop-color="#a644d6"/><stop offset="0.05332" stop-color="#a344d6"/><stop offset="0.63748" stop-color="#8c44d6"/><stop offset="1" stop-color="#8344d6"/></linearGradient><linearGradient id="linear-gradient-88" y1="583.96195" x2="338.12107" y2="583.96195" gradientUnits="userSpaceOnUse"><stop offset="0" stop-color="#f54293"/><stop offset="0.02809" stop-color="#f54192"/><stop offset="1" stop-color="#e61e6e"/></linearGradient><linearGradient id="linear-gradient-89" x1="515.55492" y1="250.1808" x2="515.55492" y2="72.04259" gradientUnits="userSpaceOnUse"><stop offset="0" stop-color="#8d7fad"/><stop offset="0.25232" stop-color="#8f7fb1"/><stop offset="1" stop-color="#9280ba"/></linearGradient><linearGradient id="linear-gradient-90" x1="360.45756" y1="636.70228" x2="360.45756" y2="631.76856" gradientTransform="matrix(1, 0.5001, 0, 1, 0, -731.84213)" gradientUnits="userSpaceOnUse"><stop offset="0" stop-color="#68578f"/><stop offset="0.09405" stop-color="#695890"/><stop offset="1" stop-color="#716099"/></linearGradient><linearGradient id="linear-gradient-91" x1="369.55753" y1="636.74581" x2="369.55753" y2="631.81231" xlink:href="#linear-gradient-90"/><linearGradient id="linear-gradient-92" x1="378.65761" y1="636.78934" x2="378.65761" y2="631.85584" xlink:href="#linear-gradient-90"/><linearGradient id="linear-gradient-93" x1="352.05147" y1="313.33427" x2="679.05836" y2="313.33427" xlink:href="#linear-gradient-87"/><linearGradient id="linear-gradient-94" x1="236.26778" y1="171.74222" x2="236.26778" y2="61.27185" xlink:href="#linear-gradient-89"/><linearGradient id="linear-gradient-95" x1="140.08598" y1="731.16977" x2="140.08598" y2="728.11023" xlink:href="#linear-gradient-90"/><linearGradient id="linear-gradient-96" x1="145.7292" y1="731.1967" x2="145.7292" y2="728.13716" xlink:href="#linear-gradient-90"/><linearGradient id="linear-gradient-97" x1="151.37254" y1="731.22375" x2="151.37254" y2="728.16443" xlink:href="#linear-gradient-90"/><linearGradient id="linear-gradient-98" x1="158.48381" y1="135.82921" x2="222.20505" y2="135.82921" xlink:href="#linear-gradient-87"/><linearGradient id="linear-gradient-99" x1="151.99533" y1="138.54246" x2="189.71171" y2="138.54246" xlink:href="#linear-gradient-88"/><linearGradient id="linear-gradient-100" x1="152.56801" y1="171.97635" x2="227.22127" y2="171.97635" xlink:href="#linear-gradient-87"/><linearGradient id="linear-gradient-101" x1="189.71171" y1="166.79772" x2="227.42348" y2="166.79772" xlink:href="#linear-gradient-88"/><linearGradient id="linear-gradient-102" x1="690.76423" y1="366.30494" x2="690.76423" y2="222.32137" xlink:href="#linear-gradient-89"/><linearGradient id="linear-gradient-103" x1="565.40394" y1="681.97902" x2="565.40394" y2="677.9913" gradientTransform="matrix(0.48045, 1.00959, -0.6154, 0.78821, 712.21929, -875.89665)" xlink:href="#linear-gradient-90"/><linearGradient id="linear-gradient-104" x1="572.7592" y1="682.01426" x2="572.7592" y2="678.02654" xlink:href="#linear-gradient-90"/><linearGradient id="linear-gradient-105" x1="580.11446" y1="682.04949" x2="580.11446" y2="678.06177" xlink:href="#linear-gradient-90"/><linearGradient id="linear-gradient-106" x1="651.60082" y1="890.47429" x2="666.8125" y2="890.47429" gradientTransform="matrix(1, 0.5001, 0, 1, 0, -835.31493)" gradientUnits="userSpaceOnUse"><stop offset="0" stop-color="#f76fad"/><stop offset="1" stop-color="#f25091"/></linearGradient><linearGradient id="linear-gradient-107" x1="602.94386" y1="880.8557" x2="618.15554" y2="880.8557" xlink:href="#linear-gradient-106"/><linearGradient id="linear-gradient-108" x1="578.61516" y1="866.42833" x2="593.82684" y2="866.42833" xlink:href="#linear-gradient-106"/><linearGradient id="linear-gradient-109" x1="627.27234" y1="876.04681" x2="642.48402" y2="876.04681" xlink:href="#linear-gradient-106"/></defs><g class="cls-1"><g id="Layer_2" data-name="Layer 2"><g id="Layer_1-2" data-name="Layer 1"><path class="cls-2" d="M722.16274,202.51956,319.68793,1.242c-2.81468-1.4113-5.3614-1.56486-7.28068-.73854l-.01782-.01562L312.27349.547c-.09834.0473-5.24766,2.62394-5.24766,2.62394L724.83992,500.73088l5.32818-2.732a6.363,6.363,0,0,0,2.72426-5.69844V218.61872C732.89236,212.70952,728.05984,205.46426,722.16274,202.51956Z"/><path class="cls-3" d="M727.52656,494.9836c0,5.9048-4.83208,8.31424-10.73512,5.37548L314.3184,299.0714c-5.90283-2.95064-10.72919-10.19216-10.72919-16.09894V9.29422c0-5.90876,4.82636-8.32018,10.72919-5.37152l402.473,201.2857c5.903,2.94822,10.73512,10.18776,10.73512,16.0985Z"/><polygon class="cls-4" points="314.318 288.336 314.318 14.658 716.791 215.944 716.791 489.622 314.318 288.336"/><path class="cls-5" d="M597.4641,145.527,314.3184,3.9227C308.41557.974,303.58921,3.38546,303.58921,9.29422V282.97246c0,5.90678,4.82636,13.1483,10.72919,16.09894l102.45266,51.24108Z"/><path class="cls-6" d="M718.7556,516.12934h.0198V499.8786l-706.469-63.978v16.2525h.0572c.14344,1.84624,1.56838,3.66674,4.37118,5.0644L419.20008,658.4601c5.90282,2.94052,15.55774,2.94822,21.46848,0L714.3545,521.61878C717.36014,520.11288,718.817,518.117,718.7556,516.12934Z"/><path class="cls-7" d="M440.66856,642.359c-5.91074,2.95284-15.56566,2.9447-21.46848,0L16.73474,441.12452c-5.9026-2.95636-5.90678-7.779-.00352-10.73732L290.40549,293.54808c5.91492-2.95042,15.56742-2.94228,21.47046,0L714.33888,494.7845c5.91272,2.94888,5.91272,7.78492.01562,10.7316Z"/><path class="cls-8" d="M530.128,581.52632a9.10993,9.10993,0,0,1-7.2116,0L138.39451,389.26348c-1.98418-.992-1.98418-2.61382,0-3.6058l159.15-79.57136a9.11047,9.11047,0,0,1,7.21182,0l384.52,192.26284c1.98418.9922,1.98418,2.61426,0,3.60624Z"/><path class="cls-9" d="M155.47751,500.54014c-2.36191-1.18514-2.36191-3.1141,0-4.29462l91.23114-45.6181a10.86233,10.86233,0,0,1,8.57824,0l144.90124,72.44776c2.3639,1.18514,2.3639,3.1141,0,4.29682l-91.22938,45.61a10.82219,10.82219,0,0,1-8.582,0Z"/><path class="cls-10" d="M307.34461,572.179a6.86843,6.86843,0,0,1-5.36734,0l-144.8898-72.44974c-1.47224-.72842-1.46806-1.94678,0-2.6829l91.23533-45.61348a6.804,6.804,0,0,1,5.36381,0l144.89156,72.44754c1.47224.7359,1.46806,1.9525,0,2.68092Z"/><path class="cls-11" d="M315.89491,335.80788a6.73905,6.73905,0,0,1-5.36338,0l-29.5108-14.75848c-1.48236-.7381-1.46453-1.94854,0-2.68268l16.09454-8.04034a6.74013,6.74013,0,0,1,5.36382,0l29.52246,14.75012c1.47466.74228,1.47466,1.94876-.01166,2.68114Z"/><path class="cls-12" d="M342.73117,349.22414a6.72734,6.72734,0,0,1-5.36382,0l-16.10246-8.05046c-1.4784-.73216-1.47069-1.9426,0-2.6829l16.09256-8.04848a6.79825,6.79825,0,0,1,5.37372,0l16.1084,8.04848c1.4685.74382,1.4685,1.95074-.0077,2.68686Z"/><path class="cls-13" d="M369.565,362.64766a6.82787,6.82787,0,0,1-5.36932-.00968l-16.093-8.04452c-1.47818-.7381-1.47818-1.9426,0-2.68466l16.093-8.04452a6.795,6.795,0,0,1,5.36932-.00594l16.1007,8.05046c1.47818.74206,1.46652,1.94656,0,2.68466Z"/><path class="cls-14" d="M396.39687,376.06a6.77705,6.77705,0,0,1-5.36536,0l-16.10268-8.0465c-1.47818-.74206-1.47048-1.95052,0-2.68268l16.10268-8.05244a6.77607,6.77607,0,0,1,5.36536-.00418L412.5,365.32264c1.47816.7403,1.46056,1.94876,0,2.69082Z"/><path class="cls-15" d="M423.22322,389.47182a6.76946,6.76946,0,0,1-5.36338,0l-16.09915-8.048c-1.48214-.74008-1.47818-1.95272,0-2.68114l16.09915-8.04848a6.75562,6.75562,0,0,1,5.36338,0l16.10092,8.04848c1.4839.74008,1.46828,1.94458,0,2.68114Z"/><path class="cls-16" d="M450.0575,402.88412a6.72934,6.72934,0,0,1-5.3658,0L428.589,394.83564c-1.48016-.73612-1.4685-1.94854,0-2.6807l16.10268-8.04848a6.77812,6.77812,0,0,1,5.3658,0l16.10664,8.04848c1.46454.74382,1.46454,1.94876-.01782,2.6807Z"/><path class="cls-17" d="M476.8874,416.30412a6.7124,6.7124,0,0,1-5.35988,0l-16.10664-8.0465c-1.47818-.73612-1.47026-1.94656,0-2.68862l16.095-8.0487a6.80973,6.80973,0,0,1,5.37154,0L493,405.569c1.46058.746,1.46058,1.9525-.01562,2.68862Z"/><path class="cls-18" d="M503.72166,429.71444a6.7488,6.7488,0,0,1-5.3735,0l-16.095-8.04452c-1.4727-.73436-1.4727-1.947,0-2.68312l16.095-8.04848a6.82219,6.82219,0,0,1,5.377,0l16.093,8.04848c1.47464.73612,1.47046,1.94876-.00376,2.68312Z"/><path class="cls-19" d="M530.5555,443.136a6.75392,6.75392,0,0,1-5.36382,0l-16.10268-8.048c-1.48236-.73656-1.4742-1.94876,0-2.68114l16.10268-8.04848a6.789,6.789,0,0,1,5.36382-.0077l16.093,8.04848c1.48016.74008,1.46806,1.95228,0,2.68884Z"/><path class="cls-20" d="M557.3856,456.54828a6.77914,6.77914,0,0,1-5.3735,0l-16.08926-8.04848c-1.48192-.73612-1.47818-1.94854,0-2.6807l16.08926-8.04848a6.81359,6.81359,0,0,1,5.3735,0l16.093,8.04848c1.48192.74382,1.47422,1.94854,0,2.6807Z"/><path class="cls-21" d="M584.2135,469.96828a6.78717,6.78717,0,0,1-5.36954,0l-16.095-8.05618c-1.48172-.73656-1.47006-1.945,0-2.68312l16.095-8.04452a6.80488,6.80488,0,0,1,5.36954,0l16.10312,8.04452c1.474.74206,1.474,1.95668-.00814,2.68312Z"/><path class="cls-22" d="M611.03766,483.3786a6.75391,6.75391,0,0,1-5.36536,0l-16.093-8.04452c-1.47422-.73458-1.47048-1.95074,0-2.68312l16.093-8.0465a6.78008,6.78008,0,0,1,5.3735,0l16.0985,8.0465c1.4727.74624,1.4727,1.94854-.0055,2.68312Z"/><path class="cls-23" d="M637.87392,496.7986a6.77332,6.77332,0,0,1-5.36382,0l-16.097-8.05266c-1.47224-.7304-1.47224-1.9426,0-2.68268l16.097-8.04848a6.82469,6.82469,0,0,1,5.37152,0l16.09894,8.04848c1.47424.74008,1.47026,1.95228-.00792,2.68268Z"/><path class="cls-24" d="M664.71392,510.21046a6.77157,6.77157,0,0,1-5.37,0L643.24346,502.162c-1.47818-.73612-1.47818-1.9448,0-2.6807l16.093-8.05068a6.859,6.859,0,0,1,5.37746,0l16.09454,8.05068c1.48016.7359,1.46454,1.94458,0,2.68862Z"/><path class="cls-25" d="M203.20893,386.78914a6.7547,6.7547,0,0,1-5.36338,0l-24.15908-12.06942c-1.46872-.73612-1.46256-1.94678,0-2.68488l16.10466-8.04848a6.77332,6.77332,0,0,1,5.36382,0L219.31007,376.06c1.47422.74206,1.47422,1.94458,0,2.68268Z"/><path class="cls-26" d="M230.047,400.20144a6.75781,6.75781,0,0,1-5.37724,0l-16.09278-8.0465c-1.4784-.7381-1.4784-1.95052,0-2.68312l16.09278-8.048a6.78533,6.78533,0,0,1,5.36954,0l16.097,8.048c1.47026.74426,1.47026,1.94876.00374,2.68312Z"/><path class="cls-27" d="M256.87507,413.62144a6.78278,6.78278,0,0,1-5.36734,0l-16.097-8.05244c-1.48236-.73216-1.47817-1.9448,0-2.68488l16.097-8.04848a6.83427,6.83427,0,0,1,5.36734,0l16.09916,8.04848c1.474.74778,1.46608,1.95272,0,2.68488Z"/><path class="cls-28" d="M283.70341,427.0333a6.76145,6.76145,0,0,1-5.3658,0l-16.09674-8.0465c-1.48214-.73194-1.46652-1.93842,0-2.68268l16.09674-8.0465a6.79486,6.79486,0,0,1,5.3658,0l16.095,8.0465c1.48389.74426,1.48015,1.95074,0,2.68268Z"/><path class="cls-29" d="M310.53153,440.45528a6.7975,6.7975,0,0,1-5.36382,0L289.063,432.3991c-1.4685-.72842-1.46454-1.94084,0-2.68466l16.10466-8.04452a6.805,6.805,0,0,1,5.36382,0l16.09674,8.0542c1.48016.7381,1.48016,1.94656,0,2.68268Z"/><path class="cls-30" d="M337.36735,453.8656a6.76332,6.76332,0,0,1-5.3658,0l-16.10664-8.0465c-1.472-.74206-1.46454-1.94854,0-2.68312l16.095-8.048a6.79539,6.79539,0,0,1,5.36756,0l16.1051,8.048c1.4762.74624,1.4762,1.94876,0,2.68312Z"/><path class="cls-31" d="M364.19569,467.2856a6.78261,6.78261,0,0,1-5.36382,0l-16.1007-8.05662c-1.47642-.73612-1.47642-1.94458,0-2.6807l16.1007-8.04848a6.80688,6.80688,0,0,1,5.36382,0l16.09652,8.04848c1.4707.74426,1.4707,1.95272,0,2.6807Z"/><path class="cls-32" d="M391.03151,480.69746a6.76147,6.76147,0,0,1-5.3658,0L369.565,472.651c-1.48016-.73612-1.474-1.94656,0-2.68268l16.1007-8.05618a6.87807,6.87807,0,0,1,5.3658,0l16.09872,8.05618c1.46849.74008,1.46453,1.94656,0,2.68268Z"/><path class="cls-33" d="M417.85984,494.11944a6.78039,6.78039,0,0,1-5.35984,0l-16.10313-8.05618c-1.4817-.73238-1.47818-1.94656,0-2.68466L412.5,475.33408a6.79342,6.79342,0,0,1,5.35984,0l16.09256,8.04452c1.4883.7436,1.47444,1.95228,0,2.68466Z"/><path class="cls-34" d="M391.03151,507.52976a6.76331,6.76331,0,0,1-5.3658,0L262.24087,445.8191c-1.48214-.74206-1.47444-1.94854,0-2.68312l16.09674-8.048a6.79113,6.79113,0,0,1,5.3658,0L407.13023,496.7986c1.48213.7381,1.46453,1.94458,0,2.68268Z"/><path class="cls-35" d="M444.6917,507.52976a6.79912,6.79912,0,0,1-5.36756,0l-16.10092-8.04848c-1.48192-.7381-1.46828-1.94458,0-2.68268l16.10092-8.05266a6.848,6.848,0,0,1,5.36756,0l16.0908,8.05266c1.48236.7381,1.48236,1.94458,0,2.69016Z"/><path class="cls-36" d="M471.52752,520.94756a6.84928,6.84928,0,0,1-5.3812,0l-16.08882-8.05442c-1.47818-.7381-1.4707-1.94656,0-2.68268l16.08882-8.04056a6.73743,6.73743,0,0,1,5.36954,0l16.09894,8.04056c1.47994.744,1.47994,1.9525.00374,2.68268Z"/><path class="cls-37" d="M498.34816,534.35964a6.7576,6.7576,0,0,1-5.36382,0l-16.09694-8.0487c-1.47226-.7359-1.47226-1.95206,0-2.68048l16.09694-8.05618a6.83134,6.83134,0,0,1,5.36382,0l16.10268,8.05618c1.474.744,1.474,1.94458,0,2.68048Z"/><path class="cls-38" d="M450.0575,537.04276a6.75593,6.75593,0,0,1-5.3658,0l-16.10268-8.0465c-1.48016-.73656-1.4685-1.9547,0-2.68532l16.10268-8.052a6.81076,6.81076,0,0,1,5.3658,0l16.10664,8.052c1.46454.73854,1.46454,1.94876,0,2.68532Z"/><path class="cls-39" d="M476.88364,550.46254a6.81649,6.81649,0,0,1-5.36778,0l-16.095-8.05442c-1.47818-.7381-1.47026-1.94458,0-2.68268l16.10664-8.0465a6.72974,6.72974,0,0,1,5.35988,0l16.09694,8.0465c1.4762.74558,1.4762,1.9525,0,2.68268Z"/><path class="cls-40" d="M503.72166,563.8744a6.79679,6.79679,0,0,1-5.3735,0l-16.095-8.04628c-1.4727-.7381-1.4727-1.94678,0-2.6829l16.10662-8.05618a6.82567,6.82567,0,0,1,5.36538,0l16.093,8.05618c1.47464.73612,1.47046,1.9448,0,2.6829Z"/><path class="cls-41" d="M530.5555,577.2944a6.82286,6.82286,0,0,1-5.36382,0L509.085,569.23822c-1.4784-.72644-1.4784-1.94458,0-2.68092l16.10664-8.04826a6.78815,6.78815,0,0,1,5.36382,0l16.093,8.04826c1.48016.73634,1.46806,1.95448,0,2.68092Z"/><path class="cls-42" d="M557.3856,563.8744a6.79677,6.79677,0,0,1-5.3735,0l-48.2869-24.149c-1.48194-.73612-1.48194-1.94678-.00354-2.68268l16.09278-8.0465a6.81894,6.81894,0,0,1,5.37724,0l48.28692,24.149c1.48192.73612,1.47422,1.9448,0,2.6829Z"/><path class="cls-43" d="M262.24087,362.64766a6.81734,6.81734,0,0,1-5.3658,0l-29.52466-14.766c-1.472-.73238-1.472-1.93886,0-2.68114l16.10884-8.05a6.80311,6.80311,0,0,1,5.36382,0l29.51454,14.75826c1.47819.74206,1.47048,1.94656,0,2.68466Z"/><path class="cls-44" d="M289.063,376.06a6.76319,6.76319,0,0,1-5.35964,0l-16.09916-8.0465c-1.4817-.74206-1.47818-1.95052,0-2.68268l16.09916-8.05662a6.77991,6.77991,0,0,1,5.35964,0l16.10466,8.05662c1.48038.73216,1.47224,1.94062,0,2.68268Z"/><path class="cls-45" d="M315.89491,389.47182a6.75283,6.75283,0,0,1-5.36338,0l-16.09893-8.048c-1.48237-.74008-1.46455-1.95272,0-2.68114l16.09893-8.04848a6.75562,6.75562,0,0,1,5.36338,0l16.095,8.04848c1.48632.74008,1.48632,1.94458.01166,2.68114Z"/><path class="cls-46" d="M342.72325,402.88412a6.72933,6.72933,0,0,1-5.3658,0l-16.09256-8.04848c-1.4784-.73194-1.47069-1.94062,0-2.6807l16.10246-8.04848a6.77332,6.77332,0,0,1,5.36382,0l16.1007,8.04848c1.4762.74382,1.4762,1.94876,0,2.6807Z"/><path class="cls-47" d="M369.55907,416.30412a6.72081,6.72081,0,0,1-5.36338,0l-16.093-8.0465c-1.47818-.73612-1.47818-1.94656-.01364-2.68862l16.10664-8.0487a6.82216,6.82216,0,0,1,5.36932,0l16.1007,8.0487c1.47818.746,1.46652,1.9525,0,2.68862Z"/><path class="cls-48" d="M396.39687,429.72412a6.7938,6.7938,0,0,1-5.36536,0l-16.10664-8.0542c-1.47422-.73436-1.47422-1.947,0-2.68312l16.10664-8.04848a6.79378,6.79378,0,0,1,5.36536,0L412.5,418.9868c1.47816.73612,1.46056,1.94876,0,2.68312Z"/><path class="cls-49" d="M423.22322,443.136a6.75285,6.75285,0,0,1-5.36338,0l-16.09915-8.048c-1.48214-.73656-1.47818-1.94876,0-2.68114l16.09915-8.05618a6.82082,6.82082,0,0,1,5.36338,0l16.10092,8.05618c1.4839.73238,1.46828,1.94458,0,2.68114Z"/><path class="cls-50" d="M450.0575,456.54828a6.76053,6.76053,0,0,1-5.3658,0L428.589,448.4998c-1.48016-.73612-1.4685-1.94854,0-2.6807l16.10268-8.04848a6.79486,6.79486,0,0,1,5.3658,0l16.08882,8.04848c1.48236.74382,1.47818,1.94854,0,2.6807Z"/><path class="cls-51" d="M476.88364,469.96828a6.78288,6.78288,0,0,1-5.36778,0l-16.095-8.05618c-1.47818-.72644-1.47026-1.94106,0-2.68312l16.10664-8.04452a6.78142,6.78142,0,0,1,5.35988,0l16.09694,8.04452c1.4762.74624,1.4762,1.95668,0,2.68312Z"/><path class="cls-52" d="M503.72166,483.3786a6.75063,6.75063,0,0,1-5.3735,0L482.249,475.33408c-1.4685-.73458-1.4685-1.95074,0-2.68312l16.09916-8.0465a6.79679,6.79679,0,0,1,5.3735,0l16.09654,8.0465c1.47464.74624,1.47046,1.94854,0,2.68312Z"/><path class="cls-53" d="M530.5555,496.7986a6.7733,6.7733,0,0,1-5.36382,0L509.085,488.74594c-1.4784-.7304-1.4784-1.9426,0-2.68268l16.10664-8.04848a6.80591,6.80591,0,0,1,5.36382,0l16.093,8.04848c1.4762.74008,1.46806,1.95228,0,2.68268Z"/><path class="cls-54" d="M557.3856,510.21046a6.78009,6.78009,0,0,1-5.3735,0l-16.08926-8.04056c-1.48192-.744-1.47818-1.95272,0-2.68114l16.08926-8.05816a6.84931,6.84931,0,0,1,5.3735,0l16.093,8.05068c1.48192.7359,1.47026,1.94458,0,2.6807Z"/><path class="cls-55" d="M584.2135,523.63046a6.803,6.803,0,0,1-5.36954,0l-16.095-8.05618c-1.48172-.73612-1.47006-1.9448,0-2.68114l16.095-8.04826a6.88923,6.88923,0,0,1,5.36954,0l16.095,8.04826c1.48214.744,1.47818,1.9547,0,2.68114Z"/><path class="cls-56" d="M240.77657,378.74264a6.81076,6.81076,0,0,1-5.3658,0l-34.88254-17.4449c-1.474-.73612-1.474-1.94458,0-2.68114l16.09718-8.05222a6.81978,6.81978,0,0,1,5.3614,0l34.88826,17.44908c1.47224.73612,1.46454,1.94062,0,2.6807Z"/><path class="cls-57" d="M267.60425,392.15494a6.74,6.74,0,0,1-5.36338,0L246.14,384.10646c-1.4762-.74008-1.4762-1.95272,0-2.68268l16.10092-8.0465a6.77222,6.77222,0,0,1,5.36338,0l16.09916,8.0465c1.47819.74162,1.47422,1.94656,0,2.68268Z"/><path class="cls-58" d="M294.4326,405.569a6.721,6.721,0,0,1-5.36955,0l-16.08882-8.0487c-1.4883-.7381-1.47818-1.94458,0-2.68466l16.08882-8.0465a6.78721,6.78721,0,0,1,5.36955,0l16.09893,8.0465c1.47994.74426,1.47994,1.95074,0,2.68466Z"/><path class="cls-59" d="M321.26489,418.9868a6.805,6.805,0,0,1-5.37,0l-16.09651-8.04848c-1.47049-.73612-1.46653-1.94062,0-2.6807l16.09651-8.05618a6.837,6.837,0,0,1,5.37,0l16.09256,8.05618c1.48412.74008,1.48412,1.94458,0,2.6807Z"/><path class="cls-60" d="M348.10269,432.3991a6.7753,6.7753,0,0,1-5.37152,0l-16.093-8.04848c-1.47444-.73238-1.47444-1.94106,0-2.6807l16.093-8.04848a6.80877,6.80877,0,0,1,5.37152,0l16.093,8.04848c1.47818.73964,1.47818,1.94832,0,2.6807Z"/><path class="cls-61" d="M374.92883,445.8191a6.77425,6.77425,0,0,1-5.36382,0l-16.10246-8.04848c-1.47466-.73612-1.47466-1.94458,0-2.68268l16.09652-8.05464a6.81358,6.81358,0,0,1,5.3658,0l16.10664,8.05464c1.47422.74162,1.46829,1.94656,0,2.68268Z"/><path class="cls-62" d="M401.76069,459.229a6.74014,6.74014,0,0,1-5.36382,0l-16.0985-8.04452c-1.48236-.7381-1.48236-1.95052,0-2.68466l16.0985-8.04452a6.7733,6.7733,0,0,1,5.36382,0l16.09915,8.04452c1.47818.74624,1.47818,1.95074,0,2.68466Z"/><path class="cls-63" d="M428.589,472.651a6.71023,6.71023,0,0,1-5.3658,0l-16.093-8.0465c-1.48192-.74206-1.47818-1.94656,0-2.69236l16.093-8.0465a6.81077,6.81077,0,0,1,5.3658,0l16.10268,8.0465c1.48214.7458,1.48214,1.95426,0,2.69236Z"/><path class="cls-64" d="M455.42088,486.06326a6.75561,6.75561,0,0,1-5.36338,0l-16.1051-8.04848c-1.46806-.73612-1.46212-1.93688,0-2.6807l16.1051-8.04848a6.789,6.789,0,0,1,5.36338,0l16.095,8.04848c1.48634.74382,1.48634,1.94832,0,2.6807Z"/><path class="cls-65" d="M482.2532,499.48128a6.79673,6.79673,0,0,1-5.3658,0l-16.09676-8.05068c-1.47818-.73194-1.47818-1.94458-.00814-2.68466l16.10114-8.04848a6.83782,6.83782,0,0,1,5.36956,0l16.095,8.04848c1.472.74008,1.472,1.95272,0,2.68466Z"/><path class="cls-66" d="M509.089,512.89314a6.75571,6.75571,0,0,1-5.3638,0l-16.10666-8.04826c-1.47422-.72622-1.47422-1.9448,0-2.6829l16.10312-8.04254a6.77226,6.77226,0,0,1,5.36338,0l16.10664,8.05046c1.47048.7381,1.46234,1.94876,0,2.675Z"/><path class="cls-67" d="M535.92284,526.31094a6.77814,6.77814,0,0,1-5.36734,0l-16.1007-8.052c-1.48236-.7381-1.48236-1.94656,0-2.68466l16.1007-8.04452a6.78183,6.78183,0,0,1,5.36734,0l16.08926,8.04452c1.4784.74558,1.4784,1.95426,0,2.68466Z"/><path class="cls-68" d="M562.749,539.72544a6.741,6.741,0,0,1-5.3634,0l-16.1029-8.0465c-1.4784-.74624-1.47422-1.94678,0-2.68268l16.1029-8.0487a6.75659,6.75659,0,0,1,5.3634,0l16.095,8.0487c1.4784.7436,1.47424,1.94458,0,2.68268Z"/><path class="cls-69" d="M611.03766,518.25894a6.80968,6.80968,0,0,0-5.36536,0l-16.093,8.052c-1.47048.73062-1.47422,1.94876,0,2.68532h0c1.4762.7436,1.4762,1.94458,0,2.68268l-21.4645,10.72918c-1.46852.744-1.4762,1.94458,0,2.68092l10.72916,5.3735a6.78717,6.78717,0,0,0,5.36954,0l21.4588-10.7371c1.48214-.72842,3.9028-1.94678,5.36536-2.68268l5.37548-2.68312c1.47466-.7282,3.89356-1.9448,5.3658-2.6807l5.36536-2.68268c1.4727-.73656,1.4727-1.9371,0-2.68532Z"/><path class="cls-70" d="M619.0923,498.14082a6.777,6.777,0,0,1,5.36536,0l29.5229,14.75232c1.47424.744,1.47026,1.9547,0,2.68114l-16.10664,8.05618a6.78912,6.78912,0,0,1-5.36382,0L602.99314,508.87c-1.472-.7381-1.46806-1.94458,0-2.68268Z"/><path class="cls-71" d="M592.25626,484.723a6.83591,6.83591,0,0,1,5.36338,0l16.10884,8.048c1.4762.74206,1.4762,1.95272,0,2.68664l-16.10884,8.05464a6.82361,6.82361,0,0,1-5.36338,0L576.167,495.4577c-1.47972-.73392-1.47026-1.94458,0-2.68664Z"/><path class="cls-72" d="M565.42814,471.30852a6.80528,6.80528,0,0,1,5.36932,0l16.093,8.04848c1.48434.74426,1.47818,1.94876,0,2.6807l-16.093,8.05266a6.76994,6.76994,0,0,1-5.36932,0l-16.095-8.05266c-1.48434-.73194-1.47224-1.94458,0-2.6807Z"/><path class="cls-73" d="M538.60794,457.8927a6.78414,6.78414,0,0,1,5.3614,0l16.095,8.04848c1.48016.74382,1.4685,1.94854,0,2.6807l-16.095,8.05244a6.75176,6.75176,0,0,1-5.3614,0L522.507,468.62188c-1.4839-.73216-1.4784-1.94062,0-2.6807Z"/><path class="cls-74" d="M511.77762,444.47666a6.78813,6.78813,0,0,1,5.36382,0l16.09476,8.04826c1.47444.73634,1.47048,1.9525,0,2.68312l-16.09476,8.05a6.75554,6.75554,0,0,1-5.37744,0l-16.095-8.05c-1.47224-.7381-1.47224-1.94678,0-2.68312Z"/><path class="cls-75" d="M484.93982,431.06238a6.81256,6.81256,0,0,1,5.36538,0l16.09716,8.05464c1.47048.73194,1.47048,1.9426,0,2.67872l-16.09716,8.0465a6.79571,6.79571,0,0,1-5.36538,0l-16.10466-8.0465c-1.47466-.73612-1.47048-1.94678,0-2.67872Z"/><path class="cls-76" d="M458.09784,417.64458a6.804,6.804,0,0,1,5.36956,0l16.1009,8.04848c1.47818.73612,1.47818,1.9547,0,2.68466l-16.1009,8.05244a6.78626,6.78626,0,0,1-5.36956,0l-16.093-8.05244c-1.47818-.73-1.47-1.94854,0-2.68466Z"/><path class="cls-77" d="M431.27566,404.22854a6.82945,6.82945,0,0,1,5.36536,0l16.093,8.05222c1.47818.744,1.47466,1.945,0,2.68092l-16.093,8.0487a6.79565,6.79565,0,0,1-5.36536,0l-16.10266-8.0487c-1.47644-.7359-1.46852-1.93688,0-2.68092Z"/><path class="cls-78" d="M404.44755,390.81272a6.78629,6.78629,0,0,1,5.36381,0l16.09652,8.048c1.48434.744,1.46256,1.95272,0,2.68708l-16.09652,8.04606a6.7539,6.7539,0,0,1-5.36381,0l-16.10268-8.04606c-1.48236-.73436-1.47047-1.943,0-2.68708Z"/><path class="cls-79" d="M377.61569,377.39624a6.82943,6.82943,0,0,1,5.36536,0l16.10115,8.05068c1.474.748,1.46607,1.94656,0,2.68466l-16.10115,8.04452a6.7356,6.7356,0,0,1-5.36536,0l-16.10664-8.04452c-1.46872-.7381-1.46872-1.95228,0-2.68466Z"/><path class="cls-80" d="M350.77943,363.98042a6.8238,6.8238,0,0,1,5.36382,0l16.10862,8.05442c1.4762.7381,1.46454,1.94876,0,2.68488l-16.10862,8.0465a6.79285,6.79285,0,0,1-5.36382,0l-16.10686-8.0465c-1.46608-.73612-1.46608-1.94678,0-2.68488Z"/><path class="cls-81" d="M323.94757,350.56438a6.83913,6.83913,0,0,1,5.36932,0L345.418,358.6166c1.47422.73656,1.47422,1.945,0,2.68114l-16.1051,8.05618a6.79565,6.79565,0,0,1-5.36536,0l-16.09916-8.05222c-1.474-.74008-1.46806-1.94854,0-2.6851Z"/><path class="cls-82" d="M297.11527,337.15054a6.80313,6.80313,0,0,1,5.36382,0l16.10268,8.05c1.48214.74228,1.47444,1.94876,0,2.68114l-16.10268,8.05222a6.79,6.79,0,0,1-5.36382,0l-16.09454-8.05222c-1.48236-.73238-1.46453-1.93886,0-2.68114Z"/><path class="cls-83" d="M270.2854,323.73428a6.80873,6.80873,0,0,1,5.37151,0l16.093,8.05046c1.48214.74206,1.47818,1.94854,0,2.68268l-16.093,8.05464a6.74954,6.74954,0,0,1-5.37151-.00616l-16.093-8.04848c-1.48633-.73414-1.47423-1.94458,0-2.68268Z"/><path class="cls-84" d="M243.45925,417.64458a6.79,6.79,0,0,1,5.36382,0l24.15116,12.06986c1.4817.74382,1.46608,1.95624,0,2.68466l-16.09916,8.05618a6.80609,6.80609,0,0,1-5.36734,0l-24.15732-12.07756c-1.472-.73-1.472-1.94854,0-2.68466Z"/><path class="cls-85" d="M412.5,502.162a6.78036,6.78036,0,0,1,5.35984,0l21.4643,10.73116c1.4839.744,1.46828,1.9547,0,2.68114l-16.10092,8.05618a6.788,6.788,0,0,1-5.36338,0l-21.463-10.73732c-1.4817-.7381-1.47818-1.94656,0-2.68268Z"/><path class="cls-86" d="M216.62541,404.22854a6.84879,6.84879,0,0,1,5.37328,0l16.09674,8.05222c1.47246.744,1.46652,1.945,0,2.68092l-16.10862,8.0487a6.786,6.786,0,0,1-5.3614,0l-16.09718-8.0487c-1.474-.7359-1.474-1.9525-.00792-2.68092Z"/><path class="cls-87" d="M189.79509,390.81272a6.78633,6.78633,0,0,1,5.36382,0l16.0985,8.048c1.47422.744,1.47422,1.95272,0,2.68708L195.155,409.5939a6.75391,6.75391,0,0,1-5.36382,0l-16.10466-8.04606c-1.46872-.73436-1.46256-1.943,0-2.68708Z"/><path class="cls-88" d="M162.95729,377.39624a6.82944,6.82944,0,0,1,5.36536,0l16.1029,8.05068c1.48192.748,1.48192,1.94656.00572,2.68466l-16.10862,8.04452a6.73557,6.73557,0,0,1-5.36536,0l-16.093-8.04452c-1.48632-.7381-1.46652-1.95228,0-2.68466Z"/><polygon class="cls-89" points="688.922 482.075 337.426 306.327 329.829 310.12 681.328 485.872 688.922 482.075"/><path class="cls-90" d="M303.03965,555.86816c-28.73-14.368-35.91236,38.66192-59.884,26.67368-12.2463-6.12458-30.3336-119.16542-64.81772-136.41122-36.01708-18.01228-50.60836,63.42116-67.04632,55.2002C84.22655,487.7951,83.56611,462.11494,67.098,453.879,44.6402,442.6478,35.8534,478.96122,20.44174,471.25374v34.92632L358.5626,675.27712V631.938C331.84447,618.57608,337.47647,573.09042,303.03965,555.86816Z"/><path class="cls-91" d="M59.33663,487.46026c28.73,14.3682,27.37746,51.40674,51.3491,63.395,12.2463,6.12458,44.3322-32.62776,78.81654-15.382,36.01686,18.0125,41.33074,64.9253,57.76893,73.146,27.06483,13.53528,27.72549-7.18278,44.19337,1.05292,22.45783,11.23144,31.24463,52.032,46.6565,59.73946v15.92338L0,516.238V491.90184C26.71812,505.26376,24.89982,470.23822,59.33663,487.46026Z"/><path class="cls-92" d="M352.05125,274.25958V74.83068a2.78446,2.78446,0,0,1,4.03-2.4904l321.43825,160.7584a2.7847,2.7847,0,0,1,1.53914,2.4904V435.0182a2.7846,2.7846,0,0,1-4.03,2.4904L353.59015,276.75A2.78438,2.78438,0,0,1,352.05125,274.25958Z"/><path class="cls-93" d="M352.05125,86.6372V74.83068a2.78446,2.78446,0,0,1,4.03-2.4904l321.43825,160.7584a2.7847,2.7847,0,0,1,1.53914,2.4904V250.1808Z"/><path class="cls-94" d="M362.92431,83.89182c0,1.36224-1.1044,1.91444-2.46686,1.2331a4.64195,4.64195,0,0,1-2.46664-3.7004c0-1.36246,1.1044-1.91466,2.46664-1.23332A4.64173,4.64173,0,0,1,362.92431,83.89182Z"/><path class="cls-95" d="M372.0244,88.4863c0,1.36224-1.1044,1.91444-2.46687,1.2331a4.64221,4.64221,0,0,1-2.46686-3.7004c0-1.36246,1.10462-1.91444,2.46686-1.2331A4.64138,4.64138,0,0,1,372.0244,88.4863Z"/><path class="cls-96" d="M381.12447,93.08078c0,1.36246-1.1044,1.91444-2.46686,1.2331a4.64221,4.64221,0,0,1-2.46686-3.7004c0-1.36246,1.10462-1.91444,2.46686-1.2331A4.64139,4.64139,0,0,1,381.12447,93.08078Z"/><path class="cls-97" d="M407.17665,192.1272c27.78555,13.89586,33.30469,54.0177,56.48829,65.61214,11.84392,5.92306,39.4064-10.48322,56.0461-2.23938,37.5474,18.60232,43.1046,71.15636,59.00246,79.10694,26.17538,13.09022,39.2953-4.1107,55.222,3.8544,21.71972,10.86206,30.21766,41.45152,45.12288,48.90578V435.0182a2.78458,2.78458,0,0,1-4.03,2.4904l-321.438-160.75378a2.78438,2.78438,0,0,1-1.5389-2.4904V215.69206C377.89135,228.61486,373.87173,175.47122,407.17665,192.1272Z"/><rect class="cls-98" x="627.38806" y="298.75284" width="2.2" height="115.44852"/><rect class="cls-98" x="518.85986" y="244.51228" width="2.2" height="115.44852"/><rect class="cls-98" x="394.18609" y="182.2206" width="2.2" height="115.44852"/><path class="cls-98" d="M382.08807,167.58444c3.20562-1.591,5.01028-2.61052,5.01028-4.33356a3.45372,3.45372,0,0,0-2.0196-3.09914,2.1484,2.1484,0,0,0-2.273.15158l-.7821-1.17744a3.02192,3.02192,0,0,1,3.22059-.01078,5.47523,5.47523,0,0,1,3.18823,4.73748c0,2.00662-1.81962,3.08506-4.33972,4.46644.58432.24178,1.2353.51678,1.7875.79288l3.08726,1.54462v1.18712l-6.8794-3.4408Z"/><path class="cls-98" d="M390.08463,167.03642c0-3.57808,1.287-4.8576,3.42254-3.78972,2.12036,1.06128,3.40516,3.62648,3.40516,7.20368,0,3.5783-1.2848,4.92426-3.40516,3.86386C391.37163,173.24658,390.08463,170.61362,390.08463,167.03642Zm5.49362,2.74582c0-3.126-.83578-4.8125-2.07108-5.43136-1.25048-.625-2.08626.22682-2.08626,3.35368,0,3.126.83578,4.88136,2.08626,5.5066C394.74247,173.8298,395.57825,172.90822,395.57825,169.78224Z"/><path class="cls-98" d="M398.23805,175.3434l2.43826,1.21924v-7.85686l-1.93556-.96888v-.88726a5.44656,5.44656,0,0,0,2.25368.34254l1.0505.52536v9.5293l2.2044,1.1022v1.13652l-6.01128-3.00564Z"/><path class="cls-98" d="M405.62631,178.9217l.67034-.56936a7.065,7.065,0,0,0,2.68555,2.5652c1.30194.651,2.33748.21494,2.33748-1.27182a3.9374,3.9374,0,0,0-2.27084-3.47622,2.57638,2.57638,0,0,0-1.81961-.25784l-.7326-.83578.348-4.95748,5.32795,2.6642v1.1869l-4.125-2.0625-.28358,3.01642a3.19111,3.19111,0,0,1,1.63723.38566,5.65534,5.65534,0,0,1,3.30418,4.9951c0,2.30736-1.7358,2.74362-3.59,1.81654A8.99893,8.99893,0,0,1,405.62631,178.9217Z"/><path class="cls-98" d="M507.32262,231.02342c3.20562-1.58884,5.00808-2.6103,5.00808-4.33136a3.45645,3.45645,0,0,0-2.0196-3.10112,2.14133,2.14133,0,0,0-2.27084.15136l-.78406-1.17722a3.02558,3.02558,0,0,1,3.22034-.01078,5.47468,5.47468,0,0,1,3.18826,4.73726c0,2.00662-1.81964,3.08528-4.33974,4.46666.58434.24156,1.2353.51766,1.7875.79266l3.08726,1.54484v1.1869l-6.8772-3.43948Z"/><path class="cls-98" d="M515.3192,230.47562c0-3.5772,1.2848-4.8576,3.42032-3.78774,2.12256,1.06128,3.40516,3.6245,3.40516,7.20148,0,3.5783-1.2826,4.92646-3.40516,3.86518C516.604,236.68556,515.3192,234.0537,515.3192,230.47562Zm5.4914,2.7456c0-3.126-.83358-4.8125-2.07108-5.43114-1.25048-.62524-2.08626.2266-2.08626,3.35368,0,3.126.83578,4.88114,2.08626,5.50638C519.977,237.269,520.8106,236.3472,520.8106,233.22122Z"/><path class="cls-98" d="M523.4704,238.7826l2.43848,1.22012V232.145l-1.93578-.9691v-.88506a5.46122,5.46122,0,0,0,2.2537.34056l1.05048.52624v9.52952l2.2044,1.1022v1.13652l-6.01128-3.00674Z"/><path class="cls-98" d="M530.82016,240.86974a1.8102,1.8102,0,0,1,2.00444-1.87352v-.06666a5.412,5.412,0,0,1-1.48656-3.201c0-1.63724,1.30176-2.09044,3.0228-1.22892a5.14718,5.14718,0,0,1,3.00564,4.34412,1.87356,1.87356,0,0,1-1.4696,1.839v.06776a5.64371,5.64371,0,0,1,1.852,3.6674c0,1.58862-1.36862,2.158-3.4375,1.12354C532.30692,244.53934,530.82016,242.55846,530.82016,240.86974Zm5.60956,2.838c0-1.3706-1.35146-2.548-2.8875-3.93382a1.54336,1.54336,0,0,0-1.48456,1.58026,3.98059,3.98059,0,0,0,2.286,3.183C535.579,245.15578,536.42972,244.81214,536.42972,243.70774Zm-.24926-5.39044a3.28981,3.28981,0,0,0-1.852-2.81446c-.986-.49412-1.72084-.17512-1.72084.86152,0,1.26984,1.16864,2.3892,2.45344,3.5343A1.587,1.587,0,0,0,536.18046,238.3173Z"/><path class="cls-98" d="M614.15154,285.12538c3.20562-1.58884,5.00808-2.6103,5.00808-4.33136a3.44993,3.44993,0,0,0-2.0196-3.1,2.13954,2.13954,0,0,0-2.27082.15026l-.7841-1.17722a3.02592,3.02592,0,0,1,3.22036-.01078,5.473,5.473,0,0,1,3.19044,4.73726c0,2.00662-1.81962,3.08506-4.3419,4.46666.5843.24266,1.23748.51766,1.78748.79376l3.08726,1.54374v1.1869l-6.8772-3.43948Z"/><path class="cls-98" d="M622.1481,284.57758c0-3.5772,1.2848-4.8576,3.42254-3.78774,2.12036,1.06128,3.40516,3.6245,3.40516,7.20148,0,3.5783-1.2848,4.92646-3.40516,3.86518C623.4329,290.78752,622.1481,288.15566,622.1481,284.57758Zm5.49142,2.7456c0-3.126-.83358-4.8125-2.06888-5.43114-1.25048-.62524-2.08624.2277-2.08624,3.35368s.83576,4.88114,2.08624,5.50638C626.80594,291.371,627.63952,290.44916,627.63952,287.32318Z"/><path class="cls-98" d="M630.09076,293.096c3.20344-1.58972,5.00588-2.6103,5.00588-4.33334a3.45,3.45,0,0,0-2.01938-3.09914,2.14168,2.14168,0,0,0-2.27106.15158l-.78408-1.17744a3.02217,3.02217,0,0,1,3.22058-.01078,5.47394,5.47394,0,0,1,3.19044,4.73748c0,2.00662-1.81984,3.08506-4.34214,4.46644.58454.24178,1.2375.51678,1.7875.79288l3.08946,1.54462v1.18712l-6.8772-3.4397Z"/><path class="cls-98" d="M638.36452,297.234c3.2054-1.58994,5.00808-2.6103,5.00808-4.33136a3.45148,3.45148,0,0,0-2.0196-3.1,2.14214,2.14214,0,0,0-2.27084.15246l-.7843-1.17832a3.02819,3.02819,0,0,1,3.22058-.01188,5.47326,5.47326,0,0,1,3.19044,4.73836c0,2.00552-1.81984,3.08616-4.33994,4.46556.58432.24266,1.2353.51766,1.7853.79376l3.08946,1.54484v1.1869l-6.87918-3.44058Z"/><g class="cls-99"><path class="cls-92" d="M134.87275,186.6745V63.00084a1.72681,1.72681,0,0,1,2.4992-1.5444L336.70845,161.149a1.72665,1.72665,0,0,1,.95436,1.5444V286.36706a1.72681,1.72681,0,0,1-2.4992,1.5444L135.82733,188.2189A1.72685,1.72685,0,0,1,134.87275,186.6745Z"/><path class="cls-100" d="M134.87275,70.32244v-7.3216a1.72681,1.72681,0,0,1,2.4992-1.5444L336.70845,161.149a1.72665,1.72665,0,0,1,.95436,1.5444v9.04882Z"/><path class="cls-101" d="M141.61575,68.61986c0,.845-.68486,1.18734-1.52988.76472a2.87816,2.87816,0,0,1-1.52966-2.29482c0-.8448.68486-1.18712,1.52966-.76472A2.87856,2.87856,0,0,1,141.61575,68.61986Z"/><path class="cls-102" d="M147.259,71.46908c0,.845-.68486,1.18734-1.52966.76472a2.87792,2.87792,0,0,1-1.52988-2.29482c0-.8448.68486-1.18712,1.52988-.76472A2.8788,2.8788,0,0,1,147.259,71.46908Z"/><path class="cls-103" d="M152.9022,74.3183c0,.845-.68487,1.18734-1.52967.76472a2.87816,2.87816,0,0,1-1.52966-2.29482c0-.8448.68486-1.18712,1.52966-.7645A2.87815,2.87815,0,0,1,152.9022,74.3183Z"/><path class="cls-104" d="M185.41687,117.30212c-11.37642-4.38746-20.979-2.94712-26.93306,2.8655l31.2279,36.74968,32.49334-2.902C214.86585,137.9126,200.68531,123.19042,185.41687,117.30212Z"/><path class="cls-105" d="M158.48381,120.16762c-4.87608,4.76014-7.308,12.44936-6.2403,22.29986.08624.79354.19624,1.59038.3245,2.38942l37.1437,12.0604Z"/><path class="cls-106" d="M189.71171,156.9173,152.568,144.8569c3.40912,21.22428,21.496,43.9846,41.43832,51.67558,17.91372,6.90844,31.44087-.61446,33.21494-16.95232Z"/><path class="cls-107" d="M227.17969,171.36712a57.11161,57.11161,0,0,0-4.97464-17.35184l-32.49334,2.902,37.50956,22.66286A38.04406,38.04406,0,0,0,227.17969,171.36712Z"/><polygon class="cls-98" points="287.363 190.929 242.144 168.314 242.144 172.476 287.363 195.09 287.363 190.929"/><polygon class="cls-98" points="271.746 172.171 242.144 157.367 242.144 153.205 271.746 168.009 271.746 172.171"/><polygon class="cls-98" points="307.905 190.255 275.893 174.245 275.893 170.083 307.905 186.093 307.905 190.255"/><polygon class="cls-98" points="265.802 176.753 275.893 181.8 275.893 177.638 265.802 172.591 265.802 176.753"/><polygon class="cls-98" points="242.144 164.921 260.631 174.167 260.631 170.005 242.144 160.76 242.144 164.921"/><polygon class="cls-98" points="271.746 213.885 242.144 199.081 242.144 203.242 271.746 218.047 271.746 213.885"/><polygon class="cls-98" points="265.802 203.358 275.893 208.404 275.893 212.566 265.802 207.52 265.802 203.358"/><polygon class="cls-98" points="242.144 191.526 260.631 200.772 260.631 204.933 242.144 195.688 242.144 191.526"/></g><g class="cls-108"><path class="cls-92" d="M558.60924,385.76724V224.57478a2.25057,2.25057,0,0,1,3.25732-2.01278L821.67533,352.49818a2.25061,2.25061,0,0,1,1.24388,2.01278V515.70342a2.25057,2.25057,0,0,1-3.25732,2.01278L559.85334,387.78A2.25041,2.25041,0,0,1,558.60924,385.76724Z"/><path class="cls-109" d="M558.60924,234.11772v-9.54294a2.25057,2.25057,0,0,1,3.25732-2.01278L821.67533,352.49818a2.25061,2.25061,0,0,1,1.24388,2.01278v11.794Z"/><ellipse class="cls-110" cx="565.40394" cy="230.90154" rx="1.55672" ry="2.55376" transform="translate(-22.35231 396.85253) rotate(-37.98113)"/><path class="cls-111" d="M574.75306,235.61218c0,1.10132-.89276,1.54748-1.99386.99682a3.75186,3.75186,0,0,1-1.99386-2.9909c0-1.10132.89276-1.54748,1.99386-.99682A3.75186,3.75186,0,0,1,574.75306,235.61218Z"/><path class="cls-112" d="M582.10832,239.32578c0,1.10132-.89276,1.54748-1.99386.99682a3.75186,3.75186,0,0,1-1.99386-2.9909c0-1.10132.89276-1.54748,1.99386-.99682A3.75186,3.75186,0,0,1,582.10832,239.32578Z"/><polygon class="cls-113" points="666.812 412.678 651.601 405.07 651.601 356.979 666.812 364.587 666.812 412.678"/><polygon class="cls-114" points="618.156 388.344 602.944 380.737 602.944 313.409 618.156 321.017 618.156 388.344"/><polygon class="cls-115" points="593.827 376.177 578.615 368.57 578.615 272.388 593.827 279.995 593.827 376.177"/><polygon class="cls-116" points="642.484 400.511 627.272 392.904 627.272 315.958 642.484 323.565 642.484 400.511"/><polygon class="cls-98" points="712.178 390.087 700.651 384.322 700.651 378.897 712.178 384.662 712.178 390.087"/><polygon class="cls-98" points="741.325 404.663 717.172 392.584 717.172 387.16 741.325 399.239 741.325 404.663"/><polygon class="cls-98" points="700.651 394.168 738.598 413.146 738.598 407.721 700.651 388.744 700.651 394.168"/><polygon class="cls-98" points="766.118 431.331 700.651 398.59 700.651 404.014 766.118 436.755 766.118 431.331"/><polygon class="cls-98" points="742.376 375.227 700.651 354.36 700.651 348.936 742.376 369.803 742.376 375.227"/><polygon class="cls-98" points="776.516 392.301 747.37 377.724 747.37 372.3 776.516 386.876 776.516 392.301"/><polygon class="cls-98" points="700.651 364.206 766.118 396.947 766.118 391.523 700.651 358.782 700.651 364.206"/></g></g></g></g></svg>