<svg xmlns="http://www.w3.org/2000/svg"  viewBox="0 0 480 480" width="232px" height="232px"><polygon fill="#eef7ff" points="447,376.695 447,449.695 8,449.695 8,136.695 89,136.695 147,337.695 193,223.695 295,223.695 361,58.695"/><path fill="#cbe3fa" d="M472,457.695H8c-4.418,0-8-3.582-8-8V30.305c0-4.418,3.582-8,8-8s8,3.582,8,8v411.39h456	c4.418,0,8,3.582,8,8S476.418,457.695,472,457.695z"/><path fill="#cbe3fa" d="M446.995,384.697c-3.525,0-6.753-2.348-7.718-5.913L359.531,83.908l-57.104,142.758	c-1.215,3.038-4.156,5.029-7.428,5.029h-96.602l-43.979,108.993c-2.835,7.026-13,6.52-15.105-0.775L82.982,144.695H41	c-4.418,0-8-3.582-8-8s3.582-8,8-8h48c3.564,0,6.698,2.357,7.687,5.782l51.571,178.722l37.323-92.497	c1.221-3.025,4.156-5.007,7.419-5.007h96.584l63.988-159.971c2.832-7.082,13.144-6.539,15.15,0.882l86,318	C456.094,379.68,452.275,384.697,446.995,384.697z"/><circle cx="361" cy="58.695" r="25" fill="#9cbcff"/><circle cx="295" cy="223.695" r="25" fill="#9cbcff"/><circle cx="447" cy="376.695" r="25" fill="#9cbcff"/><circle cx="193" cy="223.695" r="25" fill="#9cbcff"/><circle cx="147" cy="337.695" r="25" fill="#9cbcff"/><circle cx="89" cy="136.695" r="25" fill="#9cbcff"/><path fill="#bdd2ff" d="M449.431,367.025c-5.257,2.524-9.575,6.849-12.096,12.107c-3.807,7.939-15.756,5.023-15.3-3.77	c0.652-12.577,10.76-22.716,23.123-23.601C454.672,351.08,457.285,363.254,449.431,367.025z"/><path fill="#bdd2ff" d="M363.409,49.002c-5.257,2.524-9.575,6.849-12.096,12.107c-3.807,7.939-15.756,5.023-15.3-3.77	c0.652-12.577,10.76-22.716,23.123-23.601C368.651,33.057,371.263,45.232,363.409,49.002z"/><path fill="#bdd2ff" d="M297.409,214.002c-5.257,2.524-9.575,6.849-12.096,12.107c-3.807,7.939-15.756,5.023-15.3-3.77	c0.652-12.577,10.76-22.716,23.123-23.601C302.651,198.057,305.263,210.232,297.409,214.002z"/><path fill="#bdd2ff" d="M195.409,214.002c-5.257,2.524-9.575,6.849-12.096,12.107c-3.807,7.939-15.756,5.023-15.3-3.77	c0.652-12.577,10.76-22.716,23.123-23.601C200.651,198.057,203.263,210.232,195.409,214.002z"/><path fill="#bdd2ff" d="M149.409,328.002c-5.257,2.524-9.575,6.849-12.096,12.107c-3.807,7.939-15.756,5.023-15.3-3.77	c0.652-12.577,10.76-22.716,23.123-23.601C154.651,312.057,157.263,324.232,149.409,328.002z"/><path fill="#bdd2ff" d="M91.409,127.002c-5.257,2.524-9.575,6.849-12.096,12.107c-3.807,7.939-15.756,5.023-15.3-3.77	c0.652-12.577,10.76-22.716,23.123-23.601C96.651,111.057,99.263,123.232,91.409,127.002z"/></svg>