<svg xmlns="http://www.w3.org/2000/svg" width="1331.61051" height="1331.9248" viewBox="0 0 1331.61051 1331.9248"><defs><style>.cls-1,.cls-53,.cls-54{fill:#f0f2f6;}.cls-2{opacity:0.8;}.cls-3,.cls-4{fill:#fff;}.cls-4{opacity:0.98039;}.cls-5{fill:#fefeff;opacity:0.96078;}.cls-6,.cls-7,.cls-8{fill:#fefefe;}.cls-6{opacity:0.94118;}.cls-7{opacity:0.92157;}.cls-8{opacity:0.90196;}.cls-10,.cls-11,.cls-9{fill:#fdfdfe;}.cls-9{opacity:0.88235;}.cls-10{opacity:0.86274;}.cls-11{opacity:0.84314;}.cls-12{fill:#fcfdfd;opacity:0.82353;}.cls-13,.cls-14{fill:#fcfcfd;}.cls-13{opacity:0.80392;}.cls-14{opacity:0.78431;}.cls-15,.cls-16{fill:#fbfcfd;}.cls-15{opacity:0.76471;}.cls-16{opacity:0.7451;}.cls-17{fill:#fbfbfd;opacity:0.72549;}.cls-18{fill:#fbfbfc;opacity:0.70588;}.cls-19,.cls-20{fill:#fafbfc;}.cls-19{opacity:0.68627;}.cls-20{opacity:0.66667;}.cls-21{fill:#fafafc;opacity:0.64706;}.cls-22{fill:#f9fafc;opacity:0.62745;}.cls-23,.cls-24{fill:#f9fafb;}.cls-23{opacity:0.60784;}.cls-24{opacity:0.58823;}.cls-25{fill:#f9f9fb;opacity:0.56863;}.cls-26,.cls-27,.cls-28{fill:#f8f9fb;}.cls-26{opacity:0.54902;}.cls-27{opacity:0.52941;}.cls-28{opacity:0.5098;}.cls-29,.cls-30,.cls-31{fill:#f7f8fa;}.cls-29{opacity:0.4902;}.cls-30{opacity:0.47059;}.cls-31{opacity:0.45098;}.cls-32{fill:#f6f8fa;opacity:0.43137;}.cls-33,.cls-34{fill:#f6f7fa;}.cls-33{opacity:0.41176;}.cls-34{opacity:0.39216;}.cls-35{fill:#f6f7f9;opacity:0.37255;}.cls-36{fill:#f5f7f9;opacity:0.35294;}.cls-37,.cls-38{fill:#f5f6f9;}.cls-37{opacity:0.33333;}.cls-38{opacity:0.31372;}.cls-39{fill:#f4f6f9;opacity:0.29412;}.cls-40{fill:#f4f6f8;opacity:0.27451;}.cls-41,.cls-42{fill:#f4f5f8;}.cls-41{opacity:0.2549;}.cls-42{opacity:0.23529;}.cls-43,.cls-44{fill:#f3f5f8;}.cls-43{opacity:0.21569;}.cls-44{opacity:0.19608;}.cls-45{fill:#f3f4f8;opacity:0.17647;}.cls-46,.cls-47,.cls-48{fill:#f2f4f7;}.cls-46{opacity:0.15686;}.cls-47{opacity:0.13725;}.cls-48{opacity:0.11765;}.cls-49,.cls-50,.cls-51{fill:#f1f3f7;}.cls-49{opacity:0.09804;}.cls-50{opacity:0.07843;}.cls-51{opacity:0.05882;}.cls-52{fill:#f1f3f6;opacity:0.03922;}.cls-53{opacity:0.01961;}.cls-54{opacity:0;}.cls-55{opacity:0.07;}.cls-56{fill:#156393;opacity:0.81;}.cls-57{fill:#196695;opacity:0.79412;}.cls-58{fill:#1e6997;opacity:0.77824;}.cls-59{fill:#226b99;opacity:0.76235;}.cls-60{fill:#266e9b;opacity:0.74647;}.cls-61{fill:#2a719d;opacity:0.73059;}.cls-62{fill:#2f749f;opacity:0.71471;}.cls-63{fill:#3377a1;opacity:0.69882;}.cls-64{fill:#3779a3;opacity:0.68294;}.cls-65{fill:#3c7ca4;opacity:0.66706;}.cls-66{fill:#407fa6;opacity:0.65118;}.cls-67{fill:#4482a8;opacity:0.63529;}.cls-68{fill:#4985aa;opacity:0.61941;}.cls-69{fill:#4d87ac;opacity:0.60353;}.cls-70{fill:#518aae;opacity:0.58765;}.cls-71{fill:#558db0;opacity:0.57176;}.cls-72{fill:#5a90b2;opacity:0.55588;}.cls-73{fill:#5e93b4;opacity:0.54;}.cls-74{fill:#6295b6;opacity:0.52412;}.cls-75{fill:#6798b8;opacity:0.50823;}.cls-76{fill:#6b9bba;opacity:0.49235;}.cls-77{fill:#6f9ebc;opacity:0.47647;}.cls-78{fill:#73a1be;opacity:0.46059;}.cls-79{fill:#78a3c0;opacity:0.44471;}.cls-80{fill:#7ca6c2;opacity:0.42882;}.cls-81{fill:#80a9c4;opacity:0.41294;}.cls-82{fill:#85acc5;opacity:0.39706;}.cls-83{fill:#89afc7;opacity:0.38118;}.cls-84{fill:#8db2c9;opacity:0.36529;}.cls-85{fill:#92b4cb;opacity:0.34941;}.cls-86{fill:#96b7cd;opacity:0.33353;}.cls-87{fill:#9abacf;opacity:0.31765;}.cls-88{fill:#9ebdd1;opacity:0.30177;}.cls-89{fill:#a3c0d3;opacity:0.28588;}.cls-90{fill:#a7c2d5;opacity:0.27;}.cls-91{fill:#abc5d7;opacity:0.25412;}.cls-92{fill:#b0c8d9;opacity:0.23824;}.cls-93{fill:#b4cbdb;opacity:0.22235;}.cls-94{fill:#b8cedd;opacity:0.20647;}.cls-95{fill:#bcd0df;opacity:0.19059;}.cls-96{fill:#c1d3e1;opacity:0.17471;}.cls-97{fill:#c5d6e3;opacity:0.15882;}.cls-98{fill:#c9d9e5;opacity:0.14294;}.cls-99{fill:#cedce6;opacity:0.12706;}.cls-100{fill:#d2dee8;opacity:0.11118;}.cls-101{fill:#d6e1ea;opacity:0.09529;}.cls-102{fill:#dbe4ec;opacity:0.07941;}.cls-103{fill:#dfe7ee;opacity:0.06353;}.cls-104{fill:#e3eaf0;opacity:0.04765;}.cls-105{fill:#e7ecf2;opacity:0.03177;}.cls-106{fill:#eceff4;opacity:0.01588;}</style></defs><g id="Layer_2" data-name="Layer 2"><g id="Layer_1-2" data-name="Layer 1"><path class="cls-1" d="M233.60349,1.8961h865.98542a232.0216,232.0216,0,0,1,232.0216,232.0216v865.98552a232.02158,232.02158,0,0,1-232.02158,232.02158H233.60351A232.0216,232.0216,0,0,1,1.58191,1099.9032V233.91768A232.02158,232.02158,0,0,1,233.60349,1.8961Z"/><g class="cls-2"><path class="cls-3" d="M1099.28561,1331.9248H232.32509c-128.30949,0-230.42218-103.8315-230.42218-232.141V233.0858A230.38012,230.38012,0,0,1,233.08579,1.9028h865.74672c128.3096,0,232.778,102.1127,232.778,230.4223v867.2746C1331.61051,1227.9093,1227.59511,1331.9248,1099.28561,1331.9248Z"/><path class="cls-4" d="M1097.93031,1330.2832H232.03869c-128.15139,0-230.17309-103.7068-230.17309-231.8582V232.7844A230.13165,230.13165,0,0,1,232.78439,1.8655h864.70172c128.1514,0,232.4828,102.0217,232.4828,230.1731v866.206C1329.96891,1226.396,1226.08171,1330.2832,1097.93031,1330.2832Z"/><path class="cls-5" d="M1096.57511,1328.6416H231.75229c-127.99319,0-229.924-103.5822-229.924-231.5755V232.4832A229.88342,229.88342,0,0,1,232.48319,1.8281h863.65662c127.9933,0,232.1875,101.931,232.1875,229.9241v865.1372C1328.32731,1224.8827,1224.56841,1328.6416,1096.57511,1328.6416Z"/><path class="cls-6" d="M1095.21991,1327h-863.754C103.6308,1327,1.7908,1223.5425,1.7908,1095.7074V232.1818a229.63517,229.63517,0,0,1,230.391-230.391h862.61172c127.8351,0,231.8922,101.84,231.8922,229.675v864.0684C1326.68571,1223.3692,1223.05491,1327,1095.21991,1327Z"/><path class="cls-7" d="M1093.86471,1325.3584H231.17959c-127.67689,0-229.42609-103.3329-229.42609-231.0098V231.8805A229.3869,229.3869,0,0,1,231.88059,1.7535h861.56652c127.677,0,231.597,101.7492,231.597,229.4259V1094.179C1325.04411,1221.8559,1221.54161,1325.3584,1093.86471,1325.3584Z"/><path class="cls-8" d="M1092.50951,1323.7168H230.89319c-127.51879,0-229.177-103.2083-229.177-230.7271V231.5793A229.13862,229.13862,0,0,1,231.57929,1.7162h860.52162c127.5186,0,231.3018,101.6582,231.3018,229.177v861.9306C1323.40271,1220.3425,1220.02821,1323.7168,1092.50951,1323.7168Z"/><path class="cls-9" d="M1091.15431,1322.0752H230.60679c-127.36059,0-228.92788-103.0838-228.92788-230.4444V231.2779A228.8903,228.8903,0,0,1,231.278,1.6789h859.47662c127.3606,0,231.0065,101.5673,231.0065,228.9279v860.8618C1321.76111,1218.8292,1218.51491,1322.0752,1091.15431,1322.0752Z"/><path class="cls-10" d="M1089.79911,1320.4338H230.32039c-127.20248,0-228.67879-102.9593-228.67879-230.1617V230.9767A228.642,228.642,0,0,1,230.97669,1.6416h858.43152c127.2024,0,230.7113,101.4763,230.7113,228.6788v859.793C1320.11951,1217.3157,1217.00161,1320.4338,1089.79911,1320.4338Z"/><path class="cls-11" d="M1088.44391,1318.7922H230.034c-127.04419,0-228.42969-102.8347-228.42969-229.8789V230.6753A228.39363,228.39363,0,0,1,230.67549,1.6043h857.38642c127.0442,0,230.416,101.3855,230.416,228.4297v858.7242C1318.47791,1215.8024,1215.48811,1318.7922,1088.44391,1318.7922Z"/><path class="cls-12" d="M1087.08871,1317.1506H229.74779C102.8617,1317.1506,1.567,1214.4405,1.567,1087.5544V230.3741A228.14534,228.14534,0,0,1,230.37409,1.567h856.34162c126.886,0,230.1206,101.2945,230.1206,228.1806V1087.403C1316.83631,1214.289,1213.97481,1317.1506,1087.08871,1317.1506Z"/><path class="cls-13" d="M1085.73351,1315.509H229.46139c-126.728,0-227.93159-102.5854-227.93159-229.3134V230.0729A227.897,227.897,0,0,1,230.07291,1.5297h855.2963c126.728,0,229.8255,101.2036,229.8255,227.9315v856.5865C1315.19471,1212.7757,1212.46141,1315.509,1085.73351,1315.509Z"/><path class="cls-14" d="M1084.37841,1313.8674H229.175c-126.56979,0-227.68249-102.4608-227.68249-229.0305V229.7715A227.64871,227.64871,0,0,1,229.77149,1.4924h854.25142c126.5698,0,229.5302,101.1126,229.5302,227.6825v855.5176C1313.55311,1211.2624,1210.94811,1313.8674,1084.37841,1313.8674Z"/><path class="cls-15" d="M1083.023,1312.2258H228.88859c-126.41168,0-227.43339-102.3361-227.43339-228.7478V229.4703A227.40041,227.40041,0,0,1,229.47029,1.4551h853.20642c126.4115,0,229.2348,101.0218,229.2348,227.4334v854.4488C1311.91151,1209.7489,1209.43461,1312.2258,1083.023,1312.2258Z"/><path class="cls-16" d="M1081.66781,1310.5842H228.60219c-126.25339,0-227.18428-102.2115-227.18428-228.465V229.1689A227.15216,227.15216,0,0,1,229.16909,1.4177h852.16122c126.2535,0,228.9396,100.9309,228.9396,227.1844v853.38C1310.26991,1208.2356,1207.92131,1310.5842,1081.66781,1310.5842Z"/><path class="cls-17" d="M1080.31261,1308.9426H228.31591c-126.09541,0-226.93531-102.0869-226.93531-228.1823V228.8677A226.9039,226.9039,0,0,1,228.86769,1.3804H1079.984c126.0953,0,228.6443,100.8401,228.6443,226.9353v852.3112C1308.62831,1206.7222,1206.40791,1308.9426,1080.31261,1308.9426Z"/><path class="cls-18" d="M1078.95741,1307.301H228.02949c-125.93719,0-226.68639-101.9622-226.68639-227.8994V228.5664A226.65583,226.65583,0,0,1,228.56649,1.3431h850.07122c125.937,0,228.349,100.7492,228.349,226.6862v851.2424C1306.98671,1205.2089,1204.89461,1307.301,1078.95741,1307.301Z"/><path class="cls-19" d="M1077.60221,1305.6594H227.74309c-125.77909,0-226.43729-101.8376-226.43729-227.6166V228.2651A226.40749,226.40749,0,0,1,228.26509,1.3058h849.02622c125.7791,0,228.054,100.6582,228.054,226.4371v850.1736C1305.34531,1203.6954,1203.38131,1305.6594,1077.60221,1305.6594Z"/><path class="cls-20" d="M1076.247,1304.0179H227.45669c-125.62078,0-226.18819-101.7132-226.18819-227.334V227.9638A226.15919,226.15919,0,0,1,227.96391,1.2685H1075.945c125.6208,0,227.7587,100.5674,227.7587,226.1882v849.1046C1303.70371,1202.1821,1201.86791,1304.0179,1076.247,1304.0179Z"/><path class="cls-21" d="M1074.89191,1302.3764H227.17029c-125.46269,0-225.93909-101.5887-225.93909-227.0514V227.6626A225.911,225.911,0,0,1,227.66259,1.2312h846.93622c125.4625,0,227.4633,100.4764,227.4633,225.9391v848.0358C1302.06211,1200.6687,1200.35461,1302.3764,1074.89191,1302.3764Z"/><path class="cls-22" d="M1073.53671,1300.7348H226.88409c-125.30459,0-225.69018-101.464-225.69018-226.7685V227.3612A225.66266,225.66266,0,0,1,227.36119,1.1939h845.89112c125.3046,0,227.1682,100.3855,227.1682,225.69V1073.851C1300.42051,1199.1554,1198.84111,1300.7348,1073.53671,1300.7348Z"/><path class="cls-23" d="M1072.18151,1299.0932H226.59769c-125.14639,0-225.44109-101.3394-225.44109-226.4857V227.06A225.41447,225.41447,0,0,1,227.06,1.1566h844.84612c125.1463,0,226.8728,100.2945,226.8728,225.4409v845.8983C1298.77891,1197.6421,1197.32781,1299.0932,1072.18151,1299.0932Z"/><path class="cls-24" d="M1070.82631,1297.4516h-844.515c-124.98829,0-225.19189-101.2147-225.19189-226.203v-844.49A225.166,225.166,0,0,1,226.75859,1.1193h843.80122c124.9881,0,226.5775,100.2037,226.5775,225.1918v844.8295C1297.13731,1196.1286,1195.81441,1297.4516,1070.82631,1297.4516Z"/><path class="cls-25" d="M1069.47111,1295.81H226.02491c-124.83,0-224.94281-101.0901-224.94281-225.9202V226.4574A224.91771,224.91771,0,0,1,226.45739,1.082h842.756c124.8299,0,226.2823,100.1127,226.2823,224.9427v843.7605C1295.49571,1194.6154,1194.30111,1295.81,1069.47111,1295.81Z"/><path class="cls-26" d="M1068.11591,1294.1685H225.73849c-124.67189,0-224.69369-100.9656-224.69369-225.6374V226.1562A224.66946,224.66946,0,0,1,226.15619,1.0447h841.71092c124.6719,0,225.9871,100.0219,225.9871,224.6937V1068.43C1293.85421,1193.1019,1192.78761,1294.1685,1068.11591,1294.1685Z"/><path class="cls-27" d="M1066.76051,1292.5269H225.45209c-124.51359,0-224.44459-100.8409-224.44459-225.3547V225.8548A224.42114,224.42114,0,0,1,225.85479,1.0073h840.66592c124.5137,0,225.6919,99.931,225.6919,224.4447v841.6228C1292.21261,1191.5886,1191.27431,1292.5269,1066.76051,1292.5269Z"/><path class="cls-28" d="M1065.40541,1290.8853H225.16579C100.8102,1290.8853.9702,1190.169.9702,1065.8134V225.5536A224.173,224.173,0,0,1,225.55359.97h839.62082c124.3555,0,225.3966,99.8401,225.3966,224.1956v840.554C1290.571,1190.0752,1189.761,1290.8853,1065.40541,1290.8853Z"/><path class="cls-29" d="M1064.05021,1289.2437H224.87939C100.682,1289.2437.9327,1188.6521.9327,1064.4547V225.2522A223.9249,223.9249,0,0,1,225.25239.9327h838.57572c124.1975,0,225.1013,99.7491,225.1013,223.9465v839.4853C1288.92941,1188.5619,1188.24761,1289.2437,1064.05021,1289.2437Z"/><path class="cls-30" d="M1062.695,1287.6021H224.593C100.5537,1287.6021.8954,1187.1351.8954,1063.0958V224.9509A223.6766,223.6766,0,0,1,224.951.8954h837.53072c124.0393,0,224.8061,99.6583,224.8061,223.6974v838.4165C1287.28781,1187.0484,1186.73431,1287.6021,1062.695,1287.6021Z"/><path class="cls-31" d="M1061.33981,1285.9605H224.30659C100.4256,1285.9605.8581,1185.618.8581,1061.7369V224.6497A223.4284,223.4284,0,0,1,224.64969.8581h836.48582c123.881,0,224.5108,99.5673,224.5108,223.4485v837.3475C1285.64631,1185.5351,1185.22091,1285.9605,1061.33981,1285.9605Z"/><path class="cls-32" d="M1059.98461,1284.3189H224.02019C100.2973,1284.3189.8208,1184.101.8208,1060.3781V224.3483A223.1801,223.1801,0,0,1,224.34839.8208h835.44082c123.7228,0,224.2156,99.4764,224.2156,223.1994v836.2787C1284.00481,1184.0218,1183.70751,1284.3189,1059.98461,1284.3189Z"/><path class="cls-33" d="M1058.62941,1282.6775H223.734C100.1691,1282.6775.7835,1182.5841.7835,1059.0194V224.0471A222.93192,222.93192,0,0,1,224.04709.7835h834.39572c123.5648,0,223.9204,99.3856,223.9204,222.9503v835.2099C1282.36321,1182.5084,1182.19411,1282.6775,1058.62941,1282.6775Z"/><path class="cls-34" d="M1057.27421,1281.0359H223.44759C100.0408,1281.0359.7462,1181.0671.7462,1057.6605V223.7457A222.68371,222.68371,0,0,1,223.74591.7462h833.3506c123.4066,0,223.6251,99.2946,223.6251,222.7012v834.1411C1280.72161,1180.9951,1180.68081,1281.0359,1057.27421,1281.0359Z"/><path class="cls-35" d="M1055.919,1279.3943H223.16119C99.9127,1279.3943.709,1179.5501.709,1056.3017V223.4445A222.43536,222.43536,0,0,1,223.44449.7089h832.30572c123.2483,0,223.3298,99.2038,223.3298,222.4521v833.0723C1279.08,1179.4816,1179.16731,1279.3943,1055.919,1279.3943Z"/><path class="cls-36" d="M1054.56381,1277.7527h-831.689C99.7846,1277.7527.6717,1178.0332.6717,1054.9428V223.1433A222.18715,222.18715,0,0,1,223.14329.6716h831.26052c123.0904,0,223.0346,99.1128,223.0346,222.203v832.0035C1277.43841,1177.9683,1177.654,1277.7527,1054.56381,1277.7527Z"/><path class="cls-37" d="M1053.20861,1276.1111H222.58839c-122.93209,0-221.954-99.5949-221.954-222.527V222.8419A221.93891,221.93891,0,0,1,222.84191.6343h830.2156c122.9322,0,222.7393,99.0219,222.7393,221.954v830.9345C1275.79681,1176.4549,1176.14071,1276.1111,1053.20861,1276.1111Z"/><path class="cls-38" d="M1051.85341,1274.4695H222.30209c-122.774,0-221.705-99.4702-221.705-222.2442V222.5407A221.69075,221.69075,0,0,1,222.54069.597h829.17062c122.7738,0,222.4439,98.9309,222.4439,221.7049v829.8657C1274.15521,1174.9416,1174.62731,1274.4695,1051.85341,1274.4695Z"/><path class="cls-39" d="M1050.49811,1272.8279H222.01569C99.3998,1272.8279.5598,1173.4823.5598,1050.8664V222.2393A221.44265,221.44265,0,0,1,222.23949.5596h828.12532c122.6159,0,222.1488,98.8402,222.1488,221.4559v828.7969C1272.51361,1173.4281,1173.114,1272.8279,1050.49811,1272.8279Z"/><path class="cls-40" d="M1049.14291,1271.1863H221.72929c-122.45759,0-221.207-99.221-221.207-221.6787V221.9381A221.19458,221.19458,0,0,1,221.93809.5223h827.08052c122.4576,0,221.8534,98.7492,221.8534,221.2068v827.7281C1270.872,1171.9148,1171.60051,1271.1863,1049.14291,1271.1863Z"/><path class="cls-41" d="M1047.78771,1269.5447H221.44291C99.1434,1269.5447.485,1170.4482.485,1048.1489V221.6368A220.94636,220.94636,0,0,1,221.63691.485h826.0354c122.2994,0,221.5581,98.6583,221.5581,220.9577V1048.102C1269.23041,1170.4015,1170.08721,1269.5447,1047.78771,1269.5447Z"/><path class="cls-42" d="M1046.43251,1267.9031h-825.276C99.0152,1267.9031.4477,1168.9313.4477,1046.79V221.3355A220.69816,220.69816,0,0,1,221.33549.4477h824.99042c122.1413,0,221.2631,98.5673,221.2631,220.7086v825.5905C1267.589,1168.8881,1168.57381,1267.9031,1046.43251,1267.9031Z"/><path class="cls-43" d="M1045.07731,1266.2615h-824.207C98.88691,1266.2615.4104,1167.4143.4104,1045.4311V221.0342A220.45,220.45,0,0,1,221.03429.4104h823.94532c121.9832,0,220.9678,98.4765,220.9678,220.4597v824.5215C1265.94741,1167.3748,1167.06051,1266.2615,1045.07731,1266.2615Z"/><path class="cls-44" d="M1043.72211,1264.6201H220.58391C98.7588,1264.6201.3731,1165.8973.3731,1044.0723V220.733A220.20179,220.20179,0,0,1,220.733.3731h822.90042c121.8249,0,220.6724,98.3855,220.6724,220.2106v823.4527C1264.30581,1165.8613,1165.547,1264.6201,1043.72211,1264.6201Z"/><path class="cls-45" d="M1042.36691,1262.9785H220.29749c-121.667,0-219.96158-98.5981-219.96158-220.2649V220.4316A219.95352,219.95352,0,0,1,220.43169.3358h821.85522c121.6668,0,220.3773,98.2947,220.3773,219.9615v822.3839C1262.66421,1164.348,1164.03371,1262.9785,1042.36691,1262.9785Z"/><path class="cls-46" d="M1041.01171,1261.3369H220.01109C98.5024,1261.3369.2986,1162.8634.2986,1041.3547V220.1304A219.70532,219.70532,0,0,1,220.13039.2985h820.81032c121.5087,0,220.0819,98.2037,220.0819,219.7124V1041.326C1261.02261,1162.8346,1162.52041,1261.3369,1041.01171,1261.3369Z"/><path class="cls-47" d="M1039.65661,1259.6953H219.72469C98.3742,1259.6953.2613,1161.3465.2613,1039.9959V219.829A219.45712,219.45712,0,0,1,219.829.2612h819.76542c121.3504,0,219.7866,98.1128,219.7866,219.4633v820.2463C1259.381,1161.3213,1161.007,1259.6953,1039.65661,1259.6953Z"/><path class="cls-48" d="M1038.30141,1258.0537h-818.863C98.24591,1258.0537.224,1159.8295.224,1038.637V219.5278C.224,98.3353,98.3355.2239,219.52779.2239H1038.248c121.1923,0,219.4915,98.022,219.4915,219.2142v819.1774C1257.73951,1159.8078,1159.49371,1258.0537,1038.30141,1258.0537Z"/><path class="cls-49" d="M1036.94621,1256.4121H219.152C98.1178,1256.4121.1867,1158.3125.1867,1037.2783V219.2266C.1867,98.1922,98.1924.1866,219.22659.1866h817.67512c121.0341,0,219.1962,97.931,219.1962,218.9652v818.1085C1256.09791,1158.2945,1157.98021,1256.4121,1036.94621,1256.4121Z"/><path class="cls-50" d="M1035.591,1254.7705H218.86559C97.9895,1254.7705.1494,1156.7956.1494,1035.9195V218.9252C.1494,98.0491,98.0492.1492,218.92519.1492h816.63022c120.876,0,218.9009,97.8403,218.9009,218.7162v817.0397C1254.45631,1156.7812,1156.46691,1254.7705,1035.591,1254.7705Z"/><path class="cls-51" d="M1034.23571,1253.1289H218.57919C97.8613,1253.1289.11191,1155.2786.11191,1034.5606V218.624C.11191,97.9059,97.906.1119,218.624.1119h815.585c120.7179,0,218.6057,97.7493,218.6057,218.4671v815.9709C1252.81471,1155.2678,1154.95351,1253.1289,1034.23571,1253.1289Z"/><path class="cls-52" d="M1032.88041,1251.4873H218.29279C97.733,1251.4873.0746,1153.7615.0746,1033.2017V218.3226C.0746,97.7628,97.7628.0746,218.32279.0746h814.54c120.5595,0,218.3103,97.6584,218.3103,218.218v814.9021C1251.17311,1153.7545,1153.44021,1251.4873,1032.88041,1251.4873Z"/><path class="cls-53" d="M1031.52531,1249.8457H218.00659C97.60491,1249.8457.0373,1152.2445.0373,1031.843V218.0214C.0373,97.6197,97.6197.0373,218.02139.0373h813.49512c120.4015,0,218.0151,97.5674,218.0151,217.9689v813.8333C1249.53161,1152.241,1151.92681,1249.8457,1031.52531,1249.8457Z"/><path class="cls-54" d="M217.7198,0h812.45A217.72019,217.72019,0,0,1,1247.89,217.72019v812.76371a217.72019,217.72019,0,0,1-217.72019,217.72019H217.7199A217.7199,217.7199,0,0,1,0,1030.4842V217.7198A217.7198,217.7198,0,0,1,217.7198,0Z"/></g><g class="cls-55"><path class="cls-56" d="M233.60349,1.8961h865.98542a232.0216,232.0216,0,0,1,232.0216,232.0216v865.98552a232.02158,232.02158,0,0,1-232.02158,232.02158H233.60351A232.0216,232.0216,0,0,1,1.58191,1099.9032V233.91768A232.02158,232.02158,0,0,1,233.60349,1.8961Z"/><path class="cls-57" d="M234.9528,3.5377h864.89731a231.72919,231.72919,0,0,1,231.72919,231.72919v864.89121a231.72919,231.72919,0,0,1-231.72919,231.72919H234.9528A231.7293,231.7293,0,0,1,3.2235,1100.158V235.267A231.7293,231.7293,0,0,1,234.9528,3.5377Z"/><rect class="cls-58" x="4.8651" y="5.1793" width="1326.68291" height="1326.6706" rx="231.4368"/><path class="cls-59" d="M237.6511,6.8209h862.721a231.1445,231.1445,0,0,1,231.1445,231.1445v862.70241A231.14459,231.14459,0,0,1,1100.372,1331.8124H237.6508A231.1442,231.1442,0,0,1,6.5066,1100.6682V237.9654A231.1445,231.1445,0,0,1,237.6511,6.8209Z"/><path class="cls-60" d="M239.0003,8.4623h861.633a230.85209,230.85209,0,0,1,230.85209,230.85209v861.60851A230.85209,230.85209,0,0,1,1100.63331,1331.775H239.0001A230.8519,230.8519,0,0,1,8.1482,1100.9231V239.3144A230.8521,230.8521,0,0,1,239.0003,8.4623Z"/><path class="cls-61" d="M240.3495,10.1039h860.54481a230.55979,230.55979,0,0,1,230.55979,230.55979v860.514a230.55979,230.55979,0,0,1-230.55979,230.55979H240.3494A230.5596,230.5596,0,0,1,9.7898,1101.1779V240.6636A230.5597,230.5597,0,0,1,240.3495,10.1039Z"/><path class="cls-62" d="M241.6986,11.7455h859.45691a230.26739,230.26739,0,0,1,230.26739,230.26739v859.41981a230.26739,230.26739,0,0,1-230.26739,230.26739H241.6986A230.2673,230.2673,0,0,1,11.4313,1101.4328v-859.42A230.2673,230.2673,0,0,1,241.6986,11.7455Z"/><path class="cls-63" d="M243.04811,13.3871h858.36831a229.97509,229.97509,0,0,1,229.97509,229.97509V1101.6876a229.9752,229.9752,0,0,1-229.9752,229.9752H243.04771A229.9748,229.9748,0,0,1,13.07291,1101.688V243.3623A229.9752,229.9752,0,0,1,243.04811,13.3871Z"/><path class="cls-64" d="M244.3972,15.0287h857.28041a229.68269,229.68269,0,0,1,229.68269,229.68269v857.23121a229.68269,229.68269,0,0,1-229.68269,229.68269H244.3972A229.6827,229.6827,0,0,1,14.7145,1101.9426V244.7114A229.6827,229.6827,0,0,1,244.3972,15.0287Z"/><path class="cls-65" d="M245.7465,16.6703h856.19221a229.3904,229.3904,0,0,1,229.3904,229.3904v856.13681a229.39039,229.39039,0,0,1-229.39039,229.39039H245.7463A229.3902,229.3902,0,0,1,16.3561,1102.1977V246.0607A229.3904,229.3904,0,0,1,245.7465,16.6703Z"/><path class="cls-66" d="M247.0955,18.3119h855.10431a229.098,229.098,0,0,1,229.098,229.098v855.04251a229.098,229.098,0,0,1-229.098,229.098H247.0954A229.0978,229.0978,0,0,1,17.9976,1102.4526V247.4098A229.0979,229.0979,0,0,1,247.0955,18.3119Z"/><path class="cls-67" d="M248.4445,19.9535h854.01621a228.8057,228.8057,0,0,1,228.8057,228.8057v853.9481a228.8057,228.8057,0,0,1-228.8057,228.8057H248.4445A228.8053,228.8053,0,0,1,19.6392,1102.7077V248.7588A228.8053,228.8053,0,0,1,248.4445,19.9535Z"/><path class="cls-68" d="M249.7939,21.5951H1102.722a228.51319,228.51319,0,0,1,228.51319,228.51319v852.854A228.51319,228.51319,0,0,1,1102.722,1331.4755H249.7939A228.5131,228.5131,0,0,1,21.2808,1102.9624V250.1082A228.5131,228.5131,0,0,1,249.7939,21.5951Z"/><path class="cls-69" d="M251.1432,23.2367H1102.983a228.22089,228.22089,0,0,1,228.22089,228.22089v851.75951A228.22089,228.22089,0,0,1,1102.983,1331.438H251.1431A228.2207,228.2207,0,0,1,22.9224,1103.2173V251.4575A228.2208,228.2208,0,0,1,251.1432,23.2367Z"/><path class="cls-70" d="M252.4924,24.8783h850.75181a227.92849,227.92849,0,0,1,227.92849,227.92849V1103.4722a227.9284,227.9284,0,0,1-227.9284,227.9284H252.4925A227.9285,227.9285,0,0,1,24.564,1103.4721V252.8067A227.9284,227.9284,0,0,1,252.4924,24.8783Z"/><path class="cls-71" d="M253.8417,26.5197h849.66351a227.63609,227.63609,0,0,1,227.63609,227.63609V1103.727a227.63609,227.63609,0,0,1-227.63609,227.63609H253.8414A227.6358,227.6358,0,0,1,26.2056,1103.7273V254.1558A227.6361,227.6361,0,0,1,253.8417,26.5197Z"/><path class="cls-72" d="M255.1909,28.1613h848.57541A227.3437,227.3437,0,0,1,1331.11,255.505v848.477A227.34371,227.34371,0,0,1,1103.7663,1331.3257H255.1907A227.3435,227.3435,0,0,1,27.8472,1103.9822V255.505A227.3437,227.3437,0,0,1,255.1909,28.1613Z"/><path class="cls-73" d="M256.5399,29.8029h847.48731a227.05159,227.05159,0,0,1,227.05159,227.05159v847.38211a227.05159,227.05159,0,0,1-227.05159,227.05159H256.5398A227.0512,227.0512,0,0,1,29.4886,1104.237V256.8542A227.0513,227.0513,0,0,1,256.5399,29.8029Z"/><path class="cls-74" d="M257.8892,31.4445h846.39931a226.75909,226.75909,0,0,1,226.75909,226.75909V1104.4918a226.7591,226.7591,0,0,1-226.7591,226.7591H257.8891A226.7589,226.7589,0,0,1,31.1302,1104.492V258.2035a226.759,226.759,0,0,1,226.759-226.759Z"/><path class="cls-75" d="M259.2386,33.0861h845.31081a226.46679,226.46679,0,0,1,226.46679,226.46679v845.19381a226.46679,226.46679,0,0,1-226.46679,226.46679H259.2383A226.4665,226.4665,0,0,1,32.7718,1104.747V259.5529A226.4668,226.4668,0,0,1,259.2386,33.0861Z"/><path class="cls-76" d="M260.5877,34.7277h844.22291A226.17429,226.17429,0,0,1,1330.98491,260.902v844.09971A226.17429,226.17429,0,0,1,1104.81061,1331.176H260.5877A226.1743,226.1743,0,0,1,34.4134,1105.0017V260.902A226.1743,226.1743,0,0,1,260.5877,34.7277Z"/><path class="cls-77" d="M261.937,36.3693h843.13471a225.882,225.882,0,0,1,225.882,225.882v843.00531a225.882,225.882,0,0,1-225.882,225.882H261.9367A225.8817,225.8817,0,0,1,36.055,1105.2569V262.2513A225.882,225.882,0,0,1,261.937,36.3693Z"/><path class="cls-78" d="M263.2861,38.0109h842.04681a225.58959,225.58959,0,0,1,225.58959,225.58959v841.911a225.58959,225.58959,0,0,1-225.58959,225.58959H263.286A225.5894,225.5894,0,0,1,37.6966,1105.5117V263.6004A225.5895,225.5895,0,0,1,263.2861,38.0109Z"/><path class="cls-79" d="M264.6355,39.6525h840.95831a225.2973,225.2973,0,0,1,225.2973,225.2973v840.81661a225.29729,225.29729,0,0,1-225.29729,225.29729H264.6353A225.2971,225.2971,0,0,1,39.3382,1105.7666V264.9498A225.2973,225.2973,0,0,1,264.6355,39.6525Z"/><path class="cls-80" d="M265.9846,41.2941H1105.855a225.00479,225.00479,0,0,1,225.00479,225.00479v839.72251A225.00479,225.00479,0,0,1,1105.855,1331.0262H265.9844A225.0046,225.0046,0,0,1,40.9798,1106.0216V266.2989A225.0048,225.0048,0,0,1,265.9846,41.2941Z"/><path class="cls-81" d="M267.3339,42.9357h838.78221a224.7125,224.7125,0,0,1,224.7125,224.7125v838.6281a224.7125,224.7125,0,0,1-224.7125,224.7125H267.3338A224.7124,224.7124,0,0,1,42.6214,1106.2764V267.6482A224.7125,224.7125,0,0,1,267.3339,42.9357Z"/><path class="cls-82" d="M268.683,44.5771h837.69431a224.42,224.42,0,0,1,224.42,224.42v837.534a224.4202,224.4202,0,0,1-224.4202,224.4202H268.683a224.42,224.42,0,0,1-224.42-224.42V268.9971a224.42,224.42,0,0,1,224.42-224.42Z"/><path class="cls-83" d="M270.0324,46.2187h836.60591a224.1278,224.1278,0,0,1,224.1278,224.1278V1106.786a224.1279,224.1279,0,0,1-224.1279,224.1279H270.0322A224.1276,224.1276,0,0,1,45.9046,1106.7863V270.3465A224.1278,224.1278,0,0,1,270.0324,46.2187Z"/><path class="cls-84" d="M271.3813,47.8603h835.51791a223.83549,223.83549,0,0,1,223.83549,223.83549V1107.041a223.8354,223.8354,0,0,1-223.8354,223.8354H271.3811A223.8351,223.8351,0,0,1,47.546,1107.0413V271.6956A223.8353,223.8353,0,0,1,271.3813,47.8603Z"/><path class="cls-85" d="M272.7307,49.5019h834.42961a223.54319,223.54319,0,0,1,223.54319,223.54319V1107.296a223.5431,223.5431,0,0,1-223.5431,223.5431h-834.43A223.5428,223.5428,0,0,1,49.1876,1107.2963V273.045A223.5431,223.5431,0,0,1,272.7307,49.5019Z"/><path class="cls-86" d="M274.0799,51.1435h833.3416a223.25071,223.25071,0,0,1,223.25071,223.25071V1107.551a223.2507,223.2507,0,0,1-223.2507,223.2507H274.0797A223.2505,223.2505,0,0,1,50.8292,1107.5512V274.3942A223.2507,223.2507,0,0,1,274.0799,51.1435Z"/><path class="cls-87" d="M275.429,52.7851h832.25361A222.95839,222.95839,0,0,1,1330.641,275.74349v832.06231a222.95839,222.95839,0,0,1-222.95839,222.95839H275.429A222.9582,222.9582,0,0,1,52.4708,1107.806V275.7433A222.9582,222.9582,0,0,1,275.429,52.7851Z"/><path class="cls-88" d="M276.7783,54.4267h831.16541a222.66589,222.66589,0,0,1,222.66589,222.66589v830.96821a222.66589,222.66589,0,0,1-222.66589,222.66589H276.7781A222.6657,222.6657,0,0,1,54.1124,1108.061V277.0926A222.6659,222.6659,0,0,1,276.7783,54.4267Z"/><path class="cls-89" d="M278.1276,56.0682h830.07721a222.37359,222.37359,0,0,1,222.37359,222.37359v829.87391a222.37359,222.37359,0,0,1-222.37359,222.37359H278.1274A222.3734,222.3734,0,0,1,55.754,1108.3159V278.4418A222.3736,222.3736,0,0,1,278.1276,56.0682Z"/><path class="cls-90" d="M279.4767,57.7098H1108.466a222.08109,222.08109,0,0,1,222.08109,222.08109V1108.5706a222.0812,222.0812,0,0,1-222.0812,222.0812H279.4766a222.081,222.081,0,0,1-222.081-222.081V279.7909A222.0811,222.0811,0,0,1,279.4767,57.7098Z"/><path class="cls-91" d="M280.8261,59.3514h827.901a221.78879,221.78879,0,0,1,221.78879,221.78879v827.68541a221.78879,221.78879,0,0,1-221.78879,221.78879H280.8259A221.7887,221.7887,0,0,1,59.0372,1108.8257V281.1403A221.7889,221.7889,0,0,1,280.8261,59.3514Z"/><path class="cls-92" d="M282.1752,60.993h826.81291a221.49639,221.49639,0,0,1,221.49639,221.49639v826.59111a221.49639,221.49639,0,0,1-221.49639,221.49639H282.1751A221.4963,221.4963,0,0,1,60.6788,1109.0806V282.4894A221.4964,221.4964,0,0,1,282.1752,60.993Z"/><path class="cls-93" d="M283.5245,62.6346h825.72461a221.20409,221.20409,0,0,1,221.20409,221.20409v825.49671a221.20409,221.20409,0,0,1-221.20409,221.20409H283.5243A221.2039,221.2039,0,0,1,62.3204,1109.3356V283.8387A221.2041,221.2041,0,0,1,283.5245,62.6346Z"/><path class="cls-94" d="M284.8736,64.2761h824.63681A220.91159,220.91159,0,0,1,1330.422,285.18769v824.40271A220.91159,220.91159,0,0,1,1109.51041,1330.502H284.8736A220.9116,220.9116,0,0,1,63.962,1109.5904V285.1877A220.9116,220.9116,0,0,1,284.8736,64.2761Z"/><path class="cls-95" d="M286.2229,65.9176h823.54851a220.6194,220.6194,0,0,1,220.6194,220.6194v823.308a220.6196,220.6196,0,0,1-220.6196,220.6196H286.2229A220.6194,220.6194,0,0,1,65.6035,1109.8452V286.537A220.6194,220.6194,0,0,1,286.2229,65.9176Z"/><path class="cls-96" d="M287.5721,67.5592h822.46021a220.3271,220.3271,0,0,1,220.3271,220.3271v822.2139a220.3271,220.3271,0,0,1-220.3271,220.3271H287.5717A220.3267,220.3267,0,0,1,67.245,1110.1006V287.8863A220.3271,220.3271,0,0,1,287.5721,67.5592Z"/><path class="cls-97" d="M288.9213,69.2008h821.37221a220.03469,220.03469,0,0,1,220.03469,220.03469V1110.355a220.0348,220.0348,0,0,1-220.0348,220.0348H288.9211A220.0345,220.0345,0,0,1,68.8866,1110.3553V289.2355A220.0347,220.0347,0,0,1,288.9213,69.2008Z"/><path class="cls-98" d="M290.2705,70.8424h820.28411a219.7423,219.7423,0,0,1,219.7423,219.7423v820.02541a219.74229,219.74229,0,0,1-219.74229,219.74229H290.2703A219.7421,219.7421,0,0,1,70.5282,1110.6103V290.5847A219.7423,219.7423,0,0,1,290.2705,70.8424Z"/><path class="cls-99" d="M291.6198,72.484h819.19591a219.45,219.45,0,0,1,219.45,219.45v818.93091a219.45,219.45,0,0,1-219.45,219.45H291.6197A219.4499,219.4499,0,0,1,72.1698,1110.865V291.934A219.45,219.45,0,0,1,291.6198,72.484Z"/><path class="cls-100" d="M292.969,74.1256h818.1078a219.15751,219.15751,0,0,1,219.15751,219.15751V1111.1199a219.1576,219.1576,0,0,1-219.1576,219.1576H292.9688A219.1574,219.1574,0,0,1,73.8114,1111.1201V293.2832A219.1576,219.1576,0,0,1,292.969,74.1256Z"/><path class="cls-101" d="M294.31811,75.7672h817.01961A218.86529,218.86529,0,0,1,1330.203,294.63249v816.74223A218.86529,218.86529,0,0,1,1111.33772,1330.24H294.318a218.8651,218.8651,0,0,1-218.8651-218.8651V294.6324A218.8652,218.8652,0,0,1,294.31811,75.7672Z"/><path class="cls-102" d="M295.6673,77.4088H1111.599a218.5728,218.5728,0,0,1,218.5728,218.5728v815.64821A218.57279,218.57279,0,0,1,1111.599,1330.2026H295.6671A218.5726,218.5726,0,0,1,77.0945,1111.63V295.9816A218.5728,218.5728,0,0,1,295.6673,77.4088Z"/><path class="cls-103" d="M297.0166,79.0504H1111.86a218.28049,218.28049,0,0,1,218.28049,218.28049v814.55371A218.28049,218.28049,0,0,1,1111.86,1330.1651H297.0163A218.2802,218.2802,0,0,1,78.7361,1111.8849V297.3309A218.2805,218.2805,0,0,1,297.0166,79.0504Z"/><path class="cls-104" d="M298.3657,80.692h813.75551a217.988,217.988,0,0,1,217.988,217.988v813.4596a217.988,217.988,0,0,1-217.988,217.988H298.3656A217.9879,217.9879,0,0,1,80.3777,1112.1397V298.68A217.988,217.988,0,0,1,298.3657,80.692Z"/><path class="cls-105" d="M299.715,82.3334h812.66731A217.69569,217.69569,0,0,1,1330.078,300.02909V1112.3943a217.6959,217.6959,0,0,1-217.6959,217.6959H299.715A217.6957,217.6957,0,0,1,82.0193,1112.3945V300.0291A217.6957,217.6957,0,0,1,299.715,82.3334Z"/><path class="cls-106" d="M301.06411,83.975h811.57931a217.40329,217.40329,0,0,1,217.40329,217.40329V1112.6492a217.4035,217.4035,0,0,1-217.4035,217.4035h-811.579a217.4033,217.4033,0,0,1-217.4033-217.4033V301.3782A217.4032,217.4032,0,0,1,301.06411,83.975Z"/><path class="cls-54" d="M302.4135,85.6166h810.49081a217.11109,217.11109,0,0,1,217.11109,217.11109v810.17661a217.11109,217.11109,0,0,1-217.11109,217.11109H302.4131A217.1107,217.1107,0,0,1,85.3024,1112.9047V302.7277A217.1111,217.1111,0,0,1,302.4135,85.6166Z"/></g><path class="cls-3" d="M994.75951,365.3661v-.001c-90.6196-90.6196-237.5437-56.4381-328.16333,34.1815-90.61959-90.6196-237.54379-124.8011-328.16339-34.1815v.001c-90.6196,90.6196-90.6196,237.5428,0,328.1624h0v.0009l328.16339,328.1634L994.75951,693.5294v-.0009h0C1085.37911,602.9089,1085.37911,455.9857,994.75951,365.3661Z"/></g></g></svg>