<svg xmlns="http://www.w3.org/2000/svg" width="1410.9766" height="1411.155" viewBox="0 0 1410.9766 1411.155"><defs><style>.cls-1{fill:#6698b8;opacity:0.04407;}.cls-2{fill:#6396b6;opacity:0.04494;}.cls-3{fill:#6194b5;opacity:0.0458;}.cls-4{fill:#5e93b4;opacity:0.04667;}.cls-5{fill:#5b91b3;opacity:0.04753;}.cls-6{fill:#598fb2;opacity:0.0484;}.cls-7{fill:#568db0;opacity:0.04926;}.cls-8{fill:#538caf;opacity:0.05012;}.cls-9{fill:#508aae;opacity:0.05099;}.cls-10{fill:#4e88ad;opacity:0.05185;}.cls-11{fill:#4b86ab;opacity:0.05272;}.cls-12{fill:#4885aa;opacity:0.05358;}.cls-13{fill:#4683a9;opacity:0.05444;}.cls-14{fill:#4381a8;opacity:0.05531;}.cls-15{fill:#407fa7;opacity:0.05617;}.cls-16{fill:#3e7da5;opacity:0.05704;}.cls-17{fill:#3b7ca4;opacity:0.0579;}.cls-18{fill:#387aa3;opacity:0.05876;}.cls-19{fill:#3578a2;opacity:0.05963;}.cls-20{fill:#3376a0;opacity:0.06049;}.cls-21{fill:#30759f;opacity:0.06136;}.cls-22{fill:#2d739e;opacity:0.06222;}.cls-23{fill:#2b719d;opacity:0.06309;}.cls-24{fill:#286f9c;opacity:0.06395;}.cls-25{fill:#256e9a;opacity:0.06481;}.cls-26{fill:#236c99;opacity:0.06568;}.cls-27{fill:#206a98;opacity:0.06654;}.cls-28{fill:#1d6897;opacity:0.06741;}.cls-29{fill:#1a6795;opacity:0.06827;}.cls-30{fill:#186594;opacity:0.06914;}.cls-31{fill:#156393;opacity:0.07;}.cls-32{opacity:0.79;}.cls-33{fill:#fbfbfc;opacity:0.71605;}.cls-34{fill:#fbfbfd;opacity:0.7284;}.cls-35,.cls-36,.cls-37{fill:#fbfcfd;}.cls-35{opacity:0.74074;}.cls-36{opacity:0.75309;}.cls-37{opacity:0.76543;}.cls-38,.cls-39,.cls-40{fill:#fcfcfd;}.cls-38{opacity:0.77778;}.cls-39{opacity:0.79012;}.cls-40{opacity:0.80247;}.cls-41,.cls-42{fill:#fcfdfd;}.cls-41{opacity:0.81481;}.cls-42{opacity:0.82716;}.cls-43,.cls-44,.cls-45,.cls-46{fill:#fdfdfe;}.cls-43{opacity:0.83951;}.cls-44{opacity:0.85185;}.cls-45{opacity:0.8642;}.cls-46{opacity:0.87654;}.cls-47{fill:#fdfefe;opacity:0.88889;}.cls-48,.cls-49,.cls-50,.cls-51{fill:#fefefe;}.cls-48{opacity:0.90124;}.cls-49{opacity:0.91358;}.cls-50{opacity:0.92593;}.cls-51{opacity:0.93827;}.cls-52{fill:#fefeff;opacity:0.95062;}.cls-53{fill:#feffff;opacity:0.96296;}.cls-54,.cls-55,.cls-56{fill:#fff;}.cls-54{opacity:0.97531;}.cls-55{opacity:0.98765;}.cls-57{fill:#f0f2f6;}</style></defs><g id="Layer_2" data-name="Layer 2"><g id="Layer_1-2" data-name="Layer 1"><rect class="cls-1" x="35.2602" y="35.2057" width="1375.7164" height="1375.9493" rx="240.012"/><path class="cls-2" d="M274.9981,35.2057h894.7024A239.7455,239.7455,0,0,1,1409.446,274.9512v894.9273a239.7458,239.7458,0,0,1-239.7458,239.7458H274.9981A239.7457,239.7457,0,0,1,35.2524,1169.8786V274.9514A239.7457,239.7457,0,0,1,274.9981,35.2057Z"/><path class="cls-3" d="M274.724,35.2057h893.7121a239.4794,239.4794,0,0,1,239.4794,239.4794v893.9293a239.4793,239.4793,0,0,1-239.4793,239.4793H274.724A239.4794,239.4794,0,0,1,35.2446,1168.6143V274.6851A239.4794,239.4794,0,0,1,274.724,35.2057Z"/><path class="cls-4" d="M274.4498,35.2057h892.7218a239.2129,239.2129,0,0,1,239.2129,239.2129V1167.35a239.213,239.213,0,0,1-239.213,239.213H274.4498A239.2129,239.2129,0,0,1,35.2369,1167.3501V274.4186A239.2129,239.2129,0,0,1,274.4498,35.2057Z"/><path class="cls-5" d="M274.1756,35.2057h891.7316a238.9466,238.9466,0,0,1,238.9466,238.9466v891.9333a238.9467,238.9467,0,0,1-238.9467,238.9467H274.1756A238.9465,238.9465,0,0,1,35.2291,1166.0858V274.1522A238.9465,238.9465,0,0,1,274.1756,35.2057Z"/><path class="cls-6" d="M273.9017,35.2057h890.7412A238.6803,238.6803,0,0,1,1403.3232,273.886v890.9355a238.6802,238.6802,0,0,1-238.6802,238.6802H273.9014A238.6801,238.6801,0,0,1,35.2213,1164.8216V273.8861A238.6804,238.6804,0,0,1,273.9017,35.2057Z"/><path class="cls-7" d="M273.6276,35.2057h889.7513a238.4137,238.4137,0,0,1,238.4137,238.4137v889.9377a238.4139,238.4139,0,0,1-238.4139,238.4139H273.6277a238.414,238.414,0,0,1-238.414-238.414V273.6196A238.4139,238.4139,0,0,1,273.6276,35.2057Z"/><path class="cls-8" d="M273.3532,35.2057h888.7613A238.1475,238.1475,0,0,1,1400.262,273.3532v888.9393a238.1477,238.1477,0,0,1-238.1477,238.1477H273.3535A238.1478,238.1478,0,0,1,35.2057,1162.2924V273.3532A238.1475,238.1475,0,0,1,273.3532,35.2057Z"/><rect class="cls-9" x="35.198" y="35.2057" width="1363.5333" height="1363.7038" rx="237.8813"/><path class="cls-10" d="M272.8052,35.2057h886.7806a237.6148,237.6148,0,0,1,237.6148,237.6148v886.9434a237.6149,237.6149,0,0,1-237.6149,237.6149H272.8053A237.6149,237.6149,0,0,1,35.1904,1159.7639V272.8205A237.6148,237.6148,0,0,1,272.8052,35.2057Z"/><path class="cls-11" d="M272.531,35.2057h885.79a237.3488,237.3488,0,0,1,237.3488,237.3488v885.9451a237.3486,237.3486,0,0,1-237.3486,237.3486H272.531A237.3486,237.3486,0,0,1,35.1824,1158.4996V272.5543A237.3486,237.3486,0,0,1,272.531,35.2057Z"/><path class="cls-12" d="M272.2571,35.2057h884.7998A237.0823,237.0823,0,0,1,1394.1392,272.288v884.9474a237.0821,237.0821,0,0,1-237.0821,237.0821H272.257A237.0822,237.0822,0,0,1,35.1748,1157.2353V272.288A237.0823,237.0823,0,0,1,272.2571,35.2057Z"/><path class="cls-13" d="M271.9829,35.2057h883.8099a236.8157,236.8157,0,0,1,236.8157,236.8157v883.9494a236.816,236.816,0,0,1-236.816,236.816H271.983A236.8159,236.8159,0,0,1,35.1671,1155.9709V272.0215A236.8158,236.8158,0,0,1,271.9829,35.2057Z"/><path class="cls-14" d="M271.709,35.2057h882.8192a236.5496,236.5496,0,0,1,236.5496,236.5496v882.9512a236.5497,236.5497,0,0,1-236.5497,236.5497H271.709A236.5497,236.5497,0,0,1,35.1593,1154.7065V271.7554A236.5497,236.5497,0,0,1,271.709,35.2057Z"/><rect class="cls-15" x="35.1515" y="35.2057" width="1354.3957" height="1354.5196" rx="236.2832"/><path class="cls-16" d="M271.1604,35.2057h880.8394a236.0167,236.0167,0,0,1,236.0167,236.0167v880.9554a236.0169,236.0169,0,0,1-236.0169,236.0169H271.1606A236.0169,236.0169,0,0,1,35.1437,1152.1778V271.2224A236.0167,236.0167,0,0,1,271.1604,35.2057Z"/><rect class="cls-17" x="35.136" y="35.2057" width="1351.3497" height="1351.4583" rx="235.7504"/><path class="cls-18" d="M270.6121,35.2057h878.859A235.4839,235.4839,0,0,1,1384.955,270.6896v878.9596a235.4841,235.4841,0,0,1-235.4841,235.4841H270.6123A235.4841,235.4841,0,0,1,35.1282,1149.6492V270.6896A235.4839,235.4839,0,0,1,270.6121,35.2057Z"/><path class="cls-19" d="M270.3382,35.2057h877.8682a235.2179,235.2179,0,0,1,235.2179,235.2179v877.9612a235.2179,235.2179,0,0,1-235.2179,235.2179H270.3381A235.2177,235.2177,0,0,1,35.1204,1148.385V270.4235A235.2178,235.2178,0,0,1,270.3382,35.2057Z"/><path class="cls-20" d="M270.0643,35.2057h876.8782a234.9512,234.9512,0,0,1,234.9512,234.9512v876.9635a234.9516,234.9516,0,0,1-234.9516,234.9516H270.0643A234.9515,234.9515,0,0,1,35.1128,1147.1205V270.1572A234.9515,234.9515,0,0,1,270.0643,35.2057Z"/><path class="cls-21" d="M269.7899,35.2057h875.8883A234.6848,234.6848,0,0,1,1380.363,269.8905v875.9656a234.6851,234.6851,0,0,1-234.6851,234.6851H269.7899A234.6851,234.6851,0,0,1,35.1048,1145.8561V269.8908A234.6851,234.6851,0,0,1,269.7899,35.2057Z"/><path class="cls-22" d="M269.516,35.2057h874.8977a234.4186,234.4186,0,0,1,234.4186,234.4186v874.9674a234.4188,234.4188,0,0,1-234.4188,234.4188H269.516A234.4188,234.4188,0,0,1,35.0972,1144.5917V269.6245A234.4188,234.4188,0,0,1,269.516,35.2057Z"/><path class="cls-23" d="M269.2418,35.2057h873.9076A234.1523,234.1523,0,0,1,1377.3017,269.358v873.9695a234.1523,234.1523,0,0,1-234.1523,234.1523H269.242A234.1525,234.1525,0,0,1,35.0895,1143.3273V269.358A234.1523,234.1523,0,0,1,269.2418,35.2057Z"/><path class="cls-24" d="M268.9676,35.2057h872.9173a233.8859,233.8859,0,0,1,233.8859,233.8859v872.9716a233.886,233.886,0,0,1-233.886,233.886H268.9677a233.886,233.886,0,0,1-233.886-233.886V269.0916A233.8859,233.8859,0,0,1,268.9676,35.2057Z"/><path class="cls-25" d="M268.6938,35.2057h871.9265a233.6199,233.6199,0,0,1,233.6199,233.6199V1140.799a233.6197,233.6197,0,0,1-233.6197,233.6197H268.6937A233.6198,233.6198,0,0,1,35.0739,1140.7989V268.8256A233.6199,233.6199,0,0,1,268.6938,35.2057Z"/><rect class="cls-26" x="35.0662" y="35.2057" width="1337.6433" height="1337.6823" rx="233.3533"/><path class="cls-27" d="M268.1454,35.2057h869.9463a233.0871,233.0871,0,0,1,233.0871,233.0871v869.9775a233.087,233.087,0,0,1-233.087,233.087H268.1454a233.087,233.087,0,0,1-233.087-233.087V268.2927a233.087,233.087,0,0,1,233.087-233.087Z"/><path class="cls-28" d="M267.8711,35.2057h868.9565a232.8206,232.8206,0,0,1,232.8206,232.8206v868.9793a232.8207,232.8207,0,0,1-232.8207,232.8207H267.8712A232.8206,232.8206,0,0,1,35.0506,1137.0057V268.0262A232.8205,232.8205,0,0,1,267.8711,35.2057Z"/><path class="cls-29" d="M267.5972,35.2057h867.9661a232.5542,232.5542,0,0,1,232.5542,232.5542v867.9816a232.5542,232.5542,0,0,1-232.5542,232.5542H267.5972A232.5544,232.5544,0,0,1,35.0428,1135.7413V267.7601A232.5544,232.5544,0,0,1,267.5972,35.2057Z"/><path class="cls-30" d="M267.3231,35.2057h866.9758a232.2879,232.2879,0,0,1,232.2879,232.2879v866.9837a232.2879,232.2879,0,0,1-232.2879,232.2879H267.3232a232.288,232.288,0,0,1-232.288-232.288V267.4936A232.2879,232.2879,0,0,1,267.3231,35.2057Z"/><path class="cls-31" d="M267.0491,35.2057h865.9854A232.0215,232.0215,0,0,1,1365.056,267.2272v865.9856a232.0217,232.0217,0,0,1-232.0217,232.0217H267.0488A232.0214,232.0214,0,0,1,35.0274,1133.2131V267.2274A232.0217,232.0217,0,0,1,267.0491,35.2057Z"/><g class="cls-32"><path class="cls-33" d="M236.8604,0h884.0457a236.8604,236.8604,0,0,1,236.8604,236.8604v884.0458a236.8603,236.8603,0,0,1-236.8603,236.8603H236.8603A236.8603,236.8603,0,0,1,0,1120.9062V236.8604A236.8604,236.8604,0,0,1,236.8604,0Z"/><path class="cls-34" d="M238.1728,1.5307h883.26062A236.65008,236.65008,0,0,1,1358.0835,238.18078V1121.4411a236.6501,236.6501,0,0,1-236.6501,236.6501H238.17278A236.64988,236.64988,0,0,1,1.5229,1121.44132V238.1806A236.6499,236.6499,0,0,1,238.1728,1.5307Z"/><path class="cls-35" d="M239.48558,3.0614H1121.9607a236.4397,236.4397,0,0,1,236.4397,236.4397v882.47542A236.43948,236.43948,0,0,1,1121.96092,1358.416H239.4854A236.4395,236.4395,0,0,1,3.0459,1121.9765V239.50108A236.43968,236.43968,0,0,1,239.48558,3.0614Z"/><path class="cls-36" d="M240.79828,4.592H1122.4881a236.2294,236.2294,0,0,1,236.2294,236.2294v881.69012a236.22918,236.22918,0,0,1-236.22918,236.22918H240.7981A236.2292,236.2292,0,0,1,4.5689,1122.5115V240.82138A236.22938,236.22938,0,0,1,240.79828,4.592Z"/><path class="cls-37" d="M242.1103,6.1227h880.9054a236.0187,236.0187,0,0,1,236.0187,236.0187v880.9049a236.0188,236.0188,0,0,1-236.0188,236.0188H242.1104A236.0188,236.0188,0,0,1,6.0916,1123.0463V242.1414A236.0187,236.0187,0,0,1,242.1103,6.1227Z"/><path class="cls-38" d="M243.4231,7.6534h880.1198a235.8085,235.8085,0,0,1,235.8085,235.8085v880.1197A235.8084,235.8084,0,0,1,1123.543,1359.39H243.4232A235.8086,235.8086,0,0,1,7.6146,1123.5814V243.4619A235.8085,235.8085,0,0,1,243.4231,7.6534Z"/><path class="cls-39" d="M244.7355,9.184H1124.07A235.59818,235.59818,0,0,1,1359.6682,244.78218V1124.1164A235.5982,235.5982,0,0,1,1124.07,1359.7146H244.73548a235.598,235.598,0,0,1-235.598-235.598V244.782A235.598,235.598,0,0,1,244.7355,9.184Z"/><path class="cls-40" d="M246.0482,10.7149h878.54922A235.38768,235.38768,0,0,1,1359.9851,246.10258V1124.6517a235.3877,235.3877,0,0,1-235.3877,235.3877H246.04818A235.38768,235.38768,0,0,1,10.6605,1124.65172V246.1026A235.3877,235.3877,0,0,1,246.0482,10.7149Z"/><rect class="cls-41" x="12.1835" y="12.2455" width="1348.1186" height="1348.1186" rx="235.1773"/><path class="cls-42" d="M248.6731,13.7762H1125.652a234.9669,234.9669,0,0,1,234.9669,234.9669V1125.722a234.9667,234.9667,0,0,1-234.9667,234.9667H248.6731A234.9667,234.9667,0,0,1,13.7064,1125.722V248.7429A234.9667,234.9667,0,0,1,248.6731,13.7762Z"/><path class="cls-43" d="M249.9858,15.3069h876.1935a234.7566,234.7566,0,0,1,234.7566,234.7566v876.1934a234.7566,234.7566,0,0,1-234.7566,234.7566H249.9858A234.7565,234.7565,0,0,1,15.2293,1126.257V250.0634A234.7565,234.7565,0,0,1,249.9858,15.3069Z"/><path class="cls-44" d="M251.298,16.8375h875.4085a234.5463,234.5463,0,0,1,234.5463,234.5463v875.408a234.5462,234.5462,0,0,1-234.5462,234.5462H251.2981a234.546,234.546,0,0,1-234.546-234.546V251.3834A234.5459,234.5459,0,0,1,251.298,16.8375Z"/><path class="cls-45" d="M252.6109,18.3682h874.623A234.33588,234.33588,0,0,1,1361.5698,252.70408V1127.3269a234.3359,234.3359,0,0,1-234.3359,234.3359h-874.623A234.33578,234.33578,0,0,1,18.2751,1127.327V252.704A234.3358,234.3358,0,0,1,252.6109,18.3682Z"/><path class="cls-46" d="M253.9233,19.899h873.8379a234.1254,234.1254,0,0,1,234.1254,234.1254v873.8379a234.1252,234.1252,0,0,1-234.1252,234.1252H253.9233A234.1252,234.1252,0,0,1,19.7981,1127.8623V254.0242A234.1252,234.1252,0,0,1,253.9233,19.899Z"/><path class="cls-47" d="M255.2359,21.4297h873.0527a233.9152,233.9152,0,0,1,233.9152,233.9152v873.0523a233.915,233.915,0,0,1-233.915,233.915H255.2362A233.9152,233.9152,0,0,1,21.321,1128.397V255.3446A233.9149,233.9149,0,0,1,255.2359,21.4297Z"/><path class="cls-48" d="M256.5487,22.9604h872.2672a233.7047,233.7047,0,0,1,233.7047,233.7047v872.2673A233.7046,233.7046,0,0,1,1128.816,1362.637H256.5486A233.7046,233.7046,0,0,1,22.844,1128.9324V256.6651A233.7047,233.7047,0,0,1,256.5487,22.9604Z"/><path class="cls-49" d="M257.8609,24.491H1129.343a233.4946,233.4946,0,0,1,233.4946,233.4946V1129.467a233.4946,233.4946,0,0,1-233.4946,233.4946H257.8609A233.4942,233.4942,0,0,1,24.3667,1129.4674V257.9852A233.4942,233.4942,0,0,1,257.8609,24.491Z"/><path class="cls-50" d="M259.17348,26.0215H1129.8707a233.2838,233.2838,0,0,1,233.2838,233.2838v870.69722a233.28388,233.28388,0,0,1-233.28388,233.28388H259.1736A233.2839,233.2839,0,0,1,25.8897,1130.0025V259.30528A233.28378,233.28378,0,0,1,259.17348,26.0215Z"/><path class="cls-51" d="M260.4862,27.5522h869.91192A233.07338,233.07338,0,0,1,1363.4715,260.62558V1130.5375a233.0734,233.0734,0,0,1-233.0734,233.0734H260.48618A233.07348,233.07348,0,0,1,27.4127,1130.53742V260.6257A233.0735,233.0735,0,0,1,260.4862,27.5522Z"/><path class="cls-52" d="M261.7986,29.0829h869.1266A232.8631,232.8631,0,0,1,1363.7883,261.946v869.1264a232.8632,232.8632,0,0,1-232.8632,232.8632H261.7987A232.8631,232.8631,0,0,1,28.9356,1131.0725V261.9459a232.863,232.863,0,0,1,232.863-232.863Z"/><path class="cls-53" d="M263.1112,30.6139h868.34142A232.65258,232.65258,0,0,1,1364.1052,263.26648V1131.6078a232.6526,232.6526,0,0,1-232.6526,232.6526H263.11118A232.65258,232.65258,0,0,1,30.4586,1131.60782V263.2665A232.6526,232.6526,0,0,1,263.1112,30.6139Z"/><path class="cls-54" d="M264.4238,32.1445H1131.98A232.44218,232.44218,0,0,1,1364.4222,264.58668V1132.1428A232.4422,232.4422,0,0,1,1131.98,1364.585H264.42378A232.44218,232.44218,0,0,1,31.9816,1132.14282V264.5867A232.4422,232.4422,0,0,1,264.4238,32.1445Z"/><path class="cls-55" d="M265.7367,33.675h866.7705A232.2318,232.2318,0,0,1,1364.739,265.9068v866.7711a232.232,232.232,0,0,1-232.232,232.232H265.7363A232.2318,232.2318,0,0,1,33.5045,1132.6781V265.9072A232.2322,232.2322,0,0,1,265.7367,33.675Z"/><path class="cls-56" d="M267.0491,35.2057h865.9854A232.0215,232.0215,0,0,1,1365.056,267.2272v865.9856a232.0217,232.0217,0,0,1-232.0217,232.0217H267.0488A232.0214,232.0214,0,0,1,35.0274,1133.2131V267.2274A232.0217,232.0217,0,0,1,267.0491,35.2057Z"/></g><path class="cls-57" d="M267.0491,35.2057h865.9854A232.0215,232.0215,0,0,1,1365.056,267.2272v865.9856a232.0217,232.0217,0,0,1-232.0217,232.0217H267.0488A232.0214,232.0214,0,0,1,35.0274,1133.2131V267.2274A232.0217,232.0217,0,0,1,267.0491,35.2057Z"/><path class="cls-56" d="M1028.205,398.6757v-.0009c-90.6196-90.6196-237.5437-56.4382-328.1633,34.1814-90.6196-90.6196-237.5438-124.801-328.1634-34.1814v.0009c-90.6196,90.6196-90.6196,237.5428,0,328.1624h0v.001l328.1634,328.1633L1028.205,726.8391v-.001h0C1118.8246,636.2185,1118.8246,489.2953,1028.205,398.6757Z"/></g></g></svg>