<svg id="Capa_1" enable-background="new 0 0 512 512" height="512" viewBox="0 0 512 512" width="512" xmlns="http://www.w3.org/2000/svg"><g><path d="m396.387 140.387c-48.987 0-97.929 37.621-128.614 66.912l-2.773 9.139-9 2.557c-28.743-29.705-84.536-78.608-140.387-78.608-63.75 0-115.613 51.863-115.613 115.613s51.863 115.613 115.613 115.613c48.987 0 97.929-37.621 128.614-66.912l2.69-9.368 9.083-2.328c28.743 29.705 84.536 78.608 140.387 78.608 63.75 0 115.613-51.863 115.613-115.613s-51.863-115.613-115.613-115.613zm-280.774 188.113c-46.113 0-61.582-31.795-65.574-64.43-.324-2.646-.49-5.339-.49-8.07 0-36.427 29.637-66.065 66.065-66.065 36.185 0 81.548 39.242 107.185 66.065l-2.799 11.25c-26.327 26.171-71.177 61.25-104.387 61.25zm280.774-6.435c-36.185 0-81.548-39.242-107.185-66.065 9.132-27 71-69.667 107.185-69.667 40.613 0 61.682 29.052 65.595 61.772.31 2.589.469 5.224.469 7.895.001 36.427-29.636 66.065-66.064 66.065z" fill="#b3e59f"/><g fill="#95d6a4"><path d="m396.387 173.419c-29.118 0-64.824 21.394-94.876 46.962-6.85 5.828-17.068 5.256-23.045-1.464-3.374-3.794-7.143-7.933-10.691-11.616-4.297 4.102-8.245 8.045-11.776 11.694-.626-.647 16.853 18.478 19.177 21.32 3.43 4.179 8.266 9.622 14.048 15.661 2.973-3.109 6.279-6.411 9.742-9.776 26.363-25.64 65.436-56.265 97.419-56.265 33.625 0 61.505 25.634 65.589 58.17.34-2.712.475-5.82.475-8.622.003-36.427-29.634-66.064-66.062-66.064z"/><path d="m115.613 338.581c29.118 0 64.824-21.394 94.876-46.962 6.85-5.828 17.068-5.256 23.045 1.464 3.374 3.794 7.143 7.933 10.691 11.616 4.297-4.102 8.245-8.045 11.776-11.694.626.647-16.853-18.478-19.177-21.32-3.43-4.179-8.266-9.622-14.048-15.661-2.973 3.109-6.279 6.411-9.742 9.776-26.363 25.64-65.436 56.265-97.419 56.265-33.625 0-61.493-25.458-65.578-57.994-.34 2.712-.487 5.643-.487 8.446-.002 36.427 29.635 66.064 66.063 66.064z"/></g></g></svg>
