<svg xmlns="http://www.w3.org/2000/svg" xmlns:xlink="http://www.w3.org/1999/xlink" width="1498.83678" height="1792.95104" viewBox="0 0 1498.83678 1792.95104"><defs><style>.cls-1{fill:#7464cc;}.cls-2{fill:none;}.cls-3{isolation:isolate;}.cls-17,.cls-25,.cls-4{mix-blend-mode:multiply;}.cls-5{fill:#dcdcdc;}.cls-6{fill:#333;}.cls-25,.cls-7{fill:#ebebeb;}.cls-8{fill:#fff;}.cls-9{fill:#f2f2f2;}.cls-10{fill:#898989;}.cls-11{fill:#2b2b2b;}.cls-12{fill:#525252;}.cls-13{fill:#474747;}.cls-14{fill:#363636;}.cls-15{fill:#303030;}.cls-16{fill:#292929;}.cls-17,.cls-41{fill:#d9d9d9;}.cls-18{fill:#4f4f4f;}.cls-19{clip-path:url(#clip-path);}.cls-20{mix-blend-mode:screen;}.cls-21{fill:#3a3a3a;}.cls-22{fill:#454545;}.cls-23{fill:#383838;}.cls-24{fill:#4a4a4a;}.cls-26{fill:#91a6b3;}.cls-27{fill:#3d3d3d;}.cls-28{opacity:0.4;}.cls-29{fill:#a0c5be;}.cls-30{fill:#4f615e;}.cls-31{fill:#e8fffb;}.cls-32{clip-path:url(#clip-path-2);}.cls-33{fill:#60489c;}.cls-34{fill:#b8b8b8;}.cls-35{fill:#5c5c5c;}.cls-36{fill:#8f8f8f;}.cls-37{fill:#b0b0b0;}.cls-38{fill:#e8e8e8;}.cls-39{fill:#c5c5c5;}.cls-40{fill:#dedede;}.cls-42{fill:#212121;}.cls-43{fill:#424242;}.cls-44{fill:#636363;}.cls-45{clip-path:url(#clip-path-3);}.cls-46{fill:#616161;}.cls-47{clip-path:url(#clip-path-4);}</style><clipPath id="clip-path" transform="translate(0 27.61907)"><path class="cls-1" d="M879.75491,1221.36783c17.9948,10.3893,47.0477,10.3892,64.8839.0239,17.8351-10.3646,17.7404-27.1931-.2544-37.5824-17.9529-10.3651-47.0047-10.3643-64.8397.0003-17.8363,10.3653-17.7427,27.1931.2102,37.5582Z"/></clipPath><clipPath id="clip-path-2" transform="translate(0 27.61907)"><polygon class="cls-2" points="1048.81 697.007 795.076 844.461 679.714 777.856 933.448 630.402 1048.81 697.007"/></clipPath><clipPath id="clip-path-3" transform="translate(0 27.61907)"><path class="cls-2" d="M1472.50021,79.53183c4.9863-21.6781-7.8402-46.4022-28.6489-55.2232-8.8795-3.764-17.7663-3.9974-25.4376-1.3738a34.6208,34.6208,0,0,0-11.1325,18.8942c-4.9863,21.6781,7.8401,46.4023,28.6484,55.2228,8.8796,3.7644,17.7672,3.997,25.4385,1.3734A34.62147,34.62147,0,0,0,1472.50021,79.53183Z"/></clipPath><clipPath id="clip-path-4" transform="translate(0 27.61907)"><path class="cls-2" d="M1299.65341,181.255c4.9863-21.6781-7.8401-46.4022-28.6488-55.2232-8.8796-3.764-17.7664-3.9974-25.4377-1.3738a34.62008,34.62008,0,0,0-11.1324,18.8942c-4.9864,21.6781,7.8401,46.4022,28.6484,55.2228,8.8795,3.7644,17.7671,3.997,25.4385,1.3734A34.62229,34.62229,0,0,0,1299.65341,181.255Z"/></clipPath></defs><g class="cls-3"><g id="Layer_2" data-name="Layer 2"><g id="Layer_1-2" data-name="Layer 1"><g class="cls-4"><path class="cls-5" d="M1168.512,1365.59573c158.3716,91.4358,159.2061,239.7131,1.8642,331.1502-157.3756,91.4567-413.3295,91.4385-571.701.0027L11.9859,1358.02343l569.83679-331.1529Z" transform="translate(0 27.61907)"/></g><path class="cls-6" d="M803.63221,1687.70283c-27.5193,15.442-71.5136,14.9978-98.2625-.9926-13.1547-7.8647-19.6893-18.0232-19.6611-28.1549a69.50316,69.50316,0,0,0,88.0759,67.162,70.53658,70.53658,0,0,0,15.4153-6.3657,69.27392,69.27392,0,0,0,32.7124-41.0909c2.3236-8.6772,2.4463-11.575,2.7759-19.3178C824.65741,1669.41393,817.618,1679.855,803.63221,1687.70283Z" transform="translate(0 27.61907)"/><path class="cls-6" d="M175.0985,1345.86883c-27.5194,15.4419-71.5136,14.9977-98.2625-.9926-13.1548-7.8648-19.6893-18.0232-19.6611-28.155a69.50307,69.50307,0,0,0,88.0758,67.1621,70.53218,70.53218,0,0,0,15.4154-6.3658,69.27349,69.27349,0,0,0,32.7124-41.0908c2.3236-8.6772,2.4463-11.575,2.7758-19.3178C196.1237,1327.57993,189.0843,1338.021,175.0985,1345.86883Z" transform="translate(0 27.61907)"/><path class="cls-7" d="M1175.19061,1551.45593c-159.5734,92.7344-419.1914,92.7353-579.809.003L.3716,1207.92943,0,1305.91093l595.01,343.5292c160.61763,92.7327,420.23563,92.7314,579.80933-.0026,79.2866-46.0765,118.9694-106.3685,119.1405-166.7502l.3719-97.9816C1294.16031,1445.08743,1254.47751,1505.37973,1175.19061,1551.45593Z" transform="translate(0 27.61907)"/><path class="cls-8" d="M1285.60381,1332.67883a236.72377,236.72377,0,0,0-24.995-57.8031c-5.7129-8.88-13.4298-20.7033-20.0606-28.9209a329.50093,329.50093,0,0,0-26.7643-29.1098,319.46087,319.46087,0,0,0-26.7716-22.7105c-11.2061-8.2742-26.8638-18.3138-38.7107-25.6407l-.0026-.0013q-258.55395-149.2788-517.1071-298.5518l-52.67012-30.4093c.0088.0052.018.191.0272.3a2.21323,2.21323,0,0,0-.0301-.3q-159.1206,92.4699-318.2342,184.9378-105.09028,61.07085-210.17589,122.1407l.0033-.0016C19.54841,1164.369.31541,1189.98973.2346,1218.47273l594.976,343.5093c160.65153,92.7523,420.23523,92.7313,579.80893-.0027,79.2912-46.0788,118.9825-106.3701,119.1536-166.7528A226.90049,226.90049,0,0,0,1285.60381,1332.67883Z" transform="translate(0 27.61907)"/><path class="cls-9" d="M1097.85941,1172.94953c-184.1816-106.3368-418.7244-240.8665-549.19622-316.0678q-144.19125,83.795-288.3785,167.5874-69.22665,40.22925-138.45039,80.4586c130.47179,75.2013,365.01459,209.7306,549.19611,316.0678,118.5225,68.4841,310.5021,68.4684,428.2254-.0021C1217.10661,1352.55973,1216.48071,1241.38243,1097.85941,1172.94953Z" transform="translate(0 27.61907)"/><g class="cls-4"><polygon class="cls-9" points="397.984 1146.005 582.166 1038.971 826.239 1179.887 642.058 1286.921 397.984 1146.005"/><path class="cls-9" d="M1189.91111,1265.65393c35.6816,20.6007,35.8332,53.9655.3834,74.5667l-261.2049,151.7956c-35.4139,20.5803-93.0149,20.6015-128.6964.0008l-262.914-151.7934c-35.6455-20.5799-35.8331-53.9655-.4193-74.5457l261.20492-151.7957c35.4498-20.6012,93.0869-20.6016,128.7324-.0217Z" transform="translate(0 27.61907)"/></g><path class="cls-10" d="M489.94041,226.30583c-66.067,38.3941-107.03022,120.0331-107.35892,236.0615l-1.8874,665.6649,209.8364-121.9435,1.8874-665.6649c.3287-116.0285,41.292-197.6674,107.35892-236.0615Z" transform="translate(0 27.61907)"/><path class="cls-5" d="M225.88309,514.54443l-1.4832,523.2511,156.2947,90.2366,1.887-665.6645c.6074-214.2715,139.8214-311.1243,319.78062-235.0661v-43.8308C435.55641,60.91663,226.77549,199.76243,225.88309,514.54443Z" transform="translate(0 27.61907)"/><g class="cls-3"><polygon class="cls-11" points="642.058 809.802 826.239 702.767 825.14 1090.449 640.959 1197.483 642.058 809.802"/><polygon class="cls-12" points="397.984 668.886 582.166 561.852 826.239 702.767 642.058 809.802 397.984 668.886"/><polygon class="cls-13" points="642.058 809.802 640.959 1197.483 396.885 1056.568 397.984 668.886 642.058 809.802"/></g><path class="cls-14" d="M528.22479,1094.66433a2.27579,2.27579,0,0,0-.3525.2499c-1.7384,1.499-1.6791,6.2002-3.6505,7.3463l51.3074-29.8171c1.9715-1.1456,1.9121-5.8469,3.6505-7.3458a2.33139,2.33139,0,0,1,.3526-.25Z" transform="translate(0 27.61907)"/><path class="cls-14" d="M550.10409,978.34873c-2.6971-1.5571-5.59168-5.863-8.1769-7.3555a4.35654,4.35654,0,0,0-.8553-.3877,3.40182,3.40182,0,0,0-2.9164.4458l-3.5407,2.0579a2.9191,2.9191,0,0,1-.7858.1215c-2.6232-.0561-6.8435-3.8055-9.1307-3.035a1.763,1.763,0,0,0-.32788.149l-51.30742,29.8166a1.778,1.778,0,0,1,.3279-.149c.93-.3133,2.1842.1296,3.5164.7592l-13.9991,8.1353c1.6476-.9575,4.5869-.2342,6.2196-1.1832l10.03-5.8287a8.895,8.895,0,0,0,3.3638,1.1525,3.70446,3.70446,0,0,0,1.9492-.5896l3.5338-2.0538a2.9782,2.9782,0,0,1,1.7599.0182,4.34736,4.34736,0,0,1,.8552.3877c2.5853,1.4925,5.4798,5.7984,8.1769,7.3555s5.607.6029,8.1919,2.095l51.3074-29.8167C555.71109,978.95163,552.80119,979.90583,550.10409,978.34873Z" transform="translate(0 27.61907)"/><path class="cls-15" d="M585.72589,1063.66343l-51.3074,29.8167a2.16691,2.16691,0,0,0,.8224-.8265c1.27552-2.2778-.7396-7.8656-.09648-10.8004.64268-2.8377,4.19928-3.7501,4.209-7.1479.00968-3.4461-3.53022-8.4069-4.15472-12.025-.62428-3.6665,1.4159-6.9128.1572-10.6053-1.2587-3.7897-5.5226-7.1266-7.3317-10.7966-1.80878-3.6695-1.6256-8.5714-3.90078-11.9758-2.27532-3.4043-6.46092-4.5079-9.11812-7.5007-2.5724-2.9438-4.2913-8.5549-7.1617-10.9415a5.98886,5.98886,0,0,0-.8551-.5998l51.3075-29.8167a5.98976,5.98976,0,0,1,.8551.5999c2.8704,2.3865,4.58932,7.9976,7.1617,10.9414,2.6572,2.9928,6.8428,4.0965,9.118,7.5008,2.2753,3.4043,2.0921,8.3063,3.9009,11.9758,1.8091,3.67,6.073,7.0068,7.33172,10.7966,1.25858,3.6925-.78152,6.9387-.15722,10.6052.6244,3.6181,4.1644,8.5789,4.1546,12.0251-.0096,3.3977-3.5662,4.3101-4.209,7.1478-.643,2.9348,1.3721,8.5227.0965,10.8005A2.16456,2.16456,0,0,1,585.72589,1063.66343Z" transform="translate(0 27.61907)"/><path class="cls-16" d="M506.98849,1010.26063a5.98886,5.98886,0,0,1,.8551.5998c2.8704,2.3866,4.5893,7.9977,7.1617,10.9415,2.6572,2.9928,6.8428,4.0964,9.11812,7.5007,2.27518,3.4044,2.092,8.3063,3.90078,11.9758,1.8091,3.67,6.073,7.0069,7.3317,10.7966,1.2587,3.6925-.78148,6.9388-.1572,10.6053.6245,3.6181,4.1644,8.5789,4.15472,12.025-.00972,3.3978-3.56632,4.3102-4.209,7.1479-.64312,2.9348,1.372,8.5226.09648,10.8004-1.2759,2.2777-5.5448.6884-7.3688,2.2606-1.8236,1.5726-1.6688,6.6697-3.956,7.4884-2.2871.7699-6.4651-3.0033-9.1306-3.0839-2.5806-.0313-4.3257,3.5799-7.2003,2.6983a4.299,4.299,0,0,1-.8443-.3826c-2.5876-1.494-5.4869-5.8497-8.1883-7.4094-2.7011-1.5595-5.6155-.5602-8.20318-2.0542a5.9026,5.9026,0,0,1-.84372-.592c-2.9126-2.4597-4.5891-8.0463-7.2039-11.0146-2.6572-2.9925-6.843-4.048-9.1182-7.4521-2.2748-3.4525-2.0495-8.3302-3.8586-12.0002-1.8088-3.6695-6.1151-7.0311-7.3739-10.7721-1.2586-3.7409.8237-6.9632.1994-10.6297-.6667-3.5937-4.1644-8.5789-4.1548-11.9766.0098-3.4462,3.5241-4.3342,4.2091-7.1963.6431-2.9348-1.4142-8.5466-.1387-10.776,1.276-2.3264,5.58732-.7123,7.4109-2.285,1.824-1.5721,1.627-6.6935,3.9138-7.464,2.2871-.7703,6.5074,2.9793,9.1307,3.0352,2.6231.0557,4.3258-3.5799,7.2427-2.6251a4.352,4.352,0,0,1,.8554.3877c2.5851,1.4925,5.4799,5.7982,8.177,7.3554S504.40369,1008.76823,506.98849,1010.26063Z" transform="translate(0 27.61907)"/><path class="cls-17" d="M911.32521,1409.57793a37.117,37.117,0,0,1-18.2752-4.4678l-145.6068-84.0683c-6.0573-3.4954-9.5366-8.7483-9.5463-14.405-.0097-5.6373,3.4309-10.8707,9.4332-14.3629l144.6603-84.0683a36.7393,36.7393,0,0,1,18.188-4.4679,37.13264,37.13264,0,0,1,18.2977,4.484l145.6069,84.0651c6.0734,3.5083,9.5592,8.7644,9.5656,14.4211.0097,5.6211-3.4211,10.8417-9.4105,14.3242l-144.6604,84.0683A36.88142,36.88142,0,0,1,911.32521,1409.57793Z" transform="translate(0 27.61907)"/><path class="cls-6" d="M1070.91491,1295.46173l-144.6619,84.0679c-8.225,4.7804-21.6139,4.7804-29.8938.0004l-145.6077-84.0667c-4.1666-2.4055-6.247-5.5642-6.2382-8.7184l-.046,16.1798c-.0089,3.1542,2.0724,6.3129,6.2382,8.7184l145.6077,84.0667c8.279,4.78,21.6688,4.78,29.8946-.0004l144.6603-84.0679c4.0769-2.3684,6.1122-5.4617,6.1202-8.5614l.0461-16.1797C1077.02551,1290.00013,1074.99021,1293.09333,1070.91491,1295.46173Z" transform="translate(0 27.61907)"/><path class="cls-13" d="M1070.77481,1278.17063c8.2796,4.7802,8.3651,12.5113.1396,17.2914l-144.6613,84.0679c-8.2254,4.7801-21.6147,4.7803-29.8943.0001l-145.6076-84.0665c-8.2793-4.7801-8.3229-12.5358-.0974-17.3159l144.6612-84.0679c8.2255-4.7802,21.5729-4.7557,29.8522.0243Z" transform="translate(0 27.61907)"/><path class="cls-14" d="M1011.297,1261.43383l-.0917,32.3595c-.0416,14.6731-9.6849,29.3281-28.9545,40.5264-38.7779,22.5352-101.8502,22.5355-140.8394.0251-19.6411-11.3398-29.4507-26.2245-29.4086-41.0865l.0917-32.3594c-.0421,14.862,9.7675,29.7467,29.4086,41.0865,38.9892,22.5104,102.0615,22.5101,140.8395-.0251C1001.61211,1290.76213,1011.25541,1276.10713,1011.297,1261.43383Z" transform="translate(0 27.61907)"/><path class="cls-12" d="M981.92571,1220.38073c38.9892,22.5105,39.1945,59.0445.4169,81.5796-38.778,22.5352-101.8503,22.5355-140.8395.0251-39.0313-22.5347-39.2373-59.0687-.4593-81.604C879.82141,1197.84633,942.89431,1197.846,981.92571,1220.38073Z" transform="translate(0 27.61907)"/><path class="cls-11" d="M840.04981,1212.16953l-.1376,48.5391a9.05929,9.05929,0,0,0-.292-2.4474c-1.1748-4.1786-6.4413-8.4179-6.4294-12.6072l.1375-48.539c-.0118,4.1892,5.2547,8.4285,6.4295,12.6071A9.0558,9.0558,0,0,1,840.04981,1212.16953Z" transform="translate(0 27.61907)"/><path class="cls-6" d="M990.35131,1209.11133l-.1377,48.5391a4.644,4.644,0,0,1-.1508,1.1711c-1.2374,4.5363-9.5557,7.853-13.1951,12.0236-3.5144,3.9998-3.1443,9.9018-8.9358,13.2674-5.7915,3.3657-15.94,3.1462-22.8755,5.2193-7.1882,2.1218-12.887,6.9508-20.6725,7.6581-7.9113.7316-16.0158-2.878-23.8933-3.5852-7.7935-.7072-17.3821,1.2928-24.5518-.8535a17.17347,17.17347,0,0,1-3.7971-1.6291c-4.4925-2.5937-7.2757-6.7084-11.9279-9.3944-4.618-2.6661-11.7512-4.2767-16.2313-6.8633a11.002,11.002,0,0,1-2.8086-2.1847,7.47043,7.47043,0,0,1-1.7833-5.2669l.1375-48.539a7.47075,7.47075,0,0,0,1.7834,5.2668,10.99975,10.99975,0,0,0,2.8086,2.1847c4.4801,2.5866,11.6134,4.1972,16.2313,6.8634,4.6522,2.686,7.4354,6.8006,11.9279,9.3943a17.18037,17.18037,0,0,0,3.7971,1.6292c7.1697,2.1463,16.7583.1463,24.5518.8535,7.8775.7072,15.982,4.3167,23.8933,3.5851,7.7856-.7072,13.4843-5.5363,20.6725-7.658,6.9355-2.0731,17.084-1.8537,22.8755-5.2193,5.7915-3.3657,5.4214-9.2677,8.9358-13.2674,3.6395-4.1707,11.9577-7.4874,13.1951-12.0237A4.64806,4.64806,0,0,0,990.35131,1209.11133Z" transform="translate(0 27.61907)"/><path class="cls-18" d="M979.60061,1180.09173a11.24817,11.24817,0,0,1,2.7789,2.1439c3.6867,4.1704.2652,9.731,1.5116,14.243,1.2466,4.5606,7.5046,9.2432,6.3093,13.8038-1.2374,4.5363-9.5556,7.853-13.1951,12.0237-3.5144,3.9997-3.1443,9.9017-8.9358,13.2674-5.7915,3.3656-15.94,3.1462-22.8755,5.2193-7.1882,2.1217-12.8869,6.9508-20.6725,7.658-7.9113.7316-16.0158-2.8779-23.8933-3.5851-7.7935-.7072-17.3821,1.2928-24.5518-.8535a17.18037,17.18037,0,0,1-3.7971-1.6292c-4.4925-2.5937-7.2757-6.7083-11.9279-9.3943-4.6179-2.6662-11.7512-4.2768-16.2313-6.8634a10.99975,10.99975,0,0,1-2.8086-2.1847c-3.6867-4.1704-.3074-9.7065-1.5537-14.2185-1.2891-4.5851-7.5046-9.2432-6.2675-13.8282,1.1959-4.5118,9.5138-7.8287,13.1535-11.9991,3.556-4.0243,3.144-9.9019,8.9355-13.2676,5.7916-3.3656,15.9819-3.1705,22.8758-5.2191,7.188-2.1219,12.887-6.9508,20.7141-7.6825,7.8695-.7073,15.9316,2.8778,23.8514,3.6094,7.7936.7072,17.3821-1.2928,24.594.829a16.96189,16.96189,0,0,1,3.6935,1.5931c4.4979,2.5969,7.3059,6.7509,11.947,9.4305C967.93,1175.88663,975.09041,1177.48813,979.60061,1180.09173Z" transform="translate(0 27.61907)"/><path class="cls-1" d="M879.75491,1221.36783c17.9948,10.3893,47.0477,10.3892,64.8839.0239,17.8351-10.3646,17.7404-27.1931-.2544-37.5824-17.9529-10.3651-47.0047-10.3643-64.8397.0003-17.8363,10.3653-17.7427,27.1931.2102,37.5582Z" transform="translate(0 27.61907)"/><g class="cls-19"><g class="cls-20"><rect class="cls-12" x="816.3226" y="1165.71518" width="182.83082" height="34.86421" transform="translate(-391.57598 478.91326) rotate(-23.11287)"/><rect class="cls-12" x="828.20692" y="1203.50739" width="182.83099" height="10.56229" transform="translate(-400.66699 485.60071) rotate(-23.11132)"/></g></g><path class="cls-11" d="M879.52221,1191.74443c17.835-10.3644,46.8868-10.3652,64.8397,0,7.3071,4.2186,11.6094,9.5022,13.0118,14.9804a15.80337,15.80337,0,0,0,.569-4.0443c-.0008-.4498-.0683-.8997-.1082-1.3491-.036-.4026-.0396-.8052-.107-1.2066-.0772-.4608-.2225-.9171-.3409-1.375-.1001-.3869-.1671-.7766-.2968-1.1614-.1583-.4696-.3864-.9324-.5887-1.398-.1595-.3675-.2851-.739-.4721-1.1028-.2415-.4693-.5532-.9284-.8403-1.3912-.2177-.3509-.399-.7075-.6429-1.054-.3287-.4668-.7297-.9198-1.1061-1.3778-.2709-.3299-.5052-.6671-.8007-.9914-.4265-.468-.9268-.9182-1.4045-1.3741-.3134-.2993-.5884-.6074-.924-.9006-.5609-.4906-1.1989-.959-1.8216-1.4319-.3178-.2411-.5968-.4935-.9304-.7297q-1.48155-1.0485-3.174-2.0276c-17.9529-10.3651-47.0047-10.3643-64.8397,0q-1.66875.9699-3.1276,2.0123c-.2322.1655-.4224.3432-.6469.5112-.714.5351-1.4239,1.0705-2.0575,1.6282-.3028.2669-.55.5484-.8346.8201-.498.4757-1.0148.947-1.4562,1.436-.2823.3126-.5048.6376-.7636.955-.3776.4624-.7778.9195-1.1061,1.3912-.2483.3566-.4337.7228-.6542,1.0842-.2721.4459-.5714.888-.8011,1.3399-.1874.3695-.3126.7467-.4721,1.1194-.1938.4535-.4143.9037-.5662,1.3617-.1276.3844-.1926.7733-.2903,1.1601-.1143.4523-.256.903-.3303,1.3573-.065.3985-.0675.7987-.1014,1.1985a15.66043,15.66043,0,0,0,.4442,5.2387C868.19231,1201.04993,872.40451,1195.88073,879.52221,1191.74443Z" transform="translate(0 27.61907)"/><path class="cls-6" d="M296.86319,868.11283c-16.0493-8.9433-30.5125-9.6379-41.0141-3.5354l-27.9079,16.2185c10.5009-6.1029,24.9648-5.4079,41.0133,3.5354,32.635,18.1863,59.467,63.5936,59.9298,101.4203.2358,19.2246-6.3852,32.7912-17.2374,39.098l27.9079-16.2185c10.8529-6.3068,17.4739-19.8734,17.2381-39.098C356.32929,931.70643,329.49809,886.29913,296.86319,868.11283Z" transform="translate(0 27.61907)"/><path class="cls-21" d="M268.95449,884.33133c-16.0485-8.9433-30.5124-9.6383-41.0133-3.5354l-42.849,24.901c10.5016-6.1029,24.96479-5.4079,41.01409,3.5354,32.6349,18.1863,59.46612,63.5936,59.9297,101.4203.2359,19.2246-6.3851,32.7912-17.2381,39.098l42.849-24.901c10.8522-6.3068,17.4732-19.8734,17.2374-39.098C328.42149,947.92493,301.58949,902.51763,268.95449,884.33133Z" transform="translate(0 27.61907)"/><path class="cls-22" d="M226.10629,909.23233c-25.426-14.1687-46.87269-7.6342-54.88849,13.8328-.2253.6033-.525,1.4073-.7511,2.0106-.11229.3012-.2617.7034-.3747,1.0051-.2254.6029-.5258,1.4073-.7511,2.0102-.2246.6033-.525,1.4073-.7503,2.0106-.1123.3012-.2625.7034-.3756,1.0051-.2245.6029-.5249,1.4069-.7503,2.0102-.22529.6029-.5257,1.4073-.75029,2.0102-.113.3016-.26331.7038-.37631,1.0055-.2245.6029-.525,1.4069-.7503,2.0102-.2253.6029-.5258,1.4073-.7503,2.0102-.11309.3016-.2633.7034-.3756,1.0051-.2253.6033-.5257,1.4073-.7502,2.0106,6.566-17.585,24.1345-22.938,44.96259-11.3315,26.7327,14.8976,48.7117,52.0932,49.0913,83.0793.302,24.6337-13.1386,37.927-32.0938,34.8567q10.59285,1.7154,21.1842,3.4313c23.14042,3.7478,39.5483-12.48,39.18-42.5519C285.57241,972.82593,258.74119,927.41863,226.10629,909.23233Z" transform="translate(0 27.61907)"/><ellipse class="cls-6" cx="209.36089" cy="987.94263" rx="39.52594" ry="68.23906" transform="translate(-468.04855 266.57634) rotate(-30.16245)"/><path class="cls-21" d="M245.91109,1009.444a3.74117,3.74117,0,0,0-.3554-1.3273l.00972-.0057c-.03232-.0751-.06462-.1514-.09852-.2277-.0557-.1264-.1147-.254-.1744-.3821-.0525-.1118-.1066-.2237-.16-.3359a7.55633,7.55633,0,0,1-.8585-2.3131c-.1235-1.335,1.2753-1.9864,1.1089-3.2491a3.38371,3.38371,0,0,0-.2463-.6922l.0347-.0201c-.0137-.034-.0291-.0679-.0436-.1018l-.05328-.1167c-.02182-.046-.04362-.0925-.067-.1385l-.017-.0323-.00732-.0142c-.0258-.0508-.05168-.1017-.0783-.1526q-.10665-.19815-.2245-.3994c-.1131-.1946-.2334-.388-.3538-.5835a7.9686,7.9686,0,0,1-1.1307-2.2686c-.2923-1.3847.8529-2.425.4765-3.8097a2.96976,2.96976,0,0,0-.1591-.3408l.038-.0218-.0291-.065c-.0113-.0262-.0226-.0521-.0355-.0783-.0121-.0259-.02418-.0521-.038-.0784-.0185-.0371-.0379-.0743-.0573-.1114-.0291-.0541-.0598-.1087-.0921-.1632-.0323-.0541-.0694-.1094-.1042-.1639-.0185-.0287-.0363-.0574-.0541-.0856-.0339-.0517-.0638-.103-.09848-.1547-.09852-.145-.20352-.2903-.31182-.4361-.1041-.1405-.2116-.2811-.3198-.422-.2778-.3626-.5548-.7245-.7939-1.0814l-.0283-.0436a4.20523,4.20523,0,0,1-.5281-1.0322c-.4604-1.3847.3892-2.79-.1567-4.2231-.0105-.0279-.0372-.0533-.0485-.0812l.0129-.0081c-.0064-.0173-.0145-.0347-.0226-.0521-.00718-.0173-.0145-.0347-.0226-.052-.0113-.0243-.0242-.0485-.0355-.0723-.0129-.0259-.0267-.0517-.0404-.0772-.0283-.0521-.0582-.1037-.08968-.1554-.02982-.0493-.06212-.0986-.09442-.1478-.0404-.0602-.084-.1204-.1277-.1805-.03388-.0461-.0694-.0917-.1058-.1377-.0072-.0093-.0153-.0182-.0218-.0275l-.0064-.0069c-.0307-.0391-.0614-.0775-.0937-.1167-.0501-.0597-.1018-.1191-.1535-.1784q-.1089-.1236-.2229-.2464l-.0129.0073c-.4208-.4535-.8658-.9021-1.2502-1.3544l-.0162-.019a4.2162,4.2162,0,0,1-.6412-.9611c-.6001-1.318-.1559-2.9733-.6881-4.2623l.0266-.0157c-.0072-.0182-.0153-.036-.0226-.0537l-.02418-.0529c-.00892-.0178-.017-.0352-.02512-.0525l-.0161-.0307c-.0081-.017-.017-.0335-.0259-.0501q-.0327-.06-.0678-.1183c-.0202-.0331-.0404-.0658-.0614-.0981-.0371-.0562-.0759-.1111-.1155-.1652-.0226-.0307-.046-.061-.0694-.0913-.0234-.0302-.0485-.0609-.0735-.0908-.0259-.0311-.0525-.0622-.0792-.0929-.0298-.0335-.0597-.0666-.0904-.0993l-.0194.0113c-.8674-.9328-2.1314-1.6492-2.7298-2.6854-.66548-1.1517-.5864-2.8005-1.1162-4.0798l.0404-.023-.0339-.0795c-.0113-.0255-.0234-.0509-.0355-.076-.01128-.025-.0235-.0496-.0356-.0743-.0121-.0246-.0242-.0488-.0371-.0731-.0299-.0549-.06058-.109-.0937-.1619l-.0291-.0472-.0177-.0275c-.0219-.0323-.0437-.0642-.0663-.0953-.0202-.0275-.0404-.0545-.0614-.0808-.0161-.0206-.0323-.0407-.0492-.0605-.017-.0202-.0331-.0396-.0509-.0594q-.0291-.0327-.0582-.0642l-.0928.0537c-.886-.9405-2.2832-1.4384-3.065-2.4911-.6889-.9652-.8997-2.488-1.3916-3.6728l.0138-.0076-.0533-.1228c-.0146-.0343-.0307-.0686-.0469-.1026-.01528-.0339-.0315-.0674-.0484-.1005-.0186-.038-.038-.0755-.0574-.1123-.0379-.0714-.0783-.1405-.1203-.2075-.0194-.0311-.0388-.0618-.0598-.0921-.01938-.0283-.0379-.0557-.0581-.0832-.0194-.027-.0396-.0537-.0598-.0799l-.0097-.0114-.0113-.0125-.04848-.0545-.01372.0081a3.48644,3.48644,0,0,0-.81328-.6469,9.62059,9.62059,0,0,0-1.01362-.4882,9.1411,9.1411,0,0,1-.9845-.4644,2.714,2.714,0,0,1-.705-.5601,4.57961,4.57961,0,0,1-.63888-1.0096l-.008-.0149c-.18982-.3877-.36352-.8117-.53952-1.2341-.0856-.2051-.1713-.409-.25848-.6085-.04122-.0933-.08322-.1862-.126-.277-.03312-.0715-.067-.1422-.10172-.2112-.0178-.0364-.0364-.0719-.055-.1075l-.0088-.0177-.0348-.0667c-.0436-.0819-.088-.1619-.134-.2394-.0388-.065-.0776-.1284-.1179-.1898-.0372-.0549-.0743-.1086-.1115-.1599-.0194-.0255-.038-.0505-.05728-.0751-.01862-.0243-.038-.0485-.05822-.0719-.0153-.0186-.0307-.0368-.046-.0545l-.0469-.0521-.0113.0064c-.0169-.0177-.0274-.0476-.0452-.0646a2.11634,2.11634,0,0,0-.4159-.3109,4.47326,4.47326,0,0,0-1.4013-.4466,4.91288,4.91288,0,0,1-1.297-.4345,1.8523,1.8523,0,0,1-.3926-.2981,4.05717,4.05717,0,0,1-.7163-.8807c-.0372-.0573-.0735-.1187-.1107-.1781-.2092-.34-.4151-.703-.6251-1.0761-.07748-.1402-.1542-.2775-.2342-.4156-.1308-.2249-.2649-.445-.4046-.6521-.0186-.0279-.038-.0537-.0574-.0812-.0064-.0101-.0137-.0198-.021-.0299-.03228-.0464-.0638-.0937-.0969-.1381-.0339-.0468-.0686-.0925-.10338-.1369-.029-.0363-.05732-.0719-.08642-.1066-.025-.0303-.05-.0598-.0751-.0888-.0242-.0271-.0484-.0541-.0727-.0804l-.0436.0255a3.43661,3.43661,0,0,0-.3537-.3881,3.08262,3.08262,0,0,0-1.59748-.2758,2.943,2.943,0,0,1-1.65-.3198,3.99165,3.99165,0,0,1-.77942-.8133l-.0194-.0251c-.2568-.3372-.5128-.7188-.7705-1.0984l-.021-.0302c-.1639-.2423-.3295-.4822-.495-.7071q-.0861-.117-.17368-.2278c-.02912-.0375-.05812-.0735-.08722-.1094l-.0097-.0121-.0283-.0344c-.0339-.0403-.067-.0799-.1009-.1183-.02988-.0335-.0598-.0662-.08888-.0985l-.03232.019a2.90747,2.90747,0,0,0-.5556-.5153c-1.0984-.634-2.1176.5767-3.2742.0598a7.24724,7.24724,0,0,1-1.5458-1.5297c-.12108-.1401-.24308-.2827-.3666-.4232-.0824-.0933-.1648-.1857-.2488-.2766l-.0081.0044a4.60946,4.60946,0,0,0-1.1064-.9352,1.21619,1.21619,0,0,0-1.1226.1559l-.9062.5265a1.08132,1.08132,0,0,1-.8093.1587,1.56319,1.56319,0,0,1-.43608-.1805,9.531,9.531,0,0,1-1.33661-1.0862,8.25592,8.25592,0,0,0-1.3641-1.1497,1.33624,1.33624,0,0,0-.4095-.166.80369.80369,0,0,0-.5355.1119l-2.36629,1.3754a2.212,2.212,0,0,1-.25681-.0953,11.85884,11.85884,0,0,1-.99019-.6756c-.33761-.2435-.67521-.487-.98691-.6667a1.65644,1.65644,0,0,0-.8287-.2851.62755.62755,0,0,0-.2552.084l-3.1288,1.818c-.7688-.4103-1.56839-.8852-2.036-.7035a.53888.53888,0,0,0-.0751.0368l-4.4937,2.6111c-.0032.002-.0097-.0008-.0137.0012l-39.1227,22.7357c.0533-.0307.1527.0162.2149.0012a1.43916,1.43916,0,0,1,.69291.0045c.43529.1017.90859.2657,1.352.3812l-.00161.0012a1.366,1.366,0,0,0,.9611.0173c.7632-.4349.5152-2.7168,1.3633-3.0544.7656-.2981,2.4245,1.1666,3.3516,1.1678h0c.0469,0,.1131.0392.1567.0311.8884-.2156.9797-2.3026,1.91091-2.3971a1.65723,1.65723,0,0,1,.82939.2847c.311.1797.6494.4232.987.6671.3384.2468.6768.4931.9893.6744v.0008a1.84909,1.84909,0,0,0,.6679.248h0c.0226.0032.0525.0266.0751.0278.9724.0271,1.40131-1.8163,2.4165-1.6677a1.38194,1.38194,0,0,1,.40381.1635h0l.00559.0024a8.27158,8.27158,0,0,1,1.3641,1.1497c.23431.2072.4459.3537.668.5431a5.4682,5.4682,0,0,0,.6679.5432,1.55079,1.55079,0,0,0,.4369.1805c.0509.0149.09451-.0194.1446-.0138l.0371-.0218a1.31136,1.31136,0,0,0,.7091-.1389c.6146-.3412,1.19371-.9683,1.9464-.6667a4.177,4.177,0,0,1,.9207.7277c.2819.2847.546.5985.8093.9033.2148.2577.4377.5092.6574.7463a4.32229,4.32229,0,0,0,.8892.783c.8666.3877,1.6565-.1967,2.4609-.2451a1.39885,1.39885,0,0,1,.8124.1857,3.19564,3.19564,0,0,1,.8061.7475l.0008.0008.0072.0093.0016.002c.2633.3223.5226.6986.781,1.0794l.0041.0069c.2544.3743.5072.7507.7608,1.083l.0226.0299a4.70988,4.70988,0,0,0,.3925.4091h0a3.31542,3.31542,0,0,0,.386.4026,2.94494,2.94494,0,0,0,1.6492.3202,7.05146,7.05146,0,0,1,.8077.0291,2.02289,2.02289,0,0,1,.78981.2467,4.00432,4.00432,0,0,1,.85289.9425l.0008.0004c.2447.3546.4725.7507.6954,1.1477v.0004c.2083.3715.4135.7325.6218,1.0713l.0065.0097c.0355.0577.0711.1183.1074.1736l.0008.0012a4.05364,4.05364,0,0,0,.7156.88,1.86148,1.86148,0,0,0,.3925.298,4.91278,4.91278,0,0,0,1.2979.4349,4.48444,4.48444,0,0,1,1.4012.4462,2.1444,2.1444,0,0,1,.416.3109,3.99119,3.99119,0,0,1,.663.9676l.0008.002c.2019.3897.3837.823.5646,1.2583l.0032.0061h0c.16961.4078.33761.8169.5217,1.1908l.0073.0154.0008.0012a4.551,4.551,0,0,0,.6364,1.0051l.0016.002.00081.0008c.01539.0182.04039.0275.05659.0448h0a2.77127,2.77127,0,0,0,.6477.5141,8.972,8.972,0,0,0,.9845.4644,9.8754,9.8754,0,0,1,1.0136.4882,3.40094,3.40094,0,0,1,.8868.7063,5.05608,5.05608,0,0,1,.7422,1.5926c.2415.7289.4523,1.4954.7374,2.1774a4.23991,4.23991,0,0,0,.411.8222c.0695.0933.1963.1336.2755.2176.9328.9902,2.4398,1.4643,3.1796,2.6018l.0065.0057a5.09049,5.09049,0,0,1,.6138,1.8664,12.26254,12.26254,0,0,0,.579,2.3547,3.46233,3.46233,0,0,0,.14781.3937,3.80519,3.80519,0,0,0,.525.6401h0c.49109.529,1.09349,1.0091,1.65569,1.5123a4.75116,4.75116,0,0,1,1.15249,1.3277c.6582,1.2825.1583,2.9975.72282,4.3677h0c.01288.0319.01128.0686.02578.1001a4.24543,4.24543,0,0,0,.6413.9599l.0008.0016.0153.0182.0017.0012c.0993.1171.218.2334.3254.3501h0l.013.0142c.4708.5067.9853,1.0111,1.3996,1.53l.0016.002a4.23514,4.23514,0,0,1,.3651.6074,3.19,3.19,0,0,1,.2293.3828,3.05361,3.05361,0,0,1,.1906,1.0697c.013,1.0649-.3796,2.1148-.0331,3.1534.0218.0719.084.1494.1139.2225h0a4.50493,4.50493,0,0,0,.41672.8157c.00648.0093.013.0186.01858.0283.23342.3497.50642.7051.7786,1.0604l.0169.0222c.2617.3429.51692.6857.7366,1.0233l.0016.0032a3.7755,3.7755,0,0,1,.5282,1.1033c.3764,1.3843-.7689,2.4249-.47648,3.8092a3.26522,3.26522,0,0,0,.13728.3485c.0299.0658.0493.128.0759.1926h0a4.778,4.778,0,0,0,.2051.5221v.0004l.0049.0093c.3473.6498.8101,1.3463,1.1856,2.0211.0565.103.1276.2088.1793.3102l.0008.0016a3.80488,3.80488,0,0,1,.399,1.1145,1.64622,1.64622,0,0,1-.1204.8525c-.2124.5189-.6218.9659-.8447,1.503a1.84625,1.84625,0,0,0-.14378.8936,3.89708,3.89708,0,0,0,.33268,1.1654h0c.15032.3623.3304.741.5137,1.1231l.0065.0137c.0888.1841.1566.3594.2406.5415.1034.2282.2197.4608.30052.6776.04278.1143.03788.2039.071.3134a2.85066,2.85066,0,0,1,.17128.7567c-.00328,1.262-1.5701,1.5248-1.65728,2.689-.13082,1.1889,1.25988,3.4014,1.08708,4.5175-.1502.8-1.0378.9619-1.6492,1.3343a1.08311,1.08311,0,0,0-.5565.6497,3.76,3.76,0,0,0,.1171,1.543,14.85832,14.85832,0,0,1,.37152,2.1273v.0008h0a1.76438,1.76438,0,0,1-.03552.6744c-.3416.9695-2.2016.382-2.6692,1.23a1.58912,1.58912,0,0,0-.0396.2879h0a4.04306,4.04306,0,0,0-.0493,1.0072c.0315.3892.0574.7741.0937,1.1718l.0024.0279h0a2.61013,2.61013,0,0,1-.1453,1.5579c-.5525.7507-2.4116-.2249-3.00518.4042-.63732.6538-.09372,3.0577-.77211,3.5896a.59618.59618,0,0,1-.0622.0416l39.12339-22.7358a.5699.5699,0,0,0,.0614-.0415c.3764-.2948.3844-1.155.4184-1.9828l3.1675-1.8406a.621.621,0,0,0,.1914-.1704c.4644-.6304-.0145-2.3963.059-3.4781l2.3986-1.394a.7546.7546,0,0,0,.35062-.411c.38278-.9454-.75282-3.3029-.45392-4.3455a.99042.99042,0,0,1,.4458-.5201l1.1097-.6453a1.19443,1.19443,0,0,0,.6509-.8182c.172-1.1161-1.2179-3.3286-1.0871-4.5175C244.34109,1010.96843,245.90789,1010.70593,245.91109,1009.444Z" transform="translate(0 27.61907)"/><path class="cls-16" d="M169.1047,966.90993c1.0981.6339,2.1068,3.0153,3.1626,3.7706a2.94245,2.94245,0,0,0,1.6493.3201,3.07779,3.07779,0,0,1,1.598.2757c1.2332.9214,1.94581,3.3263,3.0009,4.2269a1.88014,1.88014,0,0,0,.3923.298,4.92061,4.92061,0,0,0,1.298.4349,4.47135,4.47135,0,0,1,1.401.4465,2.14623,2.14623,0,0,1,.4163.3109c1.0126,1.0222,1.4292,3.3534,2.3991,4.4482a2.708,2.708,0,0,0,.7055.56,9.02519,9.02519,0,0,0,.984.4642,9.83138,9.83138,0,0,1,1.0141.4882,3.404,3.404,0,0,1,.88661.7062c.92759,1.1675,1.006,3.352,1.89089,4.5922.8852,1.192,2.66111,1.5852,3.4616,2.8252.84251,1.313.5829,3.3023,1.3407,4.6149.7581,1.3128,2.6176,2.0949,3.33269,3.4801.6735,1.3123.1184,3.0826.7492,4.4679.5885,1.3121,2.489,2.5066,2.993,3.8672.546,1.4333-.3042,2.8386.1573,4.2231.4191,1.3604,2.2764,2.9187,2.6111,4.2788.3768,1.3844-.7684,2.4249-.4762,3.8092.2502,1.3114,1.9796,3.1361,2.1874,4.5202.1657,1.2626-1.23268,1.9139-1.1093,3.2492.081,1.2621,1.6407,3.3295,1.6371,4.5915-.00348,1.2621-1.5698,1.5247-1.6578,2.6892-.1305,1.1888,1.2598,3.4014,1.0874,4.5174-.215,1.1397-1.94908.9652-2.2059,1.9837-.2991,1.0427.8365,3.4.4531,4.3455-.3414.9698-2.2014.3822-2.6692,1.2302-.4254.8728.41392,3.302-.1383,4.0528s-2.4111-.2252-3.0051.4042c-.6366.6536-.0933,3.0576-.772,3.5897-.72069.5562-2.5785-.8082-3.3415-.3733-.7628.4347-.5153,2.7167-1.3625,3.0542-.8049.3131-2.5772-1.3422-3.4663-1.175-.889.2161-.9795,2.303-1.9106,2.3975a1.68331,1.68331,0,0,1-.9274-.2981c-.3066-.1769-.6356-.4124-.9741-.6536a12.67867,12.67867,0,0,0-1.0562-.7223,1.79173,1.79173,0,0,0-.6334-.2532c-.9729-.027-1.4014,1.8161-2.4164,1.6675a1.402,1.402,0,0,1-.5034-.1897,8.5221,8.5221,0,0,1-1.3546-1.1259,8.0735,8.0735,0,0,0-1.4221-1.1868,1.75633,1.75633,0,0,0-.2665-.1284c-1.0148-.2457-1.7386,1.3299-2.7951.9145a1.26666,1.26666,0,0,1-.24959-.1128,7.49518,7.49518,0,0,1-1.52291-1.4941,7.77278,7.77278,0,0,0-1.6455-1.6307c-1.0565-.5127-2.07559.7464-3.17359.1124-1.09831-.6341-2.10691-3.0638-3.16291-3.7707a2.98564,2.98564,0,0,0-1.64909-.2716,2.80259,2.80259,0,0,1-1.48651-.2433,1.72064,1.72064,0,0,1-.2472-.174c-1.0977-.8284-1.81029-3.2332-2.8231-4.1582a2.60419,2.60419,0,0,0-.2853-.1901,4.30715,4.30715,0,0,0-1.4474-.47,4.231,4.231,0,0,1-1.3339-.4263,2.11129,2.11129,0,0,1-.4833-.3799c-1.0126-1.0221-1.4292-3.3531-2.3991-4.4479a3.09971,3.09971,0,0,0-.7144-.5604,5.82059,5.82059,0,0,0-1.0176-.4395,9.0936,9.0936,0,0,1-.9339-.4479,2.89392,2.89392,0,0,1-.8819-.7465c-.97-1.1921-1.04839-3.3766-1.8912-4.5925-.8849-1.1914-2.70319-1.6092-3.5037-2.8491-.84249-1.313-.5829-3.3024-1.3407-4.6149-.75779-1.313-2.6176-2.0949-3.2906-3.4558-.7156-1.337-.1605-3.1069-.7489-4.4677-.6309-1.3366-2.4892-2.5068-3.0352-3.9401-.5462-1.3849.3464-2.7658-.11509-4.1506-.46151-1.3845-2.27661-2.9188-2.65351-4.3033-.3768-1.3844.7684-2.4248.5186-3.7844-.2926-1.3358-2.022-3.1609-2.1874-4.5202-.20769-1.3355,1.1904-1.987,1.10931-3.2492-.081-1.2621-1.68311-3.3539-1.67951-4.616.00351-1.262,1.6122-1.5001,1.7002-2.6647.0881-1.2133-1.3018-3.4743-1.0872-4.5658.17251-1.1161,1.90651-.9412,2.2057-1.9353.2567-1.0675-.8789-3.4248-.4955-4.3703.3835-.9454,2.2014-.3819,2.6692-1.2302.4678-.8479-.41389-3.3017.1383-4.0524.5522-.7508,2.4111.2251,3.0477-.4285.594-.6293.0507-3.0337.7715-3.5411.67861-.5806,2.5367.7837,3.2994.349.7628-.4347.5153-2.7168,1.3625-3.0543.8049-.3131,2.6196,1.3667,3.5084,1.199.88931-.2159.9799-2.3028,1.911-2.3973a1.65818,1.65818,0,0,1,.8295.2848c.3114.1798.6493.4233.987.6671a11.81184,11.81184,0,0,0,.99.6754,1.79467,1.79467,0,0,0,.7421.2758c.9729.0269,1.4014-1.8164,2.4164-1.6679a1.3598,1.3598,0,0,1,.4099.1661,8.26278,8.26278,0,0,1,1.36341,1.1495,9.5422,9.5422,0,0,0,1.337,1.0864,1.56331,1.56331,0,0,0,.43649.1805c1.0146.2943,1.7384-1.2812,2.8373-.8413a6.99478,6.99478,0,0,1,1.73021,1.631,7.22206,7.22206,0,0,0,1.54629,1.5294C166.9875,967.48643,168.00641,966.27583,169.1047,966.90993Z" transform="translate(0 27.61907)"/><path class="cls-23" d="M651.05161,792.95253l-.0704,24.813c.0047-1.6292-.3093-3.3795-.3047-5.0155l.0703-24.8129C650.74221,789.573,651.05621,791.32333,651.05161,792.95253Z" transform="translate(0 27.61907)"/><path class="cls-23" d="M1084.98711,807.775l-.0704,24.8131c-.0081,2.8669-2.4637,6.3012-2.4718,9.1578l.0703-24.813C1082.52341,814.07633,1084.979,810.642,1084.98711,807.775Z" transform="translate(0 27.61907)"/><path class="cls-23" d="M632.61021,817.00263l-.0705,24.813c.0084-2.9095-2.568-6.4368-2.5598-9.3407l.0703-24.8129C630.042,810.56583,632.61841,814.09313,632.61021,817.00263Z" transform="translate(0 27.61907)"/><path class="cls-23" d="M1099.49181,830.29783l-.0704,24.8131c-.01,3.5194-5.6673,7.7392-5.6772,11.2464l.0702-24.8129C1093.82441,838.03713,1099.48181,833.81733,1099.49181,830.29783Z" transform="translate(0 27.61907)"/><path class="cls-23" d="M621.58551,841.59633l-.0705,24.8131c.0102-3.5365-5.7649-7.8237-5.7548-11.3743l.0702-24.8129C615.82041,833.77273,621.59551,838.06,621.58551,841.59633Z" transform="translate(0 27.61907)"/><path class="cls-23" d="M1106.88841,854.274l-.0705,24.813c-.0113,4.0225-9.1935,8.2838-9.1711,12.2616l.0703-24.813C1097.69481,862.55783,1106.877,858.29653,1106.88841,854.274Z" transform="translate(0 27.61907)"/><path class="cls-23" d="M608.58261,879.04613l.0703-24.813c-.0113,4.0334,9.2365,8.2834,9.3097,12.3047l-.0704,24.8131C617.81911,887.32953,608.57121,883.07953,608.58261,879.04613Z" transform="translate(0 27.61907)"/><path class="cls-23" d="M1107.031,878.81293l-.0704,24.813a2.52292,2.52292,0,0,1-.0265.3595c-.6019,4.1018-11.5694,7.4494-12.7959,11.491a2.95037,2.95037,0,0,0-.1137.8137l.0703-24.813a2.95468,2.95468,0,0,1,.1137-.8137c1.2266-4.0416,12.194-7.3892,12.7959-11.491A2.50853,2.50853,0,0,0,1107.031,878.81293Z" transform="translate(0 27.61907)"/><path class="cls-23" d="M621.86591,891.52893l-.0705,24.8131a2.95377,2.95377,0,0,0-.1222-.8634c-1.3249-4.0717-12.2779-7.3892-12.9256-11.4907a2.56888,2.56888,0,0,1-.0262-.3753l.0702-24.813a2.59711,2.59711,0,0,0,.0263.3753c.6477,4.1016,11.6008,7.419,12.9256,11.4907A2.9605,2.9605,0,0,1,621.86591,891.52893Z" transform="translate(0 27.61907)"/><path class="cls-23" d="M616.11781,927.589l.0703-24.813a2.93354,2.93354,0,0,0,.2672,1.2504,7.20092,7.20092,0,0,0,3.0616,2.7746,50.16432,50.16432,0,0,0,5.0906,2.4127l-.0704,24.813a50.17455,50.17455,0,0,1-5.0906-2.4127,7.20119,7.20119,0,0,1-3.0615-2.7746A2.93354,2.93354,0,0,1,616.11781,927.589Z" transform="translate(0 27.61907)"/><path class="cls-23" d="M632.60131,914.06953l-.0704,24.813a8.7596,8.7596,0,0,0-2.905-2.3871c-1.4858-.8578-3.2947-1.6588-5.0888-2.4687l.0704-24.813c1.7941.81,3.603,1.6109,5.0887,2.4687A8.76007,8.76007,0,0,1,632.60131,914.06953Z" transform="translate(0 27.61907)"/><path class="cls-23" d="M1099.88771,902.86133l-.0704,24.8131a2.875,2.875,0,0,1-.2413,1.1627c-1.8518,3.9811-13.6591,6.1829-16.0321,10.0433a3.7164,3.7164,0,0,0-.5442,2.0036l.0703-24.8129a3.71737,3.71737,0,0,1,.5442-2.0037c2.3731-3.8604,14.1803-6.0622,16.0322-10.0433A2.87679,2.87679,0,0,0,1099.88771,902.86133Z" transform="translate(0 27.61907)"/><path class="cls-23" d="M633.16481,916.14063l-.0705,24.813a3.7458,3.7458,0,0,0-.5634-2.0711l.0704-24.813A3.74838,3.74838,0,0,1,633.16481,916.14063Z" transform="translate(0 27.61907)"/><path class="cls-23" d="M1085.62961,925.41113l-.0703,24.813a3.63724,3.63724,0,0,1-.7932,2.3488c-2.947,3.7097-15.2294,4.6749-18.8021,8.2639a5.50762,5.50762,0,0,0-1.4062,4.097l.0703-24.8129a5.50778,5.50778,0,0,1,1.4063-4.0971c3.5726-3.589,15.855-4.5542,18.802-8.2639A3.63668,3.63668,0,0,0,1085.62961,925.41113Z" transform="translate(0 27.61907)"/><path class="cls-23" d="M651.91541,940.717l-.0704,24.8131c.0051-1.7813-.2254-3.4297-1.4877-4.6914a7.39,7.39,0,0,0-1.4893-1.0934,39.2845,39.2845,0,0,0-7.9054-2.8876,40.54349,40.54349,0,0,1-7.7329-2.8638,6.23,6.23,0,0,1-1.7675-1.4189,3.721,3.721,0,0,1-.8399-2.4635l.0703-24.813a3.72149,3.72149,0,0,0,.8399,2.4635,6.23139,6.23139,0,0,0,1.7675,1.4189,40.54465,40.54465,0,0,0,7.733,2.8638,39.28678,39.28678,0,0,1,7.9054,2.8876,7.38919,7.38919,0,0,1,1.4892,1.0934C651.69,937.28743,651.92051,938.93583,651.91541,940.717Z" transform="translate(0 27.61907)"/><path class="cls-23" d="M651.75371,968.77593l.0703-24.813c-.0064,2.274.3427,4.522,2.5272,6.2724l-.0704,24.8129C652.09631,973.29793,651.74721,971.04993,651.75371,968.77593Z" transform="translate(0 27.61907)"/><path class="cls-23" d="M664.16431,952.85473l-.0703,24.813c-3.7788-.6588-7.558-1.3174-9.8132-2.6195l.0704-24.8129C656.60641,951.53733,660.38551,952.19593,664.16431,952.85473Z" transform="translate(0 27.61907)"/><path class="cls-23" d="M674.54281,955.84043l-.0704,24.813c-2.7172-1.5823-6.5711-2.2705-10.3784-2.9857l.0703-24.813C667.97171,953.56993,671.82551,954.25813,674.54281,955.84043Z" transform="translate(0 27.61907)"/><path class="cls-23" d="M704.64951,973.20913l-.0704,24.813c-5.8134-2.8618-17.9369-1.3237-23.0039-4.2491-5.1194-2.9557-2.5032-9.9829-7.1028-13.1196l.0704-24.813c4.5995,3.1367,1.9834,10.1639,7.1028,13.1196C686.71261,971.88543,698.836,970.34733,704.64951,973.20913Z" transform="translate(0 27.61907)"/><path class="cls-23" d="M715.06081,985.18573l-.0703,24.813c-3.361-1.8402-4.516-4.023-5.7107-6.1826-1.1979-2.2317-2.3962-4.4636-4.7007-5.794l.0704-24.813c2.3044,1.3304,3.5027,3.5623,4.7007,5.794C710.54491,981.16273,711.69981,983.34553,715.06081,985.18573Z" transform="translate(0 27.61907)"/><path class="cls-24" d="M1034.08661,764.14363c5.067,2.9255,2.4511,9.9528,7.0507,13.0891,2.7379,1.6048,6.532,2.2802,10.326,2.9559,3.7829.6938,7.6062,1.3644,9.922,2.7015,4.9549,3.9636.3062,10.5989,3.8668,14.1576a7.35941,7.35941,0,0,0,1.5144,1.1157,38.57816,38.57816,0,0,0,7.7761,2.8655,38.83567,38.83567,0,0,1,7.8155,2.8523,6.42758,6.42758,0,0,1,1.7891,1.4301c3.0933,3.77-3.5373,9.8021-1.0684,13.6928a7.99555,7.99555,0,0,0,2.843,2.3956,52.8127,52.8127,0,0,0,5.0987,2.4297,55.85938,55.85938,0,0,1,5.0576,2.4392,7.82105,7.82105,0,0,1,3.1463,2.7784c1.8453,4.0113-6.5081,9.2893-5.2875,13.3608,1.3241,4.0716,12.2772,7.3891,12.9253,11.4908.596,4.132-9.1681,8.5353-9.145,12.637.0755,4.132,9.8891,8.5351,9.2872,12.6368-.6019,4.1018-11.5693,7.4494-12.7959,11.491-1.1748,4.0715,7.186,9.3797,5.4379,13.3607-1.8519,3.9811-13.6591,6.1829-16.0322,10.0433-2.4255,3.8905,4.2213,9.9526,1.2222,13.6925-2.947,3.7097-15.2294,4.6749-18.802,8.2639-3.5206,3.5587,1.2028,10.1939-2.8914,13.6021-3.99,3.3476-16.384,3.046-21.0004,6.213-4.5643,3.1364-1.8693,10.1637-6.9034,13.0892-5.0861,2.9557-17.2265,1.4175-22.6265,4.0717-5.4521,2.6842-4.8908,9.8623-10.6575,12.1846-5.8704,2.3826-17.3409-.3317-23.4731,1.7192-6.1842,2.0811-7.8105,9.1987-14.2052,10.9178-6.4984,1.7795-16.9337-2.081-23.6422-.6634-6.7092,1.4177-10.4198,8.2338-17.2866,9.3195-6.9189,1.0556-16.0582-3.8002-23.0832-3.1063-6.9734.7236-12.7173,7.0875-19.7965,7.4496-7.1312.3315-14.7652-5.3383-21.8465-5.3383-7.1329.0301-14.651,5.6702-21.7864,5.3385-7.0833-.362-12.8984-6.7257-19.8796-7.4495-7.0332-.6935-16.1699,4.1319-23.0489,3.1066a13.99878,13.99878,0,0,1-4.8459-1.7907,37.5698,37.5698,0,0,1-4.1882-2.9444,39.48811,39.48811,0,0,0-4.1703-2.8978,14.56811,14.56811,0,0,0-4.1864-1.6864c-6.7249-1.4174-17.1691,2.413-23.6355.6636a10.61554,10.61554,0,0,1-2.5477-1.0627,20.33154,20.33154,0,0,1-4.929-4.4564,20.73364,20.73364,0,0,0-4.9865-4.5555,10.17249,10.17249,0,0,0-1.8649-.8431c-6.1553-2.0508-17.5952.6636-23.4918-1.719-3.361-1.8402-4.5159-4.023-5.7106-6.1826-1.198-2.2317-2.3963-4.4636-4.7007-5.794-5.8135-2.8618-17.9369-1.3237-23.0039-4.2491-5.1194-2.9557-2.5033-9.9829-7.1028-13.1196-2.7173-1.5823-6.5711-2.2705-10.3785-2.9857-3.7788-.6588-7.5579-1.3174-9.8131-2.6194-5.0117-4.0156-.3629-10.6509-3.9236-14.2096a7.38919,7.38919,0,0,0-1.4892-1.0934,39.28678,39.28678,0,0,0-7.9054-2.8876,40.54465,40.54465,0,0,1-7.733-2.8638,6.23139,6.23139,0,0,1-1.7675-1.4189c-3.0933-3.7699,3.5377-9.8019,1.0688-13.6925a8.76007,8.76007,0,0,0-2.9051-2.3871c-1.4857-.8578-3.2946-1.6587-5.0887-2.4687a50.16432,50.16432,0,0,1-5.0906-2.4127,7.20092,7.20092,0,0,1-3.0616-2.7746c-1.8446-4.0113,6.5085-9.2892,5.2882-13.3608-1.3248-4.0717-12.2779-7.3891-12.9256-11.4907-.596-4.1319,9.1678-8.5354,9.1447-12.6371-.0752-4.1318-9.8364-8.5051-9.2873-12.6369.6019-4.1017,11.5697-7.4496,12.7966-11.4909,1.1745-4.0717-7.1863-9.3795-5.3865-13.391,1.8002-3.9506,13.6074-6.1525,15.9808-10.0131,2.4251-3.8906-4.2216-9.9528-1.2229-13.6925,2.947-3.7096,15.2297-4.6747,18.8021-8.2638,3.5206-3.5587-1.2029-10.194,2.8916-13.6019,3.9904-3.3479,16.3841-3.0464,21.0005-6.2131,4.5642-3.1367,1.869-10.1639,6.9551-13.1196,5.034-2.9255,17.1748-1.3874,22.5748-4.0413,5.4521-2.6845,4.8912-9.8624,10.6574-12.1845,5.8701-2.3828,17.3406.3315,23.4728-1.7194,6.1846-2.081,7.8105-9.1988,14.2052-10.9179,6.4985-1.7795,16.9341,2.0809,23.6429.6634,6.7089-1.4174,10.4195-8.2335,17.2859-9.3194,6.9192-1.0555,16.0585,3.7999,23.084,3.1063,7.0247-.7539,12.7165-7.0876,19.7957-7.4496,7.1316-.3318,14.7653,5.3382,21.8465,5.3382,7.1333-.0303,14.6514-5.6699,21.7868-5.3382,7.0829.3618,12.8984,6.7256,19.8799,7.4492,7.0329.6938,16.1696-4.132,23.1007-3.0763a13.49419,13.49419,0,0,1,4.6623,1.7373,37.29063,37.29063,0,0,1,4.2156,2.9676,45.83041,45.83041,0,0,0,4.2314,2.9029,14.53638,14.53638,0,0,0,4.2815,1.7115c6.6727,1.3873,17.117-2.443,23.583-.6939a9.984,9.984,0,0,1,2.4425,1.0131,20.47727,20.47727,0,0,1,4.9301,4.5062,20.598,20.598,0,0,0,4.9957,4.5083,10.89218,10.89218,0,0,0,1.9598.8902c6.1553,2.0508,17.5952-.6636,23.4925,1.719,3.2251,1.7812,4.3954,3.9937,5.6058,6.1828,1.1787,2.1952,2.3573,4.3909,4.6735,5.7281C1016.84411,762.72633,1028.96721,761.188,1034.08661,764.14363Z" transform="translate(0 27.61907)"/><path class="cls-23" d="M1064.933,945.13683l-.0704,24.813a5.41415,5.41415,0,0,1-1.7899,4.4891c-3.99,3.3476-16.3841,3.046-21.0004,6.213-4.5643,3.1364-1.8694,10.1637-6.9034,13.0892-5.0862,2.9557-17.2266,1.4175-22.6266,4.0717-5.452,2.6842-4.8908,9.8623-10.6574,12.1846-5.8704,2.3826-17.3409-.3317-23.4731,1.7192-6.1843,2.0811-7.8106,9.1987-14.2052,10.9178-6.4985,1.7795-16.9337-2.081-23.6422-.6634-6.7093,1.4177-10.4198,8.2338-17.2866,9.3195-6.9189,1.0556-16.0582-3.8002-23.0833-3.1064-6.9733.7237-12.7172,7.0876-19.7964,7.4497-7.1313.3315-14.7653-5.3383-21.8465-5.3383-7.133.0301-14.6511,5.6702-21.7864,5.3385-7.0833-.362-12.8985-6.7257-19.8796-7.4495-7.0332-.6935-16.17,4.1319-23.049,3.1066a13.99878,13.99878,0,0,1-4.8459-1.7907,37.57906,37.57906,0,0,1-4.1882-2.9444,39.4778,39.4778,0,0,0-4.1703-2.8978,14.56582,14.56582,0,0,0-4.1864-1.6864c-6.7248-1.4174-17.169,2.413-23.6355.6636a10.61479,10.61479,0,0,1-2.5476-1.0627,20.332,20.332,0,0,1-4.9291-4.4564,20.73133,20.73133,0,0,0-4.9864-4.5555,10.17345,10.17345,0,0,0-1.865-.8431c-6.1552-2.0508-17.5952.6636-23.4917-1.719l.0703-24.813c5.8966,2.3826,17.3365-.3318,23.4918,1.719a10.17249,10.17249,0,0,1,1.8649.8431,20.73364,20.73364,0,0,1,4.9865,4.5555,20.33154,20.33154,0,0,0,4.929,4.4564,10.61554,10.61554,0,0,0,2.5477,1.0627c6.4664,1.7494,16.9106-2.081,23.6355-.6636a14.56811,14.56811,0,0,1,4.1864,1.6864,39.48811,39.48811,0,0,1,4.1703,2.8978,37.5698,37.5698,0,0,0,4.1882,2.9444,13.99878,13.99878,0,0,0,4.8459,1.7907c6.879,1.0253,16.0157-3.8001,23.0489-3.1066,6.9812.7238,12.7963,7.0875,19.8796,7.4495,7.1354.3317,14.6535-5.3084,21.7864-5.3385,7.0813,0,14.7153,5.6698,21.8465,5.3383,7.0792-.3621,12.8231-6.726,19.7965-7.4496,7.025-.6939,16.1643,4.1619,23.0832,3.1063,6.8668-1.0857,10.5774-7.9018,17.2866-9.3195,6.7085-1.4176,17.1438,2.4429,23.6422.6634,6.3947-1.7191,8.021-8.8367,14.2052-10.9178,6.1322-2.0509,17.6027.6634,23.4731-1.7192,5.7667-2.3223,5.2054-9.5004,10.6575-12.1846,5.4-2.6542,17.5404-1.116,22.6265-4.0717,5.0341-2.9255,2.3391-9.9528,6.9034-13.0892,4.6164-3.167,17.0104-2.8654,21.0004-6.213A5.41423,5.41423,0,0,0,1064.933,945.13683Z" transform="translate(0 27.61907)"/><path class="cls-25" d="M1094.20851,890.66343c1.2268-4.0418,12.194-7.3894,12.7961-11.491.6017-4.102-9.2119-8.5048-9.2874-12.637-.023-4.1016,9.7409-8.5048,9.1449-12.6367-.6482-4.102-11.6009-7.4193-12.925-11.491-1.2208-4.0713,7.1326-9.3496,5.2872-13.3607a7.81909,7.81909,0,0,0-3.1462-2.7783,55.78572,55.78572,0,0,0-5.0574-2.4394,52.77283,52.77283,0,0,1-5.099-2.4298,7.99408,7.99408,0,0,1-2.8429-2.3955c-2.4689-3.8907,4.1618-9.923,1.0685-13.6926a6.42909,6.42909,0,0,0-1.7893-1.4303,38.81763,38.81763,0,0,0-7.8155-2.8522,38.59646,38.59646,0,0,1-7.7759-2.8655,7.35953,7.35953,0,0,1-1.5143-1.1157c-3.5608-3.5589,1.0879-10.194-3.8669-14.1578-2.3159-1.3371-6.1393-2.0074-9.9222-2.7016-3.7939-.6756-7.5882-1.3508-10.326-2.9555-4.5995-3.1365-1.9836-10.1637-7.0507-13.0894-5.1192-2.9555-17.2426-1.4174-23.1876-4.345-2.3163-1.3371-3.4946-3.5326-4.6734-5.7282-1.2106-2.1891-2.3809-4.4012-5.6058-6.1828-5.8973-2.3825-17.3375.3319-23.4925-1.7187a10.88541,10.88541,0,0,1-1.9597-.8904,20.58548,20.58548,0,0,1-4.996-4.5082,20.48339,20.48339,0,0,0-4.9298-4.5062,9.98988,9.98988,0,0,0-2.4427-1.0132c-6.4659-1.7489-16.9103,2.0813-23.5829.6942a14.5398,14.5398,0,0,1-4.2817-1.7118,45.79737,45.79737,0,0,1-4.2312-2.9026,37.25484,37.25484,0,0,0-4.2155-2.9677,13.48873,13.48873,0,0,0-4.6624-1.7372c-6.9312-1.056-16.0679,3.77-23.1008,3.0763-6.9816-.7237-12.797-7.0874-19.8799-7.4492-7.1355-.332-14.6534,5.3077-21.7868,5.338-7.0813,0-14.7147-5.67-21.8465-5.338-7.0793.3618-12.7712,6.6956-19.7956,7.4496-7.0256.6933-16.1648-4.1622-23.0842-3.1066-6.8665,1.0859-10.5768,7.9019-17.2858,9.3197-6.709,1.4174-17.1445-2.4431-23.6431-.6635-6.3944,1.7191-8.0202,8.8368-14.2051,10.9176-6.1319,2.051-17.6024-.6634-23.4727,1.7195-5.7661,2.3223-5.2052,9.5002-10.6575,12.1848-5.3999,2.6539-17.5406,1.1157-22.5746,4.041-5.0861,2.9559-2.391,9.9831-6.9554,13.1196-4.6164,3.1667-17.01,2.8655-21.0001,6.2131-4.0947,3.4078.6287,10.0434-2.8917,13.6018-3.5726,3.5895-15.8551,4.5543-18.8022,8.2641-2.9987,3.7398,3.6481,9.8019,1.2228,13.6923-2.3733,3.8609-14.1805,6.0625-15.9807,10.013-1.7998,4.0115,6.5608,9.3193,5.3865,13.391-1.2268,4.0414-12.1949,7.3894-12.7965,11.491-.5492,4.1319,9.2118,8.5052,9.2874,12.6371.023,4.1016-9.7409,8.5052-9.1449,12.637.6477,4.1016,11.6009,7.419,12.9258,11.4907,1.0681,3.5645-5.2,8.0533-5.54,11.8076l172.6833,99.6988a95.8698,95.8698,0,0,0,8.6392,4.3447c6.2592-.5068,13.5675-3.7232,19.4297-3.1453,6.9812.724,12.7962,7.0878,19.8795,7.4496,7.1355.3315,14.6534-5.3082,21.7864-5.3385,7.0813,0,14.7155,5.67,21.8465,5.3381,7.0793-.3618,12.8232-6.7256,19.7967-7.4496,3.5601-.3518,7.6621.7204,11.7439,1.7275,1.8987-.9357,3.7833-1.8866,5.5743-2.9273l179.7835-104.4788C1095.57621,895.25483,1093.59471,892.79073,1094.20851,890.66343Z" transform="translate(0 27.61907)"/><path class="cls-14" d="M778.66031,855.82393c40.8665,23.5943,106.9376,23.6146,147.5382.0201,40.6367-23.6154,40.3856-61.8862-.4809-85.4805-40.8667-23.5944-106.938-23.6149-147.5747.0006-40.6007,23.5945-40.3493,61.8654.5174,85.4598Z" transform="translate(0 27.61907)"/><path class="cls-16" d="M961.24251,745.97163l-.1445,50.9319c.0443-15.5716-10.2355-31.1651-30.8045-43.0406-40.8667-23.5944-106.938-23.6149-147.5747.0006-20.1609,11.7162-30.2486,27.0512-30.2921,42.4111l.1443-50.9319c.0436-15.3599,10.1313-30.695,30.2922-42.4112,40.6366-23.6154,106.708-23.5949,147.5747-.0005C951.00691,714.80653,961.28671,730.4,961.24251,745.97163Z" transform="translate(0 27.61907)"/><path class="cls-26" d="M783.38061,821.47213c40.8665,23.5942,106.9375,23.6146,147.5382.0201,40.6367-23.6155,40.3856-61.8862-.4809-85.4805-40.8667-23.5944-106.9381-23.6149-147.5747.0006-40.6007,23.5945-40.3494,61.8654.5174,85.4598Z" transform="translate(0 27.61907)"/><path class="cls-15" d="M1183.50881,782.943l-261.2055,151.7956c-35.4135,20.5802-93.0144,20.6015-128.6958.0006l-262.9141-151.7934c-17.937-10.356-26.89592-23.9548-26.85742-37.5325l-.1445,44.3154c-.0386,13.5781,8.9203,27.1768,26.8574,37.5329l262.914,151.7934c35.6814,20.6009,93.2823,20.5795,128.6959-.0006l261.2054-151.7956c17.6204-10.24,26.4444-23.6329,26.4829-37.0444l.1446-44.3158C1209.95321,759.31013,1201.12851,772.703,1183.50881,782.943Z" transform="translate(0 27.61907)"/><path class="cls-27" d="M1183.12511,708.37633c35.6815,20.6007,35.8331,53.9654.3833,74.5666l-261.2049,151.7957c-35.4138,20.5803-93.0149,20.6015-128.6964.0007L530.69319,782.94593c-35.6455-20.5799-35.8332-53.9654-.4194-74.5457l261.20492-151.7956c35.4499-20.6012,93.087-20.6016,128.7325-.0217Zm-399.7445,80.0151c40.8665,23.5942,106.9375,23.6146,147.5382.0201,40.6367-23.6155,40.3856-61.8862-.4809-85.4805-40.8667-23.5944-106.9381-23.6149-147.5747.0005-40.6007,23.5946-40.3494,61.8654.5174,85.4599Z" transform="translate(0 27.61907)"/><polygon class="cls-17" points="676.137 816.266 933.828 666.511 1053.154 735.402 795.464 885.157 676.137 816.266"/><g class="cls-28"><g class="cls-3"><polygon class="cls-29" points="1048.81 724.626 1048.785 733.531 795.051 880.986 795.076 872.08 1048.81 724.626"/><polygon class="cls-30" points="795.076 872.08 795.051 880.986 679.689 814.381 679.714 805.475 795.076 872.08"/><polygon class="cls-31" points="1048.81 724.626 795.076 872.08 679.714 805.475 933.448 658.021 1048.81 724.626"/></g></g><g class="cls-32"><g class="cls-20"><rect class="cls-33" x="757.04358" y="685.13559" width="283.07141" height="66.60428" transform="translate(197.82101 -166.37695) rotate(13.83212)"/><rect class="cls-33" x="684.00507" y="774.65896" width="244.82717" height="27.76495" transform="translate(211.91323 -142.31326) rotate(13.8324)"/></g></g><path class="cls-34" d="M728.032,537.75413q-.4485-15.19005-.8973-30.3802c.287,9.7164,4.3455,20.1347,12.3167,29.5295,18.1969,21.4465,49.8934,29.4381,70.7961,17.8497l-26.7137,14.6404c-13.9586,7.7386-35.1251,2.4019-47.2768-11.9199C730.93391,551.19993,728.22371,544.24263,728.032,537.75413Z" transform="translate(0 27.61907)"/><path class="cls-35" d="M850.94431,483.67073c-20.9032,11.5887-52.5997,3.5972-70.7965-17.8496-13.2089-15.5679-15.6738-33.9461-8.0376-47.2841l-40.6959,71.0819c-7.637,13.3381-5.1721,31.7166,8.0376,47.2846,18.196,21.4463,49.8924,29.4379,70.7957,17.8495a33.19656,33.19656,0,0,0,12.9366-12.5308l40.6968-71.082A33.19754,33.19754,0,0,1,850.94431,483.67073Z" transform="translate(0 27.61907)"/><path class="cls-23" d="M862.11311,464.16273c-20.9024,11.5883-52.5989,3.5968-70.7965-17.8496-13.2089-15.5679-15.6738-33.9465-8.0376-47.2841l-11.1688,19.508c-7.6362,13.338-5.1713,31.7162,8.0376,47.2841,18.1968,21.4468,49.8933,29.4383,70.7965,17.8496a33.19754,33.19754,0,0,0,12.9367-12.5305l11.1687-19.5084A33.20014,33.20014,0,0,1,862.11311,464.16273Z" transform="translate(0 27.61907)"/><path class="cls-34" d="M1080.51771,468.73353c-11.1324,23.7339-40.9584,38.9425-66.6161,33.9699a42.99508,42.99508,0,0,1-13.8259-5.137c.7704.458,1.7994,1.0681,2.5707,1.5261.3852.2289.8997.5338,1.2849.7628.7721.4575,1.8002,1.0681,2.5715,1.5256.7721.4579,1.7994,1.0681,2.5715,1.526.3861.229.8997.5339,1.2858.7628.7705.4575,1.7994,1.0681,2.5707,1.5256.7713.458,1.8002,1.0681,2.5707,1.5261.386.2289.8997.5338,1.2857.7628.7721.4575,1.7994,1.0681,2.5715,1.5256.7713.4579,1.7995,1.0681,2.5707,1.526.3861.229.9006.5339,1.2858.7628.7713.4576,1.8002,1.0681,2.5707,1.5257a28.68985,28.68985,0,0,0,9.2183,3.4247c17.1049,3.315,36.9881-6.8241,44.4103-22.6468a28.78206,28.78206,0,0,0,2.7144-9.8512q1.2297-14.89785,2.4601-29.7948A43.1844,43.1844,0,0,1,1080.51771,468.73353Z" transform="translate(0 27.61907)"/><path class="cls-35" d="M1081.04751,435.47913l-37.1221-71.932c4.8749,9.4445,5.0832,21.2905-.529,33.2544-11.1333,23.734-40.9576,38.9429-66.6162,33.9703-12.7243-2.4661-22.0339-9.4323-26.8296-18.7238l37.1221,71.9316c4.7942,9.2914,14.1046,16.2577,26.8289,18.7238,25.6577,4.9726,55.4837-10.236,66.6161-33.9699C1086.13,456.76963,1085.92081,444.92323,1081.04751,435.47913Z" transform="translate(0 27.61907)"/><path class="cls-34" d="M1002.16581,622.41953c-20.9403,11.7502-54.4168,11.4122-74.7708-.7556-6.6662-3.9853-11.0985-8.7446-13.309-13.7568q8.451,19.162,16.9013,38.3234c1.4764,3.3473,4.4364,6.5257,8.8881,9.1869,13.5925,8.1252,35.947,8.3513,49.9304.5044,4.807-2.6971,7.9996-5.9975,9.5672-9.497q8.559-19.11435,17.1178-38.2274C1014.14381,613.43823,1009.36351,618.38013,1002.16581,622.41953Z" transform="translate(0 27.61907)"/><path class="cls-35" d="M1002.46381,517.23563c-20.9403,11.7502-54.416,11.4118-74.7708-.756-10.009-5.9837-14.9816-13.714-14.9598-21.4233l-.2988,105.1843c-.021,7.7093,4.9508,15.4396,14.9606,21.4233,20.354,12.1678,53.8305,12.5058,74.7708.7556,10.6422-5.9717,15.9985-13.9168,16.0211-21.8841l.298-105.1839C1018.46231,503.31883,1013.106,511.26353,1002.46381,517.23563Z" transform="translate(0 27.61907)"/><path class="cls-23" d="M1002.54541,488.35453c-20.9404,11.7503-54.416,11.4123-74.7708-.7555-10.0099-5.9838-14.9817-13.714-14.9598-21.4233l-.0816,28.8806c-.0218,7.7093,4.9508,15.4396,14.9598,21.4233,20.3548,12.1678,53.8305,12.5062,74.7708.756,10.6422-5.9721,15.9985-13.9168,16.0211-21.8841l.0824-28.881C1018.54461,474.43783,1013.18841,482.38293,1002.54541,488.35453Z" transform="translate(0 27.61907)"/><path class="cls-36" d="M1086.90651,415.83743l-7.7434,22.2486c-7.499,21.5463-23.1191,40.5619-46.7831,54.3139-67.0636,38.9731-173.3385,20.8144-237.3662-40.5188-41.4552-39.7107-55.0552-87.8022-41.2898-127.3531l7.7433-22.2485c-13.7653,39.5509-.1653,87.6424,41.2899,127.353,64.0277,61.3333,170.3026,79.492,237.3662,40.5188C1063.78741,456.39933,1079.40751,437.38383,1086.90651,415.83743Z" transform="translate(0 27.61907)"/><path class="cls-37" d="M1045.62171,288.49513c64.0277,61.3333,61.6073,142.6587-5.4983,181.6562-67.0636,38.9732-173.3385,20.8145-237.3662-40.5188-64.0274-61.333-61.6071-142.6584,5.4566-181.6315C875.31941,209.00353,981.59431,227.16213,1045.62171,288.49513Z" transform="translate(0 27.61907)"/><path class="cls-38" d="M1079.44521,392.34663c-72.2785,41.2895-187.629,22.9586-257.6436-40.9435-43.8635-40.034-59.5267-88.4569-47.3347-129.1969a231.81344,231.81344,0,0,0-5.5161,22.7378c-.7616,4.3499-3.0804,17.5878-3.4688,28.5596a216.55993,216.55993,0,0,0,.3432,28.3851,189.771,189.771,0,0,0,4.7772,29.5954c11.5217,47.9339,40.8114,75.4346,50.4368,84.4717a192.20017,192.20017,0,0,0,19.3937,15.4718c11.8488,7.8199,16.6365,10.8506,30.2152,17.2672,3.1191,1.474,7.3301,3.3437,10.5712,4.5244,6.4546,2.3506,15.1488,5.246,21.7221,7.238,7.6604,2.3208,22.386,4.8248,22.5023,4.8402,6.7187.8936,15.7166,1.7966,22.4765,2.2799,3.5407.2532,8.2823.1381,11.8319.1741a195.168,195.168,0,0,0,23.6314-1.8697c17.9601-3.0234,20.4283-3.8653,34.8607-8.7923,4.7521-1.6221,10.8401-4.4561,15.3903-6.5778,2.9204-1.3617,6.646-3.5168,9.4946-5.0243l.0032-.0024a177.63519,177.63519,0,0,0,52.1183-45.7602,207.186,207.186,0,0,0,20.1908-31.421,224.74547,224.74547,0,0,0,14.8734-35.4063C1122.74491,356.44243,1105.766,377.31093,1079.44521,392.34663Z" transform="translate(0 27.61907)"/><ellipse class="cls-8" cx="952.67294" cy="276.64236" rx="132.13999" ry="186.31763" transform="translate(406.08996 1132.12842) rotate(-72.75852)"/><path class="cls-5" d="M757.02461,211.81473q-27.68115-15.982-54.6624-28.344v43.8308a446.334,446.334,0,0,1,49.5133,24.6647l202.3807,116.8446.122-43.0542Z" transform="translate(0 27.61907)"/><path class="cls-8" d="M966.86091,89.87093c-147.1277-84.9442-280.4302-92.8251-376.69062-36.8843l-209.8365,121.9431c96.2604-55.9404,229.563-48.0595,376.69062,36.8847l197.3537,113.9423,209.8364-121.9435Z" transform="translate(0 27.61907)"/><polygon class="cls-39" points="954.378 353.376 1164.215 231.432 1164.093 274.486 954.256 396.43 954.378 353.376"/><path class="cls-40" d="M943.96761,44.75883c-15.4217,5.2864-31.6172,12.9678-38.5322,16.248-12.9206,6.1272-26.3055,13.7464-34.3027,18.2986l-25.3848,14.7519a491.75419,491.75419,0,0,0-45.5126,29.7395c-4.9306,3.5887-19.9817,15.1516-30.2766,25.4219-10.9241,10.8986-15.3556,17.7833-17.0241,20.9173a45.04626,45.04626,0,0,0-4.631,10.9556,45.62539,45.62539,0,0,0-1.583,11.7596q-.02175,7.8507-.0452,15.702h.0339l-.0331-.0194c.0105.0061.5807-.3121,1.7493-.978l.2835.1635c1.0806-.909.6057-.7652-.2827-.2395l.0323-11.6493v-.0004c.042-15.5308,8.8428-24.2254,21.748-21.4241-3.0706-13.1572,39.9125-50.2539,95.9923-82.8435l25.3839-14.7519c46.6046-27.0836,87.5993-42.5389,101.8864-39.4392C980.85721,34.88953,966.51681,37.03023,943.96761,44.75883Z" transform="translate(0 27.61907)"/><path class="cls-8" d="M939.30221,319.74643q-96.313-55.6071-192.6261-111.2126c.0109.0062.5806-.312,1.7495-.9781l183.9016,106.1757A23.15262,23.15262,0,0,0,939.30221,319.74643Z" transform="translate(0 27.61907)"/><path class="cls-41" d="M890.31841,200.85453c4.1634,2.394,8.1419,7.4976,9.9644,13.1624,14.7021,45.7495,29.4095,91.515,32.0445,99.7144-48.0707-27.7536-125.3733-72.3842-183.9017-106.1756-.0297,10.4736.0017-.6257.0332-11.725.0412-15.5307,8.8424-24.2257,21.7479-21.4245q58.42875,12.573,116.8137,25.1365C886.422,201.19683,889.23941,200.23143,890.31841,200.85453Z" transform="translate(0 27.61907)"/><path class="cls-8" d="M1117.14311,65.12293l.0008.0004-.0016-.0012-.0016-.0012-.0024-.0008a11.16811,11.16811,0,0,0-3.7733-1.2296c-10.1318-7.1052-54.1689,8.5177-104.9901,38.0517l-25.384,14.7518c-52.6254,30.5819-93.7082,65.1346-96.0229,80.1501a10.15291,10.15291,0,0,0-.0202,3.2136c.1672.9179,2.4302.2532,3.3703.7967,4.1641,2.3942,8.1426,7.4977,9.9646,13.1624,9.4388.4794,62.5658-25.558,118.6456-58.1476l25.3847-14.7519c51.2792-29.8005,87.286-54.7689,85.8613-59.1935A30.67679,30.67679,0,0,0,1117.14311,65.12293Z" transform="translate(0 27.61907)"/><path class="cls-38" d="M993.44741,37.36623c-14.3073-3.0787-55.2834,12.3749-101.8646,39.4444l-25.3839,14.7519h0c-56.0798,32.5896-99.0629,69.6863-95.9923,82.8435l116.8139,25.1364c-3.0827-13.1596,39.8899-50.2583,95.9704-82.848l25.384-14.7522c46.5803-27.0695,87.5638-42.5216,101.8799-39.4404Q1051.84826,49.93423,993.44741,37.36623Z" transform="translate(0 27.61907)"/><path class="cls-38" d="M1163.90281,186.87713c-.479-1.4905-1.1178-3.4781-1.5967-4.9686-.3037-.9453-.7083-2.2056-1.012-3.1506-.7253-2.2545-1.6912-5.2601-2.4148-7.5142q-3.97365-12.36285-7.9455-24.7249c-1.134-3.527-2.645-8.2294-3.7782-11.7564-.596-1.8543-1.3907-4.3265-1.9867-6.1808-1.2389-3.854-2.8898-8.9926-4.1287-12.8466-1.2849-3.9994-2.9987-9.3318-4.2837-13.3308-.6541-2.0361-1.5264-4.7509-2.1806-6.7866-1.3205-4.108-3.0803-9.5858-4.4008-13.6938,1.4223,4.4254-34.5837,29.3934-85.8621,59.1935l-25.3847,14.7519h0c-56.0798,32.5896-109.2068,58.627-118.6456,58.1476l32.0445,99.7146c16.1075,21.2311,74.6432,12.0241,130.723-20.5656l25.3839-14.7518C1139.71331,248.61393,1171.19731,209.57573,1163.90281,186.87713Z" transform="translate(0 27.61907)"/><path class="cls-42" d="M1374.941,205.70373l-153.8822,57.636c-24.0365,9.0028-51.2966,3.2126-73.5215-13.9446-9.691-7.5078-21.2012-8.917-31.1837-5.1781l153.882-57.6359c9.9825-3.7389,21.4928-2.3298,31.1838,5.1781C1323.64431,208.91633,1350.90431,214.70653,1374.941,205.70373Z" transform="translate(0 27.61907)"/><path class="cls-43" d="M1036.87391,77.61953a63.86545,63.86545,0,0,0-9.5373,4.5074c-18.255,10.5396-30.162,29.1887-34.6088,50.8563-5.4047,26.1916-19.5884,47.3201-37.2659,63.5504-1.163,1.0826-2.3001,2.2181-3.4373,3.3533l153.8827-57.6357c1.1364-1.1355,2.2735-2.271,3.4365-3.3537,17.6775-16.2302,31.8612-37.3583,37.2667-63.5499,4.4468-21.668,16.3538-40.3171,34.608-50.8568a63.83328,63.83328,0,0,1,9.5373-4.507Z" transform="translate(0 27.61907)"/><path class="cls-27" d="M1199.17311,307.18143l-153.8821,57.6361c-38.8604,14.5549-86.1975-9.4551-106.9732-57.8863-16.2829-37.9052-10.6039-81.5753,13.7072-107.0441l153.882-57.6359c-24.311,25.4687-29.99,69.1389-13.7071,107.044C1112.97551,297.72643,1160.31271,321.73653,1199.17311,307.18143Z" transform="translate(0 27.61907)"/><path class="cls-11" d="M1181.21861,24.49113c18.255-10.5396,39.3954-10.97,58.8894-3.1245,23.5807,9.4567,47.9583,8.3213,70.3819,1.3995,1.487-.4479,3.0014-.8428,4.5154-1.2378,33.3179-7.8034,70.8178,10.9374,91.8034,46.1275,29.1802,48.8742,18.4714,110.0303-21.8859,133.3306-26.2069,15.1305-58.1352,10.3565-83.5034-9.2272-11.2961-8.7514-25.0641-9.2165-36.0031-2.9009-11.5887,6.6907-18.6862,19.2034-17.9922,34.0751,1.5984,33.3071-12.0464,64.3929-38.2533,79.5234-40.3573,23.3003-94.3746-.4861-116.9709-53.1616-16.2829-37.9051-10.6039-81.5753,13.7071-107.044,1.1369-1.1355,2.2733-2.271,3.4368-3.3534,17.6775-16.2305,31.8614-37.3587,37.2666-63.5503C1151.05711,53.67973,1162.96361,35.03063,1181.21861,24.49113Z" transform="translate(0 27.61907)"/><path class="cls-27" d="M1334.57461,183.74313c-37.8999-16.0659-61.2616-61.098-52.1805-100.582,4.27-18.5623,14.9501-32.5942,29.0078-40.5829l-6.3238,3.594c-14.0577,7.9887-24.7378,22.0206-29.0078,40.5828-9.0818,39.4841,14.2798,84.5162,52.1797,100.582,20.0826,8.5129,40.2178,7.1847,56.062-1.8192l6.3237-3.5943C1374.79161,190.92783,1354.65641,192.25593,1334.57461,183.74313Z" transform="translate(0 27.61907)"/><path class="cls-14" d="M1282.39451,83.16113c9.082-39.484,47.1686-58.4681,85.0688-42.4022,37.9001,16.0659,61.2619,61.098,52.1798,100.582-9.082,39.484-47.1686,58.4681-85.0688,42.4022C1296.67421,167.67723,1273.31241,122.64513,1282.39451,83.16113Zm16.366,6.9376c-6.9161,30.0676,10.8742,64.3601,39.7356,76.5945,28.8615,12.2344,57.8649-2.2223,64.781-32.2899s-10.8742-64.3601-39.7356-76.5945c-28.8615-12.2343-57.8649,2.2223-64.781,32.2899Z" transform="translate(0 27.61907)"/><path class="cls-22" d="M1404.53031,129.16593c-28.8617-12.2344-46.6514-46.527-39.7356-76.5944,3.2507-14.1356,11.3844-24.8206,22.0896-30.9045l-66.0339,37.5271c-10.7052,6.0839-18.8389,16.7689-22.0904,30.9045-6.915,30.0675,10.8748,64.36,39.7356,76.5945,15.2934,6.4829,30.6264,5.4713,42.6916-1.3855l66.0347-37.5272C1435.15661,134.63733,1419.82291,135.64843,1404.53031,129.16593Z" transform="translate(0 27.61907)"/><path class="cls-27" d="M1432.56411,113.23413c-28.8616-12.2344-46.6522-46.527-39.7356-76.5944,3.2515-14.1356,11.3844-24.8206,22.0888-30.9046l-28.033,15.9319c-10.7052,6.0839-18.8389,16.7689-22.0896,30.9045-6.9158,30.0674,10.8739,64.36,39.7356,76.5944,15.2926,6.4825,30.6263,5.4714,42.6908-1.3855l28.0346-15.9318C1463.18961,118.70553,1447.85751,119.71663,1432.56411,113.23413Z" transform="translate(0 27.61907)"/><ellipse class="cls-44" cx="1445.08671" cy="58.79201" rx="51.15963" ry="61.03372" transform="translate(159.66319 749.29754) rotate(-29.60967)"/><path class="cls-27" d="M1453.98671,18.54893a41.48053,41.48053,0,0,0-4.02-1.4614c-.449-.1381-.8944-.2221-1.3426-.3428-.886-.2383-1.7728-.4814-2.6531-.6522-.5286-.1029-1.0504-.153-1.5761-.2318-.7935-.1187-1.5878-.2455-2.3733-.3105-.5544-.0456-1.0996-.0452-1.6492-.0646-.7434-.0263-1.4872-.0578-2.2201-.0368-.5618.0162-1.1134.0727-1.6686.1163-.7051.0554-1.4101.1107-2.1031.21-.5544.0796-1.0976.1926-1.6431.2997-.6724.132-1.3439.2685-2.0018.4417-.5395.1422-1.0685.3118-1.5975.481-.6392.2047-1.274.4191-1.8963.663-.5165.2028-1.0233.4265-1.5268.6558-.607.2759-1.2058.5662-1.793.8804a31.13933,31.13933,0,0,0-5.5585,3.7841c7.685-2.6462,16.5848-2.4463,25.4877,1.3278,20.8087,8.821,33.6352,33.5451,28.6489,55.2232a34.48608,34.48608,0,0,1-11.2851,18.9399,31.71816,31.71816,0,0,0,10.5998-6.0945c.2233-.1954.4365-.4046.655-.6069a32.21792,32.21792,0,0,0,4.0305-4.4735c.1514-.2047.2871-.4272.4349-.6364a34.514,34.514,0,0,0,3.2313-5.5929c.0699-.1538.1232-.321.1914-.4765a38.37008,38.37008,0,0,0,2.2772-6.8192C1487.62151,52.09363,1474.79511,27.36953,1453.98671,18.54893Z" transform="translate(0 27.61907)"/><path class="cls-1" d="M1472.50021,79.53183c4.9863-21.6781-7.8402-46.4022-28.6489-55.2232-8.8795-3.764-17.7663-3.9974-25.4376-1.3738a34.6208,34.6208,0,0,0-11.1325,18.8942c-4.9863,21.6781,7.8401,46.4023,28.6484,55.2228,8.8796,3.7644,17.7672,3.997,25.4385,1.3734A34.62147,34.62147,0,0,0,1472.50021,79.53183Z" transform="translate(0 27.61907)"/><g class="cls-45"><g class="cls-20"><rect class="cls-46" x="1358.80968" y="16.97521" width="130.13336" height="32.40085" transform="translate(503.28831 1147.55234) rotate(-51.06692)"/><rect class="cls-46" x="1385.02013" y="46.41765" width="130.13371" height="16.01657" transform="translate(496.48298 1175.82462) rotate(-51.06615)"/></g></g><path class="cls-27" d="M1161.72781,285.46623c-37.8999-16.0658-61.2615-61.0979-52.1805-100.582,4.27-18.5622,14.9502-32.5941,29.0078-40.5828l-6.3237,3.594c-14.0577,7.9887-24.7379,22.0205-29.0079,40.5828-9.0818,39.4841,14.2798,84.5161,52.1797,100.582,20.0827,8.5129,40.2178,7.1847,56.062-1.8192l6.3238-3.5944C1201.94481,292.651,1181.80961,293.97913,1161.72781,285.46623Z" transform="translate(0 27.61907)"/><path class="cls-14" d="M1109.54771,184.88433c9.082-39.484,47.1686-58.4681,85.0688-42.4022s61.2619,61.098,52.1799,100.582c-9.0821,39.484-47.1687,58.4681-85.0688,42.4022C1123.82741,269.40043,1100.46571,224.36833,1109.54771,184.88433Zm16.366,6.9376c-6.9161,30.0675,10.8742,64.3601,39.7357,76.5945,28.8614,12.2343,57.8649-2.2223,64.7809-32.2899,6.9161-30.0676-10.8741-64.3601-39.7356-76.5945s-57.8649,2.2223-64.781,32.2899Z" transform="translate(0 27.61907)"/><path class="cls-22" d="M1231.68351,230.88913c-28.8616-12.2344-46.6514-46.527-39.7356-76.5944,3.2507-14.1356,11.3844-24.8206,22.0896-30.9046l-66.0338,37.5272c-10.7052,6.0839-18.8389,16.7689-22.0905,30.9045-6.9149,30.0675,10.8748,64.36,39.7357,76.5945,15.2933,6.4829,30.6263,5.4713,42.6915-1.3855l66.0347-37.5272C1262.30981,236.36043,1246.97611,237.37163,1231.68351,230.88913Z" transform="translate(0 27.61907)"/><path class="cls-27" d="M1259.71731,214.95733c-28.8616-12.2344-46.6522-46.527-39.7356-76.5944,3.2515-14.1356,11.3844-24.8207,22.0888-30.9046l-28.033,15.9318c-10.7052,6.084-18.8389,16.769-22.0896,30.9046-6.9158,30.0674,10.874,64.36,39.7356,76.5944,15.2926,6.4825,30.6263,5.4713,42.6908-1.3855l28.0346-15.9318C1290.34281,220.42863,1275.01071,221.43983,1259.71731,214.95733Z" transform="translate(0 27.61907)"/><ellipse class="cls-44" cx="1272.23996" cy="160.51521" rx="51.15961" ry="61.03378" transform="translate(86.83265 677.18351) rotate(-29.60985)"/><path class="cls-27" d="M1281.14,120.27213a41.49976,41.49976,0,0,0-4.02-1.4614c-.4491-.1381-.8945-.2221-1.3427-.3428-.886-.2383-1.7728-.4814-2.6531-.6522-.5286-.103-1.0503-.153-1.5761-.2318-.7935-.1187-1.5878-.2455-2.3732-.3105-.5545-.0456-1.0996-.0452-1.6492-.0646-.7435-.0263-1.4873-.0578-2.2202-.0368-.5617.0162-1.1133.0727-1.6686.1163-.7051.0554-1.4101.1107-2.1031.21-.5544.0796-1.0975.1926-1.6431.2996-.6724.1321-1.3439.2686-2.0017.4418-.5395.1422-1.0685.3118-1.5975.481-.6393.2047-1.2741.4191-1.8964.663-.5164.2028-1.0232.4265-1.5268.6558-.6069.2758-1.2058.5662-1.7929.8804a31.13481,31.13481,0,0,0-5.5586,3.7841c7.6851-2.6462,16.5848-2.4463,25.4878,1.3278,20.8087,8.821,33.6351,33.5451,28.6488,55.2232a34.48428,34.48428,0,0,1-11.2851,18.9398,31.71577,31.71577,0,0,0,10.5998-6.0944c.2233-.1954.4365-.4046.655-.6069a32.2173,32.2173,0,0,0,4.0305-4.4735c.1514-.2047.2871-.4272.4349-.6364a34.52179,34.52179,0,0,0,3.2314-5.5929c.0698-.1538.1231-.321.1914-.4765a38.378,38.378,0,0,0,2.2771-6.8192C1314.77471,153.81683,1301.94831,129.09273,1281.14,120.27213Z" transform="translate(0 27.61907)"/><path class="cls-1" d="M1299.65341,181.255c4.9863-21.6781-7.8401-46.4022-28.6488-55.2232-8.8796-3.764-17.7664-3.9974-25.4377-1.3738a34.62008,34.62008,0,0,0-11.1324,18.8942c-4.9864,21.6781,7.8401,46.4022,28.6484,55.2228,8.8795,3.7644,17.7671,3.997,25.4385,1.3734A34.62229,34.62229,0,0,0,1299.65341,181.255Z" transform="translate(0 27.61907)"/><g class="cls-47"><g class="cls-20"><rect class="cls-46" x="1185.9629" y="118.69837" width="130.13332" height="32.40088" transform="translate(359.93209 1050.89727) rotate(-51.06692)"/><rect class="cls-46" x="1212.17333" y="148.14085" width="130.13371" height="16.01657" transform="translate(353.1294 1079.16996) rotate(-51.06615)"/></g></g></g></g></g></svg>