<svg xmlns="http://www.w3.org/2000/svg" xmlns:xlink="http://www.w3.org/1999/xlink" width="259.57133" height="216.677" viewBox="0 0 259.57133 216.677"><defs><style>.cls-1{fill:none;}.cls-2{isolation:isolate;}.cls-11,.cls-3{fill:#353430;}.cls-4{fill:#555553;}.cls-5{fill:#222220;}.cls-6{fill:#85fdf3;}.cls-7{fill:#5ec0bf;}.cls-8{fill:#5ad5e4;}.cls-9{clip-path:url(#clip-path);}.cls-10{fill:#8f979a;}.cls-11{mix-blend-mode:multiply;}.cls-12{fill:#298d85;}.cls-13{mix-blend-mode:screen;opacity:0.35;fill:url(#Áåçûìÿííûé_ãðàäèåíò_49);}.cls-14{fill:#b0b8ba;}.cls-15{fill:#6ab25c;}</style><clipPath id="clip-path" transform="translate(66.83844)"><polygon class="cls-1" points="79.414 190.448 0 144.159 78.401 98.885 158.395 145.513 79.414 190.448"/></clipPath><linearGradient id="Áåçûìÿííûé_ãðàäèåíò_49" x1="129.7194" y1="57.22596" x2="175.55722" y2="166.90909" gradientUnits="userSpaceOnUse"><stop offset="0" stop-color="#fff"/><stop offset="1" stop-color="#85fdf3"/></linearGradient></defs><g class="cls-2"><g id="Layer_2" data-name="Layer 2"><g id="Layer_1-2" data-name="Layer 1"><polygon class="cls-3" points="66.838 144.159 146.252 190.449 225.233 145.513 145.239 98.885 66.838 144.159"/><polygon class="cls-4" points="66.838 170.278 146.252 216.567 146.252 190.449 66.838 144.159 66.838 170.278"/><polygon class="cls-5" points="146.252 216.677 225.233 171.669 225.233 145.433 146.252 190.449 146.252 216.677"/><polygon class="cls-3" points="150.975 208.544 192.507 184.86 192.507 169.504 150.975 193.193 150.975 208.544"/><polygon class="cls-4" points="191.067 183.42 150.975 206.283 150.975 208.544 192.507 184.86 192.507 169.504 191.067 170.325 191.067 183.42"/><polygon class="cls-5" points="71.523 168.374 101.839 185.662 101.839 170.31 71.523 153.019 71.523 168.374"/><polygon class="cls-3" points="74.861 170.277 77.159 171.588 77.159 156.233 74.861 154.922 74.861 170.277"/><polygon class="cls-6" points="74.861 170.277 77.159 171.588 77.159 167.233 74.861 165.922 74.861 170.277"/><polygon class="cls-7" points="74.861 161.412 77.159 162.723 77.159 156.233 74.861 154.922 74.861 161.412"/><polygon class="cls-3" points="78.648 172.431 80.946 173.741 80.946 158.386 78.648 157.075 78.648 172.431"/><polygon class="cls-6" points="78.648 161.431 80.946 162.741 80.946 158.386 78.648 157.075 78.648 161.431"/><polygon class="cls-7" points="78.648 172.431 80.946 173.741 80.946 167.251 78.648 165.941 78.648 172.431"/><polygon class="cls-3" points="82.403 174.554 84.701 175.864 84.701 160.509 82.403 159.198 82.403 174.554"/><polygon class="cls-6" points="82.403 174.554 84.701 175.864 84.701 171.509 82.403 170.198 82.403 174.554"/><polygon class="cls-7" points="82.403 165.689 84.701 166.999 84.701 160.509 82.403 159.198 82.403 165.689"/><polygon class="cls-3" points="86.191 176.706 88.489 178.018 88.489 162.662 86.191 161.352 86.191 176.706"/><polygon class="cls-6" points="86.191 165.706 88.489 167.018 88.489 162.662 86.191 161.352 86.191 165.706"/><polygon class="cls-7" points="86.191 176.706 88.489 178.018 88.489 171.527 86.191 170.216 86.191 176.706"/><polygon class="cls-3" points="89.946 178.83 92.244 180.141 92.244 164.786 89.946 163.476 89.946 178.83"/><polygon class="cls-6" points="89.946 178.83 92.244 180.141 92.244 175.786 89.946 174.476 89.946 178.83"/><polygon class="cls-7" points="89.946 169.966 92.244 171.277 92.244 164.786 89.946 163.476 89.946 169.966"/><polygon class="cls-3" points="93.733 180.984 96.031 182.294 96.031 166.939 93.733 165.628 93.733 180.984"/><polygon class="cls-6" points="93.733 169.984 96.031 171.294 96.031 166.939 93.733 165.628 93.733 169.984"/><polygon class="cls-7" points="93.733 180.984 96.031 182.294 96.031 175.804 93.733 174.493 93.733 180.984"/><polygon class="cls-3" points="97.489 183.107 99.787 184.417 99.787 169.063 97.489 167.751 97.489 183.107"/><polygon class="cls-6" points="97.489 183.107 99.787 184.417 99.787 180.063 97.489 178.751 97.489 183.107"/><polygon class="cls-7" points="97.489 174.242 99.787 175.553 99.787 169.063 97.489 167.751 97.489 174.242"/><polygon class="cls-3" points="72.963 153.839 71.523 153.019 71.523 168.374 101.839 185.662 101.839 183.402 72.963 166.935 72.963 153.839"/><polygon class="cls-8" points="153.619 196.036 155.883 194.744 155.883 192.456 153.619 193.747 153.619 196.036"/><polygon class="cls-7" points="153.619 199.366 155.883 198.074 155.883 195.786 153.619 197.077 153.619 199.366"/><polygon class="cls-8" points="153.619 202.696 155.883 201.404 155.883 199.115 153.619 200.405 153.619 202.696"/><polygon class="cls-8" points="156.841 194.224 159.107 192.934 159.107 190.646 156.841 191.937 156.841 194.224"/><polygon class="cls-8" points="156.841 197.554 159.107 196.263 159.107 193.976 156.841 195.266 156.841 197.554"/><polygon class="cls-6" points="156.841 200.884 159.107 199.593 159.107 197.304 156.841 198.595 156.841 200.884"/><polygon class="cls-6" points="160.065 192.413 162.33 191.122 162.33 188.833 160.065 190.125 160.065 192.413"/><polygon class="cls-8" points="160.065 195.743 162.33 194.451 162.33 192.163 160.065 193.455 160.065 195.743"/><polygon class="cls-8" points="160.065 199.073 162.33 197.78 162.33 195.493 160.065 196.784 160.065 199.073"/><polygon class="cls-7" points="163.287 190.602 165.552 189.312 165.552 187.023 163.287 188.314 163.287 190.602"/><polygon class="cls-8" points="163.287 193.931 165.552 192.641 165.552 190.353 163.287 191.644 163.287 193.931"/><polygon class="cls-6" points="163.287 197.261 165.552 195.97 165.552 193.681 163.287 194.973 163.287 197.261"/><polygon class="cls-8" points="166.426 188.812 168.69 187.52 168.69 185.232 166.426 186.523 166.426 188.812"/><polygon class="cls-8" points="166.426 195.471 168.69 194.179 168.69 191.891 166.426 193.182 166.426 195.471"/><polygon class="cls-8" points="169.648 190.329 171.913 189.038 171.913 186.751 169.648 188.041 169.648 190.329"/><polygon class="cls-6" points="169.648 193.659 171.913 192.368 171.913 190.079 169.648 191.371 169.648 193.659"/><polygon class="cls-6" points="172.872 185.189 175.137 183.898 175.137 181.609 172.872 182.901 172.872 185.189"/><polygon class="cls-8" points="172.872 191.849 175.137 190.557 175.137 188.269 172.872 189.56 172.872 191.849"/><polygon class="cls-8" points="176.094 186.706 178.359 185.416 178.359 183.128 176.094 184.419 176.094 186.706"/><g class="cls-9"><path class="cls-10" d="M63.3374,102.2639a1.00951,1.00951,0,0,0-.8105-.1445c-.0933.0479-.0879.1387-.0162.2383L44.855,112.1546l-14.4136-8.2911,2.9863.5313,3.3321,1.917c-.25049.3066.102.8486.8828,1.2988a3.12883,3.12883,0,0,0,2.4912.4434c.4829-.2666.1499-.9014-.7412-1.4141a3.58256,3.58256,0,0,0-2.2847-.5234l-3.5972-2.0694-3.9843-.7099-7.49609-4.3106L20.8989,96.9065l6.8633-3.8115-1.4238-2.6621L10.44731,81.2923l-.47371.1201,15.7505,9.0605,1.2505,2.333-5.0097,2.7754-.7808-1.4746,4.3857-2.4375L20.50931,88.759a.61555.61555,0,0,0-.28861-.291,1.01378,1.01378,0,0,0-.813-.1435c-.1582.0859-.0473.2939.2393.458a1.40445,1.40445,0,0,0,.5117.1719l4.41361,2.538L20.3921,93.8157l1.0825,2.0391-1.3735.7607,1.3174,2.4521L45.1489,112.718l18.00541-9.9892a.65748.65748,0,0,0,.42189-.0059C63.7349,102.637,63.626,102.4309,63.3374,102.2639Zm-25.9058,4.4336,1.0342.5948.3521-.1915-1.0381-.5976a2.32142,2.32142,0,0,1,1.2622.3301c.5332.3066.7344.6875.44731.8496a1.8805,1.8805,0,0,1-1.49711-.2676C37.5737,107.1751,37.36131,106.886,37.4316,106.6975Z" transform="translate(66.83844)"/><path class="cls-10" d="M82.4634,103.4602A114.90452,114.90452,0,0,1,49.3745,90.8303c-8.0176-4.6113-14.4223-9.708-18.6826-14.7129l-.5.128a60.75,60.75,0,0,0,10.168,9.1719l-4.9024,2.7216L28.9907,85.927l-7.2339-4.1601a.62188.62188,0,0,0-.2968-.295,1.021,1.021,0,0,0-.8081-.1445c-.1563.0899-.0474.294.2412.4609a1.36766,1.36766,0,0,0,.5127.1709l7.3071,4.2041,7.1728,2.4688,5.0464-2.8008q.8526.6123,1.7481,1.2236l-5.9151,3.2832-6.4409-2.2597L16.0391,79.8626l-.4751.1211,11.2407,6.4648-2.65039-.3379-5.022-2.8887a.61537.61537,0,0,0-.29391-.2929,1.00347,1.00347,0,0,0-.80809-.1436c-.15681.0869-.04931.292.24169.46a1.348,1.348,0,0,0,.50831.1699l5.33009,3.0645,3.5312.4501,2.4043,1.3838,7.1377,2.5196,6.0874-3.3799q2.06685,1.3857,4.3066,2.7236l-8.2739,4.5977a.64621.64621,0,0,0-.4209.0058c-.1572.0869-.0493.292.2437.46a1.01383,1.01383,0,0,0,.8086.1445c.0859-.0527.08-.1406.0131-.2392l8.274-4.5899c.2632.1553.5268.3125.7978.4678.3809.2178.7661.4297,1.147.6436L39.1465,97.7835a.653.653,0,0,0-.4224.0039c-.1562.0879-.04679.2939.2437.4609a1.01419,1.01419,0,0,0,.813.1445c.0844-.0507.084-.1377.0097-.2392l11.0279-6.1192q2.3547,1.2921,4.7988,2.4825L53.273,95.8206a2.95351,2.95351,0,0,0-2.2925-.3428c-.4839.2676-.1529.9023.73581,1.4141a3.12239,3.12239,0,0,0,2.49369.4433c.3979-.2178.2358-.6836-.3218-1.1279l2.4316-1.3477c.6558.3135,1.3111.6211,1.9722.9248l-4.8901,2.7178-7.9283-1.415-6.8696,3.8105a.6759.6759,0,0,0-.4199.0049c-.1543.0889-.0469.2939.2417.46a1.00751,1.00751,0,0,0,.81.1455c.0918-.0498.0874-.1377.0123-.2393l6.7255-3.7305,7.9248,1.4141,5.1163-2.8379c.6792.3047,1.3559.6016,2.0385.8926l-6.6186,3.6709-7.5078-1.3389-8.3252,4.6221a.63873.63873,0,0,0-.42.0049c-.1586.0879-.0512.291.24171.4599a1.01366,1.01366,0,0,0,.80819.1436c.0893-.0498.0839-.1406.0166-.2363l8.1777-4.542,7.5088,1.3398,6.8672-3.8105a115.06731,115.06731,0,0,0,20.0346,6.3633L77.96,105.8411l-4.5454-.7676-3.5787,1.9863a2.98707,2.98707,0,0,0-2.3222-.3574c-.4839.2666-.1475.9024.7485,1.417a3.11868,3.11868,0,0,0,2.4883.4424c.3867-.2168.23781-.6729-.3013-1.1094l3.4727-1.9277,3.5268.5947-9.2309,5.126-4.8506-.7793-3.3257,1.8437a2.83947,2.83947,0,0,0-2.167-.2793c-.4834.2696-.1509.9024.7417,1.416a3.12546,3.12546,0,0,0,2.4922.4454c.4185-.2325.2158-.7442-.4214-1.209l3.1885-1.7686,3.8271.6162-17.7065,9.8252c-.0449-.0097-.084-.0176-.1235-.0224L17.5918,102.7669c.2466-.3096-.10549-.8516-.8867-1.3008a3.13182,3.13182,0,0,0-2.4912-.4453c-.4805.2675-.1499.9033.7431,1.416a3.58759,3.58759,0,0,0,2.2862.5234l32.2812,18.5684a.5998.5998,0,0,0,.2935.292.99679.99679,0,0,0,.8056.1435c.09281-.0488.0899-.1377.0196-.2363l32.6201-18.1016Zm-28.898-6.4961a1.87638,1.87638,0,0,1-1.4995-.2676c-.5327-.3066-.7304-.6875-.4438-.8476a1.70427,1.70427,0,0,1,1.2983.1641l-.5122.2861.645.3701.4619-.2519C53.7271,96.638,53.7642,96.8548,53.5654,96.9641ZM70.103,108.1907a1.87363,1.87363,0,0,1-1.4941-.2656c-.5352-.3086-.7354-.6895-.4482-.8506a1.74508,1.74508,0,0,1,1.32761.1787l-.51761.2861.647.3731.4541-.251C70.2686,107.8782,70.2949,108.0833,70.103,108.1907Zm-9.6416,5.3281a1.87734,1.87734,0,0,1-1.4956-.2666c-.5346-.3076-.7309-.6865-.4419-.8486a1.568,1.568,0,0,1,1.1577.1074l-.6674.3721.6469.372.6617-.3691C60.61131,113.138,60.6816,113.3928,60.4614,113.5188ZM16.919,102.3782l-.5088-.291a.60913.60913,0,0,0-.2911-.293,1.02577,1.02577,0,0,0-.8154-.1465c-.1513.0899-.0469.2949.2422.46a1.38859,1.38859,0,0,0,.5176.1748l.50581.29a2.32538,2.32538,0,0,1-1.26461-.3301c-.5293-.3056-.7295-.6875-.4429-.8476a1.8747,1.8747,0,0,1,1.4966.2656C16.77931,101.9026,16.9888,102.1887,16.919,102.3782Z" transform="translate(66.83844)"/><path class="cls-10" d="M93.6328,66.2688C73.0151,54.4094,47.5806,49.2376,34.2437,53.759l.3227.4844c13.0488-4.6133,38.2842.4668,58.7163,12.2197,22.0161,12.6631,30.2344,28.3438,18.3208,34.9561-11.9106,6.6113-39.5166,1.6856-61.5327-10.9785-8.0908-4.6543-14.3096-9.7149-18.3589-14.584l-.4873.125c4.1153,4.8965,10.3633,9.9766,18.4956,14.6543,22.374,12.8682,50.4243,17.8711,62.5283,11.1533.2041-.1123.3887-.2353.5826-.3525l3.1377,6.3281L95.356,119.2063l-15.6802-9.0185L60.2549,120.9622a.64123.64123,0,0,0-.4209.0058c-.1553.0879-.0474.293.2402.459a1.00239,1.00239,0,0,0,.80911.1445c.09329-.0488.08589-.1406.01809-.2363l19.0708-10.582,15.6802,9.0195,21.1064-11.7129-3.438-6.9267C123.8174,94.0794,115.3066,78.7366,93.6328,66.2688Z" transform="translate(66.83844)"/><path class="cls-10" d="M71.3628,103.6536a.99845.99845,0,0,0-.8027-.1436c-.0972.0479-.0904.1377-.0244.2354L47.1411,116.7317l-25.1347-14.458a.63623.63623,0,0,0-.2959-.2949,1.02482,1.02482,0,0,0-.8125-.1455c-.1539.0898-.0474.2939.2461.4629a1.36768,1.36768,0,0,0,.5097.1699l25.7803,14.8301,23.7461-13.1797a.65059.65059,0,0,0,.4243-.0039C71.7607,104.0247,71.65431,103.8196,71.3628,103.6536Z" transform="translate(66.83844)"/><path class="cls-10" d="M67.4092,102.927a1.00591,1.00591,0,0,0-.8106-.1445c-.0918.0478-.0864.1377-.0166.2353L45.9526,114.4661,18.9321,98.9231c.251-.3057-.101-.8506-.8852-1.2988a3.11723,3.11723,0,0,0-2.4927-.4453c-.48189.2675-.145.9043.7432,1.415a3.59209,3.59209,0,0,0,2.2846.5234l27.6695,15.9161,20.9746-11.6426a.65673.65673,0,0,0,.4223-.0049C67.8096,103.3001,67.6982,103.0921,67.4092,102.927ZM18.2559,98.5344l-.5035-.289a.6125.6125,0,0,0-.2958-.293,1,1,0,0,0-.8082-.1445c-.15909.0859-.0493.292.2417.459a1.42352,1.42352,0,0,0,.5147.1738l.501.2871a2.26726,2.26726,0,0,1-1.2554-.3272c-.5352-.3076-.7363-.6894-.4473-.8486a1.87313,1.87313,0,0,1,1.4961.2666C18.1187,98.0608,18.3237,98.345,18.2559,98.5344Z" transform="translate(66.83844)"/><path class="cls-10" d="M-44.9614,98.3772a3.5981,3.5981,0,0,0-2.2827-.5234l-2.188-1.2578-.47459.1211,2.31589,1.332c-.2466.3076.1006.8506.8804,1.2978a3.12826,3.12826,0,0,0,2.4912.4454C-43.7349,99.5247-44.0708,98.8899-44.9614,98.3772Zm.0952,1.042a1.85584,1.85584,0,0,1-1.4912-.2656c-.4229-.2422-.6328-.5283-.5625-.7188l.5083.292a.61946.61946,0,0,0,.292.293,1.00042,1.00042,0,0,0,.8086.1435c.1606-.0859.0512-.291-.2398-.458a1.35405,1.35405,0,0,0-.5122-.1718l-.5078-.292a2.31312,2.31312,0,0,1,1.2612.33C-44.7744,98.8792-44.5742,99.261-44.8662,99.4192Z" transform="translate(66.83844)"/><path class="cls-10" d="M35.5034,120.2307c.2456-.3076-.1035-.8506-.8877-1.2998a3.11887,3.11887,0,0,0-2.4883-.4443c-.4843.2676-.1499.9023.7383,1.415a3.60667,3.60667,0,0,0,2.28961.5235l5.72509,3.2939,2.2656,4.3213L19.6006,141.1048,2.1118,131.0462-.084,126.8528l17.0025-9.4336L-25.2446,93.1653l-1.2598-2.4297-.5674.1455,1.2027,2.3223,41.79,24.0371-16.793,9.3232,2.06841,3.9551-7.33891-4.2207-2.4609-4.1338,12.7651-7.081-1.8374-4.6875L-29.1323,92.301l-.4199-.7861-.5596.1436.3647.6845L1.6758,110.4182l1.7124,4.3653-2.1626,1.1963-.8477-1.6143c.0708-.1006-.03759-.2676-.2812-.4082a1.01541,1.01541,0,0,0-.8096-.1445c-.1577.0869-.0454.2949.2398.4589a1.32141,1.32141,0,0,0,.2187.1016l.9868,1.8828-3.7397,2.0752-.7749-1.4746a.26928.26928,0,0,0,.0449-.0107c.1548-.0879.0474-.293-.2417-.459a.99979.99979,0,0,0-.8076-.1446c-.1616.086-.0498.293.2412.46.0156.0098.0381.0176.0605.0293l.982,1.8731-3.7207,2.0654-.7525-1.4424c.0098-.0068.02641-.0068.0347-.0137.1611-.0859.0498-.292-.2368-.457a1.01842,1.01842,0,0,0-.81249-.1465c-.15381.0889-.04691.293.24169.459.022.0137.0454.0215.061.0303l.9707,1.8457-1.6841.9345,2.3008,3.8672-6.4648-3.7207-2.1826-4.1582,11.3281-6.2812-1.36479-2.6035L-29.708,95.2229c.25631-.3086-.0918-.8535-.875-1.3037a3.12474,3.12474,0,0,0-2.49269-.4473c-.48531.2676-.15041.9034.74319,1.417a3.60436,3.60436,0,0,0,2.27.5244l17.19781,9.8926-5.10311-1.7168-5.8545-3.3691c.24861-.3067-.0981-.8496-.8842-1.2998a3.13792,3.13792,0,0,0-2.49319-.4453c-.48241.2685-.146.9052.74219,1.417a3.59563,3.59563,0,0,0,2.2851.5214l6.0069,3.4561,6.7617,2.2773,3.8545,2.2168-11.8687-3.7939-4.6845-2.6953a.62291.62291,0,0,0-.2969-.2949,1.01433,1.01433,0,0,0-.8081-.1426c-.1558.0869-.0474.293.2417.459a1.3676,1.3676,0,0,0,.51411.1718l4.85009,2.7911,13.2305,4.2285,1.1592,2.209-11.32279,6.2832,2.05569,3.9238-4.2729-2.458-2.5669-4.1944,8.70311-4.831-6.49761-3.7373c.253-.3067-.101-.8496-.8803-1.2979a3.12627,3.12627,0,0,0-2.4927-.4453c-.48439.2686-.1509.9014.7427,1.416a3.59637,3.59637,0,0,0,2.2822.5225l5.8506,3.3652-8.5127,4.7237,2.4004,3.9189-16.47459-9.4766,2.99119.5333.8706.5019c-.2539.3066.102.8496.88621,1.2988a3.109,3.109,0,0,0,2.48579.4434c.4839-.2666.1524-.9014-.7421-1.415a3.60079,3.60079,0,0,0-2.2833-.5235l-1.1347-.6523-3.9868-.7119-6.96289-4.0039,3.41449.7753.6441.3711c-.2491.3096.103.8516.8799,1.2989a3.13427,3.13427,0,0,0,2.497.4463c.482-.2686.14751-.9034-.7436-1.4161a3.5831,3.5831,0,0,0-2.2842-.5224l-.877-.5049-4.5488-1.0342-2.0947-1.2051-2.374-4.5302-1.8413-1.0596-.4795.123,1.6992.9766,2.3745,4.5273L19.897,141.6712l24.0371-13.3418-2.4375-4.6504Zm-.6738-.3877-.5034-.289a.64178.64178,0,0,0-.2984-.295,1.00365,1.00365,0,0,0-.8081-.1445c-.1587.0879-.0522.293.2393.459a1.37061,1.37061,0,0,0,.5142.1719l.5063.291a2.28687,2.28687,0,0,1-1.2593-.3281c-.5371-.3096-.7353-.6875-.4438-.8487a1.86468,1.86468,0,0,1,1.4927.2666C34.689,119.3665,34.8989,119.6536,34.8296,119.843ZM-30.3769,94.8381l-.918-.5283-.3491.1953.90431.5196a2.30784,2.30784,0,0,1-1.23981-.3291c-.54-.3086-.7368-.6895-.4497-.8506a1.88353,1.88353,0,0,1,1.49951.2676C-30.5044,94.3587-30.2993,94.6477-30.3769,94.8381Zm5.3754,4.7042a.62456.62456,0,0,0-.2959-.294.9934.9934,0,0,0-.8056-.1426c-.16069.086-.0518.291.2368.4571a1.40836,1.40836,0,0,0,.5166.1738l.50591.291a2.30559,2.30559,0,0,1-1.26271-.3311c-.5337-.3066-.73929-.6875-.4439-.8476a1.87421,1.87421,0,0,1,1.49561.2656c.42039.2422.626.5274.55909.7188Zm4.71,6.0625a.61606.61606,0,0,0-.292-.293,1.01659,1.01659,0,0,0-.8115-.1445c-.1548.0869-.0488.2929.2417.4609a1.3889,1.3889,0,0,0,.5102.1699l.5079.292a2.31486,2.31486,0,0,1-1.2588-.3291c-.53669-.3096-.7373-.6904-.4478-.8506a1.88283,1.88283,0,0,1,1.49811.2686c.41789.2422.62589.5263.56.7177Zm-11.3706,4.8261.5059.291a.62032.62032,0,0,0,.2963.295,1.00905,1.00905,0,0,0,.8081.1435c.1568-.0889.0469-.2939-.2436-.4609a1.39657,1.39657,0,0,0-.5142-.1729l-.5058-.291a2.32135,2.32135,0,0,1,1.2612.3311c.5352.3056.7378.6884.4439.8466a1.87449,1.87449,0,0,1-1.4917-.2636C-31.5249,110.9065-31.7329,110.6204-31.6621,110.4309Zm-7.6792-4.417.5059.291a.61808.61808,0,0,0,.2949.293,1.00556,1.00556,0,0,0,.8086.1455c.15821-.0879.0483-.2929-.2427-.4609a1.3731,1.3731,0,0,0-.5142-.1719l-.50289-.291a2.30422,2.30422,0,0,1,1.25829.3301c.5352.3076.7334.6875.4463.8486a1.8724,1.8724,0,0,1-1.4941-.2656C-39.2041,106.4895-39.4116,106.2044-39.3413,106.0139Z" transform="translate(66.83844)"/><path class="cls-10" d="M124.63431,124.0198,94.0796,106.4446a.65258.65258,0,0,0-.30029-.2969,1.01676,1.01676,0,0,0-.80861-.1426c-.1558.0879-.0493.293.2417.46a1.43133,1.43133,0,0,0,.5147.1729l30.706,17.6621,6.5733,2.1992,4.77391,2.7451L106.6372,145.4173l-3.9844-.711L73.1206,161.0969l1.1792,2.2618-13.8501,7.6855L48.29,168.8762l8.27931,15.8008a.15313.15313,0,0,0-.04051.0117c-.1582.085-.0488.2911.2393.459a1.01907,1.01907,0,0,0,.8081.1436c.1582-.0869.0522-.292-.2363-.46-.0201-.0117-.0435-.0176-.066-.0293l-8.0703-15.4004,11.7525,2.0977,14.1401-7.8477-1.1885-2.2636,29.2442-16.2295,3.9873.7109,29.6372-16.4463-5.5728-3.2051Z" transform="translate(66.83844)"/><path class="cls-10" d="M76.8311,177.303l7.1855-3.9854a2.82776,2.82776,0,0,0,2.147.2676c.4834-.2676.1523-.9023-.7407-1.415a3.13634,3.13634,0,0,0-2.4937-.4444c-.4228.2334-.2183.75.436,1.2178l-7.3261,4.0684,7.2055,13.749,25.8794,15.0195.3545-.1914L83.8608,190.7219Zm6.7451-5.2051a1.87538,1.87538,0,0,1,1.4936.2647c.5371.3095.7378.6894.4468.8505a1.55534,1.55534,0,0,1-1.1382-.0986l.2735-.1523a.62829.62829,0,0,0,.41941-.0049c.08979-.0508.08449-.1397.01659-.2373l.0703-.0352-.6504-.374-.0664.0361a.66422.66422,0,0,0-.4219.0059c-.0883.0488-.0805.1396-.0146.2373l-.2783.1504C83.4292,172.4876,83.3521,172.2239,83.5762,172.0979Z" transform="translate(66.83844)"/><path class="cls-10" d="M163.6636,128.9739l.15771-5.791,4.76609-2.6446-.3555-.5332-5.1445,2.8526-.0796,2.9277-3.8237-.7607-5.7246,3.1787.9673,5.3037-12.5889,6.9902.9702,5.3057-5.3257,2.956a.671.671,0,0,0-.4214.004c-.0068.0087-.0083.0185-.0175.0253l-6.6836-1.1914,5.227-2.9043-.9673-5.3027,12.7168-7.0576,1.2754-.708-.9717-5.3057,18.105-10.0517-.3525-.5293-18.5078,10.2666.9717,5.3047-1.169.6503-1.9385-1.1142,1.4019-.7764-39.2417-22.5713a.63526.63526,0,0,0-.2944-.2939,1.01365,1.01365,0,0,0-.8096-.1436c-.1582.086-.0498.294.2392.46a1.38,1.38,0,0,0,.5137.1719l38.5943,22.1982-1.0503.582-42.0606-24.1923c.2466-.3096-.104-.8506-.88719-1.3008a3.12664,3.12664,0,0,0-2.49071-.4444c-.4805.2676-.148.9034.7431,1.4161a3.59734,3.59734,0,0,0,2.2867.5234l42.0571,24.1924-30.6148,16.9892-.7963,1.8565-1.9287-.3438-.9122.5069a2.0369,2.0369,0,0,0-.9174-.8838,3.12634,3.12634,0,0,0-2.4922-.4444c-.4839.2657-.149.9024.7397,1.4141a4.35232,4.35232,0,0,0,1.5508.5352l-.98.5429a2.05758,2.05758,0,0,0-.9175-.8838,3.13229,3.13229,0,0,0-2.49359-.4443c-.48151.2676-.14451.9043.74319,1.416a4.33158,4.33158,0,0,0,1.5493.5332l-.98249.5449a2.04455,2.04455,0,0,0-.91841-.8847,3.13551,3.13551,0,0,0-2.4917-.4453c-.4805.2685-.1475.9043.74411,1.4179a4.39156,4.39156,0,0,0,1.54789.5332l-.9776.5459a2.04891,2.04891,0,0,0-.916-.8838,3.12843,3.12843,0,0,0-2.4956-.4472c-.4819.2685-.1504.9033.7432,1.416a4.3528,4.3528,0,0,0,1.5469.5332l-.9825.5439a2.00826,2.00826,0,0,0-.915-.8818,3.12113,3.12113,0,0,0-2.4912-.4453c-.4815.2676-.147.9023.7407,1.416a4.38691,4.38691,0,0,0,1.5469.5322l-.9771.5459a2.0348,2.0348,0,0,0-.9199-.8857,3.13245,3.13245,0,0,0-2.4931-.4453c-.4791.2685-.1475.9043.7451,1.417a4.37606,4.37606,0,0,0,1.5468.5342l-9.3794,5.2031a2.01124,2.01124,0,0,0-.9169-.8838,3.10424,3.10424,0,0,0-2.4864-.4434c-.48779.2657-.15279.9024.74121,1.4141a4.32586,4.32586,0,0,0,1.54349.5342l-.97949.5439a2.01461,2.01461,0,0,0-.915-.8828,3.14109,3.14109,0,0,0-2.49321-.4453c-.478.2685-.1475.9043.7427,1.416a4.3545,4.3545,0,0,0,1.5483.5332l-.9824.5449a2.0183,2.0183,0,0,0-.9146-.8847,3.1376,3.1376,0,0,0-2.4956-.4453c-.4795.2695-.145.9043.7456,1.416a4.36476,4.36476,0,0,0,1.5489.5341l-2.166,1.2042-.1456.08-13.996,7.7647,1.123,2.1484-11.9546-2.1328,7.7124,14.7168-3.62989-.6475.208.4014,3.63239.6475.4902.9316.7036.127-.48919-.9336,9.46719,1.6904,30.899,17.7734.3515-.1933L74.2256,189.9241l-9.7568-1.7402-7.5059-14.3184,11.25,2.0068,7.06541,13.4688,31.16989,17.9297.3467-.1944L75.8936,189.301l-7.0352-13.4189,2.3047-1.2803,4.3623,8.3242a.21312.21312,0,0,0-.03909.0118c-.16161.0849-.05121.292.23929.4599a1.00563,1.00563,0,0,0,.8081.1426c.16061-.0859.0483-.292-.2393-.459-.0205-.0107-.0429-.0185-.0625-.0293l-4.5703-8.7226,9.981-5.5411a2.81973,2.81973,0,0,0,2.147.2676c.4853-.2666.1523-.9013-.74129-1.414a4.25,4.25,0,0,0-.59171-.2793l-.7251-1.3936,3.7773.6729,26.6636-14.795.7925-1.8593,1.934.3457,5.4522-3.0264a.63357.63357,0,0,0,.417-.0068c.09321-.0479.0879-.1368.0195-.2344l3.7603-2.0879a.67632.67632,0,0,0,.4213-.0059c.0899-.0498.0845-.1396.0176-.2382l9.00051-4.9932.85009,4.6416L113.939,155.9778l-5.3833.0684-15.5059,8.6064,2.3696,4.5283L78.626,178.4993l6.0195,11.4863,5.3823,3.0967,6.5728,2.2002,15.3525,8.9277.3545-.1894-15.4292-8.9746-.0805-.0469-6.5718-2.1983-4.9639-2.8554-5.8437-11.1553,16.7929-9.3184-2.36909-4.5273,15.27729-8.4805,5.38771-.0664,4.16359-2.3125,6.1025,1.0889a2.76248,2.76248,0,0,0,.7452.5928,3.11766,3.11766,0,0,0,2.48871.4433c.48289-.2676.15039-.9023-.74071-1.415a3.11952,3.11952,0,0,0-2.48829-.4444.37535.37535,0,0,0-.21291.4239l-5.3989-.9649,5.1001-2.833,6.103,1.0889a2.732,2.732,0,0,0,.7515.5947,3.10945,3.10945,0,0,0,2.4858.4434c.48441-.2676.149-.9024-.7421-1.4151a3.12815,3.12815,0,0,0-2.4927-.4453.381.381,0,0,0-.2114.4229l-5.3956-.9619,5.1016-2.834,7.3877,1.3203c.0176.0098.0308.0224.0508.0342a1.003,1.003,0,0,0,.80811.1435c.09029-.0488.08689-.1367.01369-.2383l2.4077-1.3339,3.26761,1.8789c-.25151.3066.101.8496.88279,1.2988a3.12618,3.12618,0,0,0,2.49021.4463c.48489-.2686.15039-.9033-.74071-1.417a3.57248,3.57248,0,0,0-2.27929-.5215l-3.27541-1.8809,2.6831-1.4843-.9736-5.3047,1.27391-.707,6.09809,1.0869a2.77156,2.77156,0,0,0,.7476.5947,3.129,3.129,0,0,0,2.4946.4453c.479-.2686.146-.9033-.7427-1.4141a3.1233,3.1233,0,0,0-2.49359-.4472.37747.37747,0,0,0-.21241.4228l-5.3984-.9638,5.104-2.8321,6.1005,1.0879a2.75738,2.75738,0,0,0,.7447.5947,3.13516,3.13516,0,0,0,2.49561.4454c.47949-.2686.145-.9034-.74561-1.4161a3.12283,3.12283,0,0,0-2.4908-.4453.37456.37456,0,0,0-.2119.4229l-5.3994-.9629,5.2339-2.9004-.9795-5.3066,5.46931-3.0352,3.32219.6621-.07419,2.7988L181.1538,139.429l-.4248-.6397Zm-62.2959-23.082-.5059-.2901a.61492.61492,0,0,0-.2929-.2939,1.01673,1.01673,0,0,0-.8135-.1455c-.1543.0879-.0493.2929.2431.4619a1.399,1.399,0,0,0,.5181.1719l.5034.29a2.32478,2.32478,0,0,1-1.2632-.3291c-.5351-.3076-.7338-.6895-.4414-.8486a1.87455,1.87455,0,0,1,1.4922.2646C101.2305,105.4173,101.4356,105.7024,101.3677,105.8919ZM80.9956,168.4163l-10.1289,5.6201-2.3071,1.2783-.8877-1.6982,13.50241-7.4912.52739,1.0127a1.80766,1.80766,0,0,0-1.1416.0595C80.13431,167.4319,80.3389,167.9485,80.9956,168.4163Zm1.7041.0117c.0894-.0498.0811-.1387.01661-.2363l.06639-.0362.0728-.041-.1416-.2695c.521.3047.7153.6797.4311.8398a1.56837,1.56837,0,0,1-1.1411-.0996l.2769-.1504A.63947.63947,0,0,0,82.6997,168.428Zm-.7866-.8897.147.2793a.63942.63942,0,0,0-.4121.0059c-.086.0527-.086.1406-.0142.2393l-.2769.1503c-.3007-.2548-.3818-.5175-.1499-.6435A1.09731,1.09731,0,0,1,81.9131,167.5383Zm25.2681-17.9697c-.5328-.3066-.73489-.6894-.4444-.8496a1.87384,1.87384,0,0,1,1.4947.2656c.5327.3077.7329.6895.44581.8506A1.88507,1.88507,0,0,1,107.1812,149.5686Zm-2.1001,1.1641c-.5352-.3076-.7349-.6895-.4439-.8487a1.86962,1.86962,0,0,1,1.4922.2666c.5327.3057.7354.6885.4482.8506A1.88938,1.88938,0,0,1,105.0811,150.7327Zm-2.0996,1.165c-.53719-.3086-.7334-.6894-.4468-.8496a1.88128,1.88128,0,0,1,1.49661.2676c.53559.3066.73579.6894.44619.8496A1.8794,1.8794,0,0,1,102.9815,151.8977Zm-2.0958,1.1651c-.5375-.3077-.7402-.6885-.4453-.8487a1.8636,1.8636,0,0,1,1.4932.2676c.53271.3057.7329.6875.4448.8477A1.86765,1.86765,0,0,1,100.8857,153.0628Zm-2.103,1.164c-.5327-.3056-.73239-.6875-.4453-.8486a1.885,1.885,0,0,1,1.4981.2685c.5327.3057.73381.6875.4472.8487A1.88455,1.88455,0,0,1,98.7827,154.2268Zm-2.0967,1.167c-.5351-.3076-.7353-.6894-.4443-.8506a1.87256,1.87256,0,0,1,1.49461.2676c.53279.3066.73289.6875.44339.8486A1.8705,1.8705,0,0,1,96.686,155.3938Zm-10.5004,5.8233c-.5328-.3057-.7339-.6875-.4419-.8497a1.88136,1.88136,0,0,1,1.4912.2666c.5371.3086.7387.6905.4497.8497A1.87483,1.87483,0,0,1,86.1856,161.2171Zm-2.0987,1.165c-.53459-.3066-.7324-.6875-.4438-.8486a1.8764,1.8764,0,0,1,1.497.2666c.5303.3066.7349.6894.4434.8496A1.87845,1.87845,0,0,1,84.0869,162.3821Zm-2.0981,1.166c-.5347-.3086-.7324-.6875-.4453-.8496a1.88224,1.88224,0,0,1,1.5009.2686c.52791.3056.729.6865.44191.8486A1.889,1.889,0,0,1,81.9888,163.5481Zm29.5097-12.0596L85.0068,166.1887l-2.9887-.5322,28.8965-16.0351,1.2836.2294Zm2.8985-1.6084-1.2862-.2304.7027-1.6358,2.6977-1.499,2.9878.5332Zm5.7417-3.1884a.66622.66622,0,0,0-.4195.0048c-.0122.0079-.0087.0176-.0205.0225l-2.6933-.4785,3.6997-2.0576,2.9927.5351Zm13.7261-7.6153-9.5249,5.2862a.6569.6569,0,0,0-.4219.0048c-.0103.0049-.0113.0157-.0196.0235l-2.6953-.4815,23.1958-12.8711,1.9405,1.1163Zm-8.4424,15.6475a1.87106,1.87106,0,0,1,1.4961.2656c.5327.3067.7343.6885.4423.8486a1.86878,1.86878,0,0,1-1.4902-.2646C125.3296,155.263,125.1304,154.8831,125.4224,154.7239Zm5.6001-3.1074a1.86772,1.86772,0,0,1,1.4946.2675c.53221.3067.7324.6875.4434.8477a1.877,1.877,0,0,1-1.49419-.2656,1.94407,1.94407,0,0,1-.36421-.2696l.5537.0997c.02.0117.0298.0234.0498.0351a1.01488,1.01488,0,0,0,.8115.1445c.1558-.0869.0469-.2929-.2417-.4589a1.01164,1.01164,0,0,0-.81009-.1455c-.01171.0068-.00681.0166-.02051.0244l-.5517-.0996A.22127.22127,0,0,1,131.0225,151.6165Zm13.958-1.2627a.64355.64355,0,0,0,.2973.2939,1.01305,1.01305,0,0,0,.8077.1436c.1562-.0869.04981-.294-.2388-.46a1.41735,1.41735,0,0,0-.5166-.1719l-.5015-.29a2.31668,2.31668,0,0,1,1.2559.3271c.5371.3096.7339.6885.4414.8497a1.85863,1.85863,0,0,1-1.4883-.2647c-.42329-.2432-.6294-.5283-.5635-.7197Zm5.6343-9.6104a1.87228,1.87228,0,0,1,1.4936.2656c.5352.3077.73491.6895.4458.8497a1.87281,1.87281,0,0,1-1.4936-.2657C150.5259,141.2844,150.32031,140.9026,150.6148,140.7434Zm5.5966-3.1064a1.87265,1.87265,0,0,1,1.4956.2656c.5347.3076.7325.6875.4429.8496a1.87322,1.87322,0,0,1-1.4912-.2656C156.124,138.178,155.9248,137.7971,156.2114,137.637Z" transform="translate(66.83844)"/><path class="cls-10" d="M174.92331,148.4465l-.21281,3.0401L151.814,164.1907a2.82609,2.82609,0,0,0-2.1475-.2676c-.4824.2676-.1489.9014.7442,1.415a3.11423,3.11423,0,0,0,2.4877.4444c.4234-.2354.2188-.751-.4379-1.2197l22.9775-12.751.2129-3.041,8.5586-4.7491-.3535-.5322ZM152.252,165.4104a1.87484,1.87484,0,0,1-1.49369-.2666c-.53471-.3086-.73581-.6894-.44681-.8496a1.56049,1.56049,0,0,1,1.1387.0977l-.27589.1523a.66077.66077,0,0,0-.41991.0049c-.1558.0869-.0469.2939.2441.4609a1.009,1.009,0,0,0,.8081.1436c.0928-.0469.0879-.1387.0171-.2363l.2735-.1534C152.4014,165.0208,152.48,165.2844,152.252,165.4104Z" transform="translate(66.83844)"/><path class="cls-10" d="M133.1611,128.1331a3.12463,3.12463,0,0,0-2.4965-.4453c-.2769.1552-.274.4375-.0586.7412l-3.98.0508-20.9619,11.6328-3.419-.6094a.18161.18161,0,0,0-.042-.0313,1.01243,1.01243,0,0,0-.8081-.1425c-.0879.0498-.0825.1386-.0171.2373l-3.1142,1.7295a2.83866,2.83866,0,0,0-2.15139-.2696c-.48441.2676-.14741.9033.74069,1.4141a4.52633,4.52633,0,0,0,1.0381.4336l.6284,1.2012-7.8989,4.3847-.82029-1.5683a1.34687,1.34687,0,0,0,.68259-.1153c.48241-.2676.15141-.9004-.7461-1.416a3.11617,3.11617,0,0,0-2.4863-.4424c-.4834.2657-.1494.9014.7422,1.4151a4.6269,4.6269,0,0,0,1.1055.4492l1.0268,1.9531-3.707,2.0547-.82669-1.582a1.38208,1.38208,0,0,0,.71489-.1133c.4834-.2666.1499-.9014-.7432-1.4151a3.133,3.133,0,0,0-2.4932-.4453c-.4819.2686-.1474.9034.7456,1.417a4.48115,4.48115,0,0,0,1.0772.4414l1.03171,1.9727-1.25581.6953-3.4834-.6211-1.73779-3.3135a1.32986,1.32986,0,0,0,.667-.1142c.48189-.2676.15229-.9014-.73981-1.4141a3.12515,3.12515,0,0,0-2.4931-.4453c-.4795.2686-.1465.9043.7421,1.415a4.52412,4.52412,0,0,0,1.1309.4541l1.7261,3.292-3.7813-.6748-12.7417,7.0703,1.1289,2.1485-5.9297-1.0586a2.8066,2.8066,0,0,0-.73039-.5781,3.12838,3.12838,0,0,0-2.49121-.4424c-.4829.2676-.1494.9013.7407,1.4131a3.12952,3.12952,0,0,0,2.4912.4453.38089.38089,0,0,0,.2124-.4356l5.9131,1.0557,1.0381,1.9805-6.8496,3.8037L47.52,163.6077l-2.6948,1.4961L34.481,159.1536l-1.3999.7763-1.9405-1.1162,4.2022-2.3281-3.2388-1.8613-5.5986,3.1064-1.9375-1.1142,4.1997-2.3321-3.2315-1.8584-2.79979,1.5538L20.794,152.8626l1.3999-.7774L3.6304,141.4094l-7.9678-1.4199-9.8882-5.6875,1.7661-.9814a2.82547,2.82547,0,0,0,2.146.2656c.4864-.2666.15381-.9004-.7387-1.4131a3.10889,3.10889,0,0,0-2.4888-.4433c-.4238.2324-.22169.748.4346,1.2187l-1.7681.9805-4.5278-2.6045.37061-.2041a2.84553,2.84553,0,0,0,2.15329.2695c.4785-.2695.145-.9033-.7456-1.416a3.115,3.115,0,0,0-2.49069-.4434c-.42341.2334-.21881.75.435,1.2178l-.36671.2051-4.5522-2.6192-3.5982-6.8642-8.9702-5.1602c.2647-.3066-.084-.8574-.8716-1.3115a3.11911,3.11911,0,0,0-2.4936-.4443c-.48149.2675-.1499.9023.7412,1.414a3.61851,3.61851,0,0,0,2.2627.5274l8.7129,5.0146,3.3012,6.2979-1.7954-1.0323-2.414-4.5517-18.0215-10.3672-.6787-1.2978a1.43169,1.43169,0,0,0,.7495-.1133c.4809-.2686.1504-.9024-.7427-1.416a3.13848,3.13848,0,0,0-2.4912-.4444c-.481.2676-.147.9043.7412,1.4151a4.58059,4.58059,0,0,0,1.0337.4306l.4751.9014-4.2349-2.4356-2.604-4.6621-7.3291-4.2158-.476.1221,4.2837,2.4648-3.147-.5615-2.6411-1.5195-.47609.1211,3.03509,1.7461,4.1456.7382,1.9961,1.1485,1.0834,1.9472-3.5429-.5918-7.0952-4.082a.63024.63024,0,0,0-.2974-.2949,1.02087,1.02087,0,0,0-.8105-.1445c-.1539.0898-.0455.2939.2436.4619a1.38991,1.38991,0,0,0,.51221.1709l7.37449,4.2422,3.8433.6416,1.2886,2.3095,23.1709,13.3262,2.1108,3.9844-20.2705-11.6602-2.5435,1.4102-.7807-1.4883c.0117-.0049.0337-.0029.0449-.0098.15671-.0879.0474-.2929-.2461-.4619a1.00472,1.00472,0,0,0-.8076-.1435c-.1587.0859-.0493.292.2407.4609.0176.0117.041.0176.064.0293l.98871,1.8877-2.31151,1.2832-1.9956-3.8076c.0127-.0039.0293-.0039.0444-.0098.1563-.0879.0494-.293-.2436-.4609a1.00474,1.00474,0,0,0-.8081-.1446c-.1587.0879-.0547.293.2388.461.0175.0098.041.0176.0615.0273l2.2065,4.209-2.3052,1.2813-2.0175-3.8145a.14642.14642,0,0,0,.0424-.0117c.1583-.085.0494-.292-.2412-.459a1.00882,1.00882,0,0,0-.8086-.1445c-.1582.0879-.0468.2939.24171.4609.02249.0117.043.0186.06009.0274l2.2285,4.2128-.6274.3477.6489.3731,8.9204-4.9502,43.7798,25.1816,7.9702,1.4209,17.64751,10.1514-1.396.7783,3.23189,1.8594,2.7998-1.5528,1.938,1.1143-4.19969,2.3291,3.23389,1.8613,5.5967-3.1074,1.9399,1.1152L30.146,158.637l3.231,1.8603,1.3989-.7783,9.6992,5.5781-2.6987,1.4981,3.6484,6.7021-7.6177-1.3593-7.4936-4.3096-1.8174-3.4658a1.41269,1.41269,0,0,0,.7495-.1133c.4863-.2676.1475-.9033-.7432-1.416a3.109,3.109,0,0,0-2.4863-.4424c-.4829.2666-.1523.9023.74121,1.415a4.53463,4.53463,0,0,0,1.03229.4297l1.6084,3.0674-6.8418-3.9365-.6294-1.2032a1.41713,1.41713,0,0,0,.74951-.1113c.48289-.2685.15229-.9033-.73831-1.416a3.13135,3.13135,0,0,0-2.4961-.4443c-.4839.2675-.1519.9004.7412,1.415a4.58358,4.58358,0,0,0,1.0361.4316l.4195.8008L7.0371,154.4397l-2.374-4.5293-21.8257-12.5537c.2442-.3105-.1064-.8516-.8852-1.2988a3.12569,3.12569,0,0,0-2.4952-.4473c-.478.2686-.1479.9033.7427,1.416a3.592,3.592,0,0,0,2.2857.5225l21.56,12.4014,2.374,4.5293,31.3023,18.0058,7.9228,1.4141,4.3243,7.9472.7011.1202-8.0957-14.8809,5.4502-3.0264,11.9571,2.1328,7.1435-3.9609-2.3711-4.5293,12.4443-6.9111,7.9747,1.4228,14.1377-7.8476-.7144-1.3672a1.36213,1.36213,0,0,0,.7476-.1143c.4233-.2334.2207-.749-.4361-1.2177l3.1172-1.7286a.6565.6565,0,0,0,.4199-.0058c.0166-.0059.0137-.0205.023-.0293l3.6972.6621,21.0249-11.668,3.84041-.0488a3.29113,3.29113,0,0,0,.38039.2539,3.10547,3.10547,0,0,0,2.4858.4434C134.3828,129.2805,134.04931,128.6438,133.1611,128.1331ZM88.3408,146.138c-.5346-.3077-.7329-.6875-.4433-.8477a1.86207,1.86207,0,0,1,1.4936.2656c.5371.3086.7349.6885.4468.8506A1.88642,1.88642,0,0,1,88.3408,146.138Zm-4.1787,2.3183c-.5347-.3076-.73479-.6894-.4453-.8496a1.89105,1.89105,0,0,1,1.4981.2676c.5332.3066.7333.6875.4458.8496A1.87748,1.87748,0,0,1,84.1621,148.4563Zm-5.1196-1.3965c.11181-.0957.0141-.2793-.2598-.4345a.99969.99969,0,0,0-.8081-.1436c-.1572.0869-.05029.292.24071.459a1.38522,1.38522,0,0,0,.17089.0801l.1558.2949a2.83279,2.83279,0,0,1-.5708-.2412c-.5298-.3067-.7324-.6895-.44189-.8487a1.88183,1.88183,0,0,1,1.49559.2647c.5313.3096.731.6894.4453.8506a.68872.68872,0,0,1-.25.0625ZM58.5249,158.9671a1.88481,1.88481,0,0,1-1.498-.2686c-.5352-.3076-.7369-.6895-.4449-.8496a2.19481,2.19481,0,0,1,1.8428.5195l-.9614-.1709.2114.4004.9741.1738A.23761.23761,0,0,1,58.5249,158.9671Zm-71.4184-26.8663a1.86106,1.86106,0,0,1,1.4917.2666c.5327.3067.7353.6895.4423.8487a1.5539,1.5539,0,0,1-1.1357-.0987l.2768-.1513a.67584.67584,0,0,0,.42-.0059c.1552-.0869.0478-.2929-.2417-.459a1.01823,1.01823,0,0,0-.8145-.1455c-.0854.0498-.08009.1397-.0107.2383l-.27739.1514C-13.0459,132.4895-13.1245,132.2268-12.8935,132.1008Zm-24.9454-16.1757-.4951-.2852a.56111.56111,0,0,0-.2978-.3144,1.00619,1.00619,0,0,0-.8101-.1446c-.1562.0869-.0474.294.24121.459a1.47755,1.47755,0,0,0,.47759.1719l.52141.2969a2.37647,2.37647,0,0,1-1.24021-.335c-.5327-.3066-.7329-.6885-.4453-.8486a1.88014,1.88014,0,0,1,1.498.2675C-37.9575,115.4417-37.7476,115.7356-37.8389,115.9251Zm-10.9697-6.0967c.0142-.0049.0298-.0049.0425-.0108.1572-.0878.0498-.2929-.2412-.4599a1.01028,1.01028,0,0,0-.8086-.1436c-.1607.086-.0493.292.2417.459.0181.0098.041.0186.061.0303l.1631.3135a2.79834,2.79834,0,0,1-.4643-.209c-.5381-.3106-.7334-.6895-.4468-.8506a1.88066,1.88066,0,0,1,1.4961.2666c.5351.3086.73341.6894.4443.8496a.711.711,0,0,1-.3247.0684Zm29.3408,20.0722a1.87526,1.87526,0,0,1,1.4912.2667c.5372.3085.7364.6894.4493.8496a1.54963,1.54963,0,0,1-1.1411-.0996l.2763-.1514a.631.631,0,0,0,.4195-.0049c.1538-.0879.0473-.2939-.2417-.46a1.00654,1.00654,0,0,0-.8082-.1435c-.0908.0498-.0854.1406-.0195.2363l-.2734.1524C-19.6152,130.2923-19.6963,130.0286-19.4678,129.9006Zm47.5835,33.7315c.0103-.0049.0313-.0039.03961-.0088.15619-.0879.04979-.2939-.23881-.46a1.00979,1.00979,0,0,0-.81-.1455c-.1597.086-.0474.294.2412.46.02.0117.0429.0186.061.0293l.1655.3144a2.681,2.681,0,0,1-.4643-.2099c-.5415-.3096-.7403-.6885-.4497-.8486a1.86954,1.86954,0,0,1,1.4956.2656c.5351.3076.7329.6875.4458.8496a.72.72,0,0,1-.3252.0674ZM-18.3418,136.678a.63026.63026,0,0,0-.2983-.2949,1.01886,1.01886,0,0,0-.8111-.1446c-.1543.087-.0464.292.2437.462a1.4196,1.4196,0,0,0,.5176.1718l.5019.2901a2.3142,2.3142,0,0,1-1.26169-.3291c-.53421-.3096-.73541-.6895-.44431-.8496a1.87528,1.87528,0,0,1,1.4951.2656c.4184.2412.6255.5273.5625.7187Zm39.8814,24.7549c.0131-.0039.03171-.0039.0468-.0078.1573-.0879.0474-.294-.24409-.462a1.01325,1.01325,0,0,0-.81061-.1445c-.1582.0869-.0468.294.2442.46.0205.0127.0405.0185.0625.0303l.164.3134a2.64943,2.64943,0,0,1-.4677-.2099c-.5352-.3076-.7349-.6885-.4458-.8487a1.87951,1.87951,0,0,1,1.4961.2666c.5346.3077.73631.6895.4424.8477a.71029.71029,0,0,1-.3204.0713ZM97.624,141.6497a.645.645,0,0,0-.4199.0049c-.1587.0878-.0469.2939.24221.4599.02.0117.04049.0176.063.0293l.16309.3145a2.713,2.713,0,0,1-.4668-.209c-.5357-.3086-.7339-.6895-.4444-.8496a1.54925,1.54925,0,0,1,1.1392.0996Zm1.0752.8652a.74526.74526,0,0,1-.3222.0693l-.1631-.3154a.371.371,0,0,1,.0425-.0088c.0874-.0517.08391-.1406.0122-.2392l.2768-.1514C98.8491,142.1243,98.9277,142.388,98.6992,142.5149Zm34.5552-13.3398a1.8816,1.8816,0,0,1-1.49609-.2666c-.53471-.3077-.73341-.6875-.44871-.8506a1.89684,1.89684,0,0,1,1.5005.2685C133.34031,128.6321,133.5444,129.0149,133.2544,129.1751Z" transform="translate(66.83844)"/><path class="cls-10" d="M106.5005,116.6282a1.38136,1.38136,0,0,0-.51219-.1709l-4.63531-2.666-1.1831-2.2627-3.729-2.1436c.25341-.3056-.0981-.8476-.8813-1.2988a3.13018,3.13018,0,0,0-2.4917-.4453c-.4785.2705-.1489.9033.7417,1.416a3.57472,3.57472,0,0,0,2.28171.5225l3.45309,1.9863,1.1924,2.2656,4.9014,2.8193a.2.2,0,0,0,.0395.0713l-22.0009,12.209-10.0269-5.7656-.3467.1943,10.6709,6.1377,22.3501-12.4023a.67512.67512,0,0,0,.4199-.0049C106.8999,117.0022,106.7935,116.7971,106.5005,116.6282Zm-11.2344-7.9209a.658.658,0,0,0-.2959-.293,1.03278,1.03278,0,0,0-.8135-.1465c-.1538.0889-.0473.294.2413.461a1.44878,1.44878,0,0,0,.519.1748l.5005.2881a2.31664,2.31664,0,0,1-1.26119-.3291c-.53231-.3067-.73051-.6866-.43951-.8487a1.86666,1.86666,0,0,1,1.4927.2666c.416.2403.6279.5284.56.7168Z" transform="translate(66.83844)"/><path class="cls-10" d="M97.2236,192.0813l-10.351-5.9531-3.4688-6.626,19.5943-10.8721-2.3736-4.5283,7.4683-4.1455a2.8147,2.8147,0,0,0,2.14651.2676c.48529-.2666.14989-.9014-.74371-1.416a3.11684,3.11684,0,0,0-2.48829-.4424c-.42281.2334-.22071.75.43359,1.2187l-7.6113,4.2247,2.377,4.5283-19.5938,10.874,3.646,6.958,10.3447,5.9512,1.1895,2.2636,15.6479,9.003.3521-.1944L98.4107,194.345Zm10.43071-33.3437a1.87315,1.87315,0,0,1,1.49609.2666c.5327.3076.73191.6865.4473.8496a1.57264,1.57264,0,0,1-1.1411-.0987l.2729-.1523a.65722.65722,0,0,0,.4199-.0059c.1538-.0879.0498-.2929-.2392-.4589a1.01243,1.01243,0,0,0-.8096-.1456c-.0889.0508-.0884.1397-.023.2374l-.268.1533C107.5044,159.1272,107.4287,158.8645,107.65431,158.7376Z" transform="translate(66.83844)"/><path class="cls-10" d="M107.5205,171.2327l-3.043,1.6904,5.1724,2.9756-1.0532.582-2.5869-1.4883-1.7456.9717,5.1699,2.9756-1.0503.582-7.7568-4.4638-1.7505.9726,5.1699,2.9737-1.0479.583-2.5849-1.4864-3.1499,1.7461,8.2832,4.7657,5.3857-.0674,2.2539,1.2959,1.8145,3.4658a1.42032,1.42032,0,0,0-.7515.1133c-.479.2676-.1474.9023.7437,1.415a3.13011,3.13011,0,0,0,2.4922.4444c.479-.2676.1484-.9034-.7422-1.4151a4.53349,4.53349,0,0,0-1.0381-.4316l-1.6074-3.0674,6.5771,3.7842a.63754.63754,0,0,0,.2964.2929.99951.99951,0,0,0,.8057.1426c.1596-.0859.0507-.292-.2383-.459a1.41339,1.41339,0,0,0-.5166-.1718l-10.1406-5.833-5.3829.0654-7.2358-4.1621,2.4482-1.3594,2.5855,1.4873,1.75-.9697-5.1704-2.9746,1.04831-.584,7.75689,4.4638,1.7504-.9716-5.17229-2.9746,1.04689-.584,2.5888,1.4892,1.7481-.9716-5.1699-2.9737,2.5478-1.4179,7.6831,1.3701,25.7315,14.8017.3466-.1943-25.9995-14.9561Zm7.8667,18.8047a.27105.27105,0,0,0-.043.0107c-.1582.0859-.0522.293.2388.46a1.01039,1.01039,0,0,0,.8086.1435c.1626-.0859.0503-.2929-.2402-.4599-.0205-.0127-.0425-.0186-.06009-.0284l-.168-.3144a2.666,2.666,0,0,1,.47169.2109c.5347.3076.7329.6875.44531.8487a1.88522,1.88522,0,0,1-1.50041-.2686c-.5328-.3057-.7305-.6875-.4419-.8486a.72731.72731,0,0,1,.3232-.0674Z" transform="translate(66.83844)"/><polygon class="cls-10" points="190.865 171.12 178.011 163.728 177.661 163.921 190.669 171.404 197.242 173.601 215.27 183.972 215.619 183.778 197.437 173.319 190.865 171.12"/><path class="cls-10" d="M110.8355,178.1633l2.5849,1.4873-7.563,4.1963,6.4771-.0771,12.3252,7.0898a.61929.61929,0,0,0,.2959.293,1.013,1.013,0,0,0,.8105.1455c.1529-.0879.0469-.2939-.2417-.46a1.39572,1.39572,0,0,0-.5146-.1728l-6.5728-3.7813,1.4112.254a2.78466,2.78466,0,0,0,.7436.5918,3.12643,3.12643,0,0,0,2.4917.4433c.4839-.2676.1494-.9023-.7436-1.415a3.1183,3.1183,0,0,0-2.4883-.4444.37208.37208,0,0,0-.2144.4219l-2.1157-.3779-5.2373-3.0127-4.29789.0527,6.42919-3.5703-2.5844-1.4863,5.2475-2.9131,22.9536,13.2041.3535-.1943-23.6059-13.5762Zm9.6606,8.5215a1.88443,1.88443,0,0,1,1.4971.2686c.5327.3056.7324.6875.4453.8486a1.8872,1.8872,0,0,1-1.5005-.2676,1.842,1.842,0,0,1-.3589-.2666l.5508.0967c.0225.0137.0308.0244.0527.0371a1.00214,1.00214,0,0,0,.80571.1436c.16359-.0869.05219-.293-.23681-.459a1.00955,1.00955,0,0,0-.8076-.1445c-.0142.0068-.0147.0146-.023.0234l-.5552-.1006A.24073.24073,0,0,1,120.4961,186.6848Z" transform="translate(66.83844)"/><path class="cls-10" d="M-20.4214,131.5266a3.61912,3.61912,0,0,0-2.2871-.5224l-21.8237-12.5537-4.2798-.7637-6.3682,3.5351.647.3711,6.2251-3.4541,3.69141.6592,21.56009,12.4014c-.2486.3056.1035.8506.8842,1.2998a3.12794,3.12794,0,0,0,2.49371.4433C-19.1968,132.6751-19.5312,132.0403-20.4214,131.5266Zm.0933,1.0449a1.87779,1.87779,0,0,1-1.4932-.2675c-.4209-.2422-.6313-.5274-.562-.7178l.5059.291a.63238.63238,0,0,0,.2934.292,1.02407,1.02407,0,0,0,.813.1465c.15631-.0879.0469-.293-.24169-.459a1.38617,1.38617,0,0,0-.51661-.1738l-.5058-.291a2.32058,2.32058,0,0,1,1.2641.33C-20.2412,132.0286-20.0405,132.4085-20.3281,132.5715Z" transform="translate(66.83844)"/><path class="cls-10" d="M-26.9936,129.3294a3.58152,3.58152,0,0,0-2.2842-.5235l-14.25689-8.2011-5.55461,3.082a.6917.6917,0,0,0-.4253.0039c-.1553.0879-.0469.2939.2421.4609a1.01171,1.01171,0,0,0,.8101.1446c.0908-.0498.0855-.1407.022-.2354l5.2046-2.8896,13.6074,7.8281c-.2485.3086.1059.8515.8828,1.2988a3.11565,3.11565,0,0,0,2.4907.4443C-25.771,130.4758-26.1006,129.8421-26.9936,129.3294Zm.0942,1.042a1.87481,1.87481,0,0,1-1.4951-.2657c-.4234-.2431-.6304-.5283-.5606-.7177l.5059.29a.63262.63262,0,0,0,.2934.2939,1.024,1.024,0,0,0,.8135.1446c.1558-.0869.0464-.292-.2397-.458a1.42358,1.42358,0,0,0-.5166-.1748l-.5054-.2911a2.309,2.309,0,0,1,1.25731.3301C-26.8091,129.8294-26.6089,130.2112-26.8994,130.3714Z" transform="translate(66.83844)"/><path class="cls-10" d="M129.9107,127.0227a1.022,1.022,0,0,0-.814-.1465.15485.15485,0,0,0-.0386.0537l-5.0171.0625-6.9663,3.8663-7.6846-1.3711-7.9477-4.5713-14.0933,7.8242-3.6972-.6611-10.3443-5.9502-8.2646-1.4737L29.9146,144.1536l2.4526,4.6914,23.0102,13.2353a.622.622,0,0,0,.2935.292,1.02529,1.02529,0,0,0,.8106.1455c.1586-.0869.04681-.2939-.24219-.4599a1.33587,1.33587,0,0,0-.51371-.1719l-4.63529-2.666-.62741-1.2031a1.41561,1.41561,0,0,0,.7505-.1114c.4844-.2675.14991-.9023-.7402-1.416a3.11988,3.11988,0,0,0-2.4917-.4433c-.4825.2675-.1495.9013.7387,1.414a4.6007,4.6007,0,0,0,1.0376.4317l.4219.8027-6.8462-3.9385-.6269-1.2002a1.45361,1.45361,0,0,0,.75-.1123c.4819-.2685.145-.9053-.7457-1.417a3.10157,3.10157,0,0,0-2.4863-.4414c-.4829.2676-.1518.8985.7388,1.4112a4.54308,4.54308,0,0,0,1.039.4335l.418.8008-4.2593-2.4502-2.2861-4.3632,5.4531-3.0245,11.9585,2.1328,19.5938-10.872,3.6914.6572,12.5088,7.1953c-.2476.3076.1025.8506.8813,1.2988a3.11836,3.11836,0,0,0,2.4903.4434c.4843-.2685.1499-.9033-.7383-1.4141a3.58678,3.58678,0,0,0-2.2847-.5224l-12.77289-7.3477-4.27931-.7636-19.5943,10.873-11.9546-2.1328-5.7417,3.1875,2.1592,4.126-4.2568-2.4483-2.2862-4.3633,34.8418-19.3349,7.6797,1.3701,10.34621,5.9502,4.27879.7627,13.8916-7.709,7.5703,4.3535,8.2627,1.4746,7.0293-3.9004,4.7691-.0586a.97656.97656,0,0,0,.7768.1299C130.3081,127.3948,130.2017,127.1887,129.9107,127.0227ZM49.9478,157.0383l-.7046-.1259.2993.5644a2.65417,2.65417,0,0,1-.4688-.2099c-.5351-.3086-.73339-.6875-.4453-.8477a1.86185,1.86185,0,0,1,1.4932.2637c.5381.3095.73971.6904.4453.8515a.71025.71025,0,0,1-.3223.0684Zm-7.7574-4.4628-.70409-.126.29689.5635a2.64506,2.64506,0,0,1-.4668-.2081c-.5395-.3105-.7353-.6894-.4473-.8496a1.86242,1.86242,0,0,1,1.4927.2657c.5376.3076.7373.6884.4478.8505a.692.692,0,0,1-.3218.0674Zm47.6787-8.8135a1.87447,1.87447,0,0,1,1.49321.2646c.53659.3106.73679.6914.44729.8516a1.88214,1.88214,0,0,1-1.4956-.2676C89.7764,144.302,89.5811,143.9231,89.8691,143.762Z" transform="translate(66.83844)"/><path class="cls-10" d="M148.3687,172.4671l-23.086-13.2784,1.1485-.6425,10.0864,1.8007a2.71066,2.71066,0,0,0,.7431.5918,3.12586,3.12586,0,0,0,2.4927.4453c.48491-.2675.1504-.9023-.7427-1.415a3.11023,3.11023,0,0,0-2.4887-.4434.36943.36943,0,0,0-.2129.4219l-10.3799-1.8525-1.6455.916,12.4707,7.1729-5.3945-.962a2.79445,2.79445,0,0,0-.7412-.5918,3.12823,3.12823,0,0,0-2.4937-.4453c-.4819.2686-.1499.9024.73831,1.4141a3.14031,3.14031,0,0,0,2.49559.4463.38287.38287,0,0,0,.2095-.4229l6.1015,1.0889,6.8462,3.9375-5.397-.9639a2.72619,2.72619,0,0,0-.7465-.5927,3.11986,3.11986,0,0,0-2.49029-.4454c-.48241.2686-.14991.9014.74319,1.4161a3.11878,3.11878,0,0,0,2.4902.4443.36829.36829,0,0,0,.2085-.4238l6.105,1.0908,2.3164,1.332,2.2881,4.3633-5.3472,2.9707-14.874-8.5557,1.0059-.5586a.64641.64641,0,0,0,.4243-.0039c.1533-.0869.0469-.2929-.2437-.4599a1.02355,1.02355,0,0,0-.813-.1455c-.0874.0508-.0815.1406-.0122.2383l-1.0083.5566-4.5229-2.6016,1.0034-.5586a.65054.65054,0,0,0,.4219-.0039c.1538-.0888.0498-.2939-.2393-.459a1.01261,1.01261,0,0,0-.8125-.1464c-.0874.0517-.0815.1416-.0117.2382l-1.0112.5567-4.523-2.6016,1.0039-.5586a.657.657,0,0,0,.4219-.0058c.15331-.0869.0474-.294-.2393-.459a1.01547,1.01547,0,0,0-.8129-.1445c-.0894.0498-.084.1386-.0147.2382l-1.0083.5557-3.2627-1.876c.2105-.2656-.0195-.7021-.5796-1.1045l8.8677-4.9209,7.3828,1.3164c.022.0137.03031.0244.0498.0381a1.03728,1.03728,0,0,0,.8164.1455c.1543-.0888.0445-.2959-.2422-.4609a1.02051,1.02051,0,0,0-.8125-.1445c-.0127.0058-.0141.0156-.02.0224l-7.6763-1.3681-9.0126,5a2.84188,2.84188,0,0,0-2.1519-.2676c-.4815.2676-.1499.9023.7461,1.416a3.568,3.568,0,0,0,2.2764.5215l34.6259,19.916.3531-.1934-4.8477-2.789,5.4961-3.0498Zm-11.2022-12.5704a1.88154,1.88154,0,0,1,1.4976.2666c.5346.3086.73.6885.438.8477a1.85172,1.85172,0,0,1-1.4913-.2656C137.0762,160.4378,136.8784,160.0579,137.1665,159.8967Zm-6.4541,5.7764a1.88254,1.88254,0,0,1-1.49709-.2676c-.53511-.3076-.73241-.6894-.44331-.8496a1.87225,1.87225,0,0,1,1.4931.2686,1.66274,1.66274,0,0,1,.3609.2676l-.5503-.0987c-.0225-.0136-.0283-.0234-.0503-.0371a1.01787,1.01787,0,0,0-.80809-.1435c-.15871.0869-.04931.292.24169.4599a1.00738,1.00738,0,0,0,.8076.1436c.0088-.0049.0073-.0166.0151-.0235l.5533.0987A.23109.23109,0,0,1,130.7124,165.6731Zm7.7593,4.4629a1.88824,1.88824,0,0,1-1.4971-.2666c-.5322-.3076-.7324-.6895-.44329-.8496a1.87439,1.87439,0,0,1,1.49359.2666C138.5576,169.594,138.7588,169.9749,138.4717,170.136Zm-25.2007-7.5742c-.53469-.3076-.731-.6895-.4448-.8496a1.55856,1.55856,0,0,1,1.14011.0976l-.272.1543a.62725.62725,0,0,0-.41941.0049c-.1611.0859-.0547.293.2383.46a1.37711,1.37711,0,0,0,.51511.1709l.5.291A2.32293,2.32293,0,0,1,113.271,162.5618Zm1.103-.1563a.18227.18227,0,0,0-.0332-.0703l.27251-.1523c.22219.1875.31979.376.271.5146Z" transform="translate(66.83844)"/><path class="cls-10" d="M109.314,132.6057a3.11349,3.11349,0,0,0-2.4908-.4443c-.4257.2344-.2207.749.4327,1.2187l-13.7954,7.6563-5.127.0625-9.3667-5.3877,7.2681,1.2969,6.9966-3.8828,7.976,1.4228,2.7134-1.5058a2.83434,2.83434,0,0,0,2.1489.2675c.481-.2685.148-.9033-.7451-1.417a3.1256,3.1256,0,0,0-2.4873-.4433c-.4272.2353-.2197.751.4317,1.2187l-2.564,1.4268-7.9707-1.4199-7,3.8818-7.6782-1.3701-4.2618-2.4512,1.4161.2559a2.73268,2.73268,0,0,0,.7407.5898,3.12242,3.12242,0,0,0,2.4907.4443c.48141-.2675.1499-.9023-.7412-1.415a3.12749,3.12749,0,0,0-2.4898-.4453.37759.37759,0,0,0-.2114.4248l-2.1181-.3799-2.58309-1.4853-4.28021-.7647-5.7427,3.1875,1.1855,2.2637-12.4531,6.9082-7.9663-1.4199-8.5439,4.7392,1.0962,2.0967c-.0074.0068-.0308.0039-.0411.0117-.1596.086-.0512.291.2417.459a1.01506,1.01506,0,0,0,.8081.1445c.1607-.0859.0469-.2939-.23919-.4589-.023-.0127-.042-.0196-.06251-.0293l-1.0112-1.9327,8.2495-4.5791,7.9721,1.4229,12.7422-7.0713-1.1845-2.2627,5.4492-3.0283,3.6953.6601,18.166,10.4512,5.646-.0683,13.8823-7.7012a2.83367,2.83367,0,0,0,2.1465.2685C110.5415,133.7532,110.207,133.1184,109.314,132.6057Zm-5.8335-.7842a1.888,1.888,0,0,1,1.4961.2666c.5346.3077.7339.6885.44771.8506a1.8833,1.8833,0,0,1-1.49851-.2675C103.396,132.3645,103.1939,131.9817,103.4805,131.8215Zm-27.6206.7168a1.8609,1.8609,0,0,1,1.4897.2666c.5386.3086.7373.6885.4478.8506a1.89,1.89,0,0,1-1.49809-.2685,1.84,1.84,0,0,1-.35891-.2666l.5533.0976a.21182.21182,0,0,0,.0483.0352,1.02466,1.02466,0,0,0,.813.1455c.1528-.0869.0464-.2939-.24169-.46a1.0119,1.0119,0,0,0-.80811-.1435c-.0161.0029-.0171.0146-.0225.0224l-.5527-.0986A.22161.22161,0,0,1,75.8599,132.5383Zm33.54541,1.1104a1.8672,1.8672,0,0,1-1.49071-.2666c-.5372-.3086-.7344-.6875-.4497-.8496a1.88415,1.88415,0,0,1,1.4995.2676C109.4995,133.1077,109.6948,133.4866,109.40531,133.6487Z" transform="translate(66.83844)"/><path class="cls-10" d="M97.4131,114.6897c.2563-.3057-.0982-.8496-.8794-1.2988a3.13363,3.13363,0,0,0-2.4917-.4434c-.4849.2666-.147.9033.7412,1.4141a3.58328,3.58328,0,0,0,2.2837.5224l3.2651,1.879-6.6045,3.666a.637.637,0,0,0-.4213.0039.03764.03764,0,0,0-.0147.0244l-3.6904-.6582-6.9004,3.8252-2.0298-1.168,1.25241-2.9746a2.28821,2.28821,0,0,0,1.57079.0518c.4805-.2696.1475-.9043-.7485-1.418a3.1201,3.1201,0,0,0-2.4858-.4434c-.482.2686-.1499.9034.7436,1.4151.062.0371.1328.0713.2012.1054l-1.3496,3.1905,2.4951,1.4365-1.7666.9795a2.82722,2.82722,0,0,0-2.1494-.2676c-.4839.2666-.1499.9014.74121,1.4131a3.12981,3.12981,0,0,0,2.49269.4473c.4214-.2354.2187-.751-.437-1.2217l8.8662-4.9209,3.4028.6084c.0151.0107.0298.0254.0479.0361a1.01779,1.01779,0,0,0,.8129.1445c.08351-.0517.0831-.1406.0127-.2392l6.9571-3.8574Zm-.7861-.2549a1.86343,1.86343,0,0,1-1.4932-.2675c-.5352-.3067-.7339-.6875-.4473-.8487a1.88386,1.88386,0,0,1,1.4976.2676C96.71631,113.8938,96.919,114.2747,96.627,114.4348Zm-15.72269,3.6084a1.88115,1.88115,0,0,1,1.49319.2676c.5346.3076.73681.6885.4497.8506a1.24471,1.24471,0,0,1-.792.0107l.104-.2373a.46887.46887,0,0,0,.2422-.0302c.1596-.086.0493-.292-.2437-.461a1.00415,1.00415,0,0,0-.8056-.1435c-.1265.0683-.0782.2099.082.3476l-.1016.2344C80.811,118.5774,80.6191,118.2024,80.90431,118.0432Zm.11519,7.9746a1.86684,1.86684,0,0,1-1.4926-.2656c-.5347-.3076-.7354-.6885-.4434-.8476a1.86465,1.86465,0,0,1,1.4883.2636C81.11431,125.4788,81.3081,125.8577,81.0195,126.0178Z" transform="translate(66.83844)"/><polygon class="cls-10" points="240.896 131.986 241.156 129.268 241.28 129.34 240.856 128.7 236.015 125.917 236.222 123.022 236.847 122.675 236.49 122.14 235.49 122.695 235.268 125.881 240.438 128.855 240.139 131.945 244.797 134.625 244.37 133.984 240.896 131.986"/><path class="cls-10" d="M180.09331,151.4192l-.21291,3.041-23.8228,13.2207,2.3745,4.5283-6.5019,3.6094-2.1655-4.1279-2.585-1.4883-1.0137-1.9297c.0142-.0058.0352-.0039.0425-.0117.1582-.0879.0522-.293-.2417-.4609a1.02263,1.02263,0,0,0-.81049-.1446c-.15731.0869-.04691.294.24359.4619.0205.0108.043.0186.0615.0274l.8028,1.5322-6.8438-3.9365-1.01409-1.9326a.34582.34582,0,0,0,.04489-.0098c.1557-.0879.0469-.293-.2442-.4609a.99838.99838,0,0,0-.8056-.1426c-.1616.085-.0513.291.2392.459.0201.0107.043.0185.0606.0293l.8032,1.5312-8.7847-5.0537,2.6895.4805c.0107.0068.019.0146.0303.0205a1.00793,1.00793,0,0,0,.8081.1445c.1582-.0869.0493-.2929-.2417-.4609a1.01529,1.01529,0,0,0-.8081-.1436c-.0142.0088-.0147.0244-.0274.0332l-4.3584-.7763,21.3335,12.2715,3.4751,6.6279-4.2988,2.3877,2.9072,1.6719.3526-.1934-2.2662-1.3018,4.1011-2.2705-1.1899-2.2666,6.9941-3.8838-2.3706-4.5273,23.7607-13.1875.2129-3.041,6.22561-3.4551-.35451-.5332Z" transform="translate(66.83844)"/><polygon class="cls-10" points="253.193 159.638 245.221 158.215 226.883 168.393 229.255 172.921 222.156 176.863 225.066 178.535 225.415 178.341 223.157 177.04 230.049 173.213 227.677 168.685 245.722 158.667 253.699 160.091 259.571 156.832 259.215 156.296 253.193 159.638"/><path class="cls-10" d="M75.3887,136.8176a3.11957,3.11957,0,0,0-2.4883-.4453c-.4209.2354-.22309.75.4355,1.2188l-11.2182,6.2226,7.9497,4.5733,1.1035,2.0986-8.8682,4.9209a2.83783,2.83783,0,0,0-2.1499-.2685c-.4838.2675-.1494.9023.7452,1.416a3.11431,3.11431,0,0,0,2.4868.4433c.4194-.2343.2202-.7509-.4351-1.2187l9.0098-5.002-1.2754-2.4297-7.5689-4.3545,10.8653-6.0293a2.82836,2.82836,0,0,0,2.15181.2686C76.61231,137.9641,76.2769,137.3274,75.3887,136.8176ZM62.7402,156.6262a1.87854,1.87854,0,0,1-1.4946-.2666c-.5371-.3095-.7349-.6894-.4482-.8506a1.56611,1.56611,0,0,1,1.1425.1016l-.2768.1504a.63033.63033,0,0,0-.418.0059c-.1582.0869-.04879.2929.2398.458a1.0091,1.0091,0,0,0,.8105.1455c.08891-.0498.0811-.1406.0142-.2383l.2744-.1523C62.88531,156.2356,62.96631,156.4993,62.7402,156.6262Zm12.7452-18.7666a1.87564,1.87564,0,0,1-1.49709-.2666c-.53521-.3076-.731-.6865-.44091-.8476a1.86206,1.86206,0,0,1,1.4931.2656C75.5732,137.3186,75.771,137.6985,75.4854,137.8596Z" transform="translate(66.83844)"/><path class="cls-10" d="M89.7944,159.2161a1.003,1.003,0,0,0-.8076-.1446c-.1557.0879-.0493.293.2417.46a1.01575,1.01575,0,0,0,.8101.1455C90.1948,159.5881,90.0835,159.3821,89.7944,159.2161Z" transform="translate(66.83844)"/><path class="cls-10" d="M91.19431,158.4387a.99939.99939,0,0,0-.80611-.1425c-.1592.0859-.0513.291.2422.4599a1.013,1.013,0,0,0,.8056.1426C91.5972,158.8128,91.4854,158.6067,91.19431,158.4387Z" transform="translate(66.83844)"/><path class="cls-10" d="M92.5977,157.6633a1.01791,1.01791,0,0,0-.8106-.1455c-.1582.087-.0517.292.2368.46a1.01755,1.01755,0,0,0,.813.1436C92.9927,158.0344,92.8862,157.8294,92.5977,157.6633Z" transform="translate(66.83844)"/><path class="cls-10" d="M93.9922,156.885a.99121.99121,0,0,0-.8032-.1426c-.1621.086-.0542.2911.2392.459a.99823.99823,0,0,0,.8047.1436C94.395,157.259,94.2881,157.053,93.9922,156.885Z" transform="translate(66.83844)"/><path class="cls-10" d="M95.3311,156.1438a1.00681,1.00681,0,0,0-.8091-.1435c-.16069.0859-.0518.291.2417.4599a1.02388,1.02388,0,0,0,.8115.1455C95.729,156.5169,95.6221,156.3118,95.3311,156.1438Z" transform="translate(66.83844)"/><path class="cls-10" d="M-22.3589,91.6253l-.8823-1.7237-.564.1446.8291,1.6201,48.8106,28.0761L8.15531,129.551a.67468.67468,0,0,0-.41951.0049c-.1596.086-.0512.292.2417.461a1.002,1.002,0,0,0,.8082.1425c.0932-.0478.0854-.1406.019-.2343l18.0225-10.0059Z" transform="translate(66.83844)"/><path class="cls-10" d="M28.5078,116.2551-19.1343,88.8518l-.4746.1221,47.499,27.3223,2.1958,4.1914L7.9468,132.7708a.66171.66171,0,0,0-.41849.0058c-.15671.086-.04731.2949.24169.46a1.01315,1.01315,0,0,0,.8101.1455c.0884-.0508.0854-.1406.0181-.2363l22.2802-12.3662Z" transform="translate(66.83844)"/><polygon class="cls-10" points="81.43 135.989 83.533 137.2 83.886 137.007 81.778 135.794 81.43 135.989"/><polygon class="cls-10" points="83.457 134.863 85.561 136.073 85.911 135.88 83.81 134.671 83.457 134.863"/><polygon class="cls-10" points="85.484 133.737 87.59 134.948 87.942 134.756 85.837 133.544 85.484 133.737"/><polygon class="cls-10" points="87.514 132.611 89.623 133.821 89.967 133.63 87.863 132.417 87.514 132.611"/><polygon class="cls-10" points="89.544 131.487 91.647 132.696 91.997 132.503 89.891 131.291 89.544 131.487"/><polygon class="cls-10" points="91.572 130.361 93.677 131.571 94.024 131.376 91.92 130.167 91.572 130.361"/><polygon class="cls-10" points="93.604 129.235 95.707 130.445 96.056 130.253 93.947 129.04 93.604 129.235"/><polygon class="cls-10" points="95.628 128.109 97.732 129.319 98.084 129.126 95.981 127.916 95.628 128.109"/><polygon class="cls-10" points="97.655 126.982 99.764 128.194 100.114 128.001 98.008 126.79 97.655 126.982"/><polygon class="cls-10" points="99.69 125.859 101.788 127.068 102.141 126.875 100.035 125.663 99.69 125.859"/><polygon class="cls-10" points="101.717 124.732 103.822 125.944 104.168 125.748 102.066 124.539 101.717 124.732"/><polygon class="cls-10" points="103.747 123.606 105.848 124.816 106.2 124.625 104.094 123.413 103.747 123.606"/><path class="cls-10" d="M168.7744,133.4954c.147-.3164-.2016-.8106-.9179-1.2217a3.14316,3.14316,0,0,0-2.4981-.4473c-.47609.2705-.1475.9034.7451,1.417a3.35334,3.35334,0,0,0,2.3877.4834l11.1909,6.4375,1.0235,2.1485-8.3711,4.6435-.2119,3.042-20.0889,11.1475a2.953,2.953,0,0,0-2.27639-.336c-.48191.2696-.14841.9063.74029,1.417a3.12962,3.12962,0,0,0,2.4936.4444c.3985-.2207.2344-.6914-.33489-1.1377l20.19379-11.21.2139-3.04,8.4248-4.6768-1.1797-2.4766Zm-1.53509-.8828-.34821.1943.95121.5469a2.089,2.089,0,0,1-1.38771-.3047c-.5347-.3076-.7368-.6895-.44729-.8486a1.87386,1.87386,0,0,1,1.49709.2666c.3564.205.5581.4414.5674.624ZM152.3442,162.2991a1.8761,1.8761,0,0,1-1.4951-.2656c-.5346-.3077-.7324-.6885-.44279-.8496a1.68989,1.68989,0,0,1,1.28019.1582l-.2519.1367a.82674.82674,0,0,0-.5879-.0401c-.1563.0879-.0523.293.2388.46a1.0159,1.0159,0,0,0,.8134.1436.11292.11292,0,0,0,.0601-.1241l.3237-.1787C152.5039,161.9661,152.5464,162.1868,152.3442,162.2991Z" transform="translate(66.83844)"/><path class="cls-10" d="M172.3462,167.2307a1.026,1.026,0,0,0-.8105-.1455c-.1583.0879-.0469.294.2441.461a.99945.99945,0,0,0,.8057.1425C172.7456,167.6048,172.6372,167.3977,172.3462,167.2307Z" transform="translate(66.83844)"/><path class="cls-10" d="M173.7456,166.4544a1.01669,1.01669,0,0,0-.8135-.1455c-.1562.0869-.0459.2949.24321.4609a1.00825,1.00825,0,0,0,.80859.1435C174.1401,166.8264,174.0347,166.6194,173.7456,166.4544Z" transform="translate(66.83844)"/><path class="cls-10" d="M123.1919,174.594a3.57511,3.57511,0,0,0-2.2822-.5225l-3.2676-1.8789,1.7671-.9804a2.82976,2.82976,0,0,0,2.1518.2685c.4805-.2676.1499-.9023-.74069-1.414a3.11973,3.11973,0,0,0-2.49121-.4453c-.4277.2334-.2187.7509.4331,1.2187l-1.7666.9805-4.5254-2.6035.3682-.2022a2.83482,2.83482,0,0,0,2.1494.2676c.4844-.2676.1504-.9043-.7432-1.416a3.11959,3.11959,0,0,0-2.4882-.4444c-.4248.2354-.2178.752.435,1.2198l-.3682.2031-2.58489-1.4863L89.396,178.3684l2.4575,4.6944,10.3467,5.9502,2.375,4.5312,13.1895,7.4522.3359-.2012-7.4956-4.2363,5.1548-2.8604a.66373.66373,0,0,0,.4214-.0059c.1557-.0859.0468-.2929-.2442-.4599a1.01078,1.01078,0,0,0-.8081-.1446c-.0859.0508-.083.1407-.0137.2393l-5.1645,2.8613-4.7588-2.6884-2.37059-4.5274-2.397-1.3779,1.76559-.9824a2.83333,2.83333,0,0,0,2.1495.2695c.4843-.2676.1518-.9023-.7412-1.415a3.12346,3.12346,0,0,0-2.4913-.4444c-.4228.2344-.2212.751.4361,1.2188l-1.7656.9814-7.3033-4.2012-2.2856-4.3623,19.3442-10.7363,11.0269,6.3428c-.251.3066.0986.8486.88471,1.2998a3.12764,3.12764,0,0,0,2.49079.4443C124.416,175.7415,124.0825,175.1067,123.1919,174.594Zm-4.2207-4.6006a1.87425,1.87425,0,0,1,1.4956.2656c.5352.3086.7383.6895.4448.8497a1.5633,1.5633,0,0,1-1.1411-.0987l.2774-.1523a.65791.65791,0,0,0,.4233-.0039c.1567-.0869.0493-.292-.2417-.46a1.01124,1.01124,0,0,0-.813-.1445c-.0889.0508-.0825.1387-.0137.2373l-.2768.1514C118.8242,170.3821,118.7446,170.1184,118.9712,169.9934Zm-17.2173,15.4014a1.892,1.892,0,0,1,1.499.2666c.5298.3086.73.6885.44141.8496a1.56767,1.56767,0,0,1-1.14061-.0996l.4917-.2734-.6445-.3711-.4942.2724C101.606,185.7844,101.5259,185.5208,101.7539,185.3948Zm10.6445-17.6025a1.89251,1.89251,0,0,1,1.4996.2685c.5346.3086.7304.6875.4458.8496a1.55853,1.55853,0,0,1-1.1397-.0986l.4878-.2744-.64159-.3711-.49561.2724C112.251,168.1848,112.17531,167.9212,112.3984,167.7923Zm10.8902,7.8457a1.87745,1.87745,0,0,1-1.4971-.2676c-.4209-.2422-.6308-.5283-.5605-.7188l.5058.291a.62367.62367,0,0,0,.2954.295,1.0126,1.0126,0,0,0,.8106.1445c.1572-.0879.0473-.2949-.2393-.459a1.41026,1.41026,0,0,0-.5161-.1738l-.5058-.291a2.33043,2.33043,0,0,1,1.2578.3291C123.376,175.0969,123.5757,175.4768,123.2886,175.638Z" transform="translate(66.83844)"/><path class="cls-10" d="M77.6812,185.8176c.0117-.0058.0297-.0048.0424-.0097.1573-.0879.045-.2949-.2441-.4619a1.01247,1.01247,0,0,0-.8101-.1455c-.1562.0898-.0468.2939.2417.4599.0201.0117.0435.0195.063.0303l2.28321,4.3613,28.58789,16.4424.35111-.1943L79.8794,190.013Z" transform="translate(66.83844)"/><path class="cls-10" d="M88.5527,199.7473l-10.0141-5.7607a.64361.64361,0,0,0-.2954-.2949,1.02165,1.02165,0,0,0-.8101-.1436c-.1577.0869-.04879.293.2417.4609a1.39117,1.39117,0,0,0,.5122.1709l9.86531,5.6749,3.77239,3.7519,10.4209,5.9941.3521-.1953-10.271-5.9062Z" transform="translate(66.83844)"/><path class="cls-10" d="M-24.0591,119.0891l-16.5815-9.5371c.251-.3076-.10009-.8496-.8814-1.2988a3.11871,3.11871,0,0,0-2.4936-.4443c-.481.2666-.1475.9023.7431,1.415a3.58238,3.58238,0,0,0,2.2847.5225l15.9326,9.165-1.5166.8428L7.3399,139.261l-1.0899.6074-10.3638-1.8496a2.82561,2.82561,0,0,0-.6953-.543,3.13464,3.13464,0,0,0-2.4922-.4443c-.4795.2686-.1499.9033.7442,1.417a3.125,3.125,0,0,0,2.4897.4434.38223.38223,0,0,0,.1992-.4668l10.6177,1.8935,1.5899-.8799-33.9136-19.5078Zm-17.2553-9.9248-.5059-.291a.60136.60136,0,0,0-.2925-.292,1.00168,1.00168,0,0,0-.8105-.1445c-.1582.0859-.0493.291.2392.459a1.41361,1.41361,0,0,0,.5142.1718l.5088.2911a2.29681,2.29681,0,0,1-1.2617-.3291c-.5328-.3057-.7373-.6905-.4483-.8506a1.8795,1.8795,0,0,1,1.4961.2675C-41.4473,108.6907-41.2446,108.9749-41.3144,109.1643Zm36.5996,29.3574a1.87052,1.87052,0,0,1-1.4917-.2675c-.5347-.3077-.7378-.6885-.4449-.8487a1.86321,1.86321,0,0,1,1.49271.2657,1.77874,1.77874,0,0,1,.30419.2148l-.5996-.1074a.96715.96715,0,0,0-.7554-.1172c-.1557.0859-.0488.291.24081.457a1.02316,1.02316,0,0,0,.81289.1465.10242.10242,0,0,0,.044-.0615l.5273.0947A.23717.23717,0,0,1-4.7148,138.5217Z" transform="translate(66.83844)"/><path class="cls-10" d="M-48.001,102.9895a3.11871,3.11871,0,0,0-2.49069-.4443.37972.37972,0,0,0-.21.4355l-2.14791-.3828-6.1743-3.5517-.4766.123,6.5694,3.7773,2.4521.4375a2.78407,2.78407,0,0,0,.7256.5743,3.139,3.139,0,0,0,2.4956.4472C-46.78269,104.135-47.1152,103.5003-48.001,102.9895Zm.0938,1.042a1.86869,1.86869,0,0,1-1.4922-.2656,1.86036,1.86036,0,0,1-.3506-.252l.5625.0996.0249.0186a1.01714,1.01714,0,0,0,.8101.1435c.1596-.0869.0512-.291-.2417-.4599a1.01754,1.01754,0,0,0-.8081-.1445.12934.12934,0,0,0-.0279.0371l-.5434-.0967a.22532.22532,0,0,1,.1264-.1963,1.866,1.866,0,0,1,1.4908.2656C-47.8193,103.4905-47.6196,103.8704-47.9072,104.0315Z" transform="translate(66.83844)"/><path class="cls-10" d="M113.6636,118.5003a3.12391,3.12391,0,0,0-2.4907-.4444.37851.37851,0,0,0-.2129.4219l-2.4068-.4297L84.86331,131.1946,74.707,125.3528l-2.4721-.4414-1.6314-3.1123,16.8286-9.3428a.64367.64367,0,0,0,.4219-.0049c.1587-.0859.04931-.292-.24169-.459a1.00595,1.00595,0,0,0-.80761-.1445c-.0903.0518-.0869.1397-.0195.2373l-16.9761,9.4219,1.72121,3.2793-2.59471-.4629-1.6304-3.1133,22.0996-12.2656a.65651.65651,0,0,0,.4209-.0049c.1553-.0889.0469-.2939-.2417-.4599a1.01724,1.01724,0,0,0-.8076-.1446c-.0938.0488-.0908.1387-.021.2363L66.5132,120.9173l1.7139,3.2792-5.771-1.0292-8.4419,4.6835-6.7403.837L20.4356,143.5637,38.542,153.9768l-1.0532.5821-58.8394-33.8448,1.39991-.7773L-43.6826,106.2864l-7.9697-1.4229-9.2686-5.331-.4761.1211,9.6631,5.5586,7.9673,1.4209,22.8218,13.1279-1.40189.7754L37.7896,155.1272l1.748-.9717-18.1084-10.416,26.3882-14.6426,6.7451-.8369,8.3984-4.6396,11.6622,2.081L85.1587,131.76l23.89361-13.2607,2.11809.3789a2.702,2.702,0,0,0,.7456.5937,3.125,3.125,0,0,0,2.4922.4434C114.8926,119.6487,114.5547,119.013,113.6636,118.5003Zm.0986,1.0449a1.90529,1.90529,0,0,1-1.4995-.2676,1.81637,1.81637,0,0,1-.3618-.2695l.5517.0986a.34957.34957,0,0,0,.0518.0352,1.00077,1.00077,0,0,0,.8081.1445c.1592-.0859.0532-.291-.2358-.457a1.02661,1.02661,0,0,0-.814-.1465c-.0103.0068-.0083.0176-.0171.0244l-.5537-.0986a.21622.21622,0,0,1,.1299-.1797,1.87426,1.87426,0,0,1,1.4941.2656C113.8457,119.0012,114.0508,119.384,113.7622,119.5452Z" transform="translate(66.83844)"/><polygon class="cls-10" points="170.71 125.745 170.98 125.937 171.716 125.756 171.444 125.563 170.71 125.745"/><polygon class="cls-10" points="169.14 124.622 169.406 124.815 170.144 124.633 169.876 124.441 169.14 124.622"/><polygon class="cls-10" points="164.087 121.833 164.424 121.989 164.758 121.576 164.427 121.421 164.087 121.833"/><polygon class="cls-10" points="162.129 120.925 162.468 121.082 162.805 120.669 162.467 120.513 162.129 120.925"/></g><path class="cls-11" d="M79.19731,138.4397c-17.395,0-31.49711,6.1563-31.49711,13.751,0,7.5937,14.10211,13.75,31.49711,13.75,17.39549,0,31.497-6.1563,31.497-13.75C110.69431,144.596,96.5928,138.4397,79.19731,138.4397Z" transform="translate(66.83844)"/><g id="brain"><path class="cls-7" d="M117.7529,113.7805c-1.0991-2.1269-.87059-5.7363-2.5088-7.6162-2.6269-3.0097-7.0429-4.7197-9.6831-7.1855-1.2168-1.1377-1.28169-1.9151-2.0546-3.2735-1.37209-2.413-6.18509-1.497-9.8487-3.3769-2.9057-1.499-5.2978-5.2315-8.9038-6.0498-3.9248-.8906-7.3027.6152-11.6167,1.0195-5.2778.4961-11.8408.1016-14.7016,3.6563-.4366.5429-.8902,1.0898-1.3448,1.6298a.00592.00592,0,0,0-.0049.0069c-.5463.6426-1.0957,1.2734-1.6235,1.8652-2.0347,2.3008-3.7573,4.0918-3.7573,4.0918s.0928.0762.2666.2246c3.8252,3.1865,47.1015,39.2031,51.8262,41.9541,4.8325,2.8135,9.6953,3.8321,12.4067-1.7246a9.90458,9.90458,0,0,1,.916-1.4814c1.8701-2.5235,4.669-4.5293,3.8701-8.1778C119.772,123.7669,120.3716,118.8362,117.7529,113.7805Z" transform="translate(66.83844)"/><path class="cls-12" d="M112.2437,117.2913c-1.0596-2.1651-.8731-5.8311-2.4297-7.751-2.5039-3.0781-7.2432-5.3789-9.753-7.9072-1.163-1.167-.3144-1.7881-1.4072-2.8145-3.4018-3.1846-3.5493-.5146-7.0234-2.457-2.7544-1.542-7.3413-6.4072-10.7486-7.2725-3.7089-.9414-6.8354-.7412-10.8984-.3642-4.4316.4111-9.8838,1.3994-12.8926,3.8593a.00592.00592,0,0,0-.0049.0069c-.36759.2959-4.07859,4.9619-5.1142,6.1816,3.8252,3.1865,47.1015,39.2031,51.8262,41.9541,4.8325,2.8135,9.6953,3.8321,12.4067-1.7246a9.90458,9.90458,0,0,1,.916-1.4814,6.06568,6.06568,0,0,0-1.6958-4.3926C110.9732,128.0266,114.752,122.4465,112.2437,117.2913Z" transform="translate(66.83844)"/><path class="cls-12" d="M114.3115,134.8626a1.58738,1.58738,0,0,1-1.4575-.6465c-1.043-1.3946-.2261-5.2666.5239-7.043a8.52133,8.52133,0,0,0-.2695-7.4004,7.61316,7.61316,0,0,0-5.6518-3.7558,22.05118,22.05118,0,0,0-3.1836-.0723,1.46705,1.46705,0,0,0-1.40869,1.4414c.08929.8438,1.35739,1.1357,1.90329,1.0742a8.62218,8.62218,0,0,1,2.2866.0899,4.99424,4.99424,0,0,1,3.8125,2.4668,6.02942,6.02942,0,0,1,.1494,5.1591c-1.209,2.8623-2.04,6.8291-.7446,9.377a3.5579,3.5579,0,0,0,3.11281,1.8232c3.77729-.0322,5.22019-3.3506,5.00389-3.75C117.9922,132.8948,115.082,134.7747,114.3115,134.8626Z" transform="translate(66.83844)"/><path class="cls-12" d="M113.6714,110.4563a13.91972,13.91972,0,0,0-7.4565-1.125,17.58893,17.58893,0,0,0-2.9498.6026,7.72378,7.72378,0,0,1-1.3022.2714,3.04083,3.04083,0,0,1-2.9399-.8935,2.34209,2.34209,0,0,1-.0962-2.6338,5.529,5.529,0,0,1,4.3266-2.6201,8.04992,8.04992,0,0,1,1.0401-.0489,12.48254,12.48254,0,0,1,3.3291.5137,1.19114,1.19114,0,0,0,.4692.0401,1.29991,1.29991,0,0,0,1.0444-1.7686,1.25926,1.25926,0,0,0-.8173-.7422,15.12093,15.12093,0,0,0-3.9864-.6074,10.77563,10.77563,0,0,0-1.3877.0644,8.16472,8.16472,0,0,0-6.2373,3.8858,4.89428,4.89428,0,0,0,.2993,5.5029,5.62133,5.62133,0,0,0,5.2842,1.8457,10.08178,10.08178,0,0,0,1.69731-.3486,14.66169,14.66169,0,0,1,2.48529-.5088,11.64258,11.64258,0,0,1,6.1055.8828,1.4066,1.4066,0,0,0,.7334.1182,1.24215,1.24215,0,0,0,.7754-.3858,1.26313,1.26313,0,0,0,.3208-1.1172A1.28981,1.28981,0,0,0,113.6714,110.4563Z" transform="translate(66.83844)"/><path class="cls-12" d="M87.6821,89.0579a4.00282,4.00282,0,0,0-1.6015-.1367,5.94722,5.94722,0,0,0-3.4834,1.8671l-.42389.4297c-1.77881,1.8155-2.92521,2.8106-3.93841,2.9248a1.81846,1.81846,0,0,1-.3321.0069,2.83641,2.83641,0,0,1-1.873-1.3467,1.54275,1.54275,0,0,1-.3291-.7647l-.0122-.1084.0054-.1084c.0161-.3115.059-1.1406,1.9882-2.7236a1.29261,1.29261,0,0,0-.9536-2.293,1.20577,1.20577,0,0,0-.6299.2657,7.88757,7.88757,0,0,0-2.8706,3.9775,3.88963,3.88963,0,0,0,.7525,3.2959,5.20626,5.20626,0,0,0,3.7641,2.3662,4.20628,4.20628,0,0,0,.7515-.0195c2.13921-.2412,3.93021-2.0674,5.5107-3.6787l.4078-.4151a3.40835,3.40835,0,0,1,1.9682-1.124l.1944-.0215.25.0342.3188.0586.2544.1992a2.64736,2.64736,0,0,1,.8066,1.5479l.0274.1269.00191.1309c.02149,1.7588-2.96581,5.0371-3.88181,6a1.29129,1.29129,0,0,0,1.105,2.1494,1.26111,1.26111,0,0,0,.7744-.3828c3.3296-3.4473,4.92141-6.4863,4.48141-8.5586A4.58531,4.58531,0,0,0,87.6821,89.0579Z" transform="translate(66.83844)"/><path class="cls-12" d="M100.5044,96.1809a1.2047,1.2047,0,0,0-1.3076-.8877,1.26894,1.26894,0,0,0-.3438.0899,16.32754,16.32754,0,0,0-4.8979,3.0283,19.18138,19.18138,0,0,0-2.8081,3.4365,1.21192,1.21192,0,0,0-.1304,1.0449,1.185,1.185,0,0,0,.7256.7471l.1445.0537a1.16326,1.16326,0,0,0,.541.0664,1.25773,1.25773,0,0,0,.9151-.5771,16.54562,16.54562,0,0,1,2.3994-2.9317,13.91733,13.91733,0,0,1,4.1069-2.498,1.2095,1.2095,0,0,0,.6944-1.4277Z" transform="translate(66.83844)"/><path class="cls-7" d="M66.374,94.0579c-8.4145-2.3291-18.0039-.4053-22.1684,2.4531-7.4722,5.1289-3.3848,6.0635-5.8545,10.2246-1.461,2.4609-3.6172,3.4649-4.3111,7.1055-.2885,1.5137.1607,2.5215.0894,4.2539-.07909,1.9385-1.41209,4.4883-1.1538,6.7158.3496,3.0137,3.7104,5.2959,3.42771,7.5352-.726,5.7627,3.90379,4.5214,8.11819,8.3291,2.5991,2.3486,7.4692,5.7343,11.52681,6.999,4.74029,1.4775,6.58009,3.9482,9.93069,4.4736s8.2119-.8965,11.6924-1.2168c2.96091-.2715,4.5093,1.8731,11.08791.5196,4.89739-1.0079,6.44139-5.2852,13.09959-4.4541,5.54641.6923,5.0449-7.5264,5.5498-9.1973,1.7129-5.667-2.5645-15.5615-10.7021-25.1504C88.0718,102.4729,73.7607,96.1018,66.374,94.0579Z" transform="translate(66.83844)"/><path class="cls-12" d="M100.7691,119.3079a8.23526,8.23526,0,0,0-6.461-1.2178,9.40833,9.40833,0,0,0-1.84179.5811,7.39662,7.39662,0,0,0-4.64061,5.9277,5.98163,5.98163,0,0,0,1.8267,5.1211l1.4614,1.4726-1.9536.7002c-3.75389,1.3448-10.1348,4.2491-10.6885,8.5713a7.60869,7.60869,0,0,0,2.561,7.0782c2.292,1.913,5.6787,2.5292,9.5342,1.7363a19.54727,19.54727,0,0,0,1.9502-.5127c4.7319-1.5029,8.0254-4.0537,9.03421-6.9981a4.80889,4.80889,0,0,0-.47271-4.331c-.8847-1.2852-2.6806-1.6602-5.3384-1.1133a30.04315,30.04315,0,0,0-7.1377,2.7041,1.28413,1.28413,0,0,0-.5376,1.7754,1.28354,1.28354,0,0,0,1.3873.6416,1.32287,1.32287,0,0,0,.31-.1065,27.97376,27.97376,0,0,1,5.9668-2.1708c1.0396-.2139,2.3306-.3594,3.0908.4169a1.90212,1.90212,0,0,1,.4893,1.8252c-.6616,2.6485-6.8633,4.6895-7.5689,4.9141a16.91482,16.91482,0,0,1-1.6865.4424c-3.0781.6338-5.6992.2099-7.37939-1.1914a5.02664,5.02664,0,0,1-1.65821-4.7852c.4727-3.6943,9.5894-5.9463,14.7085-8.1201,4.9971-2.123.0083-2.5039.0083-2.5039-.625-.1563-5.8032-1.5605-5.3608-5.2627a4.89679,4.89679,0,0,1,3.1128-3.8779,6.80448,6.80448,0,0,1,1.33741-.4209,5.6501,5.6501,0,0,1,4.42619.7685,4.53157,4.53157,0,0,1,1.7969,3.2383,1.1605,1.1605,0,0,0,.8443.9922,1.387,1.387,0,0,0,.6772.043,1.30319,1.30319,0,0,0,1.02-1.4356A7.04363,7.04363,0,0,0,100.7691,119.3079Z" transform="translate(66.83844)"/><path class="cls-12" d="M106.9175,132.9778a1.2447,1.2447,0,0,0-1.3491-.6582,1.18111,1.18111,0,0,0-.562.2881l-.0992.0898a1.17989,1.17989,0,0,0-.289,1.4141,6.33111,6.33111,0,0,1,.6479,1.8193,5.26082,5.26082,0,0,1-.2866,2.5381,1.2406,1.2406,0,0,0,.4443,1.4326l.1148.0791a1.21839,1.21839,0,0,0,.9512.1944,1.168,1.168,0,0,0,.8803-.7578,7.86153,7.86153,0,0,0,.4229-3.9239A8.87151,8.87151,0,0,0,106.9175,132.9778Z" transform="translate(66.83844)"/><path class="cls-12" d="M61.6455,110.5178a5.42921,5.42921,0,0,0-1.6396.0967c-3.0928.6367-6.0992,3.5606-7.3887,5.1885-.6953.8779-1.3145,1.6855-1.83889,2.4014a1.62176,1.62176,0,0,0-.19771,1.4316c.1206.3203.2978.3604.36471.375a1.71225,1.71225,0,0,0,.73489.0352c.68111-.1397,1.645-1.0079,2.9472-2.6504,1.6797-2.1202,4.15091-3.916,5.8746-4.2715a2.93569,2.93569,0,0,1,.8808-.0557,1.62631,1.62631,0,0,1,1.2266.7725l.4326.6504-.3623.6914a14.8074,14.8074,0,0,1-2.3638,2.7314c-2.8354,2.8506-7.1167,7.1572-4.13859,13.5215,1.37789,2.9443,1.75389,4.9316,1.67719,6.0752-.22019,3.3047-2.61519.4629-2.74119.2607-2.36961-3.8505-5.00641-7.5341-8.92091-6.7294a6.52491,6.52491,0,0,0-.91309.2617,4.36541,4.36541,0,0,0-2.74071,3.2422,5.27279,5.27279,0,0,0,.2348,2.9843,1.283,1.283,0,0,0,2.11091.4151,1.38047,1.38047,0,0,0,.25629-1.4229,2.70591,2.70591,0,0,1-.0942-1.4336,1.81264,1.81264,0,0,1,1.10691-1.376,3.79722,3.79722,0,0,1,.49319-.1416c1.9053-.3916,3.4902,1.0059,6.2817,5.5391,1.3413,2.1817,3.1304,3.2803,4.7852,2.9404a2.7945,2.7945,0,0,0,.7617-.2763c2.1343-1.1524,2.97021-5.1319.0244-11.4258-2.2178-4.7412.7573-7.7324,3.6343-10.626,2.46-2.4726,4.1118-4.4014,2.9561-6.7031A4.24619,4.24619,0,0,0,61.6455,110.5178Z" transform="translate(66.83844)"/><path class="cls-12" d="M83.6411,103.0208a9.496,9.496,0,0,0-6.626-1.3311,5.87027,5.87027,0,0,0-3.2641,1.8252,4.81237,4.81237,0,0,0,.0415,6.1641,1.15855,1.15855,0,0,1-.3364,1.9336,10.92757,10.92757,0,0,1-2.7515,1.0234,1.294,1.294,0,0,0-.4365,2.293,1.22681,1.22681,0,0,0,.9878.2226c1.9965-.4804,4.4946-1.4238,5.2856-3.2383a3.64913,3.64913,0,0,0-.7519-3.8418,2.14312,2.14312,0,0,1-.1021-2.875,3.22535,3.22535,0,0,1,1.81981-.9804,7.2679,7.2679,0,0,1,4.87839,1.041,36.67227,36.67227,0,0,1,9.3423,8.1103,1.28458,1.28458,0,0,0,1.9566-1.665A39.96565,39.96565,0,0,0,83.6411,103.0208Z" transform="translate(66.83844)"/><path class="cls-12" d="M83.0405,109.7727a.85515.85515,0,0,0-.5429-.0625.95227.95227,0,0,0-.7246.6904l-.188.7178a.87722.87722,0,0,0,.4594,1.0235c1.2207.5712,2.9175,1.4785,3.333,2.8281.375,1.2148-1.0976,1.8457-1.2548,1.8779a14.09681,14.09681,0,0,1-3.8516.1006l-.80569-.083a17.98709,17.98709,0,0,0-4.20551.3799,20.796,20.796,0,0,0-6.6758,2.6562c-4.5591,2.7871-6.9629,5.4805-7.1436,8.0039a4.61394,4.61394,0,0,0,1.8975,3.9883,3.8081,3.8081,0,0,0,3.3433,1.0244h0c1.59711-.3291,3.0962-1.6767,4.3012-2.7607.5962-.5352,1.188-1.0684,1.83791-1.5908a13.17514,13.17514,0,0,1,5.35349-2.3135c1.79351-.3692,3.2266-.502,3.8628.125.5865.5771,1.4629,2.4053-1.4072,2.9746a12.15152,12.15152,0,0,0-5.9717,2.6982c-2.4927,2.1358-3.353,4.8838-2.6289,8.4024a1.27608,1.27608,0,0,0,1.5781,1.0381c.3291-.0674,1.377-.4112,1.0528-1.9864a5.371,5.371,0,0,1,1.6675-5.5068,9.92746,9.92746,0,0,1,4.8418-2.1387c2.3471-.5068,4.2719-1.1963,4.0805-4.5283a3.76615,3.76615,0,0,0-2.3198-3.3642,9.08494,9.08494,0,0,0-5.3018-.2159,16.24555,16.24555,0,0,0-6.415,2.8174c-.7188.5791-1.37059,1.1651-1.9453,1.6826a9.78857,9.78857,0,0,1-2.791,2.086l-.5342.1738-.4956-.2656a2.7932,2.7932,0,0,1-.4736-.3262,2.28153,2.28153,0,0,1-.9747-1.833c.0664-.9268.9244-2.9404,5.9234-5.9971a18.34126,18.34126,0,0,1,5.8755-2.3486,14.79815,14.79815,0,0,1,3.52491-.3193l.06639.0039.0649.0078a16.01376,16.01376,0,0,0,5.0552-.0547,5.29748,5.29748,0,0,0,2.6626-1.2393,3.18854,3.18854,0,0,0,.9394-2.7666C87.773,112.4993,85.167,110.7415,83.0405,109.7727Z" transform="translate(66.83844)"/><path class="cls-12" d="M61.98731,95.5344a28.94367,28.94367,0,0,0-11.77491.3272,22.42,22.42,0,0,0-11.1177,5.9599,1.28736,1.28736,0,0,0,.16261,1.9776l.06589.0459a1.25412,1.25412,0,0,0,.9229.1572,1.29545,1.29545,0,0,0,.644-.3437,19.85535,19.85535,0,0,1,9.78721-5.2745,26.51242,26.51242,0,0,1,10.81289-.3222,1.23987,1.23987,0,0,0,.5122.0019,1.28289,1.28289,0,0,0,.8682-.6464,1.2637,1.2637,0,0,0,.041-1.1475A1.30272,1.30272,0,0,0,61.98731,95.5344Z" transform="translate(66.83844)"/><path class="cls-12" d="M50.6987,103.7493a5.84026,5.84026,0,0,0-2.8505-.0156c-.2945.0605-.6001.1386-.9097.2304a1.311,1.311,0,0,0-.84619.7666,1.25544,1.25544,0,0,0,.07229,1.1006,1.28225,1.28225,0,0,0,1.3593.6309c.0391-.0078,3.6382-.9434,3.4263,2.1289-.0283.4121-.9351,1.5654-2.8677,1.9629a18.94649,18.94649,0,0,1-3.44919.3261,20.549,20.549,0,0,0-3.80811.4297,26.05833,26.05833,0,0,0-6.374,2.2549,1.28593,1.28593,0,0,0,.82911,2.4092,1.25,1.25,0,0,0,.313-.1094,23.54335,23.54335,0,0,1,5.75529-2.0439,18.00981,18.00981,0,0,1,3.3262-.376,21.37743,21.37743,0,0,0,3.9102-.3809c2.2212-.457,3.67431-1.3007,4.4438-2.5781.8286-1.376.7486-3.0557-.2383-4.9941A3.34613,3.34613,0,0,0,50.6987,103.7493Z" transform="translate(66.83844)"/><path class="cls-12" d="M71.7749,97.2346a1.29531,1.29531,0,0,0-.9678-.1923,1.25745,1.25745,0,0,0-.3105.1074c-2.2158,1.084-3.4907,2.5791-3.7886,4.4472-.043.2715-.0884.5-.1304.6875l-.3354,1.4922-1.7437-.6738a8.13765,8.13765,0,0,0-4.7016-.7461c-.1143.0234-.229.0518-.3447.084a10.37387,10.37387,0,0,0-1.1128.373,1.24992,1.24992,0,0,0-.7813,1,1.27635,1.27635,0,0,0,.2954,1.0264,6.06054,6.06054,0,0,0,2.1563.1016c.042-.0088.2431-.0596.3032-.0723a5.77756,5.77756,0,0,1,3.2339.6143,5.5414,5.5414,0,0,0,3.0239.5908,2.56263,2.56263,0,0,0,.7568-.2891c1.2764-.7275,1.6924-2.4053,1.9126-3.7842.1597-1.0019.979-1.8672,2.4346-2.5693a1.28486,1.28486,0,0,0,.1001-2.1973Z" transform="translate(66.83844)"/><path class="cls-12" d="M105.898,129.5227c-.4273,1.4131-.8091,3.3477-3.5279,4.0654-3.2641.8624-8.1001,6.625-12.2412,7.4776-5.562,1.1445-6.87059-.669-9.3745-.4395-2.9429.2705-7.0532,1.4727-9.8862,1.0293-2.833-.4443-4.3887-2.5341-8.3965-3.7832a30.6434,30.6434,0,0,1-9.7461-5.9179c-3.563-3.2198-7.478-2.17-6.86429-7.042.23929-1.8936-2.60251-3.8233-2.89791-6.3711-.2188-1.8828.9082-4.0401.9756-5.6787.06-1.4649-.3194-2.3174-.0762-3.5957.5869-3.0791,2.4106-3.9278,3.646-6.0088,2.0879-3.5186-1.3687-4.3076,4.9492-8.6455a13.58867,13.58867,0,0,1,2.9907-1.4649c-4.6987.4024-8.8603,1.7276-11.2431,3.3633-7.4722,5.1289-3.3848,6.0635-5.8545,10.2246-1.461,2.4609-3.6172,3.4649-4.3111,7.1055-.288,1.5137.1607,2.5215.0894,4.2539-.07909,1.9385-1.41209,4.4883-1.1538,6.7168.3496,3.0127,3.7104,5.2949,3.42771,7.5342-.726,5.7627,3.90379,4.5214,8.11819,8.3291,2.5991,2.3486,7.4692,5.7343,11.52681,6.999,4.74029,1.4765,6.58009,3.9482,9.93069,4.4736s8.2119-.8965,11.6924-1.2168c2.96091-.2715,4.5093,1.8731,11.08791.5196,4.89739-1.0079,6.44139-5.2852,13.09959-4.4541,5.54641.6923,5.0449-7.5264,5.5498-9.1973.7842-2.5947.2998-6.0811-1.2227-10.0127A7.6953,7.6953,0,0,1,105.898,129.5227Z" transform="translate(66.83844)"/><path class="cls-6" d="M117.96531,133.1653a5.82774,5.82774,0,0,1-2.72161,1.1719,2.32933,2.32933,0,0,1-.5987-.0098,2.23834,2.23834,0,0,1-1.497-.8242c-1.3721-1.8359.17331-6.5322.6626-7.6895a7.99491,7.99491,0,0,0-.2452-6.9394,7.1361,7.1361,0,0,0-5.3413-3.499,22.7055,22.7055,0,0,0-2.959-.0596c-.67279.0928-.98679.5596-.9545.8594.03171.2998.5341.5293.9912.5927a1.3867,1.3867,0,0,0,.3256.0127,8.831,8.831,0,0,1,2.2071.0596l.2226.0322a5.50527,5.50527,0,0,1,4.1924,2.7344,6.56981,6.56981,0,0,1,.1743,5.6211c-1.1631,2.7529-1.9741,6.5449-.7612,8.9307a3.57335,3.57335,0,0,0,2.3906,1.9013c.1114.0254.2227.0469.333.0625a3.2367,3.2367,0,0,0,.8057.0137,3.9808,3.9808,0,0,0,3.145-2.167,2.035,2.035,0,0,0,.0269-1.124A1.698,1.698,0,0,0,117.96531,133.1653Z" transform="translate(66.83844)"/><path class="cls-6" d="M117.6284,116.4739a.6941.6941,0,0,0-.5122-.333.838.838,0,0,0-.1982-.0029.72807.72807,0,0,0-.49469.2675.73736.73736,0,0,0-.08.8555,10.26713,10.26713,0,0,1,1.44479,4.3711,13.55854,13.55854,0,0,1-.19679,4.1377.76827.76827,0,0,0,.33009.8369.7491.7491,0,0,0,.4824.1113.732.732,0,0,0,.6426-.5634,14.93178,14.93178,0,0,0,.2407-4.669A11.74693,11.74693,0,0,0,117.6284,116.4739Z" transform="translate(66.83844)"/><path class="cls-6" d="M110.4932,108.8294a14.24323,14.24323,0,0,0-3.29889-.126,16.9543,16.9543,0,0,0-2.85981.584,8.24218,8.24218,0,0,1-1.3926.29,5.47351,5.47351,0,0,1-1.3579-.0049,3.04482,3.04482,0,0,1-2.0571-1.0869,2.8683,2.8683,0,0,1-.1382-3.2275,6.05913,6.05913,0,0,1,4.7241-2.8809,6.57982,6.57982,0,0,1,.9272.0518c2.6851.2216,4.2134.2177,4.51231.0185a.683.683,0,0,0,.01509-.6045c-.0752-.125-.7246-.541-2.6499-.8105a16.47186,16.47186,0,0,0-3.0234-.1494c-3.9683.2187-5.1705,2.4453-5.6836,3.3955l-.125.2275a4.36678,4.36678,0,0,0,.25681,4.9102,4.5232,4.5232,0,0,0,3.01369,1.6357,7.198,7.198,0,0,0,1.7954.0108,9.42946,9.42946,0,0,0,1.6074-.3311,15.29367,15.29367,0,0,1,2.5752-.5254,5.70225,5.70225,0,0,1,1.4482.0352,16.17276,16.17276,0,0,1,2.3487.5722,13.55615,13.55615,0,0,0,1.89741.4746,1.86728,1.86728,0,0,0,1.62409-.3339.806.806,0,0,0,.14991-.6641C114.7324,109.9719,113.2334,109.2122,110.4932,108.8294Z" transform="translate(66.83844)"/><path class="cls-6" d="M88.4517,88.4114a3.53729,3.53729,0,0,0-.4995-.1084,3.632,3.632,0,0,0-.8926-.0107,5.43727,5.43727,0,0,0-3.1655,1.7128l-.4229.4297c-1.9004,1.9385-3.0801,2.9473-4.2573,3.0791a2.69735,2.69735,0,0,1-.6822-.0078,2.62207,2.62207,0,0,1-2.1816-1.9717c-.3457-1.372.3794-2.874,1.9385-4.0175a.74021.74021,0,0,0,.1811-.9356.76592.76592,0,0,0-.7617-.4043.66761.66761,0,0,0-.3555.1504A7.38265,7.38265,0,0,0,74.665,90.009a5.367,5.367,0,0,0,.8448,3.5157,3.44415,3.44415,0,0,0,2.4516,1.4814,5.58015,5.58015,0,0,0,1.3946.0049c1.2978-.1465,2.3764-1.2676,3.519-2.4541a19.54329,19.54329,0,0,1,1.6016-1.542,4.70889,4.70889,0,0,1,3.3808-1.3027c.6441.0908,1.7588.5361,1.9815,2.5019.2553,2.2647-2.2779,4.7032-3.6387,6.0127-.2212.2139-.4087.3926-.5425.5332a.765.765,0,0,0,.4639,1.2569.78536.78536,0,0,0,.1968.0019.73264.73264,0,0,0,.4546-.2246c3.1572-3.2695,4.7412-6.2148,4.3447-8.0801A4.076,4.076,0,0,0,88.4517,88.4114Z" transform="translate(66.83844)"/><path class="cls-6" d="M100.9131,95.1653a.66982.66982,0,0,0-.5596-.498.70391.70391,0,0,0-.1758-.002.75541.75541,0,0,0-.2002.0518,15.82785,15.82785,0,0,0-4.7338,2.9199,18.61923,18.61923,0,0,0-2.7305,3.3418.68683.68683,0,0,0-.0752.5918.65625.65625,0,0,0,.4087.4189l.144.0547a.6605.6605,0,0,0,.1348.0332.6497.6497,0,0,0,.1631.0029.7294.7294,0,0,0,.5283-.3379,17.1366,17.1366,0,0,1,2.4756-3.0253,14.45442,14.45442,0,0,1,4.2715-2.6055.67912.67912,0,0,0,.3886-.8018Z" transform="translate(66.83844)"/><path class="cls-6" d="M70.0274,88.4798a10.83836,10.83836,0,0,0-1.4502-.3086c-5.1504-.7198-8.0445,2.9111-8.15189,3.5312-.01611.1758.17819.3691.37939.4854a.74756.74756,0,0,0,.5337.0888.70387.70387,0,0,0,.3213-.1582,10.25641,10.25641,0,0,1,4.05561-2.1797q.52963-.1479,1.01959-.248a12.98978,12.98978,0,0,1,2.0039-.207c.3437-.0157.6811-.0323,1.0127-.0664.2461-.0245.5454-.1192.5722-.4268A.49277.49277,0,0,0,70.0274,88.4798Z" transform="translate(66.83844)"/><path class="cls-6" d="M101.2671,118.5012a6.90861,6.90861,0,0,0-3.1397-1.2246,8.51271,8.51271,0,0,0-2.9008.0996,8.90963,8.90963,0,0,0-1.7378.5479,6.962,6.962,0,0,0-4.3281,5.5224c-.6626,4.7403,4.88861,6.6622,4.88861,6.6622s-13.417,3.3007-14.24071,9.1894a7.03019,7.03019,0,0,0,2.3745,6.6055,8.53975,8.53975,0,0,0,4.3716,1.8379,13.89816,13.89816,0,0,0,4.7173-.2149,18.50644,18.50644,0,0,0,1.8965-.498c4.5713-1.4512,7.7397-3.8809,8.69381-6.6651a4.28888,4.28888,0,0,0-.40721-3.8593,2.6792,2.6792,0,0,0-1.96679-1.0752,8.56808,8.56808,0,0,0-2.82961.1797c-1.8677.3847-7.8433,2.2382-7.2241,3.7988.5249,1.3223,3.2568-.625,4.78171-1.2207a16.88708,16.88708,0,0,1,2.21729-.7695,6.26165,6.26165,0,0,1,2.082-.1446,2.51033,2.51033,0,0,1,1.49471.71,2.41935,2.41935,0,0,1,.62449,2.3232c-.7158,2.8633-6.7246,4.9082-7.9224,5.2891a17.38789,17.38789,0,0,1-1.7397.457,12.44466,12.44466,0,0,1-4.2105.2002,7.068,7.068,0,0,1-3.6152-1.5039,5.46645,5.46645,0,0,1-1.84469-5.2588c.62059-4.4355,16.185-9.1094,16.185-9.1094s-7.32471-3.2265-6.82861-6.7724a5.493,5.493,0,0,1,3.4277-4.3018,7.37231,7.37231,0,0,1,1.441-.4531,7.06329,7.06329,0,0,1,2.4042-.0879,5.38333,5.38333,0,0,1,2.4429.9492,5.05028,5.05028,0,0,1,2.00881,3.6035.61316.61316,0,0,0,.52979.625.99569.99569,0,0,0,.8218-.29.59435.59435,0,0,0,.14741-.5596A7.16192,7.16192,0,0,0,101.2671,118.5012Z" transform="translate(66.83844)"/><path class="cls-6" d="M107.25831,131.9876a.72442.72442,0,0,0-.54251-.3897.6636.6636,0,0,0-.22849.0069.6507.6507,0,0,0-.312.1601l-.10211.0938a.65067.65067,0,0,0-.1738.7763,6.83885,6.83885,0,0,1,.6997,1.9727,5.76778,5.76778,0,0,1-.3061,2.7959.71854.71854,0,0,0,.2412.8291l.1177.081a.69833.69833,0,0,0,.54241.1114.63527.63527,0,0,0,.48729-.4141,7.3353,7.3353,0,0,0,.4014-3.6602A8.33653,8.33653,0,0,0,107.25831,131.9876Z" transform="translate(66.83844)"/><path class="cls-6" d="M76.5161,145.9114a2.58133,2.58133,0,0,0-1.2353-.5176,3.271,3.271,0,0,0-1.1118.0479,4.60617,4.60617,0,0,0-.5494.1513,13.11347,13.11347,0,0,1-1.5805.4366,8.08029,8.08029,0,0,1-2.7281.1396,4.21365,4.21365,0,0,1-1.6074-.5371,3.52574,3.52574,0,0,1-1.6201-2.6719,4.8159,4.8159,0,0,1,1.668-4.3281.69056.69056,0,0,0,.1875-.7813l-.0576-.125a.736.736,0,0,0-.5723-.4189.69623.69623,0,0,0-.2305.0049.61076.61076,0,0,0-.2954.1543,6.3604,6.3604,0,0,0-2.187,5.7256,5.02772,5.02772,0,0,0,2.32911,3.7285,5.69149,5.69149,0,0,0,2.17239.7392,9.64349,9.64349,0,0,0,3.2583-.1601,7.50393,7.50393,0,0,1,2.44431-.2051,1.99045,1.99045,0,0,1,1.73879,1.916.77052.77052,0,0,0,.6391.627l.0523.0058a.84218.84218,0,0,0,.2134-.0127.75915.75915,0,0,0,.5913-.8681A4.72871,4.72871,0,0,0,76.5161,145.9114Z" transform="translate(66.83844)"/><path class="cls-6" d="M62.55131,109.8303l-.14751-.0185a4.88007,4.88007,0,0,0-1.47949.0898c-2.94281.6055-5.83541,3.4258-7.08051,4.9981-.6958.8779-1.3106,1.6797-1.8262,2.3847a1.09926,1.09926,0,0,0-.1294.9327c.0088.0253.01711.0429.019.0517.0542.0117.1055.0215.1538.0274a.973.973,0,0,0,.32431,0c.30759-.0645,1.05949-.4688,2.63859-2.462,1.77741-2.2431,4.3199-4.0771,6.1831-4.4599a3.38691,3.38691,0,0,1,1.0396-.0645l.0918.0098a2.16675,2.16675,0,0,1,1.5234.9961l.606.9111-.5064.9678a14.98773,14.98773,0,0,1-2.4585,2.8613c-2.8935,2.9082-6.8564,6.8926-4.03459,12.9219a14.526,14.526,0,0,1,1.72649,6.3359,2.4713,2.4713,0,0,1-.6801,1.8243,1.16715,1.16715,0,0,1-.92239.246c-1.07761-.1513-2.10741-1.5507-2.11821-1.5673-1.9067-3.0987-4.0019-6.1563-6.7939-6.5469a4.63717,4.63717,0,0,0-1.5694.0586,6.00431,6.00431,0,0,0-.8398.2402,3.84184,3.84184,0,0,0-2.4023,2.8574,4.73688,4.73688,0,0,0,.2133,2.6885.69281.69281,0,0,0,.5762.4512.82314.82314,0,0,0,.273-.0078.74267.74267,0,0,0,.3872-.2158.86389.86389,0,0,0,.1303-.8868,3.23275,3.23275,0,0,1-.10839-1.708,2.33013,2.33013,0,0,1,1.44729-1.7646,4.09748,4.09748,0,0,1,.5635-.1612,3.25943,3.25943,0,0,1,1.1343-.0439c1.6914.2373,3.2373,1.8145,5.7055,5.8232a5.26866,5.26866,0,0,0,3.377,2.7237,2.5083,2.5083,0,0,0,.8506-.0244,2.22749,2.22749,0,0,0,.6167-.2246c1.854-1,2.581-4.7862-.2032-10.7344-2.374-5.0762.8731-8.3418,3.7388-11.2237,2.7192-2.7334,3.7774-4.2617,2.8579-6.0927A3.70781,3.70781,0,0,0,62.55131,109.8303Z" transform="translate(66.83844)"/><path class="cls-6" d="M59.6465,145.7659a.86036.86036,0,0,0-.3921-.1514,1.68591,1.68591,0,0,0-.5615.0313,5.03825,5.03825,0,0,1-1.71.039,7.80991,7.80991,0,0,1-2.8418-1.0429,9.20682,9.20682,0,0,1-2.8667-2.584.75619.75619,0,0,0-.5024-.3184.608.608,0,0,0-.2061.0059l-.18159.0371a.66794.66794,0,0,0-.41851,1.0293,10.58693,10.58693,0,0,0,3.4112,3.1269,9.56506,9.56506,0,0,0,3.5039,1.2852,8.11735,8.11735,0,0,0,2.81341-.1152c.24269-.0508.30569-.1582.33739-.2676a1.00788,1.00788,0,0,0,.003-.4395A1.05347,1.05347,0,0,0,59.6465,145.7659Z" transform="translate(66.83844)"/><path class="cls-6" d="M50.55231,122.8743a7.46105,7.46105,0,0,0-1.97471-.5733,6.6379,6.6379,0,0,0-2.2646.0733,7.86456,7.86456,0,0,0-2.6924,1.1445,25.00342,25.00342,0,0,0-2.4731,1.8906,6.35912,6.35912,0,0,1-2.5738,1.6534,2.24528,2.24528,0,0,1-.7739.0263,2.63478,2.63478,0,0,1-.8906-.3086,2.3759,2.3759,0,0,1-.4795-.333l-.4263-.3877-.1313-.5625c-.2173-.9365.268-2.6924,2.2807-4.8144a11.38042,11.38042,0,0,1,5.6192-2.8262.75983.75983,0,0,0,.2954-1.3457.70581.70581,0,0,0-.5806-.1426,12.8,12.8,0,0,0-6.4262,3.2774c-2.0137,2.123-2.9649,4.2539-2.6768,6.0019a3.33617,3.33617,0,0,0,1.8237,2.4649,4.46,4.46,0,0,0,1.46581.5019,3.20835,3.20835,0,0,0,1.10989-.0351,8.32039,8.32039,0,0,0,3.3286-2.0137,23.58454,23.58454,0,0,1,2.333-1.7871,6.24947,6.24947,0,0,1,2.1509-.9063,5.43411,5.43411,0,0,1,1.85161-.0595,5.72027,5.72027,0,0,1,1.62839.4863.67.67,0,0,0,.1855.0547.50687.50687,0,0,0,.1807-.0049.388.388,0,0,0,.19141-.0957l.12739-.1201a.756.756,0,0,0-.20839-1.2588Z" transform="translate(66.83844)"/><path class="cls-6" d="M84.1939,102.2503a10.79152,10.79152,0,0,0-3.7588-1.335,7.36515,7.36515,0,0,0-2.501.0605,5.33739,5.33739,0,0,0-2.9712,1.6534,4.28863,4.28863,0,0,0,.06741,5.5029,1.93871,1.93871,0,0,1,.46379,1.5,1.86176,1.86176,0,0,1-.9492,1.1992c-.2202.1367-.59859.3281-1.0351.5488a12.826,12.826,0,0,0-2.4136,1.4297c.03911.2666.1187.3741.1406.3809a.97211.97211,0,0,0,.14551.0312c1.33549.1866,4.835-1.2597,5.48539-2.7539a3.21255,3.21255,0,0,0-.6861-3.3066,2.66511,2.66511,0,0,1-.083-3.544,3.73813,3.73813,0,0,1,2.1138-1.1513,5.94787,5.94787,0,0,1,2.0205-.044,9.23593,9.23593,0,0,1,3.2241,1.1416,34.005,34.005,0,0,1,5.982,4.9864c1.7129,1.6523,3.4839,3.3593,4.33931,3.4795l.00249.0009c.3921.0049.4301-.0996.4702-.4922C93.61431,110.5051,88.2607,104.5325,84.1939,102.2503Z" transform="translate(66.83844)"/><path class="cls-6" d="M83.6328,109.0208a.36068.36068,0,0,0-.1011-.0303.35141.35141,0,0,0-.1147.0049.42624.42624,0,0,0-.3198.3066l-.1885.7178a.34783.34783,0,0,0,.1729.4101c1.4375.6729,3.1479,1.6397,3.6142,3.1514a1.73466,1.73466,0,0,1-.1636,1.4277,2.75172,2.75172,0,0,1-1.4917,1.125,14.66571,14.66571,0,0,1-4.0117.1084l-.77149-.08a17.32043,17.32043,0,0,0-4.07911.3691,20.28916,20.28916,0,0,0-6.5063,2.5889c-4.4048,2.6933-6.7237,5.247-6.89159,7.5898a4.112,4.112,0,0,0,1.70749,3.544,3.8771,3.8771,0,0,0,1.916.9502,2.83707,2.83707,0,0,0,.9824-.0371c1.45611-.2999,2.8955-1.5948,4.0606-2.6407.5874-.5283,1.1948-1.0742,1.853-1.6045a13.71588,13.71588,0,0,1,5.5791-2.4199,9.61266,9.61266,0,0,1,3.1021-.2822,2.13937,2.13937,0,0,1,1.2387.5478,2.38454,2.38454,0,0,1,.68461,2.2364c-.24561.8232-1.04051,1.374-2.36031,1.6357a11.63422,11.63422,0,0,0-5.7295,2.5801c-2.334,2-3.13719,4.581-2.4551,7.8945a.67922.67922,0,0,0,.6011.6338,1.12029,1.12029,0,0,0,.352-.0088.91572.91572,0,0,0,.4844-.2637,1.227,1.227,0,0,0,.1562-1.0966,5.86058,5.86058,0,0,1,1.8418-6.0166,10.36706,10.36706,0,0,1,5.0738-2.252c2.2519-.4863,3.832-1.0566,3.6635-3.9814a3.21693,3.21693,0,0,0-2.0053-2.9112,5.19447,5.19447,0,0,0-1.3828-.374,10.87358,10.87358,0,0,0-3.5977.1934,15.67373,15.67373,0,0,0-6.1895,2.7119c-.7153.5752-1.3569,1.1523-1.9238,1.6621l-.2231.2021c-1.3711,1.2334-2.0596,1.8536-2.814,2.0088a3.12872,3.12872,0,0,1-1.0644.0489,2.56716,2.56716,0,0,1-2.0489-2.8545c.0894-1.2578,1.2329-3.3907,6.1748-6.4121a18.88046,18.88046,0,0,1,6.0449-2.4151,15.40213,15.40213,0,0,1,3.7247-.3262l.125.0157a15.5075,15.5075,0,0,0,4.8623-.0528,4.78014,4.78014,0,0,0,2.4004-1.0996,2.67755,2.67755,0,0,0,.7822-2.3252C88.0874,111.5735,85.63531,109.9339,83.6328,109.0208Z" transform="translate(66.83844)"/><path class="cls-6" d="M62.6895,94.8196c-.3775-.0801-.7998-.1553-1.2671-.2207a30.55365,30.55365,0,0,0-10.291.5488,21.9117,21.9117,0,0,0-10.855,5.8203.75805.75805,0,0,0,.0971,1.1651l.0494.0361a.64257.64257,0,0,0,.2587.0908.78442.78442,0,0,0,.2701-.0088.76247.76247,0,0,0,.3813-.205A20.38761,20.38761,0,0,1,51.3814,96.634a29.21385,29.21385,0,0,1,9.8198-.5351c.4472.0625.8506.1357,1.2627.2217a.70137.70137,0,0,0,.2431-.0078.75632.75632,0,0,0,.51131-.3819.74192.74192,0,0,0,.02439-.6728A.77961.77961,0,0,0,62.6895,94.8196Z" transform="translate(66.83844)"/><path class="cls-6" d="M50.6997,102.9876a7.08644,7.08644,0,0,0-2.7973.2509.78617.78617,0,0,0-.5074.458.72052.72052,0,0,0,.0435.6426.75236.75236,0,0,0,.5972.3487,1.562,1.562,0,0,0,.2788.0127,4.82244,4.82244,0,0,1,.8696.039,2.34115,2.34115,0,0,1,2.2656,2.2363,2.94791,2.94791,0,0,1-2.4541,2.8653,20.37657,20.37657,0,0,1-3.542.3359,20.14188,20.14188,0,0,0-3.7095.418c-2.7373.5635-6.5102,2.6064-6.52679,3.3105a.66389.66389,0,0,0,.48679.2657,8.58828,8.58828,0,0,0,3.4878-1.0528,15.89207,15.89207,0,0,1,2.8613-1.0478,18.499,18.499,0,0,1,3.4248-.3877,20.91456,20.91456,0,0,0,3.8125-.3701c2.0674-.4248,3.4073-1.1885,4.0962-2.333a4.186,4.186,0,0,0-.2412-4.4532A3.1786,3.1786,0,0,0,50.6997,102.9876Z" transform="translate(66.83844)"/><path class="cls-6" d="M72.2944,96.4436a.78581.78581,0,0,0-.3222-.123.699.699,0,0,0-.2471.0088.75654.75654,0,0,0-.1846.0625c-2.05119,1.0039-3.2285,2.3681-3.498,4.0546-.0444.2852-.0923.5245-.1367.7217l-.4702,2.0908-2.3218-.8964a11.31,11.31,0,0,0-2.562-.7647,5.336,5.336,0,0,0-1.83649.0449c-.10351.0205-.20751.0469-.311.0752a10.05776,10.05776,0,0,0-1.05471.3535.72244.72244,0,0,0-.456.586.76051.76051,0,0,0,.0781.4697c.0932.0166.1933.0332.2988.0479a4.57311,4.57311,0,0,0,1.4444.0156s.269-.0654.3027-.0723a3.89645,3.89645,0,0,1,1.3389-.0312,9.76719,9.76719,0,0,1,2.1967.6718,8.41937,8.41937,0,0,0,1.8575.5782,2.511,2.511,0,0,0,.8637-.0137,2.03221,2.03221,0,0,0,.6021-.2295c1.0815-.6182,1.4516-2.1465,1.6533-3.4092.18751-1.1826,1.10551-2.1797,2.72751-2.9629a.73567.73567,0,0,0,.357-.7988A.74679.74679,0,0,0,72.2944,96.4436Z" transform="translate(66.83844)"/><path class="cls-6" d="M42.7632,129.8753a6.31485,6.31485,0,0,1-4.5112,2.791.89176.89176,0,0,0-.752.9082.77247.77247,0,0,0,.7368.8388l.063.0079c1.9776.1914,3.3657-1.5889,3.8706-2.3633C42.9282,130.8977,42.898,129.7083,42.7632,129.8753Z" transform="translate(66.83844)"/></g><polygon class="cls-13" points="67.333 48.094 67.333 145.477 146.252 190.449 225.171 145.477 225.171 48.094 146.252 93.073 67.333 48.094"/><path class="cls-10" d="M156.1997,48.051,80.4829,3.9153a3.7902,3.7902,0,0,0-3.8047-.0068L2.5962,46.6887a3.79062,3.79062,0,0,0-.0132,6.5577L77.7515,97.0618a3.79275,3.79275,0,0,0,3.7832.0195l74.6308-42.4609A3.79032,3.79032,0,0,0,156.1997,48.051Z" transform="translate(66.83844)"/><polygon class="cls-10" points="67.54 50.489 224.92 51.552 224.92 47.873 67.54 46.812 67.54 50.489"/><path class="cls-14" d="M156.1997,44.6506,80.4829.5159A3.79021,3.79021,0,0,0,76.6782.5081L2.5962,43.2883A3.79062,3.79062,0,0,0,2.583,49.846L77.7515,93.6614a3.79275,3.79275,0,0,0,3.7832.0195L156.1655,51.22A3.79032,3.79032,0,0,0,156.1997,44.6506Z" transform="translate(66.83844)"/><polygon class="cls-10" points="113.101 47.953 146.625 67.494 179.127 49.003 145.363 29.322 113.101 47.953"/><polygon class="cls-15" points="113.101 46.655 146.625 66.196 179.127 47.706 145.363 28.025 113.101 46.655"/><polygon class="cls-6" points="139.304 46.708 146.705 51.023 152.777 47.568 145.332 43.228 139.304 46.708"/><polygon class="cls-5" points="166.394 47.486 168.326 48.612 169.911 47.71 167.967 46.577 166.394 47.486"/><polygon class="cls-5" points="145.065 59.681 146.997 60.807 148.582 59.905 146.638 58.773 145.065 59.681"/><polygon class="cls-5" points="143.691 33.95 145.623 35.075 147.208 34.174 145.265 33.042 143.691 33.95"/><polygon class="cls-5" points="122.542 46.358 124.474 47.484 126.059 46.582 124.116 45.449 122.542 46.358"/><path class="cls-7" d="M48.687,46.6604,79.794,64.7923l30.0561-17.0997L78.522,29.4319Zm31.1206,15.585L53.0855,46.6692,78.5171,31.9837l26.9097,15.6865Z" transform="translate(66.83844)"/><path class="cls-5" d="M65.3975,46.9016l14.1152,8.2285,13.6177-7.747L78.9146,39.0969Zm14.1191,7.5918-13.02-7.5888,12.4165-7.17,13.1118,7.6436Z" transform="translate(66.83844)"/><path class="cls-10" d="M154.7529,47.134,79.0342,2.9973a.93044.93044,0,0,0-.9185-.0009L4.0332,45.7776a.9175.9175,0,0,0-.0034,1.5869L79.1987,91.179a.91226.91226,0,0,0,.9151.0039l74.6308-42.459a.91716.91716,0,0,0,.0083-1.5899Zm-.2265,1.2051L79.8955,90.8001a.48693.48693,0,0,1-.4751-.002L4.252,46.9837a.47652.47652,0,0,1,.0019-.8243L78.3364,3.3782a.48168.48168,0,0,1,.2378-.0635.49015.49015,0,0,1,.2393.0635l75.7173,44.1377a.47443.47443,0,0,1-.0044.8232Z" transform="translate(66.83844)"/></g></g></g></svg>