<svg xmlns="http://www.w3.org/2000/svg" xmlns:xlink="http://www.w3.org/1999/xlink" width="164.17123" height="210.06678" viewBox="0 0 164.17123 210.06678"><defs><style>.cls-1{fill:none;}.cls-2{isolation:isolate;}.cls-3{fill:#555553;}.cls-12,.cls-4{fill:#222220;}.cls-5{fill:#85fdf3;}.cls-6{fill:#b0b8ba;}.cls-7{mix-blend-mode:screen;opacity:0.5;fill:url(#Áåçûìÿííûé_ãðàäèåíò_49);}.cls-8{fill:#fff;}.cls-9{clip-path:url(#clip-path);}.cls-10{fill:#5ec0bf;}.cls-11{fill:#298d85;}.cls-12{fill-rule:evenodd;}</style><linearGradient id="Áåçûìÿííûé_ãðàäèåíò_49" x1="96.05338" y1="174.38719" x2="96.05338" y2="128.29299" gradientUnits="userSpaceOnUse"><stop offset="0" stop-color="#fff"/><stop offset="1" stop-color="#85fdf3"/></linearGradient><clipPath id="clip-path"><path class="cls-1" d="M25.05213,141.68688a4.45174,4.45174,0,0,1,1.8584-.4043,4.51627,4.51627,0,0,1,4.5064,4.5157v24.7236a8.4291,8.4291,0,0,0,12.10151,7.5859l16.50049-7.9804a7.03614,7.03614,0,0,1,9.8658,4.6054c1.9394,7.6485,4.47071,19.1309,4.749,27.9014.018.5205.0273,1.0322.0273,1.5264l1.0952-.8623,76.55621-42.8467s44.99219-141.0557-34.76081-141.0557c-31.52,0-85.9687,45.2119-86.11619,93.2139-.00191.6641-1.96681,1.9385-2.26321,2.5312l-10.0273,20.4502A4.50957,4.50957,0,0,0,25.05213,141.68688Z"/></clipPath></defs><g class="cls-2"><g id="Layer_2" data-name="Layer 2"><g id="Layer_1-2" data-name="Layer 1"><path class="cls-3" d="M62.00623,169.51408c-4.7924,1.0566-13.4946,8.1738-13.4946,8.1738,4.21481-2.0381,10.8784-.7441,10.8784,9.4727,0,10.2178,14.3565,17.1435,14.3565,17.1435,2.0434-4.7646-3.2735-25.8593-3.7354-28.2841C69.54923,173.59608,66.79823,168.45748,62.00623,169.51408Z"/><path class="cls-3" d="M130.61323,18.77288S109.86563-2.899,66.32173.32758c-4.9712.3681-61.00829,13.5439-61.00829,56.3955-.16021.5801-.31011,1.1699-.46,1.75-1.33981,1.8203-3.04981,3.0703-3.5,5.3203-.58011,2.9394.52639,4.5781,1.24019,6.4199,3.4302,8.8496,1.5152,15.2754-1.1704,21.96-4.7407,11.8008,3.6304,40.3701,6.66021,52.5097,1.43989,9.1006-2.31981,24.6905,14.91989,32.0596,27.02,11.5606,45.7002-4.959,67.71-11.709,19.2402-5.8506,14.9799-27.6806,18.79-44.8203a15.11989,15.11989,0,0,0,2.4302.1192l-3.52-34.879a164.41808,164.41808,0,0,0,2.2197-18.1103C122.44323,40.143,130.61323,18.77288,130.61323,18.77288Z"/><path class="cls-4" d="M118.79383,17.57458c-31.52,0-88.4453,42.8399-89.1631,95.6446a4.45275,4.45275,0,0,1-.4585,1.9218l-10.0273,20.4502a4.509,4.509,0,0,0,5.9072,6.0948,4.46451,4.46451,0,0,1,1.8584-.4034,4.51686,4.51686,0,0,1,4.5064,4.5157v24.7236a8.4291,8.4291,0,0,0,12.10151,7.5859l16.50049-7.9804a7.03614,7.03614,0,0,1,9.8658,4.6054c1.9394,7.6485,4.47071,19.1309,4.749,27.9014.018.5205.0273,1.0322.0273,1.5264l1.0952-.8623,43.836-34.6436.7007-.5566-5.9161-19.3369a24.49661,24.49661,0,0,1-.332-13.1963,148.79668,148.79668,0,0,1,18.8164-42.877C149.62153,66.65468,150.51944,17.57458,118.79383,17.57458Z"/><path class="cls-3" d="M119.72253,169.29528c-5.84909-4.7597-14.3437-7.7636-23.788-7.7636-11.3262,0-21.2676,4.3105-26.9478,10.8027a6.86791,6.86791,0,0,1,1.5884,2.9404c1.917,7.5245,4.4204,18.8213,4.69531,27.4502.36429.2305.73679.4512,1.10989.6543a39.748,39.748,0,0,0,19.5542,4.8926c17.6455,0,31.9541-10.4658,31.9541-23.3701C127.88863,178.90468,124.79973,173.43788,119.72253,169.29528Z"/><path class="cls-4" d="M96.05413,171.352c-9.6079,0-17.3965,5.4765-17.3965,12.2324,0,6.7549,7.7886,12.2315,17.3965,12.2315,9.6074,0,17.396-5.4766,17.396-12.2315C113.45013,176.82848,105.66153,171.352,96.05413,171.352Z"/><path class="cls-5" d="M96.05413,180.00728c-2.8101,0-5.0874,1.6015-5.0874,3.5771,0,1.9746,2.2773,3.5762,5.0874,3.5762,2.8091,0,5.0869-1.6016,5.0869-3.5762C101.141,181.60878,98.86323,180.00728,96.05413,180.00728Z"/><path class="cls-5" d="M96.05363,174.83148c-7.0537,0-12.7925,3.9267-12.7925,8.7529s5.7388,8.7529,12.7925,8.7529,12.7925-3.9267,12.7925-8.7529S103.10733,174.83148,96.05363,174.83148Zm0,17.0566c-6.8066,0-12.3438-3.7246-12.3438-8.3037s5.5372-8.3047,12.3438-8.3047,12.3437,3.7256,12.3437,8.3047S102.86023,191.88808,96.05363,191.88808Z"/><path class="cls-6" d="M120.85783,165.88318l-2.2705,2.7823c4.9902,4.0703,8.2139,10.2236,8.2139,15.6748,0,12.206-13.8741,22.1367-30.92779,22.1367a44.32072,44.32072,0,0,1-20.352-5.4043l-1.77491,3.1221a47.49044,47.49044,0,0,0,22.12691,5.872c19.03369,0,34.51809-11.541,34.51809-25.7265C130.39153,177.853,126.64933,170.60878,120.85783,165.88318Z"/><path class="cls-6" d="M118.79683,15.78168c-16.5767,0-39.0953,11.1924-57.3682,28.5136-12.3555,11.712-33.1489,36.2364-33.59619,68.9004a2.72766,2.72766,0,0,1-.26811,1.1563l-10.0346,20.4433a6.30675,6.30675,0,0,0,8.2573,8.5274,2.71607,2.71607,0,0,1,3.834,2.4746V170.52a10.22449,10.22449,0,0,0,14.6748,9.206l16.5068-7.9805a5.22672,5.22672,0,0,1,7.3423,3.4268c2.1519,8.4824,5.791,24.0527,5.6016,29.1318l2.6396-2.7568c0-8.958-2.5586-18.5762-4.76069-27.2578a8.81788,8.81788,0,0,0-12.38531-5.7774l-16.5063,7.9805a6.634,6.634,0,0,1-9.522-5.9726v-24.7227a6.30744,6.30744,0,0,0-8.9028-5.748,2.716,2.716,0,0,1-3.5567-3.6719L30.787,115.934a6.31495,6.31495,0,0,0,.6367-2.6894c.42871-31.3457,20.5303-55.0205,32.4751-66.3428,17.64161-16.7236,39.1909-27.5283,54.898-27.5283,8.6152,0,15.059,3.8037,19.1528,11.3076,8.1289,14.8994,5.1069,42.8506-6.5986,61.0361a151.3827,151.3827,0,0,0-19.0455,43.4024,26.25589,26.25589,0,0,0,.356,14.1679l5.9141,19.336,3.4331-1.0508-5.9141-19.335a22.67615,22.67615,0,0,1-.3081-12.2314,147.65067,147.65067,0,0,1,18.584-42.3457c12.5434-19.4873,15.563-48.5117,6.7314-64.6992C136.39833,20.33928,128.68493,15.78168,118.79683,15.78168Z"/><path class="cls-7" d="M78.704,184.435c.6221,6.3574,8.14941,11.3809,17.3501,11.3809,9.2002,0,16.728-5.0235,17.3496-11.3809l38.9922-85.917H39.71083Z"/><polygon class="cls-5" points="65.671 142.812 66.33 143.18 66.33 137.112 65.671 136.745 65.671 142.812"/><polygon class="cls-5" points="133.878 125.085 134.538 125.453 134.538 119.385 133.878 119.018 133.878 125.085"/><polygon class="cls-5" points="91.332 129.526 91.992 129.893 91.992 123.826 91.332 123.457 91.332 129.526"/><polygon class="cls-5" points="54.57 122.268 55.23 122.635 55.23 116.568 54.57 116.2 54.57 122.268"/><polygon class="cls-8" points="129.91 134.481 130.57 134.85 130.57 128.782 129.91 128.413 129.91 134.481"/><polygon class="cls-5" points="128.808 121.034 129.468 121.403 129.468 115.334 128.808 114.966 128.808 121.034"/><polygon class="cls-5" points="58.877 127.132 59.537 127.5 59.537 121.433 58.877 121.065 58.877 127.132"/><polygon class="cls-5" points="126.602 128.662 127.262 129.03 127.262 122.962 126.602 122.594 126.602 128.662"/><polygon class="cls-5" points="85.819 131.388 86.479 131.756 86.479 125.688 85.819 125.321 85.819 131.388"/><polygon class="cls-5" points="123.012 142.866 123.672 143.234 123.672 137.166 123.012 136.798 123.012 142.866"/><polygon class="cls-5" points="123.012 152.579 123.672 152.948 123.672 146.879 123.012 146.512 123.012 152.579"/><polygon class="cls-5" points="83.614 127.33 84.274 127.7 84.274 121.631 83.614 121.263 83.614 127.33"/><polygon class="cls-8" points="112.146 165.649 112.806 166.016 112.806 159.949 112.146 159.58 112.146 165.649"/><polygon class="cls-5" points="121.027 129.925 121.686 130.293 121.686 124.226 121.027 123.858 121.027 129.925"/><polygon class="cls-5" points="117.216 138.648 117.876 139.016 117.876 132.949 117.216 132.58 117.216 138.648"/><polygon class="cls-5" points="117.546 153.76 118.206 154.128 118.206 148.061 117.546 147.692 117.546 153.76"/><polygon class="cls-5" points="115.011 159.941 115.671 160.309 115.671 154.241 115.011 153.873 115.011 159.941"/><polygon class="cls-8" points="78.101 126.691 78.761 127.059 78.761 120.991 78.101 120.623 78.101 126.691"/><polygon class="cls-5" points="115.011 146.03 115.671 146.399 115.671 140.33 115.011 139.962 115.011 146.03"/><polygon class="cls-5" points="113.908 129.323 114.568 129.69 114.568 123.622 113.908 123.254 113.908 129.323"/><polygon class="cls-5" points="112.806 150.406 113.466 150.774 113.466 144.706 112.806 144.338 112.806 150.406"/><polygon class="cls-8" points="107.81 147.073 108.469 147.441 108.469 141.373 107.81 141.005 107.81 147.073"/><polygon class="cls-5" points="108.912 126.254 109.572 126.622 109.572 120.554 108.912 120.186 108.912 126.254"/><polygon class="cls-5" points="107.81 161.651 108.469 162.019 108.469 155.952 107.81 155.583 107.81 161.651"/><polygon class="cls-5" points="106.707 136.09 107.367 136.458 107.367 130.391 106.707 130.022 106.707 136.09"/><polygon class="cls-5" points="110.557 186.075 111.217 186.444 111.217 180.375 110.557 180.007 110.557 186.075"/><polygon class="cls-5" points="84.816 174.202 85.476 174.571 85.476 168.502 84.816 168.134 84.816 174.202"/><polygon class="cls-5" points="104.502 150.791 105.162 151.16 105.162 145.092 104.502 144.723 104.502 150.791"/><polygon class="cls-8" points="50.264 115.432 50.923 115.799 50.923 109.732 50.264 109.364 50.264 115.432"/><polygon class="cls-5" points="102.296 163.514 102.956 163.881 102.956 157.814 102.296 157.446 102.296 163.514"/><polygon class="cls-5" points="101.194 130.652 101.854 131.02 101.854 124.952 101.194 124.584 101.194 130.652"/><polygon class="cls-5" points="101.194 140.366 101.854 140.734 101.854 134.665 101.194 134.297 101.194 140.366"/><polygon class="cls-5" points="97.226 161.559 97.886 161.928 97.886 155.86 97.226 155.492 97.226 161.559"/><polygon class="cls-5" points="98.329 151.766 98.989 152.134 98.989 146.067 98.329 145.699 98.329 151.766"/><polygon class="cls-5" points="83.41 188.319 84.069 188.687 84.069 182.62 83.41 182.251 83.41 188.319"/><polygon class="cls-5" points="96.784 126.434 97.443 126.802 97.443 120.735 96.784 120.366 96.784 126.434"/><polygon class="cls-5" points="139.234 117.312 139.894 117.68 139.894 111.612 139.234 111.244 139.234 117.312"/><polygon class="cls-5" points="94.579 147.727 95.238 148.094 95.238 142.028 94.579 141.659 94.579 147.727"/><polygon class="cls-5" points="85.146 154.985 85.806 155.352 85.806 149.285 85.146 148.916 85.146 154.985"/><polygon class="cls-5" points="94.579 133.816 95.238 134.184 95.238 128.117 94.579 127.748 94.579 133.816"/><polygon class="cls-5" points="110.227 175.022 110.887 175.39 110.887 169.323 110.227 168.953 110.227 175.022"/><polygon class="cls-5" points="92.373 138.192 93.033 138.56 93.033 132.493 92.373 132.123 92.373 138.192"/><polygon class="cls-5" points="103.842 175.831 104.502 176.199 104.502 170.131 103.842 169.763 103.842 175.831"/><polygon class="cls-5" points="102.74 154.277 103.399 154.645 103.399 148.578 102.74 148.209 102.74 154.277"/><polygon class="cls-5" points="101.637 189.674 102.297 190.042 102.297 183.975 101.637 183.606 101.637 189.674"/><polygon class="cls-5" points="99.762 168.388 100.421 168.756 100.421 162.689 99.762 162.321 99.762 168.388"/><polygon class="cls-5" points="100.535 150.29 101.194 150.659 101.194 144.591 100.535 144.223 100.535 150.29"/><polygon class="cls-5" points="99.432 136.843 100.092 137.211 100.092 131.143 99.432 130.776 99.432 136.843"/><polygon class="cls-5" points="98.329 178.815 98.989 179.182 98.989 173.115 98.329 172.746 98.329 178.815"/><polygon class="cls-5" points="97.226 144.471 97.886 144.839 97.886 138.772 97.226 138.404 97.226 144.471"/><polygon class="cls-5" points="96.124 191.537 96.784 191.905 96.784 185.837 96.124 185.469 96.124 191.537"/><polygon class="cls-8" points="95.021 158.675 95.681 159.043 95.681 152.975 95.021 152.608 95.021 158.675"/><polygon class="cls-5" points="95.021 168.388 95.681 168.756 95.681 162.689 95.021 162.321 95.021 168.388"/><polygon class="cls-5" points="93.919 187.48 94.579 187.848 94.579 181.78 93.919 181.412 93.919 187.48"/><polygon class="cls-5" points="92.816 175.022 93.476 175.39 93.476 169.323 92.816 168.953 92.816 175.022"/><polygon class="cls-5" points="91.714 148.953 92.373 149.321 92.373 143.252 91.714 142.885 91.714 148.953"/><polygon class="cls-5" points="90.611 154.457 91.27 154.826 91.27 148.757 90.611 148.389 90.611 154.457"/><polygon class="cls-5" points="89.508 132.744 90.168 133.112 90.168 127.044 89.508 126.676 89.508 132.744"/><polygon class="cls-5" points="88.406 175.75 89.065 176.118 89.065 170.05 88.406 169.682 88.406 175.75"/><polygon class="cls-8" points="88.406 186.84 89.065 187.207 89.065 181.14 88.406 180.772 88.406 186.84"/><polygon class="cls-5" points="88.406 161.839 89.065 162.207 89.065 156.139 88.406 155.772 88.406 161.839"/><polygon class="cls-8" points="87.303 145.131 87.963 145.499 87.963 139.432 87.303 139.063 87.303 145.131"/><polygon class="cls-5" points="86.201 166.215 86.86 166.582 86.86 160.515 86.201 160.147 86.201 166.215"/><polygon class="cls-5" points="83.41 163.617 84.069 163.985 84.069 157.916 83.41 157.549 83.41 163.617"/><polygon class="cls-5" points="82.307 142.063 82.967 142.431 82.967 136.364 82.307 135.995 82.307 142.063"/><polygon class="cls-5" points="81.205 177.46 81.864 177.828 81.864 171.76 81.205 171.393 81.205 177.46"/><polygon class="cls-5" points="80.102 151.899 80.761 152.268 80.761 146.2 80.102 145.831 80.102 151.899"/><polygon class="cls-5" points="80.102 138.077 80.761 138.446 80.761 132.377 80.102 132.009 80.102 138.077"/><polygon class="cls-5" points="112.806 138.077 113.466 138.446 113.466 132.377 112.806 132.009 112.806 138.077"/><polygon class="cls-8" points="77.896 166.6 78.557 166.968 78.557 160.901 77.896 160.533 77.896 166.6"/><polygon class="cls-5" points="76.794 132.257 77.454 132.625 77.454 126.557 76.794 126.19 76.794 132.257"/><polygon class="cls-5" points="74.367 133 75.027 133.369 75.027 127.301 74.367 126.932 74.367 133"/><polygon class="cls-8" points="74.589 146.461 75.248 146.828 75.248 140.761 74.589 140.393 74.589 146.461"/><polygon class="cls-5" points="74.589 156.174 75.248 156.542 75.248 150.475 74.589 150.107 74.589 156.174"/><polygon class="cls-5" points="72.162 128.944 72.822 129.311 72.822 123.244 72.162 122.875 72.162 128.944"/><polygon class="cls-5" points="71.46 162.808 72.12 163.176 72.12 157.108 71.46 156.741 71.46 162.808"/><polygon class="cls-8" points="71.281 136.739 71.941 137.107 71.941 131.039 71.281 130.67 71.281 136.739"/><polygon class="cls-5" points="70.178 142.243 70.838 142.612 70.838 136.543 70.178 136.175 70.178 142.243"/><polygon class="cls-5" points="69.076 120.53 69.736 120.898 69.736 114.83 69.076 114.461 69.076 120.53"/><polygon class="cls-5" points="62.394 123.922 63.054 124.29 63.054 118.223 62.394 117.855 62.394 123.922"/><polygon class="cls-5" points="66.649 128.303 67.309 128.671 67.309 122.604 66.649 122.236 66.649 128.303"/><polygon class="cls-5" points="67.973 149.625 68.633 149.994 68.633 143.926 67.973 143.557 67.973 149.625"/><polygon class="cls-5" points="62.064 134.973 62.724 135.342 62.724 129.274 62.064 128.906 62.064 134.973"/><polygon class="cls-5" points="106.25 172.613 106.91 172.981 106.91 166.913 106.25 166.545 106.25 172.613"/><g class="cls-9"><g id="brain"><path class="cls-10" d="M126.87344,31.71228c.002-.0088-.00781-.0107-.00781-.0107-.7021-.835-1.4028-1.6787-2.0771-2.5176-4.4195-5.4922-14.5586-4.8818-22.7115-5.6484-6.664-.625-11.8828-2.9512-17.9458-1.5752-5.5703,1.2646-9.2656,7.0303-13.7549,9.3467-5.6591,2.9033-13.0942,1.4892-15.2138,5.2168-1.1944,2.0986-1.2945,3.2998-3.1748,5.0576-4.0781,3.8076-10.8999,6.4492-14.9585,11.0996-2.5303,2.9033-2.17779,8.4795-3.8755,11.7656-4.0454,7.8096-3.1187,15.4277-5.002,24.042-1.2334,5.6357,3.0899,8.7344,5.9786,12.6328a15.16865,15.16865,0,0,1,1.4155,2.2881c4.1885,8.584,11.7007,7.0098,19.166,2.665,7.2988-4.2509,74.1533-59.8896,80.0625-64.8125.26811-.2304.41211-.3476.41211-.3476s-2.66111-2.7656-5.80471-6.3203C128.56633,33.68008,127.71773,32.70548,126.87344,31.71228Z"/><path class="cls-11" d="M126.87344,31.71228c.002-.0088-.00781-.0107-.00781-.0107-4.6475-3.8008-13.0703-5.3262-19.9165-5.9609-6.2764-.5831-11.106-.8926-16.8359.5615-5.2637,1.3369-12.3501,8.8525-16.6045,11.2353-5.3672,3-5.5948-1.124-10.8501,3.795-1.6885,1.5859-.377,2.5459-2.1739,4.3486-3.8774,3.9053-11.1987,7.4599-15.0668,12.2139-2.4048,2.9658-2.1167,8.6308-3.753,11.9755-3.875,7.9639,1.9624,16.583-4.91449,24.4639a9.37555,9.37555,0,0,0-2.62011,6.7871,15.16865,15.16865,0,0,1,1.4155,2.2881c4.1885,8.584,11.7007,7.0098,19.166,2.665,7.2988-4.2509,74.1533-59.8896,80.0625-64.8125C133.17423,39.37738,127.44133,32.17028,126.87344,31.71228Z"/><path class="cls-11" d="M53.97793,67.78948a34.14845,34.14845,0,0,0-4.91749.1113,11.76369,11.76369,0,0,0-8.73141,5.8018,13.16478,13.16478,0,0,0-.417,11.4336c1.1587,2.7431,2.4209,8.7246.8096,10.8798a2.45514,2.45514,0,0,1-2.2515.9981c-1.1904-.1348-5.686-3.0391-6.2979-1.9102-.3339.6182,1.8951,5.7442,7.73,5.793a5.49558,5.49558,0,0,0,4.8091-2.8154c2.001-3.9365.7178-10.0635-1.15089-14.4864a9.31527,9.31527,0,0,1,.23149-7.9697,7.71774,7.71774,0,0,1,5.8896-3.8115,13.28147,13.28147,0,0,1,3.5323-.1377c.8432.0947,2.8022-.3555,2.9404-1.6602A2.26633,2.26633,0,0,0,53.97793,67.78948Z"/><path class="cls-11" d="M56.02923,45.48868a16.73783,16.73783,0,0,0-2.1431-.0996,23.38905,23.38905,0,0,0-6.1582.9394,1.94214,1.94214,0,0,0-1.2627,1.1446,2.00881,2.00881,0,0,0,1.6133,2.7334,1.8392,1.8392,0,0,0,.7251-.0625,19.31834,19.31834,0,0,1,5.1426-.794,12.51377,12.51377,0,0,1,1.6069.0762,8.54522,8.54522,0,0,1,6.6836,4.0479,3.61991,3.61991,0,0,1-.1479,4.0693c-.5108.6484-1.7789,1.6934-4.542,1.3809a12.03418,12.03418,0,0,1-2.0122-.42,27.05066,27.05066,0,0,0-4.5567-.9316,21.51641,21.51641,0,0,0-11.51949,1.7392,1.98722,1.98722,0,0,0-1.13821,1.4336,1.94657,1.94657,0,0,0,.4951,1.7237,1.91668,1.91668,0,0,0,1.1983.5967,2.17432,2.17432,0,0,0,1.13281-.1827A17.9857,17.9857,0,0,1,50.578,61.52a22.69045,22.69045,0,0,1,3.8399.7851,15.49131,15.49131,0,0,0,2.622.5381c3.5078.3965,6.4073-.6162,8.1631-2.8506a7.56236,7.56236,0,0,0,.46241-8.501A12.61865,12.61865,0,0,0,56.02923,45.48868Z"/><path class="cls-11" d="M97.50183,23.185a1.85354,1.85354,0,0,0-.9726-.4111,1.99712,1.99712,0,0,0-1.4732,3.5429c2.9805,2.4453,3.0469,3.7256,3.0718,4.2071l.0078.1679-.0185.166a2.37644,2.37644,0,0,1-.5088,1.1817c-.9961,1.3242-1.9771,2.0254-2.8936,2.081a2.83276,2.83276,0,0,1-.5122-.0107c-1.5659-.1777-3.3369-1.7148-6.0845-4.5186l-.6547-.664a9.19185,9.19185,0,0,0-5.38089-2.8838,6.22371,6.22371,0,0,0-2.47411.21c-2.3526.6914-4.062,2.7744-4.6865,5.7167-.6797,3.1993,1.7793,7.8936,6.9233,13.2208a1.946,1.946,0,0,0,1.19631.5908,1.99479,1.99479,0,0,0,1.70649-3.3203c-1.41449-1.4873-6.0293-6.5518-5.9961-9.2696l.003-.2011.0424-.1973a4.08806,4.08806,0,0,1,1.2457-2.3897l.39351-.3076.49219-.0908.3862-.0537.3003.0342a5.25623,5.25623,0,0,1,3.0401,1.7353l.6303.6426c2.44191,2.4883,5.208,5.3096,8.5132,5.6826a6.587,6.587,0,0,0,1.16071.0293c2.14109-.1416,4.09759-1.3721,5.81539-3.6553a6.00629,6.00629,0,0,0,1.16161-5.0918C101.36853,26.768,99.21133,24.57458,97.50183,23.185Z"/><path class="cls-11" d="M69.91693,40.70448a25.1941,25.1941,0,0,0-7.5664-4.6787,1.94062,1.94062,0,0,0-.5303-.1387,1.86109,1.86109,0,0,0-2.0205,1.3711l-.0606.2246a1.869,1.869,0,0,0,1.0728,2.2051,21.46707,21.46707,0,0,1,6.3447,3.8584,25.645,25.645,0,0,1,3.7066,4.5274,1.94078,1.94078,0,0,0,1.4131.8925,1.79705,1.79705,0,0,0,.8364-.1015l.2231-.083a1.83155,1.83155,0,0,0,1.12061-1.1543,1.87642,1.87642,0,0,0-.20111-1.6153A29.58649,29.58649,0,0,0,69.91693,40.70448Z"/><path class="cls-10" d="M162.476,64.54048c-1.0723-5.625-4.4038-7.1748-6.6607-10.9776-3.81489-6.4287,2.499-7.8711-9.04389-15.7949-6.43361-4.416-21.24711-7.3877-34.24611-3.79-11.4112,3.1572-33.5196,13-46.85889,28.7197-12.57131,14.8144-19.17821,30.0986-16.53271,38.8525.7802,2.5821.0049,15.2783,8.5732,14.209,10.2861-1.2842,12.6714,5.3233,20.2373,6.8809,10.1621,2.0908,12.55421-1.2217,17.1284-.8018,5.377.4932,12.88681,2.6895,18.063,1.8789,5.17581-.8115,8.0181-4.6289,15.34081-6.9111,6.26809-1.9522,13.79159-7.1836,17.80669-10.8125,6.5107-5.8828,13.6636-3.9639,12.5415-12.8662-.4365-3.46,4.7554-6.9864,5.2954-11.6406.3989-3.4415-1.6602-7.3809-1.7827-10.3741C162.22744,68.435,162.92133,66.87738,162.476,64.54048Z"/><path class="cls-11" d="M77.32413,92.42718l-3.0171-1.0821,2.2573-2.2763a9.23559,9.23559,0,0,0,2.8213-7.9102,11.42494,11.42494,0,0,0-7.1689-9.1572,14.47761,14.47761,0,0,0-2.8452-.8975,12.72058,12.72058,0,0,0-9.981,1.8809,10.88306,10.88306,0,0,0-4.353,7.5742,2.01268,2.01268,0,0,0,1.5757,2.2168,2.11924,2.11924,0,0,0,1.0468-.0664,1.79279,1.79279,0,0,0,1.3038-1.5322,6.99426,6.99426,0,0,1,2.7763-5.002,8.72671,8.72671,0,0,1,6.8374-1.1884,10.58049,10.58049,0,0,1,2.0664.6503,7.56673,7.56673,0,0,1,4.8086,5.9913c.6831,5.7177-7.3164,7.8876-8.2812,8.1289,0,0-7.7075.5888.0122,3.8681,7.9077,3.3594,21.9922,6.8379,22.7221,12.5449.502,3.9229-1.1157,6.1846-2.562,7.3916-2.5957,2.1651-6.6445,2.8194-11.3994,1.8409a25.9902,25.9902,0,0,1-2.6054-.6836c-1.0899-.3467-10.6705-3.5-11.69239-7.5908a2.9349,2.9349,0,0,1,.75579-2.8194c1.1739-1.2002,3.1685-.9746,4.7749-.6445a43.202,43.202,0,0,1,9.2178,3.3535,2.02494,2.02494,0,0,0,.47851.1641,2.00543,2.00543,0,0,0,2.31059-2.5489,1.95685,1.95685,0,0,0-.9981-1.1855,46.40256,46.40256,0,0,0-11.0263-4.1758c-4.1055-.8447-6.8799-.2666-8.2476,1.7188a7.4344,7.4344,0,0,0-.73,6.6914c1.5591,4.5478,6.6465,8.4892,13.9566,10.8105a29.38666,29.38666,0,0,0,3.0127.791c5.956,1.2256,11.1875.2744,14.729-2.6806a11.75828,11.75828,0,0,0,3.956-10.9366C92.98133,98.99068,83.12393,94.50428,77.32413,92.42718Z"/><path class="cls-11" d="M52.84513,93.53068a1.82737,1.82737,0,0,0-.86869-.4453,1.92119,1.92119,0,0,0-2.08341,1.0185,13.664,13.664,0,0,0-1.35259,3.8848,12.14652,12.14652,0,0,0,.65279,6.0625,1.8048,1.8048,0,0,0,1.3599,1.1709,1.8823,1.8823,0,0,0,1.4692-.3008l.1778-.122a1.91777,1.91777,0,0,0,.6865-2.2139,8.11868,8.11868,0,0,1-.4429-3.9209,9.784,9.784,0,0,1,1.001-2.8106,1.8222,1.8222,0,0,0-.44629-2.1836Z"/><path class="cls-11" d="M145.11273,91.516a10.09848,10.09848,0,0,0-1.4107-.4023c-6.0468-1.2441-10.12059,4.4473-13.7812,10.3945-.19439.3125-3.8941,4.7032-4.23439-.4023-.11821-1.7666.46239-4.8369,2.59129-9.3858,4.6001-9.831-2.0132-16.4833-6.394-20.8876a22.93013,22.93013,0,0,1-3.6519-4.2188l-.5591-1.0693.6685-1.0039a2.50953,2.50953,0,0,1,1.894-1.1934,4.48014,4.48014,0,0,1,1.3609.0859c2.6631.5479,6.4804,3.3233,9.0757,6.5977,2.0112,2.5391,3.5004,3.8789,4.5527,4.0957a2.64027,2.64027,0,0,0,1.1352-.0557c.1031-.0224.377-.082.5635-.5781a2.5074,2.5074,0,0,0-.3056-2.2129c-.8096-1.1045-1.76619-2.3535-2.8409-3.709-1.9917-2.5136-6.6362-7.0312-11.414-8.0146a8.345,8.345,0,0,0-2.5327-.1494,6.56051,6.56051,0,0,0-5.3213,3.8652c-1.7852,3.5557.7661,6.5352,4.5664,10.3545,4.4448,4.4697,9.0405,9.0908,5.6142,16.415-4.5503,9.7237-3.2588,15.8721.03811,17.6504a4.328,4.328,0,0,0,1.17679.4278c2.5566.5244,5.3198-1.1719,7.3921-4.5411,4.3125-7.0039,6.7612-9.164,9.7046-8.5576a5.69821,5.69821,0,0,1,.7617.2178,2.79951,2.79951,0,0,1,1.7099,2.127,4.18326,4.18326,0,0,1-.1455,2.2138,2.13231,2.13231,0,0,0,.3955,2.1973,1.98146,1.98146,0,0,0,3.2613-.6406,8.13532,8.13532,0,0,0,.3623-4.6094A6.74589,6.74589,0,0,0,145.11273,91.516Z"/><path class="cls-11" d="M105.83483,62.67818a16.84784,16.84784,0,0,1-4.25039-1.5801c-1.82131-1.1182-.97031-2.377-.52011-2.9873,2.2759-3.0821,2.3877-6.8448.065-9.5225a9.07554,9.07554,0,0,0-5.0425-2.8203c-2.1948-.4512-5.751-.4609-10.2358,2.0566-6.8721,3.8565-12.6705,10.0577-15.5157,13.4122a1.9841,1.9841,0,0,0,3.0225,2.5712c3.2773-3.8603,8.4429-9.167,14.43161-12.5283a11.22167,11.22167,0,0,1,7.53669-1.6074,4.97475,4.97475,0,0,1,2.8115,1.5127c1.0937,1.2646,1.0361,2.8838-.1577,4.4424-1.9771,2.5781-1.7232,4.6484-1.1617,5.9336,1.2217,2.8047,5.0811,4.2617,8.1651,5.0029a1.89439,1.89439,0,0,0,1.5264-.3438,1.99881,1.99881,0,0,0-.6749-3.5419Z"/><path class="cls-11" d="M109.11123,73.90178a32.14691,32.14691,0,0,0-10.313-4.1025,27.76432,27.76432,0,0,0-6.4966-.587l-1.2446.128a21.82966,21.82966,0,0,1-5.9502-.1543c-.2431-.0508-2.518-1.0244-1.9389-2.9024.642-2.084,3.2636-3.4863,5.1484-4.3681a1.35574,1.35574,0,0,0,.7109-1.5811l-.2905-1.1094a1.47367,1.47367,0,0,0-1.1196-1.0674,1.336,1.336,0,0,0-.8384.0967c-3.2857,1.4971-7.311,4.2129-7.833,8.6504a4.92854,4.92854,0,0,0,1.4512,4.2754,8.18253,8.18253,0,0,0,4.1137,1.9131,24.73875,24.73875,0,0,0,7.8086.0859l.1006-.0136.1025-.0049a22.82333,22.82333,0,0,1,5.4454.4941,28.29617,28.29617,0,0,1,9.0766,3.627c7.7227,4.7217,9.0484,7.833,9.1504,9.2646a3.52237,3.52237,0,0,1-1.5054,2.8311,4.34544,4.34544,0,0,1-.73189.5049l-.76561.4091-.8252-.2685c-.9746-.3154-2.11619-1.2481-4.3111-3.2217-.8886-.7998-1.895-1.7051-3.0058-2.5996a25.09191,25.09191,0,0,0-9.9102-4.3516c-3.2773-.6738-6.187-.5556-8.1904.3321a5.819,5.819,0,0,0-3.583,5.1972c-.2964,5.1475,2.6777,6.2139,6.3037,6.9961a15.34681,15.34681,0,0,1,7.4795,3.3037,8.29816,8.29816,0,0,1,2.5762,8.5078c-.501,2.4336,1.1181,2.9639,1.62591,3.0684a1.97182,1.97182,0,0,0,2.43849-1.6035c1.1182-5.4356-.2109-9.6817-4.062-12.9815a18.76553,18.76553,0,0,0-9.2246-4.166c-4.4336-.8808-3.0796-3.705-2.1743-4.5976.9829-.9668,3.1968-.7617,5.9678-.1924a20.3409,20.3409,0,0,1,8.27,3.5742c1.0034.8076,1.9179,1.6299,2.8388,2.458,1.8619,1.6729,4.17781,3.7559,6.6451,4.2637h.0005a5.88016,5.88016,0,0,0,5.1645-1.5811,7.13144,7.13144,0,0,0,2.9312-6.1631C119.86763,82.36858,116.15423,78.20938,109.11123,73.90178Z"/><path class="cls-11" d="M137.49213,36.76408c-8.6324-1.7754-14.6558-1.2549-18.1905-.5039a2.01039,2.01039,0,0,0-1.42819,1.1357,1.95372,1.95372,0,0,0,.06349,1.7725,1.98013,1.98013,0,0,0,1.3413.998,1.92936,1.92936,0,0,0,.7915-.0029c3.20071-.6816,8.6826-1.1523,16.7046.4981A30.66871,30.66871,0,0,1,151.893,48.81a2.00229,2.00229,0,0,0,.9951.5312,1.94354,1.94354,0,0,0,1.4257-.2431l.1021-.0713a1.98916,1.98916,0,0,0,.251-3.0547A34.634,34.634,0,0,0,137.49213,36.76408Z"/><path class="cls-11" d="M161.84023,64.11268a40.27779,40.27779,0,0,0-9.8467-3.4834,31.76027,31.76027,0,0,0-5.8833-.6631,29.376,29.376,0,0,1-5.3281-.5029c-2.9858-.6152-4.3862-2.3974-4.42969-3.0342-.32761-4.7461,5.232-3.3017,5.29249-3.289a1.98,1.98,0,0,0,2.1001-.9737,1.93861,1.93861,0,0,0,.1118-1.7002,2.02586,2.02586,0,0,0-1.3071-1.1845c-.478-.1426-.9507-.2617-1.40529-.3555a9.02456,9.02456,0,0,0-4.40381.0234,5.174,5.174,0,0,0-3.2314,2.6914c-1.5245,2.9952-1.6485,5.5899-.3677,7.7149,1.188,1.9746,3.4331,3.2773,6.8642,3.9834a33.08841,33.08841,0,0,0,6.0411.5889,27.72409,27.72409,0,0,1,5.1381.58,36.41159,36.41159,0,0,1,8.8912,3.1573,1.98335,1.98335,0,0,0,1.7641-3.5528Z"/><path class="cls-11" d="M124.93693,47.50428a16.05156,16.05156,0,0,0-1.7188-.5771c-.1792-.0488-.3564-.0908-.53269-.1279-2.85011-.586-5.40131.4199-7.26321,1.1533l-2.6933,1.04-.5181-2.3047c-.06539-.291-.1352-.6426-.2016-1.0625-.4605-2.8867-2.4297-5.1972-5.8521-6.8711a1.97047,1.97047,0,0,0-1.9751.1309,1.98483,1.98483,0,0,0,.1543,3.3945c2.2485,1.086,3.5142,2.4219,3.7608,3.9688.34031,2.1318.9834,4.7226,2.955,5.8466a3.91733,3.91733,0,0,0,1.169.4463c1.5542.3194,3.2007-.33,4.6714-.9111,1.6201-.6396,3.29491-1.2998,4.9961-.9502.0927.0195.40381.0986.4682.1113a9.33828,9.33828,0,0,0,3.33061-.1562,1.96908,1.96908,0,0,0,.45649-1.585A1.93173,1.93173,0,0,0,124.93693,47.50428Z"/><path class="cls-11" d="M162.476,64.54048c-1.0723-5.625-4.4038-7.1748-6.6602-10.9776-3.81539-6.4287,2.4985-7.8711-9.04439-15.7949-3.68121-2.5273-10.10991-4.5742-17.36871-5.1953a20.95255,20.95255,0,0,1,4.6201,2.2637c9.7598,6.6992,4.4204,7.9199,7.646,13.3545,1.9082,3.2148,4.7251,4.5263,5.6319,9.2822.3759,1.9756-.21,3.292-.1177,5.5566.104,2.5313,1.8452,5.8623,1.5078,8.7715-.4565,3.9356-4.8467,6.916-4.4775,9.8418.9482,7.5273-5.0992,5.9043-10.6036,10.8789-3.3955,3.0684-9.75629,7.4902-15.0561,9.1426-6.1914,1.9287-8.5947,5.1572-12.97119,5.8428-4.37651.6855-10.72611-1.1709-15.27251-1.5879-3.8676-.3555-5.8896,2.4453-14.4819.6777-6.3975-1.3174-13.8677-10.2197-18.9101-11.5508-4.2002-1.1084-4.7906-4.0986-5.4502-6.2812a11.89819,11.89819,0,0,1-.4454-2.6817c-2.352,6.0733-3.1001,11.459-1.8886,15.4668.7802,2.5821.0049,15.2783,8.5732,14.209,10.2861-1.2842,12.6714,5.3233,20.2373,6.8809,10.1621,2.0908,12.55421-1.2217,17.1284-.8018,5.377.4932,12.88681,2.6895,18.063,1.8789,5.17581-.8115,8.0181-4.6299,15.34081-6.9111,6.26809-1.9522,13.79159-7.1836,17.80669-10.8125,6.5107-5.8828,13.6636-3.9639,12.5415-12.8672-.4365-3.459,4.7554-6.9854,5.2954-11.6396.3989-3.4405-1.66059-7.3809-1.7827-10.3741C162.22744,68.434,162.92033,66.87738,162.476,64.54048Z"/><path class="cls-5" d="M52.44523,66.81678a35.277,35.277,0,0,0-4.57079.0938,11.02427,11.02427,0,0,0-8.25151,5.4053,12.34545,12.34545,0,0,0-.3789,10.7187c.7559,1.7881,3.1436,9.0449,1.024,11.8799a3.46693,3.46693,0,0,1-2.3135,1.2734,3.629,3.629,0,0,1-.9243.0156,9.03687,9.03687,0,0,1-4.2051-1.8105,2.577,2.577,0,0,0-.6148-.4941,3.14079,3.14079,0,0,0,.041,1.7353,6.15472,6.15472,0,0,0,4.8589,3.3486,4.97943,4.97943,0,0,0,1.2447-.0224c.1699-.0244.3423-.0557.5146-.0967a5.51814,5.51814,0,0,0,3.69291-2.9375c1.873-3.6855.62059-9.543-1.17581-13.7959a10.14994,10.14994,0,0,1,.269-8.6846,8.50388,8.50388,0,0,1,6.4766-4.2226l.34421-.0508a13.68315,13.68315,0,0,1,3.40869-.0908,2.11418,2.11418,0,0,0,.5035-.0205c.706-.0987,1.4824-.4532,1.5312-.9141C53.96963,67.68208,53.48433,66.96138,52.44523,66.81678Z"/><path class="cls-5" d="M34.44373,68.08828a1.28974,1.28974,0,0,0-.3066.0039,1.07448,1.07448,0,0,0-.791.5156,18.13072,18.13072,0,0,0-2.5625,7.7403,23.07878,23.07878,0,0,0,.372,7.2138,1.12874,1.12874,0,0,0,.9932.8702,1.15222,1.15222,0,0,0,.74461-.1709,1.1872,1.1872,0,0,0,.50979-1.294,20.96846,20.96846,0,0,1-.3037-6.3906,15.87564,15.87564,0,0,1,2.23191-6.7539,1.17143,1.17143,0,0,0-.88771-1.7344Z"/><path class="cls-5" d="M63.34413,49.768c-.7934-1.4678-2.6509-4.9082-8.78069-5.2451a25.4775,25.4775,0,0,0-4.67041.2295c-2.9747.416-3.97759,1.0605-4.0943,1.2519a1.06156,1.06156,0,0,0,.0235.9356c.4619.3076,2.82321.3135,6.9707-.0293a9.7445,9.7445,0,0,1,1.4326-.0791,9.35,9.35,0,0,1,7.2973,4.4492,4.42975,4.42975,0,0,1-.2129,4.9853,4.7071,4.7071,0,0,1-3.1782,1.6797,8.38248,8.38248,0,0,1-2.0971.0078,12.74129,12.74129,0,0,1-2.1514-.4482,26.24088,26.24088,0,0,0-4.418-.9023,21.96936,21.96936,0,0,0-5.0962.1953c-4.2334.5918-6.5493,1.7646-6.6567,2.2558a1.24187,1.24187,0,0,0,.2309,1.0264,2.88254,2.88254,0,0,0,2.5088.5156,21.02884,21.02884,0,0,0,2.9317-.7324,25.03083,25.03083,0,0,1,3.6279-.8848,8.84333,8.84333,0,0,1,2.2373-.0546,23.70291,23.70291,0,0,1,3.979.8125,14.59872,14.59872,0,0,0,2.4829.5117,11.12942,11.12942,0,0,0,2.7735-.0176,6.979,6.979,0,0,0,4.6552-2.5274,6.74454,6.74454,0,0,0,.3975-7.5839Z"/><path class="cls-5" d="M95.56583,22.03558a1.04059,1.04059,0,0,0-.5498-.2324,1.15509,1.15509,0,0,0-.2847.0039,1.19716,1.19716,0,0,0-.8916.6211,1.14468,1.14468,0,0,0,.2793,1.4462c2.4087,1.7666,3.5293,4.086,2.9951,6.2061a4.04993,4.04993,0,0,1-3.3706,3.0449,4.17983,4.17983,0,0,1-1.0542.0137c-1.8178-.2051-3.6406-1.7627-6.5761-4.7578l-.6534-.6641a8.39455,8.39455,0,0,0-4.8906-2.6445,5.51276,5.51276,0,0,0-1.3784.0156,5.38923,5.38923,0,0,0-.7715.167c-2.0576.6035-3.5581,2.4629-4.1191,5.1016-.61179,2.8818,1.8345,7.4316,6.7124,12.4824a1.13457,1.13457,0,0,0,.7021.3476,1.21436,1.21436,0,0,0,.3042-.0029,1.18106,1.18106,0,0,0,.7158-1.9414c-.2065-.2168-.496-.4941-.8374-.8242-2.1025-2.0234-6.0161-5.79-5.621-9.2881.3437-3.0381,2.0654-3.7256,3.0605-3.8643,1.5044-.2109,3.4077.5235,5.2227,2.0118a29.61321,29.61321,0,0,1,2.4741,2.3828c1.7651,1.833,3.4321,3.5644,5.4365,3.791a8.706,8.706,0,0,0,2.15431-.0078,5.32494,5.32494,0,0,0,3.78759-2.2901,8.28415,8.28415,0,0,0,1.3052-5.4306C99.20113,25.393,97.17473,23.34418,95.56583,22.03558Z"/><path class="cls-5" d="M67.92663,39.50818a24.44372,24.44372,0,0,0-7.3134-4.5117,1.17319,1.17319,0,0,0-.3091-.0801,1.098,1.098,0,0,0-.271.0039,1.03455,1.03455,0,0,0-.8652.7696l-.0606.2236a1.04793,1.04793,0,0,0,.60011,1.2373,22.33654,22.33654,0,0,1,6.59859,4.0254,26.46858,26.46858,0,0,1,3.8243,4.6738,1.13371,1.13371,0,0,0,.8169.5215,1.03158,1.03158,0,0,0,.2514-.0039.99614.99614,0,0,0,.209-.0527l.2222-.0821a1.01922,1.01922,0,0,0,.6308-.6484,1.06108,1.06108,0,0,0-.1157-.9141A28.74664,28.74664,0,0,0,67.92663,39.50818Z"/><path class="cls-5" d="M109.12153,24.88518a17.00764,17.00764,0,0,0-2.2403.4756.7636.7636,0,0,0-.458.79c.042.4746.5044.6211.8838.6602.5127.0508,1.0342.0761,1.565.1015a19.96322,19.96322,0,0,1,3.0957.3203q.75585.1539,1.5752.3809a15.85848,15.85848,0,0,1,6.2651,3.3682,1.083,1.083,0,0,0,.4961.2451,1.15688,1.15688,0,0,0,.3926.0137,1.19285,1.19285,0,0,0,.4321-.1504c.3105-.1797.6113-.4805.5859-.75C121.54923,29.38128,117.07853,23.77188,109.12153,24.88518Z"/><path class="cls-5" d="M69.77144,89.67028s8.57609-2.9687,7.55219-10.291a10.75655,10.75655,0,0,0-6.686-8.5322,13.826,13.826,0,0,0-2.6846-.8467,13.16991,13.16991,0,0,0-4.4814-.1533,10.66334,10.66334,0,0,0-4.8506,1.8926,11.06557,11.06557,0,0,0-4.03959,7.0928.92013.92013,0,0,0,.22759.8652,1.53466,1.53466,0,0,0,1.2695.4473.94752.94752,0,0,0,.8188-.9649,7.79864,7.79864,0,0,1,3.10311-5.5664,8.30011,8.30011,0,0,1,3.77389-1.4668,10.89907,10.89907,0,0,1,3.7144.1357,11.29763,11.29763,0,0,1,2.2255.7002,8.48437,8.48437,0,0,1,5.2955,6.6446c.7661,5.4765-10.5489,10.4629-10.5489,10.4629s24.044,7.2197,25.0025,14.0713a8.44532,8.44532,0,0,1-2.8496,8.125,10.91546,10.91546,0,0,1-5.585,2.3232,19.188,19.188,0,0,1-6.5044-.3105,26.93476,26.93476,0,0,1-2.6875-.7042c-1.8501-.5888-11.1328-3.748-12.2383-8.1728a3.73611,3.73611,0,0,1,.9644-3.5879,3.88531,3.88531,0,0,1,2.3091-1.0976,9.71629,9.71629,0,0,1,3.2163.2236,26.15765,26.15765,0,0,1,3.4253,1.1904c2.3554.919,6.5761,3.9277,7.3872,1.8848.9565-2.4102-8.2749-5.2735-11.1597-5.8672a13.20569,13.20569,0,0,0-4.3716-.2793,4.14,4.14,0,0,0-3.03809,1.6611,6.62877,6.62877,0,0,0-.62991,5.9629c1.4742,4.3018,6.3692,8.0537,13.4307,10.2959a28.97142,28.97142,0,0,0,2.9297.7705,21.50054,21.50054,0,0,0,7.2881.3311,13.18,13.18,0,0,0,6.75241-2.8399,10.8571,10.8571,0,0,0,3.66849-10.2041C90.49893,94.77,69.77144,89.67028,69.77144,89.67028Z"/><path class="cls-5" d="M51.03944,92.22988a1.00378,1.00378,0,0,0-.48241-.248,1.0425,1.0425,0,0,0-.353-.0108,1.11744,1.11744,0,0,0-.8374.6016,12.87279,12.87279,0,0,0-1.2749,3.6523,11.32624,11.32624,0,0,0,.6206,5.6524.97989.97989,0,0,0,.7529.6406,1.09783,1.09783,0,0,0,.3701.0127,1.07612,1.07612,0,0,0,.4678-.1856l.1812-.124a1.10936,1.10936,0,0,0,.3725-1.2802,8.92181,8.92181,0,0,1-.4726-4.3204,10.5936,10.5936,0,0,1,1.0815-3.0478,1.00723,1.00723,0,0,0-.269-1.1992Z"/><path class="cls-5" d="M111.893,101.03658a.93073.93073,0,0,0-.4561-.2373,1.03227,1.03227,0,0,0-.3564-.0079,1.12873,1.12873,0,0,0-.8838.6465l-.0894.1934a1.06746,1.06746,0,0,0,.29,1.207,7.438,7.438,0,0,1,2.5762,6.6856,5.446,5.446,0,0,1-2.5029,4.1289,6.52415,6.52415,0,0,1-2.4829.8281,12.48369,12.48369,0,0,1-4.2139-.2158,20.37694,20.37694,0,0,1-2.44239-.6729,6.84661,6.84661,0,0,0-.84811-.2353,5.072,5.072,0,0,0-1.7173-.0733,3.9845,3.9845,0,0,0-1.9087.7989,7.30827,7.30827,0,0,0-2.3462,4.7128,1.17317,1.17317,0,0,0,.9131,1.3418,1.2537,1.2537,0,0,0,.3296.0186l.08061-.0088a1.1909,1.1909,0,0,0,.98779-.9687c.2167-1.0586.5458-2.6602,2.686-2.959a11.61439,11.61439,0,0,1,3.7759.3164,14.89468,14.89468,0,0,0,5.0337.247,8.78537,8.78537,0,0,0,3.3559-1.1406,7.76858,7.76858,0,0,0,3.59771-5.7607A9.82632,9.82632,0,0,0,111.893,101.03658Z"/><path class="cls-5" d="M143.58093,90.38128a9.16574,9.16574,0,0,0-1.2978-.3711,7.11744,7.11744,0,0,0-2.4238-.0908c-4.3135.6025-7.5503,5.3271-10.4961,10.1142-.0161.0254-1.6075,2.1875-3.272,2.4199a1.79759,1.79759,0,0,1-1.42479-.3789,3.81662,3.81662,0,0,1-1.05031-2.8183c-.1538-2.3076.7935-5.7822,2.6665-9.7871,4.3594-9.3145-1.76219-15.4698-6.2329-19.9639a23.25369,23.25369,0,0,1-3.7979-4.418l-.7817-1.4961.9365-1.4082a3.33994,3.33994,0,0,1,2.3531-1.5371l.1411-.0166a5.25715,5.25715,0,0,1,1.6064.0996c2.8784.5918,6.8057,3.4258,9.5513,6.8897,2.4394,3.0801,3.6015,3.7041,4.0766,3.8027a1.45179,1.45179,0,0,0,.5015.001c.0737-.0098.15281-.0244.23681-.042.00289-.0146.01609-.041.03029-.0801a1.70156,1.70156,0,0,0-.2002-1.4404c-.7969-1.0898-1.7466-2.3281-2.8213-3.6846-1.92379-2.4277-6.3916-6.7861-10.9385-7.7217a7.53552,7.53552,0,0,0-2.2851-.1376l-.2276.0283a5.73009,5.73009,0,0,0-4.4458,3.3896c-1.4199,2.8291.2149,5.1895,4.4151,9.4121,4.4272,4.4522,9.4433,9.4971,5.7763,17.3379-4.3017,9.1905-3.17819,15.0401-.3139,16.585a3.46457,3.46457,0,0,0,.9521.3457,3.846,3.846,0,0,0,1.314.0371c1.8281-.2539,3.729-1.7881,5.2168-4.2061,3.813-6.1933,6.2016-8.6308,8.814-8.9961a5.03042,5.03042,0,0,1,1.7524.0674,6.41513,6.41513,0,0,1,.8706.2481,3.60383,3.60383,0,0,1,2.23581,2.7265,4.99107,4.99107,0,0,1-.16791,2.6387,1.335,1.335,0,0,0,.2021,1.3701,1.12974,1.12974,0,0,0,.5982.333,1.26911,1.26911,0,0,0,.4218.0118,1.06976,1.06976,0,0,0,.8902-.6963,7.3277,7.3277,0,0,0,.32961-4.1534A5.93323,5.93323,0,0,0,143.58093,90.38128Z"/><path class="cls-5" d="M137.22644,107.70448l-.28021-.0576a.94359.94359,0,0,0-.3189-.0098,1.17567,1.17567,0,0,0-.7763.4922,14.1755,14.1755,0,0,1-4.4288,3.9912,12.00266,12.00266,0,0,1-4.3896,1.6123,7.801,7.801,0,0,1-2.6416-.0605,2.58669,2.58669,0,0,0-.8672-.0469,1.33575,1.33575,0,0,0-.6059.2324,1.6316,1.6316,0,0,0-.5997.9825,1.55819,1.55819,0,0,0,.0044.6787c.0494.1689.147.3349.522.4131a12.51548,12.51548,0,0,0,4.3457.1777,14.77474,14.77474,0,0,0,5.41311-1.9844,16.357,16.357,0,0,0,5.26949-4.832,1.03158,1.03158,0,0,0-.64649-1.5889Z"/><path class="cls-5" d="M147.88173,68.44568a1.07735,1.07735,0,0,0-.36329-.0117,1.1334,1.1334,0,0,0-.53371.2315,1.17315,1.17315,0,0,0,.4561,2.0781c2.644.6045,6.2964,1.8535,8.6807,4.3652,3.1098,3.2783,3.8598,5.9912,3.52391,7.4385l-.20311.8691-.6587.5987a3.64413,3.64413,0,0,1-.7407.5146,4.067,4.067,0,0,1-1.37549.4766,3.47413,3.47413,0,0,1-1.19531-.041c-1.1773-.2422-2.1216-1-3.9761-2.5537a38.81188,38.81188,0,0,0-3.8208-2.9219,12.139,12.139,0,0,0-4.1597-1.7666,10.24636,10.24636,0,0,0-3.498-.1133,11.50689,11.50689,0,0,0-3.0508.8848,1.16831,1.16831,0,0,0-.32229,1.9443l.19729.1865a.61578.61578,0,0,0,.2959.1485.80793.80793,0,0,0,.2793.0068,1.0184,1.0184,0,0,0,.2861-.085,8.77987,8.77987,0,0,1,2.5156-.75,8.34993,8.34993,0,0,1,2.8604.0899,9.66449,9.66449,0,0,1,3.3232,1.4013,36.11455,36.11455,0,0,1,3.6035,2.7608c1.5259,1.2773,3.2515,2.7217,5.1426,3.1113a4.95338,4.95338,0,0,0,1.7144.0528,6.853,6.853,0,0,0,2.2646-.7754,5.14922,5.14922,0,0,0,2.8174-3.8067c.4448-2.7002-1.0244-5.9931-4.1352-9.2724C154.97644,70.52188,150.84663,69.10778,147.88173,68.44568Z"/><path class="cls-5" d="M99.90273,59.891a2.87711,2.87711,0,0,1-1.46629-1.8535,2.99421,2.99421,0,0,1,.71629-2.3164c2.0884-2.8281,2.1294-6.166.1045-8.5019a8.26049,8.26049,0,0,0-4.5903-2.5547,11.37693,11.37693,0,0,0-3.8633-.0918,16.65115,16.65115,0,0,0-5.8066,2.0615c-6.2832,3.5244-14.5533,12.752-15.5367,14.3486.0616.6065.1202.7676.72611.7598l.00389-.001c1.3213-.1845,4.05711-2.8232,6.70311-5.375,2.92729-2.8222,6.24469-6.0205,9.24129-7.7041a14.28123,14.28123,0,0,1,4.9809-1.7627,9.1747,9.1747,0,0,1,3.1211.0674,5.77087,5.77087,0,0,1,3.2651,1.7793c1.3511,1.5615,1.3028,3.6074-.1279,5.4746-1.3721,1.7901-1.7383,3.5567-1.0596,5.1094,1.0044,2.3066,6.4112,4.541,8.4742,4.2529a1.31734,1.31734,0,0,0,.2241-.0478c.0342-.0098.1572-.1778.21781-.5879a19.71048,19.71048,0,0,0-3.72861-2.209C100.82753,60.39788,100.243,60.101,99.90273,59.891Z"/><path class="cls-5" d="M107.43053,72.69568a31.33321,31.33321,0,0,0-10.0512-4,26.824,26.824,0,0,0-6.3018-.5703l-1.1919.124a22.63916,22.63916,0,0,1-6.19719-.1669,4.26371,4.26371,0,0,1-2.30471-1.7383,2.683,2.683,0,0,1-.252-2.2061c.72071-2.3349,3.3623-3.8271,5.5835-4.8681a.53661.53661,0,0,0,.2661-.6338l-.2905-1.1075a.6624.6624,0,0,0-.4946-.4746.5193.5193,0,0,0-.1773-.0068.564.564,0,0,0-.1557.0469c-3.0933,1.4101-6.8819,3.9424-7.3594,8.0019a4.1334,4.1334,0,0,0,1.208,3.5918,7.38178,7.38178,0,0,0,3.7085,1.6992,23.9557,23.9557,0,0,0,7.5112.0821l.1934-.0235a23.68812,23.68812,0,0,1,5.7534.5039,29.16906,29.16906,0,0,1,9.3384,3.7295c7.63471,4.668,9.4009,7.9629,9.539,9.9053a3.9658,3.9658,0,0,1-3.165,4.4102,4.81356,4.81356,0,0,1-1.644-.0752c-1.1661-.2403-2.2295-1.1973-4.3472-3.1035l-.3452-.3116c-.8755-.7871-1.8667-1.6797-2.9717-2.5683a24.21335,24.21335,0,0,0-9.562-4.1895,16.80479,16.80479,0,0,0-5.5571-.2988,8.026,8.026,0,0,0-2.1368.5781,4.96792,4.96792,0,0,0-3.0976,4.4971c-.2608,4.5185,2.1811,5.3994,5.6597,6.1504a16.00929,16.00929,0,0,1,7.8378,3.4804,9.05125,9.05125,0,0,1,2.8453,9.293,1.90023,1.90023,0,0,0,.2412,1.6953,1.42615,1.42615,0,0,0,.748.4073,1.72839,1.72839,0,0,0,.544.0126,1.05065,1.05065,0,0,0,.9292-.9794c1.0537-5.1172-.1875-9.1055-3.7925-12.1954a17.99631,17.99631,0,0,0-8.8516-3.9863c-2.039-.4043-3.2666-1.2539-3.646-2.5254a3.68333,3.68333,0,0,1,1.0571-3.4551,3.30439,3.30439,0,0,1,1.9136-.8457,14.81777,14.81777,0,0,1,4.792.4356,21.17771,21.17771,0,0,1,8.6187,3.7373c1.0171.8193,1.9555,1.6631,2.8632,2.4775,1.7994,1.6172,4.023,3.6172,6.2725,4.0801a4.39269,4.39269,0,0,0,1.51811.0586,5.9973,5.9973,0,0,0,2.95989-1.4678,6.35523,6.35523,0,0,0,2.6377-5.4746C117.81733,80.80118,114.23523,76.85688,107.43053,72.69568Z"/><path class="cls-5" d="M136.07263,35.66158a47.211,47.211,0,0,0-15.8984-.8477c-.7217.1016-1.374.2178-1.957.3418a1.2031,1.2031,0,0,0-.855.6768,1.14722,1.14722,0,0,0,.0376,1.039,1.16641,1.16641,0,0,0,.7905.5899,1.07828,1.07828,0,0,0,.375.0127c.6367-.1329,1.2598-.2452,1.9507-.3418a45.09229,45.09229,0,0,1,15.1699.8252,31.49486,31.49486,0,0,1,15.52351,8.3623,1.16935,1.16935,0,0,0,.58829.3154,1.20285,1.20285,0,0,0,.4175.0137.96141.96141,0,0,0,.3994-.1407l.0767-.0547a1.14375,1.14375,0,0,0,.499-.8671,1.12743,1.12743,0,0,0-.3491-.9317A33.84121,33.84121,0,0,0,136.07263,35.66158Z"/><path class="cls-5" d="M150.57413,59.52578a31.03721,31.03721,0,0,0-5.731-.6465,31.55042,31.55042,0,0,1-5.4716-.5175A4.55764,4.55764,0,0,1,135.58,53.934c.038-1.4394.9785-3.1025,3.5005-3.4551a7.39851,7.39851,0,0,1,1.3432-.0586,2.43441,2.43441,0,0,0,.43071-.0205,1.16661,1.16661,0,0,0,.92329-.538,1.118,1.118,0,0,0,.0669-.9942,1.219,1.219,0,0,0-.78419-.707,10.95475,10.95475,0,0,0-4.32131-.3867,4.90985,4.90985,0,0,0-3.7788,2.3769c-1.455,2.4883-1.58489,4.8672-.3725,6.8789,1.0644,1.7686,3.1343,2.9473,6.3281,3.6045a32.34386,32.34386,0,0,0,5.8896.5713,28.5389,28.5389,0,0,1,5.2906.5986,24.60411,24.60411,0,0,1,4.4204,1.6192c2.0342.8857,4.1367,1.8017,5.3882,1.626a1.02678,1.02678,0,0,0,.7519-.4092C160.63073,63.55218,154.80263,60.39688,150.57413,59.52578Z"/><path class="cls-5" d="M123.37683,46.35878a15.44907,15.44907,0,0,0-1.6298-.5478c-.1597-.043-.3204-.0821-.4805-.1153a8.21057,8.21057,0,0,0-2.8369-.0683,17.37768,17.37768,0,0,0-3.9575,1.1806l-3.587,1.3858-.7265-3.2315c-.0689-.3037-.1421-.6738-.211-1.1142-.4165-2.6055-2.2348-4.7139-5.4043-6.2647a1.28043,1.28043,0,0,0-.2846-.0966,1.11131,1.11131,0,0,0-.3819-.0127,1.22717,1.22717,0,0,0-.498.1894,1.15513,1.15513,0,0,0-.4941.7412,1.137,1.137,0,0,0,.55171,1.2344c2.50589,1.209,3.92379,2.75,4.21339,4.5771.3115,1.9502.8833,4.3116,2.5537,5.2657a3.12361,3.12361,0,0,0,.9302.3545,3.85849,3.85849,0,0,0,1.3349.0214,13.002,13.002,0,0,0,2.8692-.8925,15.00835,15.00835,0,0,1,3.3935-1.0371,5.95869,5.95869,0,0,1,2.0684.0478c.05171.0098.4678.1104.4678.1104a7.04762,7.04762,0,0,0,2.2314-.0235c.1631-.0224.3179-.0488.4614-.0742a1.17208,1.17208,0,0,0,.1206-.7266A1.11528,1.11528,0,0,0,123.37683,46.35878Z"/><path class="cls-5" d="M155.96863,93.62248c-3.69919-.2656-5.7461-2.7988-6.96919-4.3115-.20751-.2578-.25441,1.5781.916,3.3711.77979,1.1953,2.92429,3.9453,5.979,3.6504l.09819-.0118a1.19351,1.19351,0,0,0,1.1377-1.2968A1.37538,1.37538,0,0,0,155.96863,93.62248Z"/></g></g><path class="cls-12" d="M1.42323,92.17328c-2.0996,5.2295-1.6299,13.7597-.1797,22.6894,7.1997,3.5606,12.8101-.2197,16.2398-3.0195,3.9199-3.1904,7.16011-6.71,10.4599-4.7998.0704.0391.14021.0801.20021.1191a80.36623,80.36623,0,0,1,2.12989-12.3789c-10.52-5.9804-16.20989-15.4404-27.1098-22.9609C5.78363,79.86268,3.94323,85.90278,1.42323,92.17328Z"/><path class="cls-12" d="M3.72353,85.27288a48.143,48.143,0,0,1-2.3003,6.9004,22.93674,22.93674,0,0,0-1.3696,7.4199,75.738,75.738,0,0,0,1.1899,15.2695c7.1997,3.5606,12.8101-.2197,16.2398-3.0195,3.9199-3.1904,7.16011-6.71,10.4599-4.7998.0704.0391.14021.0801.20021.1191a80.36623,80.36623,0,0,1,2.12989-12.3789c-10.52-5.9804-16.20989-15.4404-27.1098-22.9609A23.768,23.768,0,0,1,3.72353,85.27288Z"/><path class="cls-10" d="M13.89593,89.19088c-3.0498-2.3301-6.7427-4.0782-10.1724-3.918a48.143,48.143,0,0,1-2.3003,6.9004,15.69851,15.69851,0,0,0-.6943,2.2051,6.615,6.615,0,0,0,3.9731,7.6845c5.4463,2.1446,13.6812,1.834,15.3003.4688C22.16833,100.71918,18.90613,93.00038,13.89593,89.19088Z"/><path class="cls-3" d="M13.89593,89.19088c-3.0498-2.3301-6.7427-4.0782-10.1724-3.918a39.84349,39.84349,0,0,1-1.3989,4.5439c.4497-.0293.8999-.0498,1.3506-.0498,7.5371,0,13.6499,4.4805,16.9927,10.6114C20.51944,97.28168,17.72163,92.1,13.89593,89.19088Z"/></g></g></g></svg>