<?xml version="1.0" standalone="no"?>
<!DOCTYPE svg PUBLIC "-//W3C//DTD SVG 1.1//EN" "http://www.w3.org/Graphics/SVG/1.1/DTD/svg11.dtd" >
<svg xmlns="http://www.w3.org/2000/svg" xmlns:xlink="http://www.w3.org/1999/xlink" version="1.1">
<metadata>
Created by FontForge 20170731 at Tue Apr 20 04:24:12 2021
 By Aleksey,,,
Copyright (c) 2019 by Mathieu Desjardins. All rights reserved.
</metadata>
<defs>
<font id="PPHatton-Light" horiz-adv-x="0" >
  <font-face 
    font-family="PP Hatton Light"
    font-weight="300"
    font-stretch="normal"
    units-per-em="1000"
    panose-1="0 0 4 0 0 0 0 0 0 0"
    ascent="800"
    descent="-200"
    x-height="465"
    cap-height="800"
    bbox="-373 -539 1944 1039"
    underline-thickness="13"
    underline-position="-72"
    unicode-range="U+0020-2265"
  />
<missing-glyph horiz-adv-x="550" 
d="M102 800h349v-1100h-349v1100zM366 690v36h-181v-36h71v-41h-72v-36h182v36h-72v41h72zM294 507v77h-110v-114h182v37h-72zM220 547h36v-40h-36v40zM366 404v36h-182v-36h72v-41h-72v-36h110v77h72zM366 264v110h-36v-72h-146v-38h182zM366 116v124h-110v-61h38v25h36
v-52h-110v88h-36v-124h182zM366 -74v124h-182v-124h182zM220 14h110v-52h-110v52zM366 -136v36h-182v-36h77l-77 -52v-36h182v36h-112l77 52h35z" />
    <glyph glyph-name="f_f" unicode="ff" horiz-adv-x="577" 
d="M579 809q34 -11 98 -38q0 -14 -8 -22.5t-22 -8.5q-11 0 -27 8q-11 6 -31 22q-25 19 -43.5 28.5t-43.5 9.5q-53 0 -78 -42t-25 -136q0 -45 4 -89l1 -76h150v-12h-150v-265q0 -94 6 -188h-65q5 64 6 106t1 82v265h-178v-265q0 -94 6 -188h-65q5 64 6 106t1 82v265h-102v12
h102v51q0 148 40.5 206t111.5 58q54 0 103 -47q18 47 50 67t80 20q38 0 72 -11zM352 542q0 112 20 177q-47 49 -95 49q-49 0 -78 -45t-29 -144q0 -29 3 -64l1 -50h178v77z" />
    <glyph glyph-name="f_f_i" unicode="ffi" horiz-adv-x="765" 
d="M670 288v-110q0 -110 7 -178h-65q6 68 6 178v110q0 103 -5 165h-209v-265q0 -94 6 -188h-65q5 64 6 106t1 82v265h-178v-265q0 -94 6 -188h-65q5 64 6 106t1 82v265h-102v12h102v51q0 148 40.5 206t111.5 58q56 0 109 -53q40 93 131 93q56 0 100.5 -36.5t82.5 -138.5
l-52 -47l-53 47q1 13 1 36q0 69 -21.5 98t-61.5 29q-52 0 -80.5 -52.5t-28.5 -157.5q0 -17 2 -57l1 -76h273q-7 -68 -7 -177zM352 541q0 107 25 173q-23 25 -47.5 39.5t-52.5 14.5q-49 0 -78 -45t-29 -144q0 -29 3 -64l1 -50h178v76z" />
    <glyph glyph-name="f_i" unicode="fi" horiz-adv-x="535" 
d="M440 288v-110q0 -110 7 -178h-65q6 68 6 178v110q0 103 -5 165h-209v-265q0 -94 6 -188h-65q5 64 6 106t1 82v265h-102v12h102v76q0 147 44.5 213t117.5 66q56 0 100.5 -36.5t82.5 -138.5l-52 -47l-53 47q1 13 1 36q0 69 -21.5 98t-61.5 29q-52 0 -80.5 -52.5
t-28.5 -157.5q0 -17 2 -57l1 -76h273q-7 -68 -7 -177z" />
    <glyph glyph-name=".notdef" horiz-adv-x="550" 
d="M102 800h349v-1100h-349v1100zM366 690v36h-181v-36h71v-41h-72v-36h182v36h-72v41h72zM294 507v77h-110v-114h182v37h-72zM220 547h36v-40h-36v40zM366 404v36h-182v-36h72v-41h-72v-36h110v77h72zM366 264v110h-36v-72h-146v-38h182zM366 116v124h-110v-61h38v25h36
v-52h-110v88h-36v-124h182zM366 -74v124h-182v-124h182zM220 14h110v-52h-110v52zM366 -136v36h-182v-36h77l-77 -52v-36h182v36h-112l77 52h35z" />
    <glyph glyph-name=".null" 
 />
    <glyph glyph-name="nonmarkingreturn" horiz-adv-x="333" 
 />
    <glyph glyph-name="space" unicode=" " horiz-adv-x="283" 
 />
    <glyph glyph-name="exclam" unicode="!" horiz-adv-x="235" 
d="M112 189q-5 411 -23 580l29 31l28 -31q-17 -158 -22 -580h-12zM165 28l-47 -48l-48 48l48 47z" />
    <glyph glyph-name="quotedbl" unicode="&#x22;" horiz-adv-x="286" 
d="M85 513q-2 125 -12 243l-3 44h42l-2 -28q-10 -129 -13 -259h-12zM189 513q-2 125 -12 243l-3 44h42l-2 -28q-10 -129 -13 -259h-12z" />
    <glyph glyph-name="numbersign" unicode="#" horiz-adv-x="983" 
d="M237 -152h-26l64 250h-205v25h213l80 315h-235v25h243l64 249h26l-64 -249h285l64 249h26l-64 -249h205v-25h-212l-81 -315h235v-25h-242l-65 -250h-26l65 250h-286zM389 438l-80 -315h285l81 315h-286z" />
    <glyph glyph-name="dollar" unicode="$" horiz-adv-x="703" 
d="M545 356q48 -35 68 -70t20 -84q0 -47 -28 -85t-78 -60t-115 -22q-20 0 -29 1q0 -58 1 -85h-27q1 27 1 87q-90 10 -160 67t-128 182l48 38q25 -120 88 -188t153 -84q2 216 2 355q-92 52 -136 82.5t-64.5 62.5t-20.5 76q0 70 53.5 107.5t132.5 37.5q22 0 32 -1l-1 76h27
q-1 -25 -1 -80q53 -9 101.5 -37t100.5 -77l-48 -36q-58 113 -155 135q-2 -182 -2 -299l20 -11q97 -53 145 -88zM192 583.5q20 -27.5 56 -51.5t113 -66l-2 293q-22 2 -34 2q-64 0 -108.5 -29.5t-44.5 -83.5q0 -37 20 -64.5zM513 66q42 18 65 50t23 71q0 38 -21.5 68.5
t-66.5 61.5t-133 80q0 -137 2 -347q22 -2 34 -2q55 0 97 18z" />
    <glyph glyph-name="percent" unicode="%" horiz-adv-x="1137" 
d="M383 7q198 437 327 784q-63 1 -165 13q-40 5 -82 8.5t-81 3.5q-31 0 -48 -1q50 -10 89 -41t60 -74.5t21 -90.5q0 -54 -27.5 -102.5t-77 -78.5t-112.5 -30t-112.5 30t-77 78.5t-27.5 102.5q0 48 21.5 93t61.5 76t93 39q69 12 167 12q87 0 176 -10t164 -26
q-101 -225 -181 -415t-150 -378zM377.5 439q36.5 29 53.5 74.5t17 95.5t-17 95.5t-53.5 74.5t-90.5 29t-90.5 -29t-53.5 -74.5t-17 -95.5t17 -95.5t53.5 -74.5t90.5 -29t90.5 29zM737.5 10q-49.5 30 -77 78.5t-27.5 102.5t27.5 103t77 79t112.5 30t112.5 -30t77 -79
t27.5 -103t-27.5 -102.5t-77 -78.5t-112.5 -30t-112.5 30zM940 21q36 29 53 74.5t17 95.5t-17 95.5t-53 74.5t-90 29t-90.5 -29t-53.5 -74.5t-17 -95.5t17 -95.5t53.5 -74.5t90.5 -29t90 29z" />
    <glyph glyph-name="ampersand" unicode="&#x26;" horiz-adv-x="827" 
d="M775 135q-6 -81 -45.5 -118t-98.5 -37q-58 0 -120 46q-73 -46 -171 -46q-79 0 -145 24.5t-105.5 74.5t-39.5 124q0 73 40 124.5t110 95.5q-74 135 -74 225q0 75 48 123.5t138 48.5q55 0 92.5 -20.5t56.5 -54t19 -72.5q0 -66 -39.5 -111.5t-132.5 -100.5l-19 -11l-39 -24
q47 -84 137 -208q46 -64 74 -100t55 -63q37 34 56.5 81t19.5 100q0 96 -62 185l51 40q55 -97 55 -195q0 -69 -27 -127.5t-78 -98.5q54 -48 101 -48q41 0 64 32.5t23 96.5q0 27 -2 42zM239 446q18 11 54 31q83 49 112 94t29 105q0 56 -29.5 94t-92.5 38q-67 0 -103.5 -43
t-36.5 -111q0 -84 67 -208zM495 38q-63 53 -148 164q-86 115 -134 199q-53 -39 -81 -86t-28 -111q0 -98 65 -155t172 -57q91 0 154 46z" />
    <glyph glyph-name="quotesingle" unicode="'" horiz-adv-x="182" 
d="M85 513q-2 125 -12 243l-3 44h42l-2 -28q-10 -129 -13 -259h-12z" />
    <glyph glyph-name="parenleft" unicode="(" horiz-adv-x="379" 
d="M348 -100q-86 41 -148.5 115.5t-96 169t-33.5 195.5q0 98 35 188t99 160t148 112v-12q-107 -66 -166.5 -187.5t-59.5 -260.5q0 -146 56.5 -275t165.5 -193v-12z" />
    <glyph glyph-name="parenright" unicode=")" horiz-adv-x="379" 
d="M32 -88q109 64 165 193t56 275q0 139 -59 260.5t-166 187.5v12q84 -42 147.5 -112t98.5 -159.5t35 -188.5q0 -101 -33 -195.5t-95.5 -169t-148.5 -115.5v12z" />
    <glyph glyph-name="asterisk" unicode="*" horiz-adv-x="582" 
d="M270 359q13 116 15 205q-66 -71 -135 -155l-30 30q36 29 75.5 62.5t79.5 72.5q-90 -3 -205 -16v42q102 -11 206 -15q-75 70 -156 135l30 30q75 -92 135 -155q-4 103 -15 205h42q-11 -102 -15 -205q71 75 135 155l30 -30q-78 -62 -156 -135q89 2 205 15l1 -41
q-104 12 -205 14q69 -65 155 -134l-30 -30q-62 78 -135 156q4 -104 15 -206h-42z" />
    <glyph glyph-name="plus" unicode="+" horiz-adv-x="561" 
d="M511 243q-111 6 -220 6q0 -109 6 -220h-33q5 123 5 220q-108 0 -219 -6v33q123 -5 219 -5q0 96 -5 219h33q-6 -111 -6 -219q97 0 220 5v-33z" />
    <glyph glyph-name="comma" unicode="," horiz-adv-x="235" 
d="M165 28l-89 -173l-6 5l48 120l-48 48l48 47z" />
    <glyph glyph-name="hyphen" unicode="-" horiz-adv-x="663" 
d="M70 276q130 -5 262 -5q131 0 261 5v-33q-117 6 -261 6q-145 0 -262 -6v33z" />
    <glyph glyph-name="period" unicode="." horiz-adv-x="235" 
d="M165 28l-47 -48l-48 48l48 47z" />
    <glyph glyph-name="slash" unicode="/" horiz-adv-x="563" 
d="M70 -155q89 197 203.5 477t187.5 481l32 -14q-89 -197 -203.5 -477t-187.5 -481z" />
    <glyph glyph-name="zero" unicode="0" horiz-adv-x="824" 
d="M240.5 32.5q-76.5 52.5 -120.5 148.5t-44 219t44 218.5t120.5 148.5t171.5 53q94 0 171 -53t121 -148.5t44 -218.5t-44 -219t-121 -148.5t-171 -52.5q-95 0 -171.5 52.5zM557 45q62 53 95.5 146t33.5 209q0 115 -33.5 208t-95.5 146.5t-145 53.5t-145.5 -53.5t-95.5 -146
t-33 -208.5t33 -209t95.5 -146t145.5 -53t145 53z" />
    <glyph glyph-name="one" unicode="1" horiz-adv-x="331" 
d="M179 0q6 94 6 188v583q-12 -74 -40.5 -151.5t-71.5 -163.5l-43 21q115 158 152 323h62q-5 -70 -6 -109t-1 -78v-425q0 -94 6 -188h-64z" />
    <glyph glyph-name="two" unicode="2" horiz-adv-x="651" 
d="M59 0q31 81 75 143.5t87 103.5t109 94l23 18q59 48 94 83t57 78t22 96q0 86 -53.5 139t-142.5 53q-58 0 -103.5 -22.5t-70.5 -59.5t-25 -81q0 -91 111 -133l-39 -51q-116 65 -116 176q0 50 32 92t88.5 66.5t126.5 24.5q72 0 130 -26t90.5 -73.5t32.5 -110.5
q0 -56 -27.5 -101.5t-66.5 -79t-105 -81.5l-21 -14q-65 -43 -109 -77.5t-89 -87.5t-83 -128h249q85 1 148 7t129 24l-35 -72h-518z" />
    <glyph glyph-name="three" unicode="3" horiz-adv-x="642" 
d="M133 47.5q-75 67.5 -84 187.5h12q10 -112 80.5 -174t177.5 -62q75 0 125.5 31.5t75 83t24.5 114.5q0 82 -42.5 135t-133.5 53q-34 0 -76 -9l-3 13q105 50 150.5 109t45.5 140q0 57 -32 98t-102 41q-80 0 -126.5 -53.5t-74.5 -135.5l-58 27q37 71 100.5 122.5t159.5 51.5
q60 0 103 -22t65 -58.5t22 -80.5q0 -79 -53 -132t-142 -98q24 3 46 3q96 0 153 -53t57 -151q0 -68 -32 -124.5t-93.5 -90t-146.5 -33.5q-123 0 -198 67.5z" />
    <glyph glyph-name="four" unicode="4" horiz-adv-x="692" 
d="M433 0q6 92 6 183v56h-399v12q119 113 203.5 222.5t131 192.5t63.5 134h60q-5 -70 -6 -109t-1 -78v-330q86 5 171 27l-26 -71h-145v-56q0 -91 6 -183h-64zM439 280v487q-40 -91 -120 -213t-226 -266q65 -5 127 -6.5t162 -1.5h57z" />
    <glyph glyph-name="five" unicode="5" horiz-adv-x="630" 
d="M113.5 42.5q-66.5 62.5 -74.5 182.5h12q8 -114 70 -171.5t168 -57.5q65 0 117 32.5t82 93t30 141.5q0 70 -26.5 120t-71.5 75t-101 25q-45 0 -95 -18t-116 -64l-7 6l56 393h367l26 -71q-69 18 -130 24t-149 6h-108l-47 -336q60 42 114.5 62t109.5 20q66 0 121.5 -28.5
t88 -84t32.5 -131.5q0 -87 -38 -150.5t-101.5 -97t-139.5 -33.5q-123 0 -189.5 62.5z" />
    <glyph glyph-name="six" unicode="6" horiz-adv-x="718" 
d="M148.5 84q-72.5 104 -72.5 286q0 133 38 235t107.5 158.5t160.5 56.5q129 0 225 -119l-58 -27q-24 56 -65 95t-102 39q-74 0 -128.5 -52t-83.5 -148t-30 -227q118 124 251 124q64 0 121.5 -30t93 -89t35.5 -142q0 -82 -38 -141.5t-100 -91t-133 -31.5q-149 0 -221.5 104z
M475 21.5q47 29.5 75 86t28 135.5q0 122 -54.5 185t-141.5 63q-61 0 -119.5 -30t-122.5 -92q3 -184 56.5 -280.5t173.5 -96.5q58 0 105 29.5z" />
    <glyph glyph-name="seven" unicode="7" horiz-adv-x="584" 
d="M161 0q29 50 43.5 78t33.5 72l265 609h-205q-48 0 -116.5 -6.5t-125.5 -21.5l-46 69h524v-12l-257 -633q-19 -47 -29.5 -77.5t-24.5 -77.5h-62z" />
    <glyph glyph-name="eight" unicode="8" horiz-adv-x="703" 
d="M208.5 7.5q-64.5 27.5 -102.5 79.5t-38 123q0 91 60 150.5t156 75.5q-78 17 -121.5 71t-43.5 118q0 49 26.5 94t79 73t127.5 28q74 0 126.5 -28t79 -73t26.5 -94q0 -64 -43.5 -118t-121.5 -71q96 -16 156 -75.5t60 -150.5q0 -71 -38 -123t-102.5 -79.5t-142.5 -27.5
q-79 0 -143.5 27.5zM450 468.5q40 27.5 59 69.5t19 87t-19 87t-59 69t-98 27q-59 0 -99 -27t-59 -69t-19 -87t19 -87t59 -69.5t99 -27.5q58 0 98 27.5zM465 19q51 27 80 76.5t29 114.5t-29 114.5t-80 76.5t-113 27q-63 0 -114 -27t-80 -76.5t-29 -114.5t29 -114.5t80 -76.5
t114 -27q62 0 113 27z" />
    <glyph glyph-name="nine" unicode="9" horiz-adv-x="700" 
d="M551.5 716q72.5 -104 72.5 -286q0 -133 -38 -235t-107.5 -158.5t-160.5 -56.5q-129 0 -225 119l58 28q24 -57 64.5 -96t102.5 -39q74 0 128.5 52t83.5 148t30 227q-118 -124 -251 -124q-64 0 -121.5 30t-93 89t-35.5 142q0 82 38 141.5t100 91t133 31.5q149 0 221.5 -104
zM225.5 779q-47.5 -29 -75 -86t-27.5 -135q0 -122 54 -185.5t141 -63.5q61 0 119.5 30t122.5 92q-3 184 -56 280.5t-174 96.5q-57 0 -104.5 -29z" />
    <glyph glyph-name="colon" unicode=":" horiz-adv-x="235" 
d="M165 28l-47 -48l-48 48l48 47zM165 438l-47 -48l-48 48l48 47z" />
    <glyph glyph-name="semicolon" unicode=";" horiz-adv-x="235" 
d="M165 438l-47 -48l-48 48l48 47zM165 28l-89 -173l-6 5l48 120l-48 48l48 47z" />
    <glyph glyph-name="less" unicode="&#x3c;" horiz-adv-x="400" 
d="M331 68q-61 47 -105.5 77t-124.5 82l-51 33l51 33q80 52 124.5 82t105.5 77l19 -30q-65 -37 -209 -125l-59 -37l59 -37q144 -88 209 -125z" />
    <glyph glyph-name="equal" unicode="=" horiz-adv-x="559" 
d="M50 196q130 -5 231 -5q100 0 230 5v-33q-117 6 -230 6q-114 0 -231 -6v33zM50 356q130 -5 231 -5q100 0 230 5v-33q-117 6 -230 6q-114 0 -231 -6v33z" />
    <glyph glyph-name="greater" unicode="&#x3e;" horiz-adv-x="400" 
d="M50 98q75 43 188 113l80 49l-80 49q-113 70 -188 113l19 30q61 -47 105.5 -77t124.5 -82l51 -33l-51 -33q-80 -52 -124.5 -82t-105.5 -77z" />
    <glyph glyph-name="question" unicode="?" horiz-adv-x="512" 
d="M228 198q0 69 13 123t31 91t48 86q33 53 48.5 90.5t15.5 86.5q0 60 -28 96.5t-78 36.5q-115 0 -149 -186l-59 27q34 91 87.5 131t125.5 40q40 0 76.5 -17t59.5 -51.5t23 -83.5q0 -52 -20.5 -90t-64.5 -91q-37 -45 -60.5 -81t-40 -88t-16.5 -120h-12zM281 28l-47 -48
l-48 48l48 47z" />
    <glyph glyph-name="at" unicode="@" horiz-adv-x="927" 
d="M242.5 -52.5q-92.5 46.5 -142.5 130.5t-50 192q0 29 5 67q15 112 72.5 198.5t151.5 135.5t215 49q115 0 202 -45t134 -124.5t47 -182.5q0 -28 -5 -66q-16 -106 -67.5 -171t-128.5 -65q-92 0 -92 91q0 24 5 54q-32 -70 -85 -112t-121 -42q-81 0 -126 54.5t-45 137.5
q0 29 6 59q13 71 50 128t91 89t115 32q97 0 158 -103l17 103h42l-55 -310q-1 -7 -6.5 -37t-5.5 -58q0 -34 12.5 -54t43.5 -20q65 0 114 59t64 165q5 29 5 67q0 98 -44.5 175t-128.5 120.5t-198 43.5q-117 0 -208 -48t-146 -132t-70 -191q-5 -38 -5 -67q0 -105 48 -185.5
t138 -126t213 -45.5q87 0 151.5 20t137.5 67l7 -11q-73 -47 -140.5 -67.5t-157.5 -20.5q-125 0 -217.5 46.5zM524 131q56 61 77 153l29 160q-63 101 -151 101q-82 0 -136.5 -66.5t-75.5 -171.5q-8 -42 -8 -76q0 -72 31.5 -116.5t96.5 -44.5q81 0 137 61z" />
    <glyph glyph-name="A" unicode="A" horiz-adv-x="629" 
d="M541 100q8 -30 15.5 -49.5t22.5 -50.5h-78q-2 25 -5 41t-8 33.5t-7 25.5l-56 195h-271l-57 -198q-2 -5 -3.5 -11.5t-4.5 -13.5q-5 -17 -9.5 -34t-5.5 -38h-24q11 22 17 40t11 36l6 20l190 660q2 7 2 18q0 14 -5 26h70zM290 767l-133 -460h265z" />
    <glyph glyph-name="B" unicode="B" horiz-adv-x="609" 
d="M70 0q6 89 6 188v425q0 98 -6 187h170q116 0 191.5 -36t75.5 -140q0 -71 -41 -113t-132 -54q95 -17 160 -73.5t65 -160.5q0 -119 -86 -171t-221 -52h-182zM240 464q109 0 157.5 41t48.5 119q0 93 -67 128.5t-153 35.5h-93v-324h107zM236 13q112 0 185.5 52t73.5 160
q0 85 -41 135.5t-97 70.5t-107 20h-117v-438h103z" />
    <glyph glyph-name="C" unicode="C" horiz-adv-x="836" 
d="M235 37q-86 57 -130.5 155t-44.5 218q0 116 50 209.5t137 147t194 53.5q208 0 311 -208l-66 -18q-29 95 -90 154.5t-155 59.5q-93 0 -165 -53t-112 -143.5t-40 -198.5q0 -114 36 -208t109.5 -150t181.5 -56q133 0 216.5 88.5t116.5 241.5h12q-34 -163 -122.5 -256
t-233.5 -93q-119 0 -205 57z" />
    <glyph glyph-name="D" unicode="D" horiz-adv-x="697" 
d="M70 0q6 89 6 188v425q0 98 -6 187h177q183 0 286.5 -103t103.5 -297q0 -125 -46.5 -215t-134 -137.5t-209.5 -47.5h-177zM246 13q96 0 170 45t115.5 132.5t41.5 209.5q0 127 -41.5 214t-115 130.5t-170.5 43.5h-113v-775h113z" />
    <glyph glyph-name="E" unicode="E" horiz-adv-x="559" 
d="M70 0q8 102 8 188v425q0 85 -8 187h429l-36 -41q-57 16 -123.5 22.5t-110.5 6.5h-94v-356h71q53 0 95.5 1.5t104.5 8.5v-32q-62 7 -104.5 8.5t-95.5 1.5h-71v-407h126q80 0 139.5 5.5t128.5 22.5l-23 -41h-436z" />
    <glyph glyph-name="F" unicode="F" horiz-adv-x="549" 
d="M70 0q8 102 8 188v425q0 85 -8 187h449l-36 -41q-57 16 -123.5 22.5t-110.5 6.5h-114v-402h56q53 0 95.5 1.5t104.5 8.5v-33q-62 7 -104.5 8.5t-95.5 1.5h-56v-185q0 -86 8 -188h-73z" />
    <glyph glyph-name="G" unicode="G" horiz-adv-x="869" 
d="M235.5 37.5q-84.5 57.5 -130 155.5t-45.5 217q0 116 50 209.5t137 147t194 53.5q108 0 184.5 -52.5t127.5 -153.5l-66 -17q-29 94 -90 152.5t-156 58.5q-93 0 -165 -53t-112 -143.5t-40 -198.5q0 -112 37.5 -205.5t109.5 -149t172 -55.5q139 0 218.5 103t87.5 287h-31
q-45 0 -111 -6.5t-123 -22.5l-36 41h401v-12h-85v-173q0 -63 1.5 -108.5t8.5 -111.5h-36q11 108 11 220v66q-26 -147 -107 -226.5t-211 -79.5q-111 0 -195.5 57.5z" />
    <glyph glyph-name="H" unicode="H" horiz-adv-x="656" 
d="M580 188q0 -99 6 -188h-70q7 104 7 188v206h-390v-206q0 -81 6 -188h-69q6 89 6 188v425q0 98 -6 187h69q-6 -107 -6 -187v-207h390v207q0 83 -7 187h70q-6 -89 -6 -187v-425z" />
    <glyph glyph-name="I" unicode="I" horiz-adv-x="209" 
d="M70 0q6 89 6 188v425q0 98 -6 187h69q-6 -107 -6 -187v-425q0 -81 6 -188h-69z" />
    <glyph glyph-name="J" unicode="J" horiz-adv-x="232" 
d="M20 -211q32 17 48.5 36.5t24 50.5t7.5 85v652q0 80 -6 187h69q-6 -107 -6 -187v-643q0 -60 -16 -96.5t-44 -57t-72 -36.5z" />
    <glyph glyph-name="K" unicode="K" horiz-adv-x="682" 
d="M548 105q26 -32 48 -54.5t56 -50.5h-97q-16 26 -35.5 51t-44.5 54l-268 319l-74 -86v-150q0 -81 6 -188h-69q6 89 6 188v425q0 98 -6 187h69q-6 -107 -6 -187v-257l310 348q21 24 39.5 46.5t36.5 49.5h34q-29 -26 -51 -49t-42 -46l-212 -240z" />
    <glyph glyph-name="L" unicode="L" horiz-adv-x="535" 
d="M70 0q8 102 8 188v425q0 98 -6 187h69q-6 -107 -6 -187v-600h91q80 0 140 5.5t129 22.5l-24 -41h-401z" />
    <glyph glyph-name="M" unicode="M" horiz-adv-x="925" 
d="M442 -20l-353 769v-561q0 -99 6 -188h-25q6 89 6 188v425q0 98 -6 187h59l342 -742l329 742h55q-6 -107 -6 -187v-425q0 -81 6 -188h-69q6 89 6 188v564l-339 -772h-11z" />
    <glyph glyph-name="N" unicode="N" horiz-adv-x="716" 
d="M640 188q0 -99 6 -188h-60l-498 762v-574q0 -81 6 -188h-24q6 89 6 188v425q0 98 -6 187h60l498 -762v575q0 80 -6 187h24q-6 -89 -6 -187v-425z" />
    <glyph glyph-name="O" unicode="O" horiz-adv-x="984" 
d="M271.5 35q-98.5 55 -155 151t-56.5 214q0 117 56.5 213t155 151.5t220.5 55.5t220.5 -55.5t155 -151.5t56.5 -213t-56.5 -213.5t-155 -151.5t-220.5 -55t-220.5 55zM683 49q84 57 130.5 151t46.5 200t-46.5 200t-130.5 151t-191 57q-108 0 -192 -57t-130 -151t-46 -200
t46 -200t130 -151t192 -57q107 0 191 57z" />
    <glyph glyph-name="P" unicode="P" horiz-adv-x="584" 
d="M70 0q6 89 6 188v425q0 98 -6 187h148q145 0 230.5 -48t85.5 -167t-85.5 -167t-230.5 -48h-85v-182q0 -81 6 -188h-69zM218 383q111 0 183 45.5t72 156.5q0 112 -72 157.5t-183 45.5h-85v-405h85z" />
    <glyph glyph-name="Q" unicode="Q" horiz-adv-x="984" 
d="M882.5 214q-41.5 -85 -116.5 -143.5t-171 -79.5l3 -5q27 -39 58 -58t81 -19v-12q-61 0 -103.5 15t-68.5 53q-11 16 -12 19q-27 -4 -61 -4q-122 0 -220.5 55t-155 151t-56.5 214q0 117 56.5 213t155 151.5t220.5 55.5t220.5 -55.5t155 -151.5t56.5 -213q0 -101 -41.5 -186
zM730 86q62 59 96 141.5t34 172.5q0 106 -46.5 200t-130.5 151t-191 57q-108 0 -192 -57t-130 -151t-46 -200q0 -86 31 -165.5t88 -138.5t134 -85q39 63 98 63q36 0 60.5 -18t49.5 -52q83 23 145 82zM545 -4q-20 35 -35 50.5t-40 15.5t-47 -16t-34 -39q48 -15 103 -15
q30 0 53 4z" />
    <glyph glyph-name="R" unicode="R" horiz-adv-x="704" 
d="M525 82.5q26 -38.5 59 -54.5t82 -16v-12q-74 0 -120 18.5t-75.5 58t-54.5 108.5q-27 75 -61.5 115t-76.5 55t-101 15h-44v-182q0 -81 6 -188h-69q6 89 6 188v425q0 98 -6 187h148q145 0 230.5 -48t85.5 -167q0 -105 -68 -154.5t-185 -58.5q64 -13 112 -54.5t79 -124.5
q27 -72 53 -110.5zM133 383h85q111 0 183 45.5t72 156.5q0 112 -72 157.5t-183 45.5h-85v-405z" />
    <glyph glyph-name="S" unicode="S" horiz-adv-x="592" 
d="M40 243l58 22q5 -80 38.5 -142t87 -96.5t118.5 -34.5q77 0 125.5 42.5t48.5 125.5q0 40 -22.5 76t-60 69.5t-112.5 92.5l-41 33l-20 16q-70 55 -102 84.5t-49 62t-17 75.5q0 71 49.5 111t132.5 40q82 0 143 -45.5t105 -134.5l-58 -18q-10 78 -57 132t-135 54
q-67 0 -105.5 -32.5t-38.5 -87.5q0 -36 15.5 -64t41.5 -51.5t81 -65.5l42 -32l31 -24q85 -68 125.5 -105.5t64 -79t23.5 -93.5q0 -93 -60.5 -143t-151.5 -50q-226 0 -300 263z" />
    <glyph glyph-name="T" unicode="T" horiz-adv-x="605" 
d="M268 0q6 107 6 188v600h-11q-38 0 -93.5 -6.5t-113.5 -22.5l-36 41h565l-37 -41q-57 16 -112.5 22.5t-94.5 6.5h-10v-600q0 -99 6 -188h-69z" />
    <glyph glyph-name="U" unicode="U" horiz-adv-x="671" 
d="M190.5 12q-60.5 32 -92.5 111t-32 217v273q0 98 -6 187h69q-6 -107 -6 -187v-273q0 -180 55 -260.5t174 -80.5q122 0 181 79t59 262v273q0 98 -6 187h25q-6 -89 -6 -187v-273q0 -192 -64.5 -276t-196.5 -84q-93 0 -153.5 32z" />
    <glyph glyph-name="V" unicode="V" horiz-adv-x="629" 
d="M88 700q-8 32 -15.5 51.5t-22.5 48.5h78q2 -25 6 -44.5t8 -34t6 -21.5l191 -667l193 670q2 5 3.5 11.5t4.5 13.5q5 17 9.5 34t5.5 38h24q-11 -22 -17 -40t-11 -36l-6 -20l-190 -660q-2 -6 -2 -18q0 -13 5 -26h-70z" />
    <glyph glyph-name="W" unicode="W" horiz-adv-x="956" 
d="M675 44q-3 -10 -3 -19q0 -10 6 -25h-71l-132 463l-120 -419q-2 -6 -2 -18q0 -13 5 -26h-70l-200 700q-8 32 -15.5 51.5t-22.5 48.5h78q2 -25 6 -44.5t8 -34t6 -21.5l191 -667l130 452l-61 215q-9 32 -16.5 51.5t-22.5 48.5h78q2 -28 6 -45t15 -55l31 -110l33 113
q2 5 3.5 11.5t4.5 13.5q5 17 9.5 34t5.5 38h24q-11 -22 -17 -40t-11 -36l-6 -20l-39 -136l152 -535l193 670q2 5 3.5 11.5t4.5 13.5q5 17 9.5 34t5.5 38h24q-16 -32 -26 -72l-7 -24z" />
    <glyph glyph-name="X" unicode="X" horiz-adv-x="583" 
d="M46 0q19 27 31 47t24 44l164 297l-168 321q-17 32 -27 48t-30 43h80q9 -27 16.5 -44t23.5 -47l149 -282l156 280q31 55 47 93h24q-16 -23 -26.5 -40.5t-17.5 -31t-11 -21.5l-164 -295l169 -321q17 -32 27 -48t30 -43h-80q-18 48 -40 91l-150 283l-156 -283
q-22 -39 -47 -91h-24z" />
    <glyph glyph-name="Y" unicode="Y" horiz-adv-x="657" 
d="M298 0q6 89 6 188v163l-192 355q-14 27 -26 45t-36 49h83q7 -21 15.5 -39.5t18.5 -36.5l10 -18l181 -333l180 333q32 59 47 94h22q-22 -32 -36 -58t-19 -35l-191 -356v-163q0 -81 6 -188h-69z" />
    <glyph glyph-name="Z" unicode="Z" horiz-adv-x="674" 
d="M50 0v24l493 764h-204q-45 0 -110.5 -6.5t-122.5 -22.5l-36 41h533v-24l-493 -763h265q51 0 118 6t131 22l-24 -41h-550z" />
    <glyph glyph-name="bracketleft" unicode="[" horiz-adv-x="372" 
d="M345 -100h-275v940h275v-12h-226v-916h226v-12z" />
    <glyph glyph-name="backslash" unicode="\" horiz-adv-x="563" 
d="M461 -169q-73 201 -187.5 481t-203.5 477l32 14q73 -201 187.5 -481t203.5 -477z" />
    <glyph glyph-name="bracketright" unicode="]" horiz-adv-x="372" 
d="M302 840v-940h-274v12h225v916h-225v12h274z" />
    <glyph glyph-name="asciicircum" unicode="^" horiz-adv-x="440" 
d="M161 730q9 12 16 22.5t13 18.5l34 -29q-5 -6 -13 -18q-38 -53 -54.5 -69t-43.5 -21q-31 -38 -41 -38q-3 0 -7 4q25 30 96 130zM235 757q24 -38 35 -52q-22 16 -46 37q3 5 11 15zM361 619q0 -9 -1 -12t-3 1q-20 14 -39.5 35t-47.5 62l70 -55l20 -15z" />
    <glyph glyph-name="underscore" unicode="_" horiz-adv-x="849" 
d="M70 -39q164 -6 355 -6q190 0 354 6v-33q-164 6 -354 6q-192 0 -355 -6v33z" />
    <glyph glyph-name="grave" unicode="`" horiz-adv-x="286" 
d="M230 593q-15 9 -74 43q-39 23 -58 35.5t-35 28.5q-13 13 -13 28q0 17 20 21l166 -150z" />
    <glyph glyph-name="a" unicode="a" horiz-adv-x="532" 
d="M104 13.5q-45 33.5 -45 95.5q0 71 53 105.5t146 49.5q52 8 81.5 16t48 25t18.5 47q0 58 -26 89.5t-77 31.5q-60 0 -92.5 -21t-49 -40.5t-21.5 -25.5q-16 -19 -38 -19q-12 0 -21 7.5t-10 21.5q122 89 237 89q149 0 150 -139v-160q0 -62 2.5 -101t12.5 -85h-60
q-6 71 -6 132q-18 -66 -66 -109t-126 -43q-66 0 -111 33.5zM324 26q39 27 60.5 75.5t21.5 110.5v97q-16 -24 -47 -34.5t-94 -21.5q-74 -12 -110.5 -45.5t-36.5 -92.5q0 -55 31.5 -85.5t83.5 -30.5t91 27z" />
    <glyph glyph-name="b" unicode="b" horiz-adv-x="576" 
d="M192.5 23.5q-48.5 43.5 -66.5 113.5q0 -58 10 -137h-62v614q0 92 -6 186h64q-6 -94 -6 -186v-233q36 45 86.5 74.5t105.5 29.5q57 0 105 -32t76 -89.5t28 -130.5q0 -74 -27 -131.5t-75.5 -89.5t-112.5 -32q-71 0 -119.5 43.5zM427 62q41 66 41 171t-43 171t-118 66
q-50 0 -99 -30t-82 -74v-142q0 -63 20 -115t59.5 -82.5t95.5 -30.5q85 0 126 66z" />
    <glyph glyph-name="c" unicode="c" horiz-adv-x="532" 
d="M158.5 11q-51.5 31 -80.5 88.5t-29 133.5t29 133t80.5 88t119.5 31q73 0 122 -39.5t68 -93.5q-10 -16 -26 -16q-12 0 -21.5 9t-12.5 24q-7 37 -35 70.5t-93 33.5q-86 0 -129 -63t-43 -174q0 -64 20 -118.5t61 -87.5t101 -33q76 0 121 49.5t70 128.5h12
q-57 -195 -215 -195q-68 0 -119.5 31z" />
    <glyph glyph-name="d" unicode="d" horiz-adv-x="585" 
d="M151.5 12q-48.5 32 -75.5 89.5t-27 131.5q0 73 28 130.5t76 89.5t105 32q55 0 105.5 -29.5t86.5 -74.5v233q0 52 -1.5 87t-8.5 99h62v-622q0 -51 2.5 -85t13.5 -93h-61q-7 92 -7 137q-18 -70 -66 -113.5t-121 -43.5q-63 0 -111.5 32zM370.5 26.5q39.5 30.5 59.5 82.5
t20 115v142q-34 44 -82.5 74t-98.5 30q-75 0 -118 -66t-43 -171t41 -171t126 -66q56 0 95.5 30.5z" />
    <glyph glyph-name="e" unicode="e" horiz-adv-x="547" 
d="M166 11q-55 31 -86 88.5t-31 133.5q0 75 31 132t84 88.5t117 31.5q62 0 107.5 -26t69 -69t23.5 -91h-368q-5 -25 -5 -64q0 -63 22.5 -118t66.5 -88t106 -33q74 0 122 47.5t71 130.5h12q-23 -91 -76.5 -142.5t-139.5 -51.5q-71 0 -126 31zM424 311q0 69 -37 115.5
t-107 46.5q-64 0 -107 -43t-58 -119h309z" />
    <glyph glyph-name="f" unicode="f" horiz-adv-x="347" 
d="M115 0q5 64 6 106t1 82v265h-102v12h102v77q0 107 17.5 167.5t51 85.5t86.5 25q38 0 72 -11t98 -38q0 -14 -8 -22.5t-22 -8.5q-11 0 -27 8q-11 6 -31 22q-25 19 -43.5 28.5t-43.5 9.5q-53 0 -78 -42t-25 -136q0 -45 4 -89l1 -76h150v-12h-150v-265q0 -94 6 -188h-65z" />
    <glyph glyph-name="g" unicode="g" horiz-adv-x="686" 
d="M107 -231q-58 29 -58 87q0 25 14.5 46t39.5 36q-26 11 -40 31.5t-14 49.5q0 74 115 132q-34 26 -52.5 62.5t-18.5 79.5q0 54 30.5 98t82.5 69t114 25q75 0 134 -36q48 41 91 61.5t96 19.5q3 -9 3 -17q0 -14 -11.5 -21t-32.5 -5l-33 1q-25 0 -45 -8.5t-57 -37.5
q38 -26 59.5 -65t21.5 -84q0 -54 -30.5 -98.5t-82.5 -69.5t-113 -25q-81 0 -142 42q-47 -29 -66 -55t-19 -61q0 -29 16.5 -49.5t54.5 -20.5q46 0 88.5 13.5t101.5 38.5q57 24 95.5 36t78.5 12q54 0 85.5 -25t31.5 -69q0 -65 -58 -115.5t-149 -78.5t-186 -28q-87 0 -145 29z
M442 163.5q46 50.5 46 129.5q0 51 -20.5 92t-59 64.5t-88.5 23.5q-51 0 -89.5 -23.5t-59 -64.5t-20.5 -92q0 -79 46 -129.5t123 -50.5q76 0 122 50.5zM414.5 -212q79.5 27 128.5 73.5t49 103.5q0 30 -19 51t-59 21q-37 0 -75 -13t-91 -39q-62 -29 -103.5 -43t-86.5 -14
q-21 0 -43 5q-50 -27 -50 -75q0 -47 52 -72t131 -25q87 0 166.5 27z" />
    <glyph glyph-name="h" unicode="h" horiz-adv-x="530" 
d="M398 0q6 94 6 186v127q0 78 -25.5 117t-78.5 39q-59 0 -103 -40t-71 -95v-146q0 -111 6 -188h-64q6 77 6 188v425q0 110 -6 187h64q-6 -77 -6 -187v-258q25 52 74.5 91t114.5 39q72 0 106.5 -44t34.5 -139v-116q0 -39 1 -80.5t6 -105.5h-65z" />
    <glyph glyph-name="i" unicode="i" horiz-adv-x="240" 
d="M173 648l-53 -50l-52 50l52 50zM88 0q7 68 7 178v110q0 109 -7 177h65q-7 -68 -7 -177v-110q0 -110 7 -178h-65z" />
    <glyph glyph-name="j" unicode="j" horiz-adv-x="214" 
d="M164 648l-52 -50l-53 50l53 50zM39 -231q25 25 36 53.5t11 83.5v373q0 109 -6 186h64q-6 -77 -6 -186v-364q0 -55 -25 -90t-69 -65z" />
    <glyph glyph-name="k" unicode="k" horiz-adv-x="534" 
d="M452 59l44 -59h-72q-10 29 -22.5 50.5t-38.5 57.5q-46 62 -100 93t-135 38q-2 -24 -2 -40v-11q0 -111 6 -188h-64q6 77 6 188v425q0 110 -6 187h64q-6 -77 -6 -187v-305q20 83 70 130t119 47q53 0 83.5 -26.5t30.5 -74.5q0 -61 -63.5 -99.5t-172.5 -42.5
q141 -22 223 -134q11 -13 36 -49zM184.5 410q-46.5 -59 -56.5 -160q119 0 183 34.5t64 99.5q0 39 -19.5 62t-55.5 23q-69 0 -115.5 -59z" />
    <glyph glyph-name="l" unicode="l" horiz-adv-x="199" 
d="M68 0q6 77 6 188v425q0 110 -6 187h64q-6 -77 -6 -187v-425q0 -111 6 -188h-64z" />
    <glyph glyph-name="m" unicode="m" horiz-adv-x="727" 
d="M68 0q6 68 6 178v110q0 109 -6 177h64q-4 -58 -6 -108q25 51 68 89.5t96 38.5q47 0 70.5 -32.5t28.5 -96.5q26 52 69 90.5t96 38.5q52 0 76 -39.5t24 -117.5v-142q0 -92 6 -186h-65q5 64 6 105.5t1 80.5v145q0 72 -14 104.5t-49 32.5q-82 0 -149 -131v-19v-132
q0 -92 6 -186h-64q6 94 6 186v145q0 72 -13.5 104.5t-48.5 32.5q-83 0 -150 -134v-156q0 -110 6 -178h-64z" />
    <glyph glyph-name="n" unicode="n" horiz-adv-x="530" 
d="M398 0q6 94 6 186v127q0 78 -25.5 117t-78.5 39q-59 0 -103 -40t-71 -95v-46v-110q0 -110 6 -178h-64q6 68 6 178v110q0 109 -6 177h64q-4 -39 -6 -109q26 53 75 91t114 38q72 0 106.5 -44t34.5 -139v-116q0 -39 1 -80.5t6 -105.5h-65z" />
    <glyph glyph-name="o" unicode="o" horiz-adv-x="611" 
d="M171.5 12.5q-58.5 32.5 -90.5 90t-32 130.5q0 72 32 129.5t90.5 90t134.5 32.5q75 0 133.5 -32.5t91 -90t32.5 -129.5t-32.5 -130t-91 -90.5t-133.5 -32.5q-76 0 -134.5 32.5zM453 58.5q51 66.5 51 174.5q0 107 -51 173.5t-147 66.5t-147 -66.5t-51 -173.5
q0 -108 51 -174.5t147 -66.5t147 66.5z" />
    <glyph glyph-name="p" unicode="p" horiz-adv-x="576" 
d="M68 -240q6 77 6 186v333q0 109 -6 186h63q-5 -65 -5 -137q19 71 67 114t119 43q64 0 112.5 -32t75.5 -89t27 -131q0 -73 -28 -131t-76 -90t-105 -32q-55 0 -105.5 29.5t-86.5 74.5v-138q0 -109 6 -186h-64zM425 61q43 66 43 172q0 105 -41 170.5t-126 65.5
q-83 0 -129 -65t-46 -163v-142q33 -44 82 -74t99 -30q75 0 118 66z" />
    <glyph glyph-name="q" unicode="q" horiz-adv-x="576" 
d="M444 -240q6 77 6 186v138q-36 -45 -86.5 -74.5t-105.5 -29.5q-57 0 -105 32t-76 90t-28 131q0 74 27 131t75.5 89t111.5 32q71 0 119.5 -43t67.5 -114q0 72 -5 137h63q-6 -77 -6 -186v-333q0 -109 6 -186h-64zM367.5 25q48.5 30 82.5 74v142q0 98 -46 163t-129 65
q-85 0 -126 -65.5t-41 -170.5q0 -106 43 -172t118 -66q50 0 98.5 30z" />
    <glyph glyph-name="r" unicode="r" horiz-adv-x="384" 
d="M357 451q0 -15 -9 -24t-25 -9q-11 0 -23 4q-19 7 -33 7q-25 0 -56.5 -20.5t-84.5 -72.5v-48v-110q0 -110 6 -178h-64q6 68 6 178v110q0 109 -6 177h64q-4 -40 -6 -111q41 41 68 63.5t58.5 36t69.5 13.5q21 0 33 -2q2 -10 2 -14z" />
    <glyph glyph-name="s" unicode="s" horiz-adv-x="445" 
d="M109 22.5q-54 42.5 -70 122.5q12 17 28 17q13 0 21.5 -11.5t8.5 -33.5q0 -32 17.5 -60.5t52 -46t81.5 -17.5q58 0 87.5 29t29.5 75q0 30 -15 50.5t-42.5 37.5t-90.5 51q-55 29 -85 49t-47 44t-17 57q0 49 39 74t99 25q61 0 102.5 -30t74.5 -90q-3 -8 -10 -13t-16 -5
q-11 0 -20 8.5t-13 24.5q-10 42 -36.5 67t-80.5 25q-46 0 -72.5 -18t-26.5 -54q0 -27 17.5 -48t47 -39t83.5 -46q57 -29 87 -49.5t46.5 -47t16.5 -64.5q0 -56 -42.5 -91t-116.5 -35q-84 0 -138 42.5z" />
    <glyph glyph-name="t" unicode="t" horiz-adv-x="399" 
d="M152.5 10.5q-25.5 35.5 -25.5 122.5v320h-108v12h11q55 0 81.5 22.5t33.5 58.5t7 93v31h47q0 -81 -17 -132.5t-72 -72.5h211v-12h-142v-325q0 -77 15 -107t46 -30q39 0 65 48t43 165h12q-18 -128 -49.5 -178.5t-83.5 -50.5q-49 0 -74.5 35.5z" />
    <glyph glyph-name="u" unicode="u" horiz-adv-x="527" 
d="M112.5 24q-34.5 44 -34.5 139v116q0 52 -1.5 87t-8.5 99h62v-313q0 -156 104 -156q59 0 103 37.5t71 89.5v156q0 52 -2 87t-9 99h63v-465h-58l6 107q-27 -52 -76.5 -89.5t-112.5 -37.5q-72 0 -106.5 44z" />
    <glyph glyph-name="v" unicode="v" horiz-adv-x="483" 
d="M76 394q-13 30 -37 71h69q6 -28 24 -68l158 -367l121 283q13 29 13 55q0 17 -5 29t-11 21t-8 13q-3 8 -3 13q0 12 10 17.5t26 3.5q11 -29 11 -66q0 -40 -17 -81l-108 -254q-7 -15 -11.5 -28.5t-4.5 -24.5q0 -7 1 -11h-60z" />
    <glyph glyph-name="w" unicode="w" horiz-adv-x="716" 
d="M678 397q0 -42 -16 -79l-109 -254q-8 -17 -11.5 -28.5t-3.5 -23.5q0 -8 1 -12h-60l-94 220l-66 -156q-7 -15 -11.5 -28.5t-4.5 -24.5q0 -7 1 -11h-60l-168 394q-13 30 -37 71h69q6 -28 24 -68l158 -367l88 206l-68 158q-7 17 -16.5 34.5t-20.5 36.5h70q5 -25 23 -68
l159 -367l121 283q13 32 13 54q0 17 -5 28.5t-10.5 21t-8.5 14.5q-4 10 -4 13q0 12 10.5 17.5t25.5 3.5q11 -31 11 -68z" />
    <glyph glyph-name="x" unicode="x" horiz-adv-x="475" 
d="M47 0q19 20 43 52l123 169l-131 190q-22 31 -44 54h74q9 -18 33 -54l109 -158l118 160q5 7 15.5 21t19.5 31h21q-15 -17 -25.5 -31t-15.5 -21l-124 -170l130 -190q17 -26 44 -53h-77q-15 30 -31 53l-109 157l-115 -158q-26 -34 -37 -52h-21z" />
    <glyph glyph-name="y" unicode="y" horiz-adv-x="493" 
d="M42 -136q-3 13 3.5 22t17.5 9q15 0 23 -14q11 -17 23.5 -25.5t29.5 -8.5q43 0 75 41t57 112h-45l-156 406q-14 35 -30 59h71q2 -17 6 -30.5t10 -28.5l150 -388l139 388q9 27 16 59h23q-9 -15 -14 -28.5t-11 -30.5l-145 -406q-30 -83 -64 -124t-88 -41q-49 0 -91 29z" />
    <glyph glyph-name="z" unicode="z" horiz-adv-x="513" 
d="M49 0v18l327 435h-102q-46 0 -73.5 -4t-58.5 -11q-26 -7 -42 -7q-19 0 -26.5 9t-7.5 25h369v-17l-327 -435h157q48 0 75.5 4t51.5 11q26 6 38 6q20 0 27 -8.5t7 -25.5h-415z" />
    <glyph glyph-name="braceleft" unicode="{" horiz-adv-x="399" 
d="M371 828q-69 0 -97.5 -27t-28.5 -86q0 -39 13 -109q8 -37 8 -76q0 -77 -37 -114.5t-93 -45.5q56 -8 93 -46t37 -115q0 -30 -8 -75q-13 -70 -13 -109q0 -59 28.5 -86t97.5 -27v-12q-92 0 -132.5 37t-40.5 115q0 38 9 86q9 47 9 81q0 84 -40.5 114.5t-105.5 30.5v12
q65 0 105.5 31t40.5 115q0 35 -9 81q-9 48 -9 86q0 77 41 114t132 37v-12z" />
    <glyph glyph-name="bar" unicode="|" horiz-adv-x="133" 
d="M50 -257q6 247 6 561q0 312 -6 561h33q-6 -249 -6 -561q0 -314 6 -561h-33z" />
    <glyph glyph-name="braceright" unicode="}" horiz-adv-x="399" 
d="M183 522q0 -84 40.5 -115t105.5 -31v-12q-65 0 -105.5 -30.5t-40.5 -114.5q0 -34 9 -81q9 -48 9 -86q0 -78 -40.5 -115t-132.5 -37v12q69 0 97.5 27t28.5 86q0 39 -13 109q-8 45 -8 75q0 77 37 115t93 46q-56 8 -93 45.5t-37 114.5q0 39 8 76q13 70 13 109q0 59 -28.5 86
t-97.5 27v12q91 0 132 -37t41 -114q0 -38 -9 -86q-9 -46 -9 -81z" />
    <glyph glyph-name="asciitilde" unicode="~" horiz-adv-x="517" 
d="M304.5 225.5q-21.5 8.5 -49.5 25.5q-27 16 -46 24t-40 8q-26 0 -44.5 -13.5t-39.5 -40.5l-35 29q26 25 54 39t63 14q25 0 45.5 -8.5t49.5 -25.5t47 -24.5t39 -7.5q26 0 44.5 13.5t39.5 40.5l35 -29q-53 -53 -116 -53q-25 0 -46.5 8.5z" />
    <glyph glyph-name="exclamdown" unicode="&#xa1;" horiz-adv-x="235" 
d="M70 438l48 47l47 -47l-47 -48zM124 276q5 -422 22 -580l-28 -31l-29 31q18 169 23 580h12z" />
    <glyph glyph-name="cent" unicode="&#xa2;" horiz-adv-x="580" 
d="M513 343q-57 -195 -215 -195q-31 0 -63 8l-9 -36l-25 -108l-27 6q14 45 42 143q-68 24 -107.5 87t-39.5 153q0 76 29 133t80.5 88t119.5 31q26 0 50 -6l35 144l26 -8q-21 -67 -42 -141q45 -15 76 -48.5t45 -73.5q-10 -16 -26 -16q-12 0 -21.5 9t-12.5 24q-13 66 -65 91
q-65 -221 -122 -448q31 -14 69 -14q77 0 121.5 49t69.5 128h12zM152 275q24 -58 72 -87q71 252 121 447q-19 6 -45 6q-86 0 -129 -63t-43 -174q0 -71 24 -129z" />
    <glyph glyph-name="sterling" unicode="&#xa3;" horiz-adv-x="740" 
d="M92 -2.5q-22 17.5 -22 47.5q0 31 22 49t60 18q23 0 44.5 -7.5t53.5 -23.5q21 56 21 149q0 45 -10 97q-86 -1 -175 -6l21 27q103 -4 150 -5q-6 47 -25 135q-11 53 -16 84.5t-5 62.5q0 68 28 112t71.5 63.5t92.5 19.5q72 0 119 -38.5t80 -131.5l-58 -28q-13 65 -28 104
t-41.5 60.5t-70.5 21.5q-62 0 -101.5 -46.5t-39.5 -132.5q0 -56 13 -160q9 -71 14 -126h45q95 0 220 5l-21 -27q-105 6 -203 6h-40q4 -60 4 -94q0 -94 -27 -161l47 -23.5t77.5 -30t73.5 -10.5q60 0 94 33t50 98l60 -30q-33 -66 -80 -97.5t-117 -31.5q-38 0 -75 11t-62 23.5
t-78 40.5q-40 -75 -108 -75q-36 0 -58 17.5zM205.5 11q22.5 19 37.5 52q-29 16 -47.5 23.5t-36.5 7.5q-53 0 -53 -51q0 -24 12.5 -37.5t35.5 -13.5q29 0 51.5 19z" />
    <glyph glyph-name="yen" unicode="&#xa5;" horiz-adv-x="697" 
d="M390 368q120 0 228 5v-28q-102 6 -237 6v-101q124 0 237 5v-27q-102 6 -237 6v-46q0 -81 6 -188h-69q6 89 6 188v46q-137 0 -241 -6v27q115 -5 241 -5v101q-137 0 -241 -6v28q110 -5 232 -5l-183 338q-14 27 -26 45t-36 49h83q7 -21 15.5 -39.5t18.5 -36.5l10 -18
l181 -333l180 333q32 59 47 94h22q-22 -32 -36 -58t-19 -35z" />
    <glyph glyph-name="brokenbar" unicode="&#xa6;" horiz-adv-x="133" 
d="M50 345q6 117 6 230t-6 230h33q-6 -117 -6 -230t6 -230h-33zM50 -303q6 117 6 230q0 114 -6 231h33q-6 -117 -6 -231q0 -113 6 -230h-33z" />
    <glyph glyph-name="section" unicode="&#xa7;" horiz-adv-x="672" 
d="M159 -193.5q-76 58.5 -109 196.5l48 39q10 -91 44 -154.5t85 -95.5t109 -32q79 0 128 41.5t49 106.5q0 39 -24.5 78t-79.5 88.5t-161 133.5q-70 53 -109.5 90t-59.5 73.5t-20 77.5q0 57 34.5 92.5t84.5 41.5q-22 26 -32 52t-10 55q0 65 46.5 100.5t122.5 35.5
q67 0 128 -29t124 -90l-49 -36q-76 142 -205 142q-61 0 -98.5 -27t-37.5 -76q0 -36 21 -67.5t56 -61t106 -81.5l24 -18q98 -73 151.5 -125.5t75 -97t21.5 -95.5q0 -50 -26.5 -89t-72.5 -61q22 -43 22 -90q0 -51 -27.5 -91t-76 -62.5t-109.5 -22.5q-97 0 -173 58.5zM570.5 77
q19.5 32 19.5 72q0 39 -24.5 78t-79.5 88.5t-161 132.5q-57 46 -87 72.5t-50 52.5q-39 -4 -68 -32t-29 -71q0 -36 21.5 -68t57 -62t108.5 -84l19 -14q93 -70 144 -121t74 -95q36 19 55.5 51z" />
    <glyph glyph-name="dieresis" unicode="&#xa8;" horiz-adv-x="348" 
d="M145 644l-47 -48l-48 48l48 47zM298 644l-47 -48l-48 48l48 47z" />
    <glyph glyph-name="copyright" unicode="&#xa9;" horiz-adv-x="829" 
d="M225 85q-83 49 -129 132.5t-46 182.5q0 100 46 183.5t129 132.5t190 49q106 0 189 -49t129 -133t46 -183t-46 -182.5t-129 -132.5t-189 -49q-107 0 -190 49zM598 96.5q80 47.5 124.5 128t44.5 175.5t-44.5 176t-124.5 129t-183 48t-183 -48t-124.5 -129t-44.5 -176
t44.5 -175.5t124.5 -128t183 -47.5t183 47.5zM228 515q28 53 77.5 84.5t110.5 31.5q64 0 112.5 -36.5t69.5 -82.5l-48 -24q-9 36 -20.5 63t-38.5 47.5t-72 20.5q-55 0 -94 -30.5t-59 -80t-20 -107.5q0 -49 20.5 -99t60 -83t94.5 -33q75 0 118 46t68 122h11
q-23 -80 -72.5 -131.5t-131.5 -51.5q-60 0 -109 31.5t-77 84.5t-28 114t28 114z" />
    <glyph glyph-name="guillemotleft" unicode="&#xab;" horiz-adv-x="515" 
d="M70 233q96 76 205 187q18 -3 18 -18q0 -16 -16 -30q-21 -20 -64 -48q-71 -47 -130 -91q59 -44 130 -91q43 -28 64 -48q16 -14 16 -30q0 -7 -4.5 -12.5t-13.5 -6.5q-108 110 -205 188zM223 233q96 76 205 187q18 -3 18 -18q0 -16 -16 -30q-21 -20 -64 -48
q-71 -47 -130 -91q59 -44 130 -91q43 -28 64 -48q16 -14 16 -30q0 -7 -4.5 -12.5t-13.5 -6.5q-108 110 -205 188z" />
    <glyph glyph-name="logicalnot" unicode="&#xac;" horiz-adv-x="560" 
d="M477 99q6 69 7.5 109t1.5 111q-148 0 -242 -1.5t-194 -7.5v33q176 -8 452 -8v-16q0 -64 1.5 -105.5t6.5 -114.5h-33z" />
    <glyph glyph-name="registered" unicode="&#xae;" horiz-adv-x="830" 
d="M225 85q-83 49 -129 132.5t-46 182.5q0 100 46 183.5t129 132.5t190 49t190 -49t129 -132.5t46 -183.5q0 -73 -18.5 -130.5t-51.5 -89.5t-75 -32q-44 0 -74 29.5t-54 80.5q-26 54 -48 80.5t-49 36.5t-73 10h-19v-46q0 -87 5 -163h-46q5 76 5 163v133q0 87 -5 163h78
q103 0 155 -32t52 -93q0 -106 -161 -121q55 -11 84.5 -36.5t55.5 -84.5q25 -54 45.5 -79.5t52.5 -25.5q36 0 65.5 31.5t46.5 85.5t17 120q0 96 -44.5 176.5t-125 128.5t-183.5 48t-183.5 -48t-124.5 -128.5t-44 -176.5q0 -95 44 -175.5t124.5 -128t183.5 -47.5
q62 0 109.5 13t89.5 43l8 -9q-43 -31 -93.5 -45.5t-113.5 -14.5q-107 0 -190 49zM355 397q76 0 120.5 29.5t44.5 83.5q0 55 -44.5 83.5t-120.5 28.5h-37v-225h37z" />
    <glyph glyph-name="macron" unicode="&#xaf;" horiz-adv-x="421" 
d="M50 687q108 -6 161 -6q54 0 160 6v-33q-99 7 -160 7q-60 0 -161 -7v33z" />
    <glyph glyph-name="degree" unicode="&#xb0;" horiz-adv-x="521" 
d="M160 464.5q-43 24.5 -66.5 68t-23.5 97.5t23.5 97.5t66.5 68t101 24.5q57 0 100 -24.5t66.5 -68t23.5 -97.5t-23.5 -97.5t-66.5 -68t-100 -24.5q-58 0 -101 24.5zM380.5 511q45.5 47 45.5 119t-45.5 119t-119.5 47q-75 0 -120.5 -47t-45.5 -119t45.5 -119t120.5 -47
q74 0 119.5 47z" />
    <glyph glyph-name="plusminus" unicode="&#xb1;" horiz-adv-x="561" 
d="M511 318v-33q-111 6 -220 6q0 -62 6 -137h-33q6 75 6 137q-109 0 -220 -6v33q111 -6 220 -6q0 61 -6 136h33q-6 -75 -6 -136q109 0 220 6zM50 100q130 -5 231 -5q100 0 230 5v-33q-117 6 -230 6q-114 0 -231 -6v33z" />
    <glyph glyph-name="acute" unicode="&#xb4;" horiz-adv-x="286" 
d="M50 599l165 150q20 -4 20 -21q0 -15 -13 -28q-16 -16 -35.5 -29t-58.5 -35l-72 -43z" />
    <glyph glyph-name="paragraph" unicode="&#xb6;" horiz-adv-x="769" 
d="M719 784q-79 8 -133 11q-7 -289 -7 -554q0 -266 7 -551h-33q5 204 5 552t-5 554q-58 3 -167 3q-7 -289 -7 -556q0 -268 7 -553h-33q5 285 5 578v126h-62q-110 0 -178 50t-68 159q0 108 68 158t178 50h423v-27z" />
    <glyph glyph-name="periodcentered" unicode="&#xb7;" horiz-adv-x="235" 
d="M165 259l-47 -48l-48 48l48 47z" />
    <glyph glyph-name="cedilla" unicode="&#xb8;" horiz-adv-x="380" 
d="M113.5 -265q-39.5 25 -63.5 71l35 35q20 -61 48.5 -90t70.5 -29q44 0 63 25.5t19 67.5q0 46 -29 74t-91 28q-8 0 -30 -2v13l43 82h44l-73 -84q22 2 32 2q71 0 109.5 -32.5t38.5 -79.5q0 -46 -35 -76t-90 -30q-52 0 -91.5 25z" />
    <glyph glyph-name="guillemotright" unicode="&#xbb;" horiz-adv-x="515" 
d="M92.5 51.5q-4.5 5.5 -4.5 12.5q0 16 15 29q19 18 67 50q84 57 128 90q-73 55 -127 88q-21 14 -38 26.5t-30 24.5q-15 15 -15 29q0 7 4.5 12.5t13.5 6.5q112 -114 204 -187q-92 -74 -204 -188q-9 1 -13.5 6.5zM244.5 51.5q-4.5 5.5 -4.5 12.5q0 14 15 29q19 18 65 48
q9 6 45 30.5t85 61.5q-66 49 -129 90q-7 5 -29 20t-37 29q-15 15 -15 29q0 7 4.5 12.5t13.5 6.5q109 -111 205 -187q-97 -78 -205 -188q-9 1 -13.5 6.5z" />
    <glyph glyph-name="questiondown" unicode="&#xbf;" horiz-adv-x="512" 
d="M231 438l47 47l48 -47l-48 -48zM284 268q0 -69 -13 -123t-31.5 -92t-47.5 -85q-33 -55 -48.5 -92t-15.5 -86q0 -60 28 -96.5t78 -36.5q115 0 149 186l59 -27q-64 -171 -213 -171q-40 0 -76.5 17t-59.5 51.5t-23 83.5q0 52 20.5 90t64.5 91q37 45 60.5 81t40 88.5
t16.5 120.5h12z" />
    <glyph glyph-name="Agrave" unicode="&#xc0;" horiz-adv-x="629" 
d="M541 100q8 -30 15.5 -49.5t22.5 -50.5h-78q-2 25 -5 41t-8 33.5t-7 25.5l-56 195h-271l-57 -198q-2 -5 -3.5 -11.5t-4.5 -13.5q-5 -17 -9.5 -34t-5.5 -38h-24q11 22 17 40t11 36l6 20l190 660q2 7 2 18q0 14 -5 26h70zM290 767l-133 -460h265zM379 873q-15 9 -74 43
q-39 23 -58 35.5t-35 28.5q-13 13 -13 28q0 17 20 21l166 -150z" />
    <glyph glyph-name="Aacute" unicode="&#xc1;" horiz-adv-x="629" 
d="M541 100q8 -30 15.5 -49.5t22.5 -50.5h-78q-2 25 -5 41t-8 33.5t-7 25.5l-56 195h-271l-57 -198q-2 -5 -3.5 -11.5t-4.5 -13.5q-5 -17 -9.5 -34t-5.5 -38h-24q11 22 17 40t11 36l6 20l190 660q2 7 2 18q0 14 -5 26h70zM290 767l-133 -460h265zM235 879l165 150
q20 -4 20 -21q0 -15 -13 -28q-16 -16 -35.5 -29t-58.5 -35l-72 -43z" />
    <glyph glyph-name="Acircumflex" unicode="&#xc2;" horiz-adv-x="629" 
d="M541 100q8 -30 15.5 -49.5t22.5 -50.5h-78q-2 25 -5 41t-8 33.5t-7 25.5l-56 195h-271l-57 -198q-2 -5 -3.5 -11.5t-4.5 -13.5q-5 -17 -9.5 -34t-5.5 -38h-24q11 22 17 40t11 36l6 20l190 660q2 7 2 18q0 14 -5 26h70zM290 767l-133 -460h265zM256 973q25 23 55 57
q26 -29 49 -50.5t64 -57.5l27 -23q-3 -18 -19 -18q-15 0 -30 15q-17 15 -31 34t-41 61l-19 27q-8 -11 -25 -38q-24 -36 -37 -53t-29 -31q-15 -15 -30 -15q-16 0 -19 18q60 51 85 74z" />
    <glyph glyph-name="Atilde" unicode="&#xc3;" horiz-adv-x="629" 
d="M541 100q8 -30 15.5 -49.5t22.5 -50.5h-78q-2 25 -5 41t-8 33.5t-7 25.5l-56 195h-271l-57 -198q-2 -5 -3.5 -11.5t-4.5 -13.5q-5 -17 -9.5 -34t-5.5 -38h-24q11 22 17 40t11 36l6 20l190 660q2 7 2 18q0 14 -5 26h70zM290 767l-133 -460h265zM350 911q-20 13 -45 37
q-23 21 -38.5 31.5t-32.5 10.5q-25 0 -33.5 -26t-6.5 -61h-44q6 100 80 100q23 0 42 -12.5t46 -37.5q22 -21 38 -32t33 -11q25 0 33.5 26.5t6.5 61.5h44q-6 -100 -80 -100q-23 0 -43 13z" />
    <glyph glyph-name="Adieresis" unicode="&#xc4;" horiz-adv-x="629" 
d="M541 100q8 -30 15.5 -49.5t22.5 -50.5h-78q-2 25 -5 41t-8 33.5t-7 25.5l-56 195h-271l-57 -198q-2 -5 -3.5 -11.5t-4.5 -13.5q-5 -17 -9.5 -34t-5.5 -38h-24q11 22 17 40t11 36l6 20l190 660q2 7 2 18q0 14 -5 26h70zM290 767l-133 -460h265zM282 924l-47 -48l-48 48
l48 47zM435 924l-47 -48l-48 48l48 47z" />
    <glyph glyph-name="Aring" unicode="&#xc5;" horiz-adv-x="629" 
d="M541 100q8 -30 15.5 -49.5t22.5 -50.5h-78q-2 25 -5 41t-8 33.5t-7 25.5l-56 195h-271l-57 -198q-2 -5 -3.5 -11.5t-4.5 -13.5q-5 -17 -9.5 -34t-5.5 -38h-24q11 22 17 40t11 36l6 20l190 660q2 7 2 18q0 14 -5 26h70zM290 767l-133 -460h265zM249 889q-25 26 -25 61
t25 61.5t63 26.5t62.5 -26.5t24.5 -61.5t-24.5 -61t-62.5 -26t-63 26zM366 897.5q21 22.5 21 52.5t-21 52.5t-54 22.5t-54 -22.5t-21 -52.5t21 -52.5t54 -22.5t54 22.5z" />
    <glyph glyph-name="AE" unicode="&#xc6;" horiz-adv-x="911" 
d="M632 13q80 0 140 5.5t129 22.5l-24 -41h-436q5 61 6.5 96.5t1.5 91.5v105h-234l-96 -196q-26 -50 -44 -97h-25q29 44 55 96l324 660q4 8 4 17q0 10 -7 27h444l-36 -41q-57 16 -123.5 22.5t-109.5 6.5h-95v-356h71q53 0 95.5 1.5t104.5 8.5v-32q-62 7 -104.5 8.5
t-95.5 1.5h-71v-407h126zM221 306h228v307q0 85 -5 146z" />
    <glyph glyph-name="Ccedilla" unicode="&#xc7;" horiz-adv-x="836" 
d="M796 329q-32 -156 -114 -247.5t-216 -100.5l-63 -73q22 2 32 2q71 0 109.5 -32.5t38.5 -79.5q0 -46 -35 -76t-90 -30q-52 0 -91.5 25t-63.5 71l35 35q20 -61 48.5 -90t70.5 -29q44 0 63 25.5t19 67.5q0 46 -29 74t-91 28q-8 0 -30 -2v13l37 70q-115 4 -197.5 62
t-125.5 154t-43 214q0 116 50 209.5t137 147t194 53.5q208 0 311 -208l-66 -18q-29 95 -90 154.5t-155 59.5q-93 0 -165 -53t-112 -143.5t-40 -198.5q0 -114 36 -208t109.5 -150t181.5 -56q133 0 216.5 88.5t116.5 241.5h12z" />
    <glyph glyph-name="Egrave" unicode="&#xc8;" horiz-adv-x="559" 
d="M70 0q8 102 8 188v425q0 85 -8 187h429l-36 -41q-57 16 -123.5 22.5t-110.5 6.5h-94v-356h71q53 0 95.5 1.5t104.5 8.5v-32q-62 7 -104.5 8.5t-95.5 1.5h-71v-407h126q80 0 139.5 5.5t128.5 22.5l-23 -41h-436zM347 873q-15 9 -74 43q-39 23 -58 35.5t-35 28.5
q-13 13 -13 28q0 17 20 21l166 -150z" />
    <glyph glyph-name="Eacute" unicode="&#xc9;" horiz-adv-x="559" 
d="M70 0q8 102 8 188v425q0 85 -8 187h429l-36 -41q-57 16 -123.5 22.5t-110.5 6.5h-94v-356h71q53 0 95.5 1.5t104.5 8.5v-32q-62 7 -104.5 8.5t-95.5 1.5h-71v-407h126q80 0 139.5 5.5t128.5 22.5l-23 -41h-436zM203 879l165 150q20 -4 20 -21q0 -15 -13 -28
q-16 -16 -35.5 -29t-58.5 -35l-72 -43z" />
    <glyph glyph-name="Ecircumflex" unicode="&#xca;" horiz-adv-x="559" 
d="M70 0q8 102 8 188v425q0 85 -8 187h429l-36 -41q-57 16 -123.5 22.5t-110.5 6.5h-94v-356h71q53 0 95.5 1.5t104.5 8.5v-32q-62 7 -104.5 8.5t-95.5 1.5h-71v-407h126q80 0 139.5 5.5t128.5 22.5l-23 -41h-436zM224 973q25 23 55 57q26 -29 49 -50.5t64 -57.5l27 -23
q-3 -18 -19 -18q-15 0 -30 15q-17 15 -31 34t-41 61l-19 27q-8 -11 -25 -38q-24 -36 -37 -53t-29 -31q-15 -15 -30 -15q-16 0 -19 18q60 51 85 74z" />
    <glyph glyph-name="Edieresis" unicode="&#xcb;" horiz-adv-x="559" 
d="M70 0q8 102 8 188v425q0 85 -8 187h429l-36 -41q-57 16 -123.5 22.5t-110.5 6.5h-94v-356h71q53 0 95.5 1.5t104.5 8.5v-32q-62 7 -104.5 8.5t-95.5 1.5h-71v-407h126q80 0 139.5 5.5t128.5 22.5l-23 -41h-436zM250 924l-47 -48l-48 48l48 47zM403 924l-47 -48l-48 48
l48 47z" />
    <glyph glyph-name="Igrave" unicode="&#xcc;" horiz-adv-x="209" 
d="M70 0q6 89 6 188v425q0 98 -6 187h69q-6 -107 -6 -187v-425q0 -81 6 -188h-69zM173 873q-15 9 -74 43q-39 23 -58 35.5t-35 28.5q-13 13 -13 28q0 17 20 21l166 -150z" />
    <glyph glyph-name="Iacute" unicode="&#xcd;" horiz-adv-x="209" 
d="M70 0q6 89 6 188v425q0 98 -6 187h69q-6 -107 -6 -187v-425q0 -81 6 -188h-69zM29 879l165 150q20 -4 20 -21q0 -15 -13 -28q-16 -16 -35.5 -29t-58.5 -35l-72 -43z" />
    <glyph glyph-name="Icircumflex" unicode="&#xce;" horiz-adv-x="209" 
d="M70 0q6 89 6 188v425q0 98 -6 187h69q-6 -107 -6 -187v-425q0 -81 6 -188h-69zM50 973q25 23 55 57q26 -29 49 -50.5t64 -57.5l27 -23q-3 -18 -19 -18q-15 0 -30 15q-17 15 -31 34t-41 61l-19 27q-8 -11 -25 -38q-24 -36 -37 -53t-29 -31q-15 -15 -30 -15q-16 0 -19 18
q60 51 85 74z" />
    <glyph glyph-name="Idieresis" unicode="&#xcf;" horiz-adv-x="209" 
d="M70 0q6 89 6 188v425q0 98 -6 187h69q-6 -107 -6 -187v-425q0 -81 6 -188h-69zM76 924l-47 -48l-48 48l48 47zM229 924l-47 -48l-48 48l48 47z" />
    <glyph glyph-name="Eth" unicode="&#xd0;" horiz-adv-x="707" 
d="M287 800q183 0 286.5 -103t103.5 -297q0 -125 -46.5 -215t-134 -137.5t-209.5 -47.5h-177q6 89 6 188v219h-106v12h106v194q0 98 -6 187h177zM286 13q96 0 170 45t115.5 132.5t41.5 209.5q0 127 -41.5 214t-115 130.5t-170.5 43.5h-113v-369h187v-12h-187v-394h113z" />
    <glyph glyph-name="Eth" unicode="&#xf0;" horiz-adv-x="707" 
d="M287 800q183 0 286.5 -103t103.5 -297q0 -125 -46.5 -215t-134 -137.5t-209.5 -47.5h-177q6 89 6 188v219h-106v12h106v194q0 98 -6 187h177zM286 13q96 0 170 45t115.5 132.5t41.5 209.5q0 127 -41.5 214t-115 130.5t-170.5 43.5h-113v-369h187v-12h-187v-394h113z" />
    <glyph glyph-name="Ntilde" unicode="&#xd1;" horiz-adv-x="716" 
d="M640 188q0 -99 6 -188h-60l-498 762v-574q0 -81 6 -188h-24q6 89 6 188v425q0 98 -6 187h60l498 -762v575q0 80 -6 187h24q-6 -89 -6 -187v-425zM397 911q-20 13 -45 37q-23 21 -38.5 31.5t-32.5 10.5q-25 0 -33.5 -26t-6.5 -61h-44q6 100 80 100q23 0 42 -12.5t46 -37.5
q22 -21 38 -32t33 -11q25 0 33.5 26.5t6.5 61.5h44q-6 -100 -80 -100q-23 0 -43 13z" />
    <glyph glyph-name="Ograve" unicode="&#xd2;" horiz-adv-x="984" 
d="M271.5 35q-98.5 55 -155 151t-56.5 214q0 117 56.5 213t155 151.5t220.5 55.5t220.5 -55.5t155 -151.5t56.5 -213t-56.5 -213.5t-155 -151.5t-220.5 -55t-220.5 55zM683 49q84 57 130.5 151t46.5 200t-46.5 200t-130.5 151t-191 57q-108 0 -192 -57t-130 -151t-46 -200
t46 -200t130 -151t192 -57q107 0 191 57zM560 873q-15 9 -74 43q-39 23 -58 35.5t-35 28.5q-13 13 -13 28q0 17 20 21l166 -150z" />
    <glyph glyph-name="Oacute" unicode="&#xd3;" horiz-adv-x="984" 
d="M271.5 35q-98.5 55 -155 151t-56.5 214q0 117 56.5 213t155 151.5t220.5 55.5t220.5 -55.5t155 -151.5t56.5 -213t-56.5 -213.5t-155 -151.5t-220.5 -55t-220.5 55zM683 49q84 57 130.5 151t46.5 200t-46.5 200t-130.5 151t-191 57q-108 0 -192 -57t-130 -151t-46 -200
t46 -200t130 -151t192 -57q107 0 191 57zM416 879l165 150q20 -4 20 -21q0 -15 -13 -28q-16 -16 -35.5 -29t-58.5 -35l-72 -43z" />
    <glyph glyph-name="Ocircumflex" unicode="&#xd4;" horiz-adv-x="984" 
d="M271.5 35q-98.5 55 -155 151t-56.5 214q0 117 56.5 213t155 151.5t220.5 55.5t220.5 -55.5t155 -151.5t56.5 -213t-56.5 -213.5t-155 -151.5t-220.5 -55t-220.5 55zM683 49q84 57 130.5 151t46.5 200t-46.5 200t-130.5 151t-191 57q-108 0 -192 -57t-130 -151t-46 -200
t46 -200t130 -151t192 -57q107 0 191 57zM437 973q25 23 55 57q26 -29 49 -50.5t64 -57.5l27 -23q-3 -18 -19 -18q-15 0 -30 15q-17 15 -31 34t-41 61l-19 27q-8 -11 -25 -38q-24 -36 -37 -53t-29 -31q-15 -15 -30 -15q-16 0 -19 18q60 51 85 74z" />
    <glyph glyph-name="Otilde" unicode="&#xd5;" horiz-adv-x="984" 
d="M271.5 35q-98.5 55 -155 151t-56.5 214q0 117 56.5 213t155 151.5t220.5 55.5t220.5 -55.5t155 -151.5t56.5 -213t-56.5 -213.5t-155 -151.5t-220.5 -55t-220.5 55zM683 49q84 57 130.5 151t46.5 200t-46.5 200t-130.5 151t-191 57q-108 0 -192 -57t-130 -151t-46 -200
t46 -200t130 -151t192 -57q107 0 191 57zM531 911q-20 13 -45 37q-23 21 -38.5 31.5t-32.5 10.5q-25 0 -33.5 -26t-6.5 -61h-44q6 100 80 100q23 0 42 -12.5t46 -37.5q22 -21 38 -32t33 -11q25 0 33.5 26.5t6.5 61.5h44q-6 -100 -80 -100q-23 0 -43 13z" />
    <glyph glyph-name="Odieresis" unicode="&#xd6;" horiz-adv-x="984" 
d="M271.5 35q-98.5 55 -155 151t-56.5 214q0 117 56.5 213t155 151.5t220.5 55.5t220.5 -55.5t155 -151.5t56.5 -213t-56.5 -213.5t-155 -151.5t-220.5 -55t-220.5 55zM683 49q84 57 130.5 151t46.5 200t-46.5 200t-130.5 151t-191 57q-108 0 -192 -57t-130 -151t-46 -200
t46 -200t130 -151t192 -57q107 0 191 57zM463 924l-47 -48l-48 48l48 47zM616 924l-47 -48l-48 48l48 47z" />
    <glyph glyph-name="multiply" unicode="&#xd7;" horiz-adv-x="450" 
d="M399 410q-88 -80 -159 -151q71 -71 159 -151l-23 -24q-75 84 -151 160q-72 -72 -152 -160l-23 24q83 75 160 151q-61 61 -160 151l23 23q70 -77 152 -159q88 90 151 159z" />
    <glyph glyph-name="Oslash" unicode="&#xd8;" horiz-adv-x="966" 
d="M703 769q102 -53 161.5 -151t59.5 -218q0 -117 -56.5 -213.5t-155 -151.5t-220.5 -55q-116 0 -215 52l-52 -91l-10 7l52 90q-96 55 -151.5 150.5t-55.5 211.5q0 117 56.5 213t155 151.5t220.5 55.5q108 0 200 -45l49 84l10 -7zM165.5 209.5q41.5 -89.5 115.5 -146.5
l399 690q-83 55 -188 55q-108 0 -192 -57t-130 -151t-46 -200q0 -101 41.5 -190.5zM683 49q84 57 130.5 151t46.5 200q0 104 -45 197t-125 149l-399 -691q90 -63 201 -63q107 0 191 57z" />
    <glyph glyph-name="Ugrave" unicode="&#xd9;" horiz-adv-x="671" 
d="M190.5 12q-60.5 32 -92.5 111t-32 217v273q0 98 -6 187h69q-6 -107 -6 -187v-273q0 -180 55 -260.5t174 -80.5q122 0 181 79t59 262v273q0 98 -6 187h25q-6 -89 -6 -187v-273q0 -192 -64.5 -276t-196.5 -84q-93 0 -153.5 32zM416 873q-15 9 -74 43q-39 23 -58 35.5
t-35 28.5q-13 13 -13 28q0 17 20 21l166 -150z" />
    <glyph glyph-name="Uacute" unicode="&#xda;" horiz-adv-x="671" 
d="M190.5 12q-60.5 32 -92.5 111t-32 217v273q0 98 -6 187h69q-6 -107 -6 -187v-273q0 -180 55 -260.5t174 -80.5q122 0 181 79t59 262v273q0 98 -6 187h25q-6 -89 -6 -187v-273q0 -192 -64.5 -276t-196.5 -84q-93 0 -153.5 32zM272 879l165 150q20 -4 20 -21q0 -15 -13 -28
q-16 -16 -35.5 -29t-58.5 -35l-72 -43z" />
    <glyph glyph-name="Ucircumflex" unicode="&#xdb;" horiz-adv-x="671" 
d="M190.5 12q-60.5 32 -92.5 111t-32 217v273q0 98 -6 187h69q-6 -107 -6 -187v-273q0 -180 55 -260.5t174 -80.5q122 0 181 79t59 262v273q0 98 -6 187h25q-6 -89 -6 -187v-273q0 -192 -64.5 -276t-196.5 -84q-93 0 -153.5 32zM293 973q25 23 55 57q26 -29 49 -50.5
t64 -57.5l27 -23q-3 -18 -19 -18q-15 0 -30 15q-17 15 -31 34t-41 61l-19 27q-8 -11 -25 -38q-24 -36 -37 -53t-29 -31q-15 -15 -30 -15q-16 0 -19 18q60 51 85 74z" />
    <glyph glyph-name="Udieresis" unicode="&#xdc;" horiz-adv-x="671" 
d="M190.5 12q-60.5 32 -92.5 111t-32 217v273q0 98 -6 187h69q-6 -107 -6 -187v-273q0 -180 55 -260.5t174 -80.5q122 0 181 79t59 262v273q0 98 -6 187h25q-6 -89 -6 -187v-273q0 -192 -64.5 -276t-196.5 -84q-93 0 -153.5 32zM320 924l-47 -48l-48 48l48 47zM473 924
l-47 -48l-48 48l48 47z" />
    <glyph glyph-name="Yacute" unicode="&#xdd;" horiz-adv-x="657" 
d="M298 0q6 89 6 188v163l-192 355q-14 27 -26 45t-36 49h83q7 -21 15.5 -39.5t18.5 -36.5l10 -18l181 -333l180 333q32 59 47 94h22q-22 -32 -36 -58t-19 -35l-191 -356v-163q0 -81 6 -188h-69zM268 879l165 150q20 -4 20 -21q0 -15 -13 -28q-16 -16 -35.5 -29t-58.5 -35
l-72 -43z" />
    <glyph glyph-name="Thorn" unicode="&#xde;" horiz-adv-x="567" 
d="M53 0q6 107 6 188v425q0 80 -6 187h68q-6 -89 -6 -175v-7h86q145 0 230.5 -48t85.5 -167t-85.5 -167t-230.5 -48h-85v-8q0 -91 6 -180h-69zM198 201q111 0 183 45.5t72 156.5q0 112 -72 157.5t-183 45.5h-82v-405h82z" />
    <glyph glyph-name="germandbls" unicode="&#xdf;" horiz-adv-x="619" 
d="M265.5 4.5q-42.5 24.5 -76.5 77.5q5 11 13.5 16.5t18.5 5.5q12 0 21.5 -7.5t12.5 -21.5q9 -37 31.5 -60t78.5 -23q74 0 109.5 60t35.5 146q0 91 -39.5 146t-100.5 82.5t-148 45.5l223 294q-62 42 -157 42q-67 0 -101.5 -30t-45.5 -75t-11 -106v-409q0 -86 8 -188h-68
q8 102 8 188v407q0 100 50 162.5t159 62.5q44 0 80.5 -4t90.5 -13l21 -3v-10l-235 -310q138 -23 231.5 -85.5t93.5 -191.5q0 -58 -24.5 -109t-70.5 -82.5t-108 -31.5q-58 0 -100.5 24.5z" />
    <glyph glyph-name="agrave" unicode="&#xe0;" horiz-adv-x="532" 
d="M104 13.5q-45 33.5 -45 95.5q0 71 53 105.5t146 49.5q52 8 81.5 16t48 25t18.5 47q0 58 -26 89.5t-77 31.5q-60 0 -92.5 -21t-49 -40.5t-21.5 -25.5q-16 -19 -38 -19q-12 0 -21 7.5t-10 21.5q122 89 237 89q149 0 150 -139v-160q0 -62 2.5 -101t12.5 -85h-60
q-6 71 -6 132q-18 -66 -66 -109t-126 -43q-66 0 -111 33.5zM324 26q39 27 60.5 75.5t21.5 110.5v97q-16 -24 -47 -34.5t-94 -21.5q-74 -12 -110.5 -45.5t-36.5 -92.5q0 -55 31.5 -85.5t83.5 -30.5t91 27zM346 593q-15 9 -74 43q-39 23 -58 35.5t-35 28.5q-13 13 -13 28
q0 17 20 21l166 -150z" />
    <glyph glyph-name="aacute" unicode="&#xe1;" horiz-adv-x="532" 
d="M104 13.5q-45 33.5 -45 95.5q0 71 53 105.5t146 49.5q52 8 81.5 16t48 25t18.5 47q0 58 -26 89.5t-77 31.5q-60 0 -92.5 -21t-49 -40.5t-21.5 -25.5q-16 -19 -38 -19q-12 0 -21 7.5t-10 21.5q122 89 237 89q149 0 150 -139v-160q0 -62 2.5 -101t12.5 -85h-60
q-6 71 -6 132q-18 -66 -66 -109t-126 -43q-66 0 -111 33.5zM324 26q39 27 60.5 75.5t21.5 110.5v97q-16 -24 -47 -34.5t-94 -21.5q-74 -12 -110.5 -45.5t-36.5 -92.5q0 -55 31.5 -85.5t83.5 -30.5t91 27zM202 599l165 150q20 -4 20 -21q0 -15 -13 -28q-16 -16 -35.5 -29
t-58.5 -35l-72 -43z" />
    <glyph glyph-name="acircumflex" unicode="&#xe2;" horiz-adv-x="532" 
d="M104 13.5q-45 33.5 -45 95.5q0 71 53 105.5t146 49.5q52 8 81.5 16t48 25t18.5 47q0 58 -26 89.5t-77 31.5q-60 0 -92.5 -21t-49 -40.5t-21.5 -25.5q-16 -19 -38 -19q-12 0 -21 7.5t-10 21.5q122 89 237 89q149 0 150 -139v-160q0 -62 2.5 -101t12.5 -85h-60
q-6 71 -6 132q-18 -66 -66 -109t-126 -43q-66 0 -111 33.5zM324 26q39 27 60.5 75.5t21.5 110.5v97q-16 -24 -47 -34.5t-94 -21.5q-74 -12 -110.5 -45.5t-36.5 -92.5q0 -55 31.5 -85.5t83.5 -30.5t91 27zM223 693q25 23 55 57q26 -29 49 -50.5t64 -57.5l27 -23
q-3 -18 -19 -18q-15 0 -30 15q-17 15 -31 34t-41 61l-19 27q-8 -11 -25 -38q-24 -36 -37 -53t-29 -31q-15 -15 -30 -15q-16 0 -19 18q60 51 85 74z" />
    <glyph glyph-name="atilde" unicode="&#xe3;" horiz-adv-x="532" 
d="M104 13.5q-45 33.5 -45 95.5q0 71 53 105.5t146 49.5q52 8 81.5 16t48 25t18.5 47q0 58 -26 89.5t-77 31.5q-60 0 -92.5 -21t-49 -40.5t-21.5 -25.5q-16 -19 -38 -19q-12 0 -21 7.5t-10 21.5q122 89 237 89q149 0 150 -139v-160q0 -62 2.5 -101t12.5 -85h-60
q-6 71 -6 132q-18 -66 -66 -109t-126 -43q-66 0 -111 33.5zM324 26q39 27 60.5 75.5t21.5 110.5v97q-16 -24 -47 -34.5t-94 -21.5q-74 -12 -110.5 -45.5t-36.5 -92.5q0 -55 31.5 -85.5t83.5 -30.5t91 27zM316 631q-20 13 -45 37q-23 21 -38.5 31.5t-32.5 10.5
q-25 0 -33.5 -26t-6.5 -61h-44q6 100 80 100q23 0 42 -12.5t46 -37.5q22 -21 38 -32t33 -11q25 0 33.5 26.5t6.5 61.5h44q-6 -100 -80 -100q-23 0 -43 13z" />
    <glyph glyph-name="adieresis" unicode="&#xe4;" horiz-adv-x="532" 
d="M104 13.5q-45 33.5 -45 95.5q0 71 53 105.5t146 49.5q52 8 81.5 16t48 25t18.5 47q0 58 -26 89.5t-77 31.5q-60 0 -92.5 -21t-49 -40.5t-21.5 -25.5q-16 -19 -38 -19q-12 0 -21 7.5t-10 21.5q122 89 237 89q149 0 150 -139v-160q0 -62 2.5 -101t12.5 -85h-60
q-6 71 -6 132q-18 -66 -66 -109t-126 -43q-66 0 -111 33.5zM324 26q39 27 60.5 75.5t21.5 110.5v97q-16 -24 -47 -34.5t-94 -21.5q-74 -12 -110.5 -45.5t-36.5 -92.5q0 -55 31.5 -85.5t83.5 -30.5t91 27zM249 644l-47 -48l-48 48l48 47zM402 644l-47 -48l-48 48l48 47z" />
    <glyph glyph-name="aring" unicode="&#xe5;" horiz-adv-x="532" 
d="M104 13.5q-45 33.5 -45 95.5q0 71 53 105.5t146 49.5q52 8 81.5 16t48 25t18.5 47q0 58 -26 89.5t-77 31.5q-60 0 -92.5 -21t-49 -40.5t-21.5 -25.5q-16 -19 -38 -19q-12 0 -21 7.5t-10 21.5q122 89 237 89q149 0 150 -139v-160q0 -62 2.5 -101t12.5 -85h-60
q-6 71 -6 132q-18 -66 -66 -109t-126 -43q-66 0 -111 33.5zM324 26q39 27 60.5 75.5t21.5 110.5v97q-16 -24 -47 -34.5t-94 -21.5q-74 -12 -110.5 -45.5t-36.5 -92.5q0 -55 31.5 -85.5t83.5 -30.5t91 27zM215 609q-25 26 -25 61t25 61.5t63 26.5t62.5 -26.5t24.5 -61.5
t-24.5 -61t-62.5 -26t-63 26zM332 617.5q21 22.5 21 52.5t-21 52.5t-54 22.5t-54 -22.5t-21 -52.5t21 -52.5t54 -22.5t54 22.5z" />
    <glyph glyph-name="ae" unicode="&#xe6;" horiz-adv-x="905" 
d="M866 174q-24 -91 -77 -142.5t-139 -51.5q-81 0 -141 40t-86 111q-22 -67 -72.5 -109t-134.5 -42q-66 0 -111.5 35.5t-45.5 98.5q0 68 53 101.5t146 48.5q52 8 81.5 16t48 25t18.5 47q0 58 -26 89.5t-77 31.5q-60 0 -92.5 -21t-49 -40.5t-21.5 -25.5q-16 -19 -38 -19
q-12 0 -21 7.5t-10 21.5q54 39 114 64t120 25q123 0 143 -102q32 48 82 75t108 27q62 0 108 -26t69.5 -69t23.5 -91h-369q-5 -33 -5 -64q0 -63 22.5 -118t66.5 -88t106 -33q75 0 123 47.5t71 130.5h12zM530 430.5q-43 -42.5 -58 -119.5h309q0 69 -36.5 115.5t-106.5 46.5
q-65 0 -108 -42.5zM406 309q-16 -24 -47 -34.5t-94 -21.5q-147 -24 -147 -134q0 -55 32 -87.5t83 -32.5q52 0 91 27.5t60.5 76.5t21.5 112v94z" />
    <glyph glyph-name="ccedilla" unicode="&#xe7;" horiz-adv-x="532" 
d="M493 175q-52 -182 -194 -194l-63 -73q22 2 32 2q71 0 109.5 -32.5t38.5 -79.5q0 -46 -35 -76t-90 -30q-52 0 -91.5 25t-63.5 71l35 35q20 -61 48.5 -90t70.5 -29q44 0 63 25.5t19 67.5q0 46 -29 74t-91 28q-8 0 -30 -2v13l37 71q-63 4 -110.5 36t-73.5 87.5t-26 128.5
q0 76 29 133t80.5 88t119.5 31q73 0 122 -39.5t68 -93.5q-10 -16 -26 -16q-12 0 -21.5 9t-12.5 24q-7 37 -35 70.5t-93 33.5q-86 0 -129 -63t-43 -174q0 -64 20 -118.5t61 -87.5t101 -33q76 0 121 49.5t70 128.5h12z" />
    <glyph glyph-name="egrave" unicode="&#xe8;" horiz-adv-x="547" 
d="M166 11q-55 31 -86 88.5t-31 133.5q0 75 31 132t84 88.5t117 31.5q62 0 107.5 -26t69 -69t23.5 -91h-368q-5 -25 -5 -64q0 -63 22.5 -118t66.5 -88t106 -33q74 0 122 47.5t71 130.5h12q-23 -91 -76.5 -142.5t-139.5 -51.5q-71 0 -126 31zM424 311q0 69 -37 115.5
t-107 46.5q-64 0 -107 -43t-58 -119h309zM357 593q-15 9 -74 43q-39 23 -58 35.5t-35 28.5q-13 13 -13 28q0 17 20 21l166 -150z" />
    <glyph glyph-name="eacute" unicode="&#xe9;" horiz-adv-x="547" 
d="M166 11q-55 31 -86 88.5t-31 133.5q0 75 31 132t84 88.5t117 31.5q62 0 107.5 -26t69 -69t23.5 -91h-368q-5 -25 -5 -64q0 -63 22.5 -118t66.5 -88t106 -33q74 0 122 47.5t71 130.5h12q-23 -91 -76.5 -142.5t-139.5 -51.5q-71 0 -126 31zM424 311q0 69 -37 115.5
t-107 46.5q-64 0 -107 -43t-58 -119h309zM213 599l165 150q20 -4 20 -21q0 -15 -13 -28q-16 -16 -35.5 -29t-58.5 -35l-72 -43z" />
    <glyph glyph-name="ecircumflex" unicode="&#xea;" horiz-adv-x="547" 
d="M166 11q-55 31 -86 88.5t-31 133.5q0 75 31 132t84 88.5t117 31.5q62 0 107.5 -26t69 -69t23.5 -91h-368q-5 -25 -5 -64q0 -63 22.5 -118t66.5 -88t106 -33q74 0 122 47.5t71 130.5h12q-23 -91 -76.5 -142.5t-139.5 -51.5q-71 0 -126 31zM424 311q0 69 -37 115.5
t-107 46.5q-64 0 -107 -43t-58 -119h309zM234 693q25 23 55 57q26 -29 49 -50.5t64 -57.5l27 -23q-3 -18 -19 -18q-15 0 -30 15q-17 15 -31 34t-41 61l-19 27q-8 -11 -25 -38q-24 -36 -37 -53t-29 -31q-15 -15 -30 -15q-16 0 -19 18q60 51 85 74z" />
    <glyph glyph-name="edieresis" unicode="&#xeb;" horiz-adv-x="547" 
d="M166 11q-55 31 -86 88.5t-31 133.5q0 75 31 132t84 88.5t117 31.5q62 0 107.5 -26t69 -69t23.5 -91h-368q-5 -25 -5 -64q0 -63 22.5 -118t66.5 -88t106 -33q74 0 122 47.5t71 130.5h12q-23 -91 -76.5 -142.5t-139.5 -51.5q-71 0 -126 31zM424 311q0 69 -37 115.5
t-107 46.5q-64 0 -107 -43t-58 -119h309zM261 644l-47 -48l-48 48l48 47zM414 644l-47 -48l-48 48l48 47z" />
    <glyph glyph-name="igrave" unicode="&#xec;" horiz-adv-x="164" 
d="M50 0q6 68 6 178v110q0 109 -6 177h64q-6 -68 -6 -177v-110q0 -110 6 -178h-64zM150 593q-15 9 -74 43q-39 23 -58 35.5t-35 28.5q-13 13 -13 28q0 17 20 21l166 -150z" />
    <glyph glyph-name="iacute" unicode="&#xed;" horiz-adv-x="164" 
d="M50 0q6 68 6 178v110q0 109 -6 177h64q-6 -68 -6 -177v-110q0 -110 6 -178h-64zM7 599l165 150q20 -4 20 -21q0 -15 -13 -28q-16 -16 -35.5 -29t-58.5 -35l-72 -43z" />
    <glyph glyph-name="icircumflex" unicode="&#xee;" horiz-adv-x="164" 
d="M50 0q6 68 6 178v110q0 109 -6 177h64q-6 -68 -6 -177v-110q0 -110 6 -178h-64zM28 693q25 23 55 57q26 -29 49 -50.5t64 -57.5l27 -23q-3 -18 -19 -18q-15 0 -30 15q-17 15 -31 34t-41 61l-19 27q-8 -11 -25 -38q-24 -36 -37 -53t-29 -31q-15 -15 -30 -15q-16 0 -19 18
q60 51 85 74z" />
    <glyph glyph-name="idieresis" unicode="&#xef;" horiz-adv-x="164" 
d="M50 0q6 68 6 178v110q0 109 -6 177h64q-6 -68 -6 -177v-110q0 -110 6 -178h-64zM54 644l-47 -48l-48 48l48 47zM207 644l-47 -48l-48 48l48 47z" />
    <glyph glyph-name="ntilde" unicode="&#xf1;" horiz-adv-x="530" 
d="M398 0q6 94 6 186v127q0 78 -25.5 117t-78.5 39q-59 0 -103 -40t-71 -95v-46v-110q0 -110 6 -178h-64q6 68 6 178v110q0 109 -6 177h64q-4 -39 -6 -109q26 53 75 91t114 38q72 0 106.5 -44t34.5 -139v-116q0 -39 1 -80.5t6 -105.5h-65zM307 631q-20 13 -45 37
q-23 21 -38.5 31.5t-32.5 10.5q-25 0 -33.5 -26t-6.5 -61h-44q6 100 80 100q23 0 42 -12.5t46 -37.5q22 -21 38 -32t33 -11q25 0 33.5 26.5t6.5 61.5h44q-6 -100 -80 -100q-23 0 -43 13z" />
    <glyph glyph-name="ograve" unicode="&#xf2;" horiz-adv-x="611" 
d="M171.5 12.5q-58.5 32.5 -90.5 90t-32 130.5q0 72 32 129.5t90.5 90t134.5 32.5q75 0 133.5 -32.5t91 -90t32.5 -129.5t-32.5 -130t-91 -90.5t-133.5 -32.5q-76 0 -134.5 32.5zM453 58.5q51 66.5 51 174.5q0 107 -51 173.5t-147 66.5t-147 -66.5t-51 -173.5
q0 -108 51 -174.5t147 -66.5t147 66.5zM373 593q-15 9 -74 43q-39 23 -58 35.5t-35 28.5q-13 13 -13 28q0 17 20 21l166 -150z" />
    <glyph glyph-name="oacute" unicode="&#xf3;" horiz-adv-x="611" 
d="M171.5 12.5q-58.5 32.5 -90.5 90t-32 130.5q0 72 32 129.5t90.5 90t134.5 32.5q75 0 133.5 -32.5t91 -90t32.5 -129.5t-32.5 -130t-91 -90.5t-133.5 -32.5q-76 0 -134.5 32.5zM453 58.5q51 66.5 51 174.5q0 107 -51 173.5t-147 66.5t-147 -66.5t-51 -173.5
q0 -108 51 -174.5t147 -66.5t147 66.5zM230 599l165 150q20 -4 20 -21q0 -15 -13 -28q-16 -16 -35.5 -29t-58.5 -35l-72 -43z" />
    <glyph glyph-name="ocircumflex" unicode="&#xf4;" horiz-adv-x="611" 
d="M171.5 12.5q-58.5 32.5 -90.5 90t-32 130.5q0 72 32 129.5t90.5 90t134.5 32.5q75 0 133.5 -32.5t91 -90t32.5 -129.5t-32.5 -130t-91 -90.5t-133.5 -32.5q-76 0 -134.5 32.5zM453 58.5q51 66.5 51 174.5q0 107 -51 173.5t-147 66.5t-147 -66.5t-51 -173.5
q0 -108 51 -174.5t147 -66.5t147 66.5zM251 693q25 23 55 57q26 -29 49 -50.5t64 -57.5l27 -23q-3 -18 -19 -18q-15 0 -30 15q-17 15 -31 34t-41 61l-19 27q-8 -11 -25 -38q-24 -36 -37 -53t-29 -31q-15 -15 -30 -15q-16 0 -19 18q60 51 85 74z" />
    <glyph glyph-name="otilde" unicode="&#xf5;" horiz-adv-x="611" 
d="M171.5 12.5q-58.5 32.5 -90.5 90t-32 130.5q0 72 32 129.5t90.5 90t134.5 32.5q75 0 133.5 -32.5t91 -90t32.5 -129.5t-32.5 -130t-91 -90.5t-133.5 -32.5q-76 0 -134.5 32.5zM453 58.5q51 66.5 51 174.5q0 107 -51 173.5t-147 66.5t-147 -66.5t-51 -173.5
q0 -108 51 -174.5t147 -66.5t147 66.5zM344 631q-20 13 -45 37q-23 21 -38.5 31.5t-32.5 10.5q-25 0 -33.5 -26t-6.5 -61h-44q6 100 80 100q23 0 42 -12.5t46 -37.5q22 -21 38 -32t33 -11q25 0 33.5 26.5t6.5 61.5h44q-6 -100 -80 -100q-23 0 -43 13z" />
    <glyph glyph-name="odieresis" unicode="&#xf6;" horiz-adv-x="611" 
d="M171.5 12.5q-58.5 32.5 -90.5 90t-32 130.5q0 72 32 129.5t90.5 90t134.5 32.5q75 0 133.5 -32.5t91 -90t32.5 -129.5t-32.5 -130t-91 -90.5t-133.5 -32.5q-76 0 -134.5 32.5zM453 58.5q51 66.5 51 174.5q0 107 -51 173.5t-147 66.5t-147 -66.5t-51 -173.5
q0 -108 51 -174.5t147 -66.5t147 66.5zM277 644l-47 -48l-48 48l48 47zM430 644l-47 -48l-48 48l48 47z" />
    <glyph glyph-name="divide" unicode="&#xf7;" horiz-adv-x="561" 
d="M50 276q130 -5 231 -5q100 0 230 5v-33q-117 6 -230 6q-114 0 -231 -6v33zM328 414l-47 -48l-48 48l48 47zM328 107l-47 -48l-48 48l48 47z" />
    <glyph glyph-name="oslash" unicode="&#xf8;" horiz-adv-x="611" 
d="M440 452q58 -32 90.5 -89.5t32.5 -129.5t-32.5 -130t-91 -90.5t-133.5 -32.5q-66 0 -123 27l-58 -101l-11 6l58 101q-58 32 -90.5 89.5t-32.5 130.5q0 72 32 129.5t90.5 90t134.5 32.5q66 0 123 -27l58 101l11 -6zM127 116.5q19 -51.5 57 -83.5l234 407q-46 33 -112 33
q-96 0 -147 -66.5t-51 -173.5q0 -65 19 -116.5zM453 58.5q51 66.5 51 174.5q0 65 -19 116.5t-57 82.5l-234 -407q47 -33 112 -33q96 0 147 66.5z" />
    <glyph glyph-name="ugrave" unicode="&#xf9;" horiz-adv-x="527" 
d="M112.5 24q-34.5 44 -34.5 139v116q0 52 -1.5 87t-8.5 99h62v-313q0 -156 104 -156q59 0 103 37.5t71 89.5v156q0 52 -2 87t-9 99h63v-465h-58l6 107q-27 -52 -76.5 -89.5t-112.5 -37.5q-72 0 -106.5 44zM335 593q-15 9 -74 43q-39 23 -58 35.5t-35 28.5q-13 13 -13 28
q0 17 20 21l166 -150z" />
    <glyph glyph-name="uacute" unicode="&#xfa;" horiz-adv-x="527" 
d="M112.5 24q-34.5 44 -34.5 139v116q0 52 -1.5 87t-8.5 99h62v-313q0 -156 104 -156q59 0 103 37.5t71 89.5v156q0 52 -2 87t-9 99h63v-465h-58l6 107q-27 -52 -76.5 -89.5t-112.5 -37.5q-72 0 -106.5 44zM191 599l165 150q20 -4 20 -21q0 -15 -13 -28q-16 -16 -35.5 -29
t-58.5 -35l-72 -43z" />
    <glyph glyph-name="ucircumflex" unicode="&#xfb;" horiz-adv-x="527" 
d="M112.5 24q-34.5 44 -34.5 139v116q0 52 -1.5 87t-8.5 99h62v-313q0 -156 104 -156q59 0 103 37.5t71 89.5v156q0 52 -2 87t-9 99h63v-465h-58l6 107q-27 -52 -76.5 -89.5t-112.5 -37.5q-72 0 -106.5 44zM212 693q25 23 55 57q26 -29 49 -50.5t64 -57.5l27 -23
q-3 -18 -19 -18q-15 0 -30 15q-17 15 -31 34t-41 61l-19 27q-8 -11 -25 -38q-24 -36 -37 -53t-29 -31q-15 -15 -30 -15q-16 0 -19 18q60 51 85 74z" />
    <glyph glyph-name="udieresis" unicode="&#xfc;" horiz-adv-x="527" 
d="M112.5 24q-34.5 44 -34.5 139v116q0 52 -1.5 87t-8.5 99h62v-313q0 -156 104 -156q59 0 103 37.5t71 89.5v156q0 52 -2 87t-9 99h63v-465h-58l6 107q-27 -52 -76.5 -89.5t-112.5 -37.5q-72 0 -106.5 44zM238 644l-47 -48l-48 48l48 47zM391 644l-47 -48l-48 48l48 47z
" />
    <glyph glyph-name="yacute" unicode="&#xfd;" horiz-adv-x="493" 
d="M42 -136q-3 13 3.5 22t17.5 9q15 0 23 -14q11 -17 23.5 -25.5t29.5 -8.5q43 0 75 41t57 112h-45l-156 406q-14 35 -30 59h71q2 -17 6 -30.5t10 -28.5l150 -388l139 388q9 27 16 59h23q-9 -15 -14 -28.5t-11 -30.5l-145 -406q-30 -83 -64 -124t-88 -41q-49 0 -91 29z
M179 599l165 150q20 -4 20 -21q0 -15 -13 -28q-16 -16 -35.5 -29t-58.5 -35l-72 -43z" />
    <glyph glyph-name="thorn" unicode="&#xfe;" horiz-adv-x="562" 
d="M53 -240q6 77 6 186v668q0 109 -6 186h63q-5 -77 -5 -186v-286q18 70 66 113.5t120 43.5q64 0 112.5 -32t75.5 -89t27 -131q0 -73 -28 -131t-76 -90t-105 -32q-55 0 -105.5 29.5t-86.5 74.5v-138q0 -109 6 -186h-64zM410 61q43 66 43 172q0 105 -41 170.5t-126 65.5
q-83 0 -129 -65t-46 -163v-142q33 -44 82 -74t99 -30q75 0 118 66z" />
    <glyph glyph-name="ydieresis" unicode="&#xff;" horiz-adv-x="493" 
d="M42 -136q-3 13 3.5 22t17.5 9q15 0 23 -14q11 -17 23.5 -25.5t29.5 -8.5q43 0 75 41t57 112h-45l-156 406q-14 35 -30 59h71q2 -17 6 -30.5t10 -28.5l150 -388l139 388q9 27 16 59h23q-9 -15 -14 -28.5t-11 -30.5l-145 -406q-30 -83 -64 -124t-88 -41q-49 0 -91 29z
M226 644l-47 -48l-48 48l48 47zM379 644l-47 -48l-48 48l48 47z" />
    <glyph glyph-name="Amacron" unicode="&#x100;" horiz-adv-x="629" 
d="M541 100q8 -30 15.5 -49.5t22.5 -50.5h-78q-2 25 -5 41t-8 33.5t-7 25.5l-56 195h-271l-57 -198q-2 -5 -3.5 -11.5t-4.5 -13.5q-5 -17 -9.5 -34t-5.5 -38h-24q11 22 17 40t11 36l6 20l190 660q2 7 2 18q0 14 -5 26h70zM290 767l-133 -460h265zM151 967q108 -6 161 -6
q54 0 160 6v-33q-99 7 -160 7q-60 0 -161 -7v33z" />
    <glyph glyph-name="amacron" unicode="&#x101;" horiz-adv-x="532" 
d="M104 13.5q-45 33.5 -45 95.5q0 71 53 105.5t146 49.5q52 8 81.5 16t48 25t18.5 47q0 58 -26 89.5t-77 31.5q-60 0 -92.5 -21t-49 -40.5t-21.5 -25.5q-16 -19 -38 -19q-12 0 -21 7.5t-10 21.5q122 89 237 89q149 0 150 -139v-160q0 -62 2.5 -101t12.5 -85h-60
q-6 71 -6 132q-18 -66 -66 -109t-126 -43q-66 0 -111 33.5zM324 26q39 27 60.5 75.5t21.5 110.5v97q-16 -24 -47 -34.5t-94 -21.5q-74 -12 -110.5 -45.5t-36.5 -92.5q0 -55 31.5 -85.5t83.5 -30.5t91 27zM118 687q108 -6 161 -6q54 0 160 6v-33q-99 7 -160 7q-60 0 -161 -7
v33z" />
    <glyph glyph-name="Abreve" unicode="&#x102;" horiz-adv-x="629" 
d="M541 100q8 -30 15.5 -49.5t22.5 -50.5h-78q-2 25 -5 41t-8 33.5t-7 25.5l-56 195h-271l-57 -198q-2 -5 -3.5 -11.5t-4.5 -13.5q-5 -17 -9.5 -34t-5.5 -38h-24q11 22 17 40t11 36l6 20l190 660q2 7 2 18q0 14 -5 26h70zM290 767l-133 -460h265zM212.5 904.5
q-36.5 39.5 -39.5 103.5h44q-2 -52 17 -91t77 -39t77.5 39t17.5 91h43q-3 -64 -39 -103.5t-99 -39.5q-62 0 -98.5 39.5z" />
    <glyph glyph-name="abreve" unicode="&#x103;" horiz-adv-x="532" 
d="M104 13.5q-45 33.5 -45 95.5q0 71 53 105.5t146 49.5q52 8 81.5 16t48 25t18.5 47q0 58 -26 89.5t-77 31.5q-60 0 -92.5 -21t-49 -40.5t-21.5 -25.5q-16 -19 -38 -19q-12 0 -21 7.5t-10 21.5q122 89 237 89q149 0 150 -139v-160q0 -62 2.5 -101t12.5 -85h-60
q-6 71 -6 132q-18 -66 -66 -109t-126 -43q-66 0 -111 33.5zM324 26q39 27 60.5 75.5t21.5 110.5v97q-16 -24 -47 -34.5t-94 -21.5q-74 -12 -110.5 -45.5t-36.5 -92.5q0 -55 31.5 -85.5t83.5 -30.5t91 27zM179.5 624.5q-36.5 39.5 -39.5 103.5h44q-2 -52 17 -91t77 -39
t77.5 39t17.5 91h43q-3 -64 -39 -103.5t-99 -39.5q-62 0 -98.5 39.5z" />
    <glyph glyph-name="Aogonek" unicode="&#x104;" horiz-adv-x="629" 
d="M646 -168q-24 -39 -45 -64t-52 -41.5t-74 -16.5q-57 0 -90 26t-33 75q0 41 23.5 68.5t73.5 65.5q49 38 67 55h-15q-2 25 -5 41t-8 33.5t-7 25.5l-56 195h-271l-57 -198q-2 -5 -3.5 -11.5t-4.5 -13.5q-5 -17 -9.5 -34t-5.5 -38h-24q11 22 17 40t11 36l6 20l190 660
q2 7 2 18q0 14 -5 26h70l200 -700q8 -30 15.5 -49.5t22.5 -50.5h-50q-37 -39 -53 -53q-44 -43 -62 -70t-18 -67q0 -44 23.5 -66t57.5 -22q37 0 61 19t39.5 48t33.5 78zM290 767l-133 -460h265z" />
    <glyph glyph-name="aogonek" unicode="&#x105;" horiz-adv-x="532" 
d="M555 -168q-24 -39 -45 -64t-52 -41.5t-74 -16.5q-57 0 -90 26t-33 75q0 41 23.5 68.5t73.5 65.5q49 38 67 55h-12q-6 71 -6 132q-18 -66 -66 -109t-126 -43q-66 0 -111 33.5t-45 95.5q0 71 53 105.5t146 49.5q52 8 81.5 16t48 25t18.5 47q0 58 -26 89.5t-77 31.5
q-60 0 -92.5 -21t-49 -40.5t-21.5 -25.5q-16 -19 -38 -19q-12 0 -21 7.5t-10 21.5q122 89 237 89q149 0 150 -139v-160q0 -62 2.5 -101t12.5 -85h-35q-37 -39 -53 -53q-44 -43 -62 -70t-18 -67q0 -44 23.5 -66t57.5 -22q37 0 61 19t39.5 48t33.5 78zM406 309
q-16 -24 -47 -34.5t-94 -21.5q-74 -12 -110.5 -45.5t-36.5 -92.5q0 -55 31.5 -85.5t83.5 -30.5t91 27t60.5 75.5t21.5 110.5v97z" />
    <glyph glyph-name="Cacute" unicode="&#x106;" horiz-adv-x="836" 
d="M235 37q-86 57 -130.5 155t-44.5 218q0 116 50 209.5t137 147t194 53.5q208 0 311 -208l-66 -18q-29 95 -90 154.5t-155 59.5q-93 0 -165 -53t-112 -143.5t-40 -198.5q0 -114 36 -208t109.5 -150t181.5 -56q133 0 216.5 88.5t116.5 241.5h12q-34 -163 -122.5 -256
t-233.5 -93q-119 0 -205 57zM364 879l165 150q20 -4 20 -21q0 -15 -13 -28q-16 -16 -35.5 -29t-58.5 -35l-72 -43z" />
    <glyph glyph-name="cacute" unicode="&#x107;" horiz-adv-x="532" 
d="M158.5 11q-51.5 31 -80.5 88.5t-29 133.5t29 133t80.5 88t119.5 31q73 0 122 -39.5t68 -93.5q-10 -16 -26 -16q-12 0 -21.5 9t-12.5 24q-7 37 -35 70.5t-93 33.5q-86 0 -129 -63t-43 -174q0 -64 20 -118.5t61 -87.5t101 -33q76 0 121 49.5t70 128.5h12
q-57 -195 -215 -195q-68 0 -119.5 31zM191 599l165 150q20 -4 20 -21q0 -15 -13 -28q-16 -16 -35.5 -29t-58.5 -35l-72 -43z" />
    <glyph glyph-name="Cdotaccent" unicode="&#x10a;" horiz-adv-x="836" 
d="M235 37q-86 57 -130.5 155t-44.5 218q0 116 50 209.5t137 147t194 53.5q208 0 311 -208l-66 -18q-29 95 -90 154.5t-155 59.5q-93 0 -165 -53t-112 -143.5t-40 -198.5q0 -114 36 -208t109.5 -150t181.5 -56q133 0 216.5 88.5t116.5 241.5h12q-34 -163 -122.5 -256
t-233.5 -93q-119 0 -205 57zM487 924l-47 -48l-48 48l48 47z" />
    <glyph glyph-name="cdotaccent" unicode="&#x10b;" horiz-adv-x="532" 
d="M158.5 11q-51.5 31 -80.5 88.5t-29 133.5t29 133t80.5 88t119.5 31q73 0 122 -39.5t68 -93.5q-10 -16 -26 -16q-12 0 -21.5 9t-12.5 24q-7 37 -35 70.5t-93 33.5q-86 0 -129 -63t-43 -174q0 -64 20 -118.5t61 -87.5t101 -33q76 0 121 49.5t70 128.5h12
q-57 -195 -215 -195q-68 0 -119.5 31zM315 644l-47 -48l-48 48l48 47z" />
    <glyph glyph-name="Ccaron" unicode="&#x10c;" horiz-adv-x="836" 
d="M235 37q-86 57 -130.5 155t-44.5 218q0 116 50 209.5t137 147t194 53.5q208 0 311 -208l-66 -18q-29 95 -90 154.5t-155 59.5q-93 0 -165 -53t-112 -143.5t-40 -198.5q0 -114 36 -208t109.5 -150t181.5 -56q133 0 216.5 88.5t116.5 241.5h12q-34 -163 -122.5 -256
t-233.5 -93q-119 0 -205 57zM319 1026q15 0 30 -15q16 -13 27.5 -28.5t36.5 -53.5l27 -39q5 7 10 14.5t11 15.5q26 39 40 57.5t30 33.5q15 15 30 15q16 0 19 -18l-27 -23q-41 -36 -64 -57.5t-49 -50.5q-30 34 -55 57t-85 74q3 18 19 18z" />
    <glyph glyph-name="ccaron" unicode="&#x10d;" horiz-adv-x="532" 
d="M158.5 11q-51.5 31 -80.5 88.5t-29 133.5t29 133t80.5 88t119.5 31q73 0 122 -39.5t68 -93.5q-10 -16 -26 -16q-12 0 -21.5 9t-12.5 24q-7 37 -35 70.5t-93 33.5q-86 0 -129 -63t-43 -174q0 -64 20 -118.5t61 -87.5t101 -33q76 0 121 49.5t70 128.5h12
q-57 -195 -215 -195q-68 0 -119.5 31zM146 746q15 0 30 -15q16 -13 27.5 -28.5t36.5 -53.5l27 -39q5 7 10 14.5t11 15.5q26 39 40 57.5t30 33.5q15 15 30 15q16 0 19 -18l-27 -23q-41 -36 -64 -57.5t-49 -50.5q-30 34 -55 57t-85 74q3 18 19 18z" />
    <glyph glyph-name="Dcaron" unicode="&#x10e;" horiz-adv-x="697" 
d="M70 0q6 89 6 188v425q0 98 -6 187h177q183 0 286.5 -103t103.5 -297q0 -125 -46.5 -215t-134 -137.5t-209.5 -47.5h-177zM246 13q96 0 170 45t115.5 132.5t41.5 209.5q0 127 -41.5 214t-115 130.5t-170.5 43.5h-113v-775h113zM154 1026q15 0 30 -15q16 -13 27.5 -28.5
t36.5 -53.5l27 -39q5 7 10 14.5t11 15.5q26 39 40 57.5t30 33.5q15 15 30 15q16 0 19 -18l-27 -23q-41 -36 -64 -57.5t-49 -50.5q-30 34 -55 57t-85 74q3 18 19 18z" />
    <glyph glyph-name="dcaron" unicode="&#x10f;" horiz-adv-x="622" 
d="M151.5 12q-48.5 32 -75.5 89.5t-27 131.5q0 73 28 130.5t76 89.5t105 32q55 0 105.5 -29.5t86.5 -74.5v233q0 52 -1.5 87t-8.5 99h62v-622q0 -51 2.5 -85t13.5 -93h-61q-7 92 -7 137q-18 -70 -66 -113.5t-121 -43.5q-63 0 -111.5 32zM370.5 26.5q39.5 30.5 59.5 82.5
t20 115v142q-34 44 -82.5 74t-98.5 30q-75 0 -118 -66t-43 -171t41 -171t126 -66q56 0 95.5 30.5zM692 764l-89 -173l-6 5l48 120l-48 48l48 47z" />
    <glyph glyph-name="Dcroat" unicode="&#x110;" horiz-adv-x="707" 
d="M287 800q183 0 286.5 -103t103.5 -297q0 -125 -46.5 -215t-134 -137.5t-209.5 -47.5h-177q6 89 6 188v219h-106v12h106v194q0 98 -6 187h177zM286 13q96 0 170 45t115.5 132.5t41.5 209.5q0 127 -41.5 214t-115 130.5t-170.5 43.5h-113v-369h187v-12h-187v-394h113z" />
    <glyph glyph-name="dcroat" unicode="&#x111;" horiz-adv-x="589" 
d="M579 651h-77v-473q0 -51 2.5 -85t13.5 -93h-61q-7 92 -7 137q-18 -70 -66 -113.5t-121 -43.5q-63 0 -111.5 32t-75.5 89.5t-27 131.5q0 73 28 130.5t76 89.5t105 32q55 0 105.5 -29.5t86.5 -74.5v233v37h-188v12h188q-2 60 -10 137h62v-137h77v-12zM450 366
q-34 44 -82.5 74t-98.5 30q-75 0 -118 -66t-43 -171t41 -171t126 -66q56 0 95.5 30.5t59.5 82.5t20 115v142z" />
    <glyph glyph-name="Emacron" unicode="&#x112;" horiz-adv-x="559" 
d="M70 0q8 102 8 188v425q0 85 -8 187h429l-36 -41q-57 16 -123.5 22.5t-110.5 6.5h-94v-356h71q53 0 95.5 1.5t104.5 8.5v-32q-62 7 -104.5 8.5t-95.5 1.5h-71v-407h126q80 0 139.5 5.5t128.5 22.5l-23 -41h-436zM119 967q108 -6 161 -6q54 0 160 6v-33q-99 7 -160 7
q-60 0 -161 -7v33z" />
    <glyph glyph-name="emacron" unicode="&#x113;" horiz-adv-x="547" 
d="M166 11q-55 31 -86 88.5t-31 133.5q0 75 31 132t84 88.5t117 31.5q62 0 107.5 -26t69 -69t23.5 -91h-368q-5 -25 -5 -64q0 -63 22.5 -118t66.5 -88t106 -33q74 0 122 47.5t71 130.5h12q-23 -91 -76.5 -142.5t-139.5 -51.5q-71 0 -126 31zM424 311q0 69 -37 115.5
t-107 46.5q-64 0 -107 -43t-58 -119h309zM129 687q108 -6 161 -6q54 0 160 6v-33q-99 7 -160 7q-60 0 -161 -7v33z" />
    <glyph glyph-name="Edotaccent" unicode="&#x116;" horiz-adv-x="559" 
d="M70 0q8 102 8 188v425q0 85 -8 187h429l-36 -41q-57 16 -123.5 22.5t-110.5 6.5h-94v-356h71q53 0 95.5 1.5t104.5 8.5v-32q-62 7 -104.5 8.5t-95.5 1.5h-71v-407h126q80 0 139.5 5.5t128.5 22.5l-23 -41h-436zM326 924l-47 -48l-48 48l48 47z" />
    <glyph glyph-name="edotaccent" unicode="&#x117;" horiz-adv-x="547" 
d="M166 11q-55 31 -86 88.5t-31 133.5q0 75 31 132t84 88.5t117 31.5q62 0 107.5 -26t69 -69t23.5 -91h-368q-5 -25 -5 -64q0 -63 22.5 -118t66.5 -88t106 -33q74 0 122 47.5t71 130.5h12q-23 -91 -76.5 -142.5t-139.5 -51.5q-71 0 -126 31zM424 311q0 69 -37 115.5
t-107 46.5q-64 0 -107 -43t-58 -119h309zM337 644l-47 -48l-48 48l48 47z" />
    <glyph glyph-name="Eogonek" unicode="&#x118;" horiz-adv-x="559" 
d="M415 -259q24 19 39.5 48t33.5 78l35 -35q-24 -39 -45 -64t-52 -41.5t-74 -16.5q-57 0 -90 26t-33 75q0 41 23.5 68.5t73.5 65.5q49 38 67 55h-323q8 102 8 188v425q0 85 -8 187h429l-36 -41q-57 16 -123.5 22.5t-110.5 6.5h-94v-356h71q53 0 95.5 1.5t104.5 8.5v-32
q-62 7 -104.5 8.5t-95.5 1.5h-71v-407h126q80 0 139.5 5.5t128.5 22.5l-23 -41h-100q-37 -39 -53 -53q-44 -43 -62 -70t-18 -67q0 -44 23.5 -66t57.5 -22q37 0 61 19z" />
    <glyph glyph-name="eogonek" unicode="&#x119;" horiz-adv-x="547" 
d="M509 -168q-24 -39 -45 -64t-52 -41.5t-74 -16.5q-57 0 -90 26t-33 75q0 29 12.5 51.5t31.5 39.5t54 44q39 30 61 49q-36 -15 -82 -15q-71 0 -126 31t-86 88.5t-31 133.5q0 75 31 132t84 88.5t117 31.5q62 0 107.5 -26t69 -69t23.5 -91h-368q-5 -25 -5 -64
q0 -63 22.5 -118t66.5 -88t106 -33q74 0 122 47.5t71 130.5h12q-31 -122 -110 -167q-27 -30 -59 -61q-44 -43 -62 -70t-18 -66q0 -44 23.5 -66t57.5 -22q37 0 61 19t39.5 48t33.5 78zM173 430q-43 -43 -58 -119h309q0 69 -37 115.5t-107 46.5q-64 0 -107 -43z" />
    <glyph glyph-name="Ecaron" unicode="&#x11a;" horiz-adv-x="559" 
d="M70 0q8 102 8 188v425q0 85 -8 187h429l-36 -41q-57 16 -123.5 22.5t-110.5 6.5h-94v-356h71q53 0 95.5 1.5t104.5 8.5v-32q-62 7 -104.5 8.5t-95.5 1.5h-71v-407h126q80 0 139.5 5.5t128.5 22.5l-23 -41h-436zM158 1026q15 0 30 -15q16 -13 27.5 -28.5t36.5 -53.5
l27 -39q5 7 10 14.5t11 15.5q26 39 40 57.5t30 33.5q15 15 30 15q16 0 19 -18l-27 -23q-41 -36 -64 -57.5t-49 -50.5q-30 34 -55 57t-85 74q3 18 19 18z" />
    <glyph glyph-name="ecaron" unicode="&#x11b;" horiz-adv-x="547" 
d="M166 11q-55 31 -86 88.5t-31 133.5q0 75 31 132t84 88.5t117 31.5q62 0 107.5 -26t69 -69t23.5 -91h-368q-5 -25 -5 -64q0 -63 22.5 -118t66.5 -88t106 -33q74 0 122 47.5t71 130.5h12q-23 -91 -76.5 -142.5t-139.5 -51.5q-71 0 -126 31zM424 311q0 69 -37 115.5
t-107 46.5q-64 0 -107 -43t-58 -119h309zM168 746q15 0 30 -15q16 -13 27.5 -28.5t36.5 -53.5l27 -39q5 7 10 14.5t11 15.5q26 39 40 57.5t30 33.5q15 15 30 15q16 0 19 -18l-27 -23q-41 -36 -64 -57.5t-49 -50.5q-30 34 -55 57t-85 74q3 18 19 18z" />
    <glyph glyph-name="Gbreve" unicode="&#x11e;" horiz-adv-x="869" 
d="M235.5 37.5q-84.5 57.5 -130 155.5t-45.5 217q0 116 50 209.5t137 147t194 53.5q108 0 184.5 -52.5t127.5 -153.5l-66 -17q-29 94 -90 152.5t-156 58.5q-93 0 -165 -53t-112 -143.5t-40 -198.5q0 -112 37.5 -205.5t109.5 -149t172 -55.5q139 0 218.5 103t87.5 287h-31
q-45 0 -111 -6.5t-123 -22.5l-36 41h401v-12h-85v-173q0 -63 1.5 -108.5t8.5 -111.5h-36q11 108 11 220v66q-26 -147 -107 -226.5t-211 -79.5q-111 0 -195.5 57.5zM344.5 904.5q-36.5 39.5 -39.5 103.5h44q-2 -52 17 -91t77 -39t77.5 39t17.5 91h43q-3 -64 -39 -103.5
t-99 -39.5q-62 0 -98.5 39.5z" />
    <glyph glyph-name="gbreve" unicode="&#x11f;" horiz-adv-x="686" 
d="M107 -231q-58 29 -58 87q0 25 14.5 46t39.5 36q-26 11 -40 31.5t-14 49.5q0 74 115 132q-34 26 -52.5 62.5t-18.5 79.5q0 54 30.5 98t82.5 69t114 25q75 0 134 -36q48 41 91 61.5t96 19.5q3 -9 3 -17q0 -14 -11.5 -21t-32.5 -5l-33 1q-25 0 -45 -8.5t-57 -37.5
q38 -26 59.5 -65t21.5 -84q0 -54 -30.5 -98.5t-82.5 -69.5t-113 -25q-81 0 -142 42q-47 -29 -66 -55t-19 -61q0 -29 16.5 -49.5t54.5 -20.5q46 0 88.5 13.5t101.5 38.5q57 24 95.5 36t78.5 12q54 0 85.5 -25t31.5 -69q0 -65 -58 -115.5t-149 -78.5t-186 -28q-87 0 -145 29z
M442 163.5q46 50.5 46 129.5q0 51 -20.5 92t-59 64.5t-88.5 23.5q-51 0 -89.5 -23.5t-59 -64.5t-20.5 -92q0 -79 46 -129.5t123 -50.5q76 0 122 50.5zM414.5 -212q79.5 27 128.5 73.5t49 103.5q0 30 -19 51t-59 21q-37 0 -75 -13t-91 -39q-62 -29 -103.5 -43t-86.5 -14
q-21 0 -43 5q-50 -27 -50 -75q0 -47 52 -72t131 -25q87 0 166.5 27zM220.5 624.5q-36.5 39.5 -39.5 103.5h44q-2 -52 17 -91t77 -39t77.5 39t17.5 91h43q-3 -64 -39 -103.5t-99 -39.5q-62 0 -98.5 39.5z" />
    <glyph glyph-name="Gdotaccent" unicode="&#x120;" horiz-adv-x="869" 
d="M235.5 37.5q-84.5 57.5 -130 155.5t-45.5 217q0 116 50 209.5t137 147t194 53.5q108 0 184.5 -52.5t127.5 -153.5l-66 -17q-29 94 -90 152.5t-156 58.5q-93 0 -165 -53t-112 -143.5t-40 -198.5q0 -112 37.5 -205.5t109.5 -149t172 -55.5q139 0 218.5 103t87.5 287h-31
q-45 0 -111 -6.5t-123 -22.5l-36 41h401v-12h-85v-173q0 -63 1.5 -108.5t8.5 -111.5h-36q11 108 11 220v66q-26 -147 -107 -226.5t-211 -79.5q-111 0 -195.5 57.5zM491 924l-47 -48l-48 48l48 47z" />
    <glyph glyph-name="gdotaccent" unicode="&#x121;" horiz-adv-x="686" 
d="M107 -231q-58 29 -58 87q0 25 14.5 46t39.5 36q-26 11 -40 31.5t-14 49.5q0 74 115 132q-34 26 -52.5 62.5t-18.5 79.5q0 54 30.5 98t82.5 69t114 25q75 0 134 -36q48 41 91 61.5t96 19.5q3 -9 3 -17q0 -14 -11.5 -21t-32.5 -5l-33 1q-25 0 -45 -8.5t-57 -37.5
q38 -26 59.5 -65t21.5 -84q0 -54 -30.5 -98.5t-82.5 -69.5t-113 -25q-81 0 -142 42q-47 -29 -66 -55t-19 -61q0 -29 16.5 -49.5t54.5 -20.5q46 0 88.5 13.5t101.5 38.5q57 24 95.5 36t78.5 12q54 0 85.5 -25t31.5 -69q0 -65 -58 -115.5t-149 -78.5t-186 -28q-87 0 -145 29z
M442 163.5q46 50.5 46 129.5q0 51 -20.5 92t-59 64.5t-88.5 23.5q-51 0 -89.5 -23.5t-59 -64.5t-20.5 -92q0 -79 46 -129.5t123 -50.5q76 0 122 50.5zM414.5 -212q79.5 27 128.5 73.5t49 103.5q0 30 -19 51t-59 21q-37 0 -75 -13t-91 -39q-62 -29 -103.5 -43t-86.5 -14
q-21 0 -43 5q-50 -27 -50 -75q0 -47 52 -72t131 -25q87 0 166.5 27zM367 644l-47 -48l-48 48l48 47z" />
    <glyph glyph-name="uni0122" unicode="&#x122;" horiz-adv-x="869" 
d="M235.5 37.5q-84.5 57.5 -130 155.5t-45.5 217q0 116 50 209.5t137 147t194 53.5q108 0 184.5 -52.5t127.5 -153.5l-66 -17q-29 94 -90 152.5t-156 58.5q-93 0 -165 -53t-112 -143.5t-40 -198.5q0 -112 37.5 -205.5t109.5 -149t172 -55.5q139 0 218.5 103t87.5 287h-31
q-45 0 -111 -6.5t-123 -22.5l-36 41h401v-12h-85v-173q0 -63 1.5 -108.5t8.5 -111.5h-36q11 108 11 220v66q-26 -147 -107 -226.5t-211 -79.5q-111 0 -195.5 57.5zM517 -134l-82 -161l-6 6l43 110l-46 45l46 46z" />
    <glyph glyph-name="uni0123" unicode="&#x123;" horiz-adv-x="686" 
d="M107 -231q-58 29 -58 87q0 25 14.5 46t39.5 36q-26 11 -40 31.5t-14 49.5q0 74 115 132q-34 26 -52.5 62.5t-18.5 79.5q0 54 30.5 98t82.5 69t114 25q75 0 134 -36q48 41 91 61.5t96 19.5q3 -9 3 -17q0 -14 -11.5 -21t-32.5 -5l-33 1q-25 0 -45 -8.5t-57 -37.5
q38 -26 59.5 -65t21.5 -84q0 -54 -30.5 -98.5t-82.5 -69.5t-113 -25q-81 0 -142 42q-47 -29 -66 -55t-19 -61q0 -29 16.5 -49.5t54.5 -20.5q46 0 88.5 13.5t101.5 38.5q57 24 95.5 36t78.5 12q54 0 85.5 -25t31.5 -69q0 -65 -58 -115.5t-149 -78.5t-186 -28q-87 0 -145 29z
M442 163.5q46 50.5 46 129.5q0 51 -20.5 92t-59 64.5t-88.5 23.5q-51 0 -89.5 -23.5t-59 -64.5t-20.5 -92q0 -79 46 -129.5t123 -50.5q76 0 122 50.5zM414.5 -212q79.5 27 128.5 73.5t49 103.5q0 30 -19 51t-59 21q-37 0 -75 -13t-91 -39q-62 -29 -103.5 -43t-86.5 -14
q-21 0 -43 5q-50 -27 -50 -75q0 -47 52 -72t131 -25q87 0 166.5 27zM274 623l82 161l6 -6l-42 -110l45 -45l-45 -46z" />
    <glyph glyph-name="Hbar" unicode="&#x126;" horiz-adv-x="637" 
d="M627 577h-57v-389q0 -81 6 -188h-69q6 89 6 188v206h-389v-206q0 -99 6 -188h-69q6 107 6 188v389h-57v12h57v24q0 80 -6 187h69q-6 -89 -6 -187v-24h389v24q0 98 -6 187h69q-6 -107 -6 -187v-24h57v-12zM124 406h389v171h-389v-171z" />
    <glyph glyph-name="hbar" unicode="&#x127;" horiz-adv-x="518" 
d="M416 0q6 94 6 186v127q0 156 -104 156q-59 0 -103.5 -40.5t-71.5 -94.5v-146q0 -111 6 -188h-64q6 77 6 188v425v38h-81v12h81q-2 85 -6 137h64q-4 -52 -6 -137h185v-12h-185v-38v-258q26 53 75.5 91.5t114.5 38.5q72 0 106.5 -44t34.5 -139v-116q0 -92 6 -186h-64z" />
    <glyph glyph-name="Imacron" unicode="&#x12a;" horiz-adv-x="209" 
d="M70 0q6 89 6 188v425q0 98 -6 187h69q-6 -107 -6 -187v-425q0 -81 6 -188h-69zM-55 967q108 -6 161 -6q54 0 160 6v-33q-99 7 -160 7q-60 0 -161 -7v33z" />
    <glyph glyph-name="imacron" unicode="&#x12b;" horiz-adv-x="164" 
d="M50 0q6 68 6 178v110q0 109 -6 177h64q-6 -68 -6 -177v-110q0 -110 6 -178h-64zM-78 687q108 -6 161 -6q54 0 160 6v-33q-99 7 -160 7q-60 0 -161 -7v33z" />
    <glyph glyph-name="Iogonek" unicode="&#x12e;" horiz-adv-x="209" 
d="M220 -168q-24 -39 -45 -64t-52 -41.5t-74 -16.5q-57 0 -90 26t-33 75q0 41 23.5 68.5t73.5 65.5q49 38 67 55h-20q6 89 6 188v425q0 98 -6 187h69q-6 -107 -6 -187v-425q0 -81 6 -188h-36q-37 -39 -53 -53q-44 -43 -62 -70t-18 -67q0 -44 23.5 -66t57.5 -22q37 0 61 19
t39.5 48t33.5 78z" />
    <glyph glyph-name="iogonek" unicode="&#x12f;" horiz-adv-x="164" 
d="M83 698l52 -50l-52 -50l-53 50zM192 -168q-24 -39 -45 -64t-52 -41.5t-74 -16.5q-57 0 -90 26t-33 75q0 41 23.5 68.5t73.5 65.5q48 37 66 55h-11q6 68 6 178v110q0 109 -6 177h64q-6 -68 -6 -177v-110q0 -110 6 -178h-39q-19 -21 -54 -54q-43 -41 -61.5 -69t-18.5 -67
q0 -44 24 -66t58 -22q36 0 60 18.5t39.5 47.5t34.5 79z" />
    <glyph glyph-name="Idotaccent" unicode="&#x130;" horiz-adv-x="209" 
d="M70 0q6 89 6 188v425q0 98 -6 187h69q-6 -107 -6 -187v-425q0 -81 6 -188h-69zM153 924l-47 -48l-48 48l48 47z" />
    <glyph glyph-name="dotlessi" unicode="&#x131;" horiz-adv-x="164" 
d="M50 0q6 68 6 178v110q0 109 -6 177h64q-6 -68 -6 -177v-110q0 -110 6 -178h-64z" />
    <glyph glyph-name="uni0136" unicode="&#x136;" horiz-adv-x="682" 
d="M548 105q26 -32 48 -54.5t56 -50.5h-97q-16 26 -35.5 51t-44.5 54l-268 319l-74 -86v-150q0 -81 6 -188h-69q6 89 6 188v425q0 98 -6 187h69q-6 -107 -6 -187v-257l310 348q21 24 39.5 46.5t36.5 49.5h34q-29 -26 -51 -49t-42 -46l-212 -240zM369 -134l-82 -161l-6 6
l43 110l-46 45l46 46z" />
    <glyph glyph-name="uni0137" unicode="&#x137;" horiz-adv-x="534" 
d="M452 59l44 -59h-72q-10 29 -22.5 50.5t-38.5 57.5q-46 62 -100 93t-135 38q-2 -24 -2 -40v-11q0 -111 6 -188h-64q6 77 6 188v425q0 110 -6 187h64q-6 -77 -6 -187v-305q20 83 70 130t119 47q53 0 83.5 -26.5t30.5 -74.5q0 -61 -63.5 -99.5t-172.5 -42.5
q141 -22 223 -134q11 -13 36 -49zM184.5 410q-46.5 -59 -56.5 -160q119 0 183 34.5t64 99.5q0 39 -19.5 62t-55.5 23q-69 0 -115.5 -59zM313 -134l-82 -161l-6 6l43 110l-46 45l46 46z" />
    <glyph glyph-name="Lacute" unicode="&#x139;" horiz-adv-x="535" 
d="M70 0q8 102 8 188v425q0 98 -6 187h69q-6 -107 -6 -187v-600h91q80 0 140 5.5t129 22.5l-24 -41h-401zM31 879l165 150q20 -4 20 -21q0 -15 -13 -28q-16 -16 -35.5 -29t-58.5 -35l-72 -43z" />
    <glyph glyph-name="lacute" unicode="&#x13a;" horiz-adv-x="199" 
d="M68 0q6 77 6 188v425q0 110 -6 187h64q-6 -77 -6 -187v-425q0 -111 6 -188h-64zM24 882l165 150q20 -4 20 -21q0 -15 -13 -28q-16 -16 -35.5 -29t-58.5 -35l-72 -43z" />
    <glyph glyph-name="uni013B" unicode="&#x13b;" horiz-adv-x="535" 
d="M70 0q8 102 8 188v425q0 98 -6 187h69q-6 -107 -6 -187v-600h91q80 0 140 5.5t129 22.5l-24 -41h-401zM328 -134l-82 -161l-6 6l43 110l-46 45l46 46z" />
    <glyph glyph-name="uni013C" unicode="&#x13c;" horiz-adv-x="199" 
d="M68 0q6 77 6 188v425q0 110 -6 187h64q-6 -77 -6 -187v-425q0 -111 6 -188h-64zM146 -134l-82 -161l-6 6l43 110l-46 45l46 46z" />
    <glyph glyph-name="Lcaron" unicode="&#x13d;" horiz-adv-x="526" 
d="M70 0q8 102 8 188v425q0 98 -6 187h69q-6 -107 -6 -187v-600h91q80 0 140 5.5t129 22.5l-24 -41h-401zM404 764l-89 -173l-6 5l48 120l-48 48l48 47z" />
    <glyph glyph-name="lcaron" unicode="&#x13e;" horiz-adv-x="311" 
d="M68 0q6 77 6 188v425q0 110 -6 187h64q-6 -77 -6 -187v-425q0 -111 6 -188h-64zM321 764l-89 -173l-6 5l48 120l-48 48l48 47z" />
    <glyph glyph-name="Lslash" unicode="&#x141;" horiz-adv-x="526" 
d="M226 13q80 0 140 5.5t129 22.5l-24 -41h-401q8 102 8 188v174l-102 -59l-6 11l108 62v237q0 98 -6 187h69q-6 -107 -6 -187v-204l115 66l6 -11l-121 -70v-381h91z" />
    <glyph glyph-name="lslash" unicode="&#x142;" horiz-adv-x="297" 
d="M174 407v-219q0 -111 7 -188h-65q6 77 6 188v190l-106 -61l-6 11l112 64v221q0 110 -6 187h65q-7 -77 -7 -187v-191l106 61l7 -11z" />
    <glyph glyph-name="Nacute" unicode="&#x143;" horiz-adv-x="716" 
d="M640 188q0 -99 6 -188h-60l-498 762v-574q0 -81 6 -188h-24q6 89 6 188v425q0 98 -6 187h60l498 -762v575q0 80 -6 187h24q-6 -89 -6 -187v-425zM282 879l165 150q20 -4 20 -21q0 -15 -13 -28q-16 -16 -35.5 -29t-58.5 -35l-72 -43z" />
    <glyph glyph-name="nacute" unicode="&#x144;" horiz-adv-x="530" 
d="M398 0q6 94 6 186v127q0 78 -25.5 117t-78.5 39q-59 0 -103 -40t-71 -95v-46v-110q0 -110 6 -178h-64q6 68 6 178v110q0 109 -6 177h64q-4 -39 -6 -109q26 53 75 91t114 38q72 0 106.5 -44t34.5 -139v-116q0 -39 1 -80.5t6 -105.5h-65zM192 599l165 150q20 -4 20 -21
q0 -15 -13 -28q-16 -16 -35.5 -29t-58.5 -35l-72 -43z" />
    <glyph glyph-name="uni0145" unicode="&#x145;" horiz-adv-x="716" 
d="M640 188q0 -99 6 -188h-60l-498 762v-574q0 -81 6 -188h-24q6 89 6 188v425q0 98 -6 187h60l498 -762v575q0 80 -6 187h24q-6 -89 -6 -187v-425zM403 -134l-82 -161l-6 6l43 110l-46 45l46 46z" />
    <glyph glyph-name="uni0146" unicode="&#x146;" horiz-adv-x="530" 
d="M398 0q6 94 6 186v127q0 78 -25.5 117t-78.5 39q-59 0 -103 -40t-71 -95v-46v-110q0 -110 6 -178h-64q6 68 6 178v110q0 109 -6 177h64q-4 -39 -6 -109q26 53 75 91t114 38q72 0 106.5 -44t34.5 -139v-116q0 -39 1 -80.5t6 -105.5h-65zM311 -134l-82 -161l-6 6l43 110
l-46 45l46 46z" />
    <glyph glyph-name="Ncaron" unicode="&#x147;" horiz-adv-x="716" 
d="M640 188q0 -99 6 -188h-60l-498 762v-574q0 -81 6 -188h-24q6 89 6 188v425q0 98 -6 187h60l498 -762v575q0 80 -6 187h24q-6 -89 -6 -187v-425zM237 1026q15 0 30 -15q16 -13 27.5 -28.5t36.5 -53.5l27 -39q5 7 10 14.5t11 15.5q26 39 40 57.5t30 33.5q15 15 30 15
q16 0 19 -18l-27 -23q-41 -36 -64 -57.5t-49 -50.5q-30 34 -55 57t-85 74q3 18 19 18z" />
    <glyph glyph-name="ncaron" unicode="&#x148;" horiz-adv-x="530" 
d="M398 0q6 94 6 186v127q0 78 -25.5 117t-78.5 39q-59 0 -103 -40t-71 -95v-46v-110q0 -110 6 -178h-64q6 68 6 178v110q0 109 -6 177h64q-4 -39 -6 -109q26 53 75 91t114 38q72 0 106.5 -44t34.5 -139v-116q0 -39 1 -80.5t6 -105.5h-65zM147 746q15 0 30 -15
q16 -13 27.5 -28.5t36.5 -53.5l27 -39q5 7 10 14.5t11 15.5q26 39 40 57.5t30 33.5q15 15 30 15q16 0 19 -18l-27 -23q-41 -36 -64 -57.5t-49 -50.5q-30 34 -55 57t-85 74q3 18 19 18z" />
    <glyph glyph-name="Eng" unicode="&#x14a;" horiz-adv-x="716" 
d="M646 800q-6 -89 -6 -187v-661q0 -68 -37 -112t-106 -44q-56 0 -99.5 28t-69.5 82l57 27q25 -125 112 -125q50 0 76 35.5t26 88.5q0 34 -20 68l-491 762v-574q0 -81 6 -188h-24q6 89 6 188v425q0 98 -6 187h60l498 -768v581q0 80 -6 187h24z" />
    <glyph glyph-name="eng" unicode="&#x14b;" horiz-adv-x="529" 
d="M424.5 441q34.5 -44 34.5 -139v-344q0 -162 -122 -162q-46 0 -86 26.5t-61 72.5q14 17 31 17q9 0 16 -6t11 -17q9 -36 32.5 -58.5t54.5 -22.5q38 0 55 33.5t17 116.5v355q0 156 -104 156q-59 0 -103.5 -40.5t-71.5 -94.5v-46v-110q0 -110 6 -178h-64q6 68 6 178v110
q0 109 -6 177h64q-4 -39 -6 -109q27 53 76 91t114 38q72 0 106.5 -44z" />
    <glyph glyph-name="Omacron" unicode="&#x14c;" horiz-adv-x="984" 
d="M271.5 35q-98.5 55 -155 151t-56.5 214q0 117 56.5 213t155 151.5t220.5 55.5t220.5 -55.5t155 -151.5t56.5 -213t-56.5 -213.5t-155 -151.5t-220.5 -55t-220.5 55zM683 49q84 57 130.5 151t46.5 200t-46.5 200t-130.5 151t-191 57q-108 0 -192 -57t-130 -151t-46 -200
t46 -200t130 -151t192 -57q107 0 191 57zM332 967q108 -6 161 -6q54 0 160 6v-33q-99 7 -160 7q-60 0 -161 -7v33z" />
    <glyph glyph-name="omacron" unicode="&#x14d;" horiz-adv-x="611" 
d="M171.5 12.5q-58.5 32.5 -90.5 90t-32 130.5q0 72 32 129.5t90.5 90t134.5 32.5q75 0 133.5 -32.5t91 -90t32.5 -129.5t-32.5 -130t-91 -90.5t-133.5 -32.5q-76 0 -134.5 32.5zM453 58.5q51 66.5 51 174.5q0 107 -51 173.5t-147 66.5t-147 -66.5t-51 -173.5
q0 -108 51 -174.5t147 -66.5t147 66.5zM145 687q108 -6 161 -6q54 0 160 6v-33q-99 7 -160 7q-60 0 -161 -7v33z" />
    <glyph glyph-name="Ohungarumlaut" unicode="&#x150;" horiz-adv-x="984" 
d="M271.5 35q-98.5 55 -155 151t-56.5 214q0 117 56.5 213t155 151.5t220.5 55.5t220.5 -55.5t155 -151.5t56.5 -213t-56.5 -213.5t-155 -151.5t-220.5 -55t-220.5 55zM683 49q84 57 130.5 151t46.5 200t-46.5 200t-130.5 151t-191 57q-108 0 -192 -57t-130 -151t-46 -200
t46 -200t130 -151t192 -57q107 0 191 57zM406 879l126 150q20 -4 20 -23q0 -13 -11 -27q-17 -21 -44 -43t-85 -63zM522 879l126 150q20 -4 20 -23q0 -13 -11 -27q-17 -21 -44 -43t-85 -63z" />
    <glyph glyph-name="ohungarumlaut" unicode="&#x151;" horiz-adv-x="611" 
d="M171.5 12.5q-58.5 32.5 -90.5 90t-32 130.5q0 72 32 129.5t90.5 90t134.5 32.5q75 0 133.5 -32.5t91 -90t32.5 -129.5t-32.5 -130t-91 -90.5t-133.5 -32.5q-76 0 -134.5 32.5zM453 58.5q51 66.5 51 174.5q0 107 -51 173.5t-147 66.5t-147 -66.5t-51 -173.5
q0 -108 51 -174.5t147 -66.5t147 66.5zM219 599l126 150q20 -4 20 -23q0 -13 -11 -27q-17 -21 -44 -43t-85 -63zM335 599l126 150q20 -4 20 -23q0 -13 -11 -27q-17 -21 -44 -43t-85 -63z" />
    <glyph glyph-name="OE" unicode="&#x152;" horiz-adv-x="1383" 
d="M1084 13q80 0 140 5.5t129 22.5l-24 -41h-436q5 61 6.5 96.5t1.5 91.5v72q-28 -83 -87.5 -146.5t-142.5 -98.5t-179 -35q-122 0 -220.5 55t-155 151t-56.5 214q0 117 56.5 213t155 151.5t220.5 55.5q96 0 179 -35.5t142 -98.5t88 -146v73q0 55 -1.5 90.5t-6.5 96.5h429
l-36 -41q-57 16 -123.5 22.5t-109.5 6.5h-95v-356h71q53 0 95.5 1.5t104.5 8.5v-32q-62 7 -104.5 8.5t-95.5 1.5h-71v-407h126zM683 49q84 57 130.5 151t46.5 200t-46.5 200t-130.5 151t-191 57q-108 0 -192 -57t-130 -151t-46 -200t46 -200t130 -151t192 -57q107 0 191 57z
" />
    <glyph glyph-name="oe" unicode="&#x153;" horiz-adv-x="1015" 
d="M976 174q-23 -91 -76.5 -142.5t-139.5 -51.5q-77 0 -135 36.5t-86 102.5q-30 -64 -91.5 -101.5t-141.5 -37.5q-76 0 -134.5 32.5t-90.5 90t-32 130.5q0 72 32 129.5t90.5 90t134.5 32.5q80 0 141.5 -37.5t91.5 -101.5q28 65 84 102t126 37q62 0 107.5 -26t69 -69
t23.5 -91h-368q-6 -30 -6 -64q0 -63 22.5 -118t67 -88t106.5 -33q74 0 122 47.5t71 130.5h12zM453 58.5q51 66.5 51 174.5q0 107 -51 173.5t-147 66.5t-147 -66.5t-51 -173.5q0 -108 51 -174.5t147 -66.5t147 66.5zM641 430q-43 -43 -58 -119h309q0 69 -37 115.5t-107 46.5
q-64 0 -107 -43z" />
    <glyph glyph-name="Racute" unicode="&#x154;" horiz-adv-x="704" 
d="M525 82.5q26 -38.5 59 -54.5t82 -16v-12q-74 0 -120 18.5t-75.5 58t-54.5 108.5q-27 75 -61.5 115t-76.5 55t-101 15h-44v-182q0 -81 6 -188h-69q6 89 6 188v425q0 98 -6 187h148q145 0 230.5 -48t85.5 -167q0 -105 -68 -154.5t-185 -58.5q64 -13 112 -54.5t79 -124.5
q27 -72 53 -110.5zM133 383h85q111 0 183 45.5t72 156.5q0 112 -72 157.5t-183 45.5h-85v-405zM175 879l165 150q20 -4 20 -21q0 -15 -13 -28q-16 -16 -35.5 -29t-58.5 -35l-72 -43z" />
    <glyph glyph-name="racute" unicode="&#x155;" horiz-adv-x="384" 
d="M357 451q0 -15 -9 -24t-25 -9q-11 0 -23 4q-19 7 -33 7q-25 0 -56.5 -20.5t-84.5 -72.5v-48v-110q0 -110 6 -178h-64q6 68 6 178v110q0 109 -6 177h64q-4 -40 -6 -111q41 41 68 63.5t58.5 36t69.5 13.5q21 0 33 -2q2 -10 2 -14zM145 599l165 150q20 -4 20 -21
q0 -15 -13 -28q-16 -16 -35.5 -29t-58.5 -35l-72 -43z" />
    <glyph glyph-name="uni0156" unicode="&#x156;" horiz-adv-x="704" 
d="M525 82.5q26 -38.5 59 -54.5t82 -16v-12q-74 0 -120 18.5t-75.5 58t-54.5 108.5q-27 75 -61.5 115t-76.5 55t-101 15h-44v-182q0 -81 6 -188h-69q6 89 6 188v425q0 98 -6 187h148q145 0 230.5 -48t85.5 -167q0 -105 -68 -154.5t-185 -58.5q64 -13 112 -54.5t79 -124.5
q27 -72 53 -110.5zM133 383h85q111 0 183 45.5t72 156.5q0 112 -72 157.5t-183 45.5h-85v-405zM350 -134l-82 -161l-6 6l43 110l-46 45l46 46z" />
    <glyph glyph-name="uni0157" unicode="&#x157;" horiz-adv-x="384" 
d="M357 451q0 -15 -9 -24t-25 -9q-11 0 -23 4q-19 7 -33 7q-25 0 -56.5 -20.5t-84.5 -72.5v-48v-110q0 -110 6 -178h-64q6 68 6 178v110q0 109 -6 177h64q-4 -40 -6 -111q41 41 68 63.5t58.5 36t69.5 13.5q21 0 33 -2q2 -10 2 -14zM146 -134l-82 -161l-6 6l43 110l-46 45
l46 46z" />
    <glyph glyph-name="Rcaron" unicode="&#x158;" horiz-adv-x="704" 
d="M525 82.5q26 -38.5 59 -54.5t82 -16v-12q-74 0 -120 18.5t-75.5 58t-54.5 108.5q-27 75 -61.5 115t-76.5 55t-101 15h-44v-182q0 -81 6 -188h-69q6 89 6 188v425q0 98 -6 187h148q145 0 230.5 -48t85.5 -167q0 -105 -68 -154.5t-185 -58.5q64 -13 112 -54.5t79 -124.5
q27 -72 53 -110.5zM133 383h85q111 0 183 45.5t72 156.5q0 112 -72 157.5t-183 45.5h-85v-405zM130 1026q15 0 30 -15q16 -13 27.5 -28.5t36.5 -53.5l27 -39q5 7 10 14.5t11 15.5q26 39 40 57.5t30 33.5q15 15 30 15q16 0 19 -18l-27 -23q-41 -36 -64 -57.5t-49 -50.5
q-30 34 -55 57t-85 74q3 18 19 18z" />
    <glyph glyph-name="rcaron" unicode="&#x159;" horiz-adv-x="384" 
d="M357 451q0 -15 -9 -24t-25 -9q-11 0 -23 4q-19 7 -33 7q-25 0 -56.5 -20.5t-84.5 -72.5v-48v-110q0 -110 6 -178h-64q6 68 6 178v110q0 109 -6 177h64q-4 -40 -6 -111q41 41 68 63.5t58.5 36t69.5 13.5q21 0 33 -2q2 -10 2 -14zM100 746q15 0 30 -15q16 -13 27.5 -28.5
t36.5 -53.5l27 -39q5 7 10 14.5t11 15.5q26 39 40 57.5t30 33.5q15 15 30 15q16 0 19 -18l-27 -23q-41 -36 -64 -57.5t-49 -50.5q-30 34 -55 57t-85 74q3 18 19 18z" />
    <glyph glyph-name="Sacute" unicode="&#x15a;" horiz-adv-x="592" 
d="M40 243l58 22q5 -80 38.5 -142t87 -96.5t118.5 -34.5q77 0 125.5 42.5t48.5 125.5q0 40 -22.5 76t-60 69.5t-112.5 92.5l-41 33l-20 16q-70 55 -102 84.5t-49 62t-17 75.5q0 71 49.5 111t132.5 40q82 0 143 -45.5t105 -134.5l-58 -18q-10 78 -57 132t-135 54
q-67 0 -105.5 -32.5t-38.5 -87.5q0 -36 15.5 -64t41.5 -51.5t81 -65.5l42 -32l31 -24q85 -68 125.5 -105.5t64 -79t23.5 -93.5q0 -93 -60.5 -143t-151.5 -50q-226 0 -300 263zM210 879l165 150q20 -4 20 -21q0 -15 -13 -28q-16 -16 -35.5 -29t-58.5 -35l-72 -43z" />
    <glyph glyph-name="sacute" unicode="&#x15b;" horiz-adv-x="445" 
d="M109 22.5q-54 42.5 -70 122.5q12 17 28 17q13 0 21.5 -11.5t8.5 -33.5q0 -32 17.5 -60.5t52 -46t81.5 -17.5q58 0 87.5 29t29.5 75q0 30 -15 50.5t-42.5 37.5t-90.5 51q-55 29 -85 49t-47 44t-17 57q0 49 39 74t99 25q61 0 102.5 -30t74.5 -90q-3 -8 -10 -13t-16 -5
q-11 0 -20 8.5t-13 24.5q-10 42 -36.5 67t-80.5 25q-46 0 -72.5 -18t-26.5 -54q0 -27 17.5 -48t47 -39t83.5 -46q57 -29 87 -49.5t46.5 -47t16.5 -64.5q0 -56 -42.5 -91t-116.5 -35q-84 0 -138 42.5zM143 599l165 150q20 -4 20 -21q0 -15 -13 -28q-16 -16 -35.5 -29
t-58.5 -35l-72 -43z" />
    <glyph glyph-name="Scedilla" unicode="&#x15e;" horiz-adv-x="592" 
d="M499 36.5q-53 -49.5 -137 -55.5l-63 -73q22 2 32 2q71 0 109.5 -32.5t38.5 -79.5q0 -46 -35 -76t-90 -30q-52 0 -91.5 25t-63.5 71l35 35q20 -61 48.5 -90t70.5 -29q44 0 63 25.5t19 67.5q0 46 -29 74t-91 28q-8 0 -30 -2v13l37 70q-211 10 -282 263l58 22
q5 -80 38.5 -142t87 -96.5t118.5 -34.5q77 0 125.5 42.5t48.5 125.5q0 40 -22.5 76t-60 69.5t-112.5 92.5l-41 33l-20 16q-70 55 -102 84.5t-49 62t-17 75.5q0 71 49.5 111t132.5 40q82 0 143 -45.5t105 -134.5l-58 -18q-10 78 -57 132t-135 54q-67 0 -105.5 -32.5
t-38.5 -87.5q0 -36 15.5 -64t41.5 -51.5t81 -65.5l42 -32l31 -24q85 -68 125.5 -105.5t64 -79t23.5 -93.5q0 -87 -53 -136.5z" />
    <glyph glyph-name="scedilla" unicode="&#x15f;" horiz-adv-x="445" 
d="M199 -92q22 2 32 2q71 0 109.5 -32.5t38.5 -79.5q0 -46 -35 -76t-90 -30q-52 0 -91.5 25t-63.5 71l35 35q20 -61 48.5 -90t70.5 -29q44 0 63 25.5t19 67.5q0 46 -29 74t-91 28q-8 0 -30 -2v13l37 71q-73 6 -121 48t-62 116q12 17 28 17q13 0 21.5 -11.5t8.5 -33.5
q0 -32 17.5 -60.5t52 -46t81.5 -17.5q58 0 87.5 29t29.5 75q0 30 -15 50.5t-42.5 37.5t-90.5 51q-55 29 -85 49t-47 44t-17 57q0 49 39 74t99 25q61 0 102.5 -30t74.5 -90q-3 -8 -10 -13t-16 -5q-11 0 -20 8.5t-13 24.5q-10 42 -36.5 67t-80.5 25q-46 0 -72.5 -18t-26.5 -54
q0 -27 17.5 -48t47 -39t83.5 -46q57 -29 87 -49.5t46.5 -47t16.5 -64.5q0 -53 -38.5 -87.5t-105.5 -38.5z" />
    <glyph glyph-name="Scaron" unicode="&#x160;" horiz-adv-x="592" 
d="M40 243l58 22q5 -80 38.5 -142t87 -96.5t118.5 -34.5q77 0 125.5 42.5t48.5 125.5q0 40 -22.5 76t-60 69.5t-112.5 92.5l-41 33l-20 16q-70 55 -102 84.5t-49 62t-17 75.5q0 71 49.5 111t132.5 40q82 0 143 -45.5t105 -134.5l-58 -18q-10 78 -57 132t-135 54
q-67 0 -105.5 -32.5t-38.5 -87.5q0 -36 15.5 -64t41.5 -51.5t81 -65.5l42 -32l31 -24q85 -68 125.5 -105.5t64 -79t23.5 -93.5q0 -93 -60.5 -143t-151.5 -50q-226 0 -300 263zM165 1026q15 0 30 -15q16 -13 27.5 -28.5t36.5 -53.5l27 -39q5 7 10 14.5t11 15.5q26 39 40 57.5
t30 33.5q15 15 30 15q16 0 19 -18l-27 -23q-41 -36 -64 -57.5t-49 -50.5q-30 34 -55 57t-85 74q3 18 19 18z" />
    <glyph glyph-name="scaron" unicode="&#x161;" horiz-adv-x="445" 
d="M109 22.5q-54 42.5 -70 122.5q12 17 28 17q13 0 21.5 -11.5t8.5 -33.5q0 -32 17.5 -60.5t52 -46t81.5 -17.5q58 0 87.5 29t29.5 75q0 30 -15 50.5t-42.5 37.5t-90.5 51q-55 29 -85 49t-47 44t-17 57q0 49 39 74t99 25q61 0 102.5 -30t74.5 -90q-3 -8 -10 -13t-16 -5
q-11 0 -20 8.5t-13 24.5q-10 42 -36.5 67t-80.5 25q-46 0 -72.5 -18t-26.5 -54q0 -27 17.5 -48t47 -39t83.5 -46q57 -29 87 -49.5t46.5 -47t16.5 -64.5q0 -56 -42.5 -91t-116.5 -35q-84 0 -138 42.5zM98 746q15 0 30 -15q16 -13 27.5 -28.5t36.5 -53.5l27 -39q5 7 10 14.5
t11 15.5q26 39 40 57.5t30 33.5q15 15 30 15q16 0 19 -18l-27 -23q-41 -36 -64 -57.5t-49 -50.5q-30 34 -55 57t-85 74q3 18 19 18z" />
    <glyph glyph-name="uni0162" unicode="&#x162;" horiz-adv-x="605" 
d="M331 788v-600q0 -99 6 -188h-12l-72 -83q22 2 32 2q71 0 109.5 -32.5t38.5 -79.5q0 -46 -35 -76t-90 -30q-52 0 -91.5 25t-63.5 71l35 35q20 -61 48.5 -90t70.5 -29q44 0 63 25.5t19 67.5q0 46 -29 74t-91 28q-8 0 -30 -2v13l42 81h-13q6 107 6 188v600h-11
q-38 0 -93.5 -6.5t-113.5 -22.5l-36 41h565l-37 -41q-57 16 -112.5 22.5t-94.5 6.5h-10z" />
    <glyph glyph-name="uni0163" unicode="&#x163;" horiz-adv-x="399" 
d="M187 -96q22 2 32 2q71 0 109.5 -32.5t38.5 -79.5q0 -46 -35 -76t-90 -30q-52 0 -91.5 25t-63.5 71l35 35q20 -61 48.5 -90t70.5 -29q44 0 63 25.5t19 67.5q0 46 -29 74t-91 28q-8 0 -30 -2v13l37 70q-41 6 -62 42t-21 115v320h-108v12h11q55 0 81.5 22.5t33.5 58.5t7 93
v31h47q0 -81 -17 -132.5t-72 -72.5h211v-12h-142v-325q0 -77 15 -107t46 -30q39 0 65 48t43 165h12q-16 -113 -42.5 -165t-66.5 -61z" />
    <glyph glyph-name="Tcaron" unicode="&#x164;" horiz-adv-x="605" 
d="M268 0q6 107 6 188v600h-11q-38 0 -93.5 -6.5t-113.5 -22.5l-36 41h565l-37 -41q-57 16 -112.5 22.5t-94.5 6.5h-10v-600q0 -99 6 -188h-69zM182 1026q15 0 30 -15q16 -13 27.5 -28.5t36.5 -53.5l27 -39q5 7 10 14.5t11 15.5q26 39 40 57.5t30 33.5q15 15 30 15
q16 0 19 -18l-27 -23q-41 -36 -64 -57.5t-49 -50.5q-30 34 -55 57t-85 74q3 18 19 18z" />
    <glyph glyph-name="tcaron" unicode="&#x165;" horiz-adv-x="418" 
d="M152.5 10.5q-25.5 35.5 -25.5 122.5v320h-108v12h11q55 0 81.5 22.5t33.5 58.5t7 93v31h47q0 -81 -17 -132.5t-72 -72.5h211v-12h-142v-325q0 -77 15 -107t46 -30q39 0 65 48t43 165h12q-18 -128 -49.5 -178.5t-83.5 -50.5q-49 0 -74.5 35.5zM398 728l-89 -173l-6 5
l48 120l-48 48l48 47z" />
    <glyph glyph-name="Tbar" unicode="&#x166;" horiz-adv-x="605" 
d="M331 788v-292h191v-12h-191v-296q0 -99 6 -188h-69q6 107 6 188v296h-190v12h190v292h-11q-38 0 -93.5 -6.5t-113.5 -22.5l-36 41h565l-37 -41q-57 16 -112.5 22.5t-94.5 6.5h-10z" />
    <glyph glyph-name="tbar" unicode="&#x167;" horiz-adv-x="399" 
d="M360 204q-18 -128 -49.5 -178.5t-83.5 -50.5q-49 0 -74.5 35.5t-25.5 122.5v201h-108v13h108v106h-108v12h11q55 0 81.5 22.5t33.5 58.5t7 93v31h47q0 -81 -17 -132.5t-72 -72.5h211v-12h-142v-106h142v-13h-142v-206q0 -77 15 -107t46 -30q39 0 65 48t43 165h12z" />
    <glyph glyph-name="Umacron" unicode="&#x16a;" horiz-adv-x="671" 
d="M190.5 12q-60.5 32 -92.5 111t-32 217v273q0 98 -6 187h69q-6 -107 -6 -187v-273q0 -180 55 -260.5t174 -80.5q122 0 181 79t59 262v273q0 98 -6 187h25q-6 -89 -6 -187v-273q0 -192 -64.5 -276t-196.5 -84q-93 0 -153.5 32zM188 967q108 -6 161 -6q54 0 160 6v-33
q-99 7 -160 7q-60 0 -161 -7v33z" />
    <glyph glyph-name="umacron" unicode="&#x16b;" horiz-adv-x="527" 
d="M112.5 24q-34.5 44 -34.5 139v116q0 52 -1.5 87t-8.5 99h62v-313q0 -156 104 -156q59 0 103 37.5t71 89.5v156q0 52 -2 87t-9 99h63v-465h-58l6 107q-27 -52 -76.5 -89.5t-112.5 -37.5q-72 0 -106.5 44zM107 687q108 -6 161 -6q54 0 160 6v-33q-99 7 -160 7
q-60 0 -161 -7v33z" />
    <glyph glyph-name="Uring" unicode="&#x16e;" horiz-adv-x="671" 
d="M190.5 12q-60.5 32 -92.5 111t-32 217v273q0 98 -6 187h69q-6 -107 -6 -187v-273q0 -180 55 -260.5t174 -80.5q122 0 181 79t59 262v273q0 98 -6 187h25q-6 -89 -6 -187v-273q0 -192 -64.5 -276t-196.5 -84q-93 0 -153.5 32zM286 889q-25 26 -25 61t25 61.5t63 26.5
t62.5 -26.5t24.5 -61.5t-24.5 -61t-62.5 -26t-63 26zM403 897.5q21 22.5 21 52.5t-21 52.5t-54 22.5t-54 -22.5t-21 -52.5t21 -52.5t54 -22.5t54 22.5z" />
    <glyph glyph-name="uring" unicode="&#x16f;" horiz-adv-x="527" 
d="M112.5 24q-34.5 44 -34.5 139v116q0 52 -1.5 87t-8.5 99h62v-313q0 -156 104 -156q59 0 103 37.5t71 89.5v156q0 52 -2 87t-9 99h63v-465h-58l6 107q-27 -52 -76.5 -89.5t-112.5 -37.5q-72 0 -106.5 44zM205 609q-25 26 -25 61t25 61.5t63 26.5t62.5 -26.5t24.5 -61.5
t-24.5 -61t-62.5 -26t-63 26zM322 617.5q21 22.5 21 52.5t-21 52.5t-54 22.5t-54 -22.5t-21 -52.5t21 -52.5t54 -22.5t54 22.5z" />
    <glyph glyph-name="Uhungarumlaut" unicode="&#x170;" horiz-adv-x="671" 
d="M190.5 12q-60.5 32 -92.5 111t-32 217v273q0 98 -6 187h69q-6 -107 -6 -187v-273q0 -180 55 -260.5t174 -80.5q122 0 181 79t59 262v273q0 98 -6 187h25q-6 -89 -6 -187v-273q0 -192 -64.5 -276t-196.5 -84q-93 0 -153.5 32zM262 879l126 150q20 -4 20 -23q0 -13 -11 -27
q-17 -21 -44 -43t-85 -63zM378 879l126 150q20 -4 20 -23q0 -13 -11 -27q-17 -21 -44 -43t-85 -63z" />
    <glyph glyph-name="uhungarumlaut" unicode="&#x171;" horiz-adv-x="527" 
d="M112.5 24q-34.5 44 -34.5 139v116q0 52 -1.5 87t-8.5 99h62v-313q0 -156 104 -156q59 0 103 37.5t71 89.5v156q0 52 -2 87t-9 99h63v-465h-58l6 107q-27 -52 -76.5 -89.5t-112.5 -37.5q-72 0 -106.5 44zM181 599l126 150q20 -4 20 -23q0 -13 -11 -27q-17 -21 -44 -43
t-85 -63zM297 599l126 150q20 -4 20 -23q0 -13 -11 -27q-17 -21 -44 -43t-85 -63z" />
    <glyph glyph-name="Uogonek" unicode="&#x172;" horiz-adv-x="671" 
d="M611 800q-6 -89 -6 -187v-273q0 -134 -32 -215t-96 -116q-29 -32 -61 -62q-44 -43 -62 -70t-18 -67q0 -44 23.5 -66t57.5 -22q37 0 61 19t39.5 48t33.5 78l35 -35q-24 -39 -45 -64t-52 -41.5t-74 -16.5q-57 0 -90 26t-33 75q0 29 12.5 51.5t31.5 39.5t53 43q40 29 65 53
q-46 -18 -110 -18q-93 0 -153.5 32t-92.5 111t-32 217v273q0 98 -6 187h69q-6 -107 -6 -187v-273q0 -180 55 -260.5t174 -80.5q122 0 181 79t59 262v273q0 98 -6 187h25z" />
    <glyph glyph-name="uogonek" unicode="&#x173;" horiz-adv-x="527" 
d="M543 -168q-24 -39 -45 -64t-52 -41.5t-74 -16.5q-57 0 -90 26t-33 75q0 41 23.5 68.5t73.5 65.5q49 38 67 55h-11l6 107q-27 -52 -76.5 -89.5t-112.5 -37.5q-72 0 -106.5 44t-34.5 139v116q0 52 -1.5 87t-8.5 99h62v-313q0 -156 104 -156q59 0 103 37.5t71 89.5v156
q0 52 -2 87t-9 99h63v-465h-34q-37 -39 -53 -53q-44 -43 -62 -70t-18 -67q0 -44 23.5 -66t57.5 -22q37 0 61 19t39.5 48t33.5 78z" />
    <glyph glyph-name="Wcircumflex" unicode="&#x174;" horiz-adv-x="956" 
d="M675 44q-3 -10 -3 -19q0 -10 6 -25h-71l-132 463l-120 -419q-2 -6 -2 -18q0 -13 5 -26h-70l-200 700q-8 32 -15.5 51.5t-22.5 48.5h78q2 -25 6 -44.5t8 -34t6 -21.5l191 -667l130 452l-61 215q-9 32 -16.5 51.5t-22.5 48.5h78q2 -28 6 -45t15 -55l31 -110l33 113
q2 5 3.5 11.5t4.5 13.5q5 17 9.5 34t5.5 38h24q-11 -22 -17 -40t-11 -36l-6 -20l-39 -136l152 -535l193 670q2 5 3.5 11.5t4.5 13.5q5 17 9.5 34t5.5 38h24q-16 -32 -26 -72l-7 -24zM435 968q25 23 55 57q26 -29 49 -50.5t64 -57.5l27 -23q-3 -18 -19 -18q-15 0 -30 15
q-17 15 -31 34t-41 61l-19 27q-8 -11 -25 -38q-24 -36 -37 -53t-29 -31q-15 -15 -30 -15q-16 0 -19 18q60 51 85 74z" />
    <glyph glyph-name="wcircumflex" unicode="&#x175;" horiz-adv-x="716" 
d="M678 397q0 -42 -16 -79l-109 -254q-8 -17 -11.5 -28.5t-3.5 -23.5q0 -8 1 -12h-60l-94 220l-66 -156q-7 -15 -11.5 -28.5t-4.5 -24.5q0 -7 1 -11h-60l-168 394q-13 30 -37 71h69q6 -28 24 -68l158 -367l88 206l-68 158q-7 17 -16.5 34.5t-20.5 36.5h70q5 -25 23 -68
l159 -367l121 283q13 32 13 54q0 17 -5 28.5t-10.5 21t-8.5 14.5q-4 10 -4 13q0 12 10.5 17.5t25.5 3.5q11 -31 11 -68zM306 693q25 23 55 57q26 -29 49 -50.5t64 -57.5l27 -23q-3 -18 -19 -18q-15 0 -30 15q-17 15 -31 34t-41 61l-19 27q-8 -11 -25 -38q-24 -36 -37 -53
t-29 -31q-15 -15 -30 -15q-16 0 -19 18q60 51 85 74z" />
    <glyph glyph-name="Ycircumflex" unicode="&#x176;" horiz-adv-x="657" 
d="M298 0q6 89 6 188v163l-192 355q-14 27 -26 45t-36 49h83q7 -21 15.5 -39.5t18.5 -36.5l10 -18l181 -333l180 333q32 59 47 94h22q-22 -32 -36 -58t-19 -35l-191 -356v-163q0 -81 6 -188h-69zM289 973q25 23 55 57q26 -29 49 -50.5t64 -57.5l27 -23q-3 -18 -19 -18
q-15 0 -30 15q-17 15 -31 34t-41 61l-19 27q-8 -11 -25 -38q-24 -36 -37 -53t-29 -31q-15 -15 -30 -15q-16 0 -19 18q60 51 85 74z" />
    <glyph glyph-name="ycircumflex" unicode="&#x177;" horiz-adv-x="493" 
d="M42 -136q-3 13 3.5 22t17.5 9q15 0 23 -14q11 -17 23.5 -25.5t29.5 -8.5q43 0 75 41t57 112h-45l-156 406q-14 35 -30 59h71q2 -17 6 -30.5t10 -28.5l150 -388l139 388q9 27 16 59h23q-9 -15 -14 -28.5t-11 -30.5l-145 -406q-30 -83 -64 -124t-88 -41q-49 0 -91 29z
M200 693q25 23 55 57q26 -29 49 -50.5t64 -57.5l27 -23q-3 -18 -19 -18q-15 0 -30 15q-17 15 -31 34t-41 61l-19 27q-8 -11 -25 -38q-24 -36 -37 -53t-29 -31q-15 -15 -30 -15q-16 0 -19 18q60 51 85 74z" />
    <glyph glyph-name="Ydieresis" unicode="&#x178;" horiz-adv-x="657" 
d="M298 0q6 89 6 188v163l-192 355q-14 27 -26 45t-36 49h83q7 -21 15.5 -39.5t18.5 -36.5l10 -18l181 -333l180 333q32 59 47 94h22q-22 -32 -36 -58t-19 -35l-191 -356v-163q0 -81 6 -188h-69zM315 924l-47 -48l-48 48l48 47zM468 924l-47 -48l-48 48l48 47z" />
    <glyph glyph-name="Zacute" unicode="&#x179;" horiz-adv-x="674" 
d="M50 0v24l493 764h-204q-45 0 -110.5 -6.5t-122.5 -22.5l-36 41h533v-24l-493 -763h265q51 0 118 6t131 22l-24 -41h-550zM265 879l165 150q20 -4 20 -21q0 -15 -13 -28q-16 -16 -35.5 -29t-58.5 -35l-72 -43z" />
    <glyph glyph-name="zacute" unicode="&#x17a;" horiz-adv-x="513" 
d="M49 0v18l327 435h-102q-46 0 -73.5 -4t-58.5 -11q-26 -7 -42 -7q-19 0 -26.5 9t-7.5 25h369v-17l-327 -435h157q48 0 75.5 4t51.5 11q26 6 38 6q20 0 27 -8.5t7 -25.5h-415zM191 599l165 150q20 -4 20 -21q0 -15 -13 -28q-16 -16 -35.5 -29t-58.5 -35l-72 -43z" />
    <glyph glyph-name="Zdotaccent" unicode="&#x17b;" horiz-adv-x="674" 
d="M50 0v24l493 764h-204q-45 0 -110.5 -6.5t-122.5 -22.5l-36 41h533v-24l-493 -763h265q51 0 118 6t131 22l-24 -41h-550zM388 924l-47 -48l-48 48l48 47z" />
    <glyph glyph-name="zdotaccent" unicode="&#x17c;" horiz-adv-x="513" 
d="M49 0v18l327 435h-102q-46 0 -73.5 -4t-58.5 -11q-26 -7 -42 -7q-19 0 -26.5 9t-7.5 25h369v-17l-327 -435h157q48 0 75.5 4t51.5 11q26 6 38 6q20 0 27 -8.5t7 -25.5h-415zM314 644l-47 -48l-48 48l48 47z" />
    <glyph glyph-name="Zcaron" unicode="&#x17d;" horiz-adv-x="674" 
d="M50 0v24l493 764h-204q-45 0 -110.5 -6.5t-122.5 -22.5l-36 41h533v-24l-493 -763h265q51 0 118 6t131 22l-24 -41h-550zM220 1026q15 0 30 -15q16 -13 27.5 -28.5t36.5 -53.5l27 -39q5 7 10 14.5t11 15.5q26 39 40 57.5t30 33.5q15 15 30 15q16 0 19 -18l-27 -23
q-41 -36 -64 -57.5t-49 -50.5q-30 34 -55 57t-85 74q3 18 19 18z" />
    <glyph glyph-name="zcaron" unicode="&#x17e;" horiz-adv-x="513" 
d="M49 0v18l327 435h-102q-46 0 -73.5 -4t-58.5 -11q-26 -7 -42 -7q-19 0 -26.5 9t-7.5 25h369v-17l-327 -435h157q48 0 75.5 4t51.5 11q26 6 38 6q20 0 27 -8.5t7 -25.5h-415zM146 746q15 0 30 -15q16 -13 27.5 -28.5t36.5 -53.5l27 -39q5 7 10 14.5t11 15.5q26 39 40 57.5
t30 33.5q15 15 30 15q16 0 19 -18l-27 -23q-41 -36 -64 -57.5t-49 -50.5q-30 34 -55 57t-85 74q3 18 19 18z" />
    <glyph glyph-name="uni0218" unicode="&#x218;" horiz-adv-x="592" 
d="M40 243l58 22q5 -80 38.5 -142t87 -96.5t118.5 -34.5q77 0 125.5 42.5t48.5 125.5q0 40 -22.5 76t-60 69.5t-112.5 92.5l-41 33l-20 16q-70 55 -102 84.5t-49 62t-17 75.5q0 71 49.5 111t132.5 40q82 0 143 -45.5t105 -134.5l-58 -18q-10 78 -57 132t-135 54
q-67 0 -105.5 -32.5t-38.5 -87.5q0 -36 15.5 -64t41.5 -51.5t81 -65.5l42 -32l31 -24q85 -68 125.5 -105.5t64 -79t23.5 -93.5q0 -93 -60.5 -143t-151.5 -50q-226 0 -300 263zM381 -152l-82 -161l-6 6l43 110l-46 45l46 46z" />
    <glyph glyph-name="uni0219" unicode="&#x219;" horiz-adv-x="445" 
d="M109 22.5q-54 42.5 -70 122.5q12 17 28 17q13 0 21.5 -11.5t8.5 -33.5q0 -32 17.5 -60.5t52 -46t81.5 -17.5q58 0 87.5 29t29.5 75q0 30 -15 50.5t-42.5 37.5t-90.5 51q-55 29 -85 49t-47 44t-17 57q0 49 39 74t99 25q61 0 102.5 -30t74.5 -90q-3 -8 -10 -13t-16 -5
q-11 0 -20 8.5t-13 24.5q-10 42 -36.5 67t-80.5 25q-46 0 -72.5 -18t-26.5 -54q0 -27 17.5 -48t47 -39t83.5 -46q57 -29 87 -49.5t46.5 -47t16.5 -64.5q0 -56 -42.5 -91t-116.5 -35q-84 0 -138 42.5zM284 -152l-82 -161l-6 6l43 110l-46 45l46 46z" />
    <glyph glyph-name="uni021A" unicode="&#x21a;" horiz-adv-x="605" 
d="M268 0q6 107 6 188v600h-11q-38 0 -93.5 -6.5t-113.5 -22.5l-36 41h565l-37 -41q-57 16 -112.5 22.5t-94.5 6.5h-10v-600q0 -99 6 -188h-69zM350 -143l-82 -161l-6 6l43 110l-46 45l46 46z" />
    <glyph glyph-name="uni021B" unicode="&#x21b;" horiz-adv-x="399" 
d="M152.5 10.5q-25.5 35.5 -25.5 122.5v320h-108v12h11q55 0 81.5 22.5t33.5 58.5t7 93v31h47q0 -81 -17 -132.5t-72 -72.5h211v-12h-142v-325q0 -77 15 -107t46 -30q39 0 65 48t43 165h12q-18 -128 -49.5 -178.5t-83.5 -50.5q-49 0 -74.5 35.5zM272 -156l-82 -161l-6 6
l43 110l-46 45l46 46z" />
    <glyph glyph-name="circumflex" unicode="&#x2c6;" horiz-adv-x="380" 
d="M135 693q25 23 55 57q26 -29 49 -50.5t64 -57.5l27 -23q-3 -18 -19 -18q-15 0 -30 15q-17 15 -31 34t-41 61l-19 27q-8 -11 -25 -38q-24 -36 -37 -53t-29 -31q-15 -15 -30 -15q-16 0 -19 18q60 51 85 74z" />
    <glyph glyph-name="caron" unicode="&#x2c7;" horiz-adv-x="370" 
d="M69 746q15 0 30 -15q16 -13 27.5 -28.5t36.5 -53.5l27 -39q5 7 10 14.5t11 15.5q26 39 40 57.5t30 33.5q15 15 30 15q16 0 19 -18l-27 -23q-41 -36 -64 -57.5t-49 -50.5q-30 34 -55 57t-85 74q3 18 19 18z" />
    <glyph glyph-name="breve" unicode="&#x2d8;" horiz-adv-x="376" 
d="M89.5 624.5q-36.5 39.5 -39.5 103.5h44q-2 -52 17 -91t77 -39t77.5 39t17.5 91h43q-3 -64 -39 -103.5t-99 -39.5q-62 0 -98.5 39.5z" />
    <glyph glyph-name="dotaccent" unicode="&#x2d9;" horiz-adv-x="195" 
d="M145 644l-47 -48l-48 48l48 47z" />
    <glyph glyph-name="ring" unicode="&#x2da;" horiz-adv-x="275" 
d="M75 609q-25 26 -25 61t25 61.5t63 26.5t62.5 -26.5t24.5 -61.5t-24.5 -61t-62.5 -26t-63 26zM192 617.5q21 22.5 21 52.5t-21 52.5t-54 22.5t-54 -22.5t-21 -52.5t21 -52.5t54 -22.5t54 22.5z" />
    <glyph glyph-name="ogonek" unicode="&#x2db;" horiz-adv-x="394" 
d="M83 -264q-33 26 -33 75q0 41 23.5 68.5t73.5 65.5q49 36 77 65h12q-28 -32 -62 -64q-44 -43 -62 -70t-18 -66q0 -44 23.5 -66t57.5 -22q37 0 61 19t39.5 48t33.5 78l35 -35q-24 -39 -45 -64t-52 -41.5t-74 -16.5q-57 0 -90 26z" />
    <glyph glyph-name="tilde" unicode="&#x2dc;" horiz-adv-x="423" 
d="M250 631q-20 13 -45 37q-23 21 -38.5 31.5t-32.5 10.5q-25 0 -33.5 -26t-6.5 -61h-44q6 100 80 100q23 0 42 -12.5t46 -37.5q22 -21 38 -32t33 -11q25 0 33.5 26.5t6.5 61.5h44q-6 -100 -80 -100q-23 0 -43 13z" />
    <glyph glyph-name="hungarumlaut" unicode="&#x2dd;" horiz-adv-x="363" 
d="M50 599l126 150q20 -4 20 -23q0 -13 -11 -27q-17 -21 -44 -43t-85 -63zM166 599l126 150q20 -4 20 -23q0 -13 -11 -27q-17 -21 -44 -43t-85 -63z" />
    <glyph glyph-name="gravecomb" unicode="&#x300;" 
d="M-58 593q-15 9 -74 43q-39 23 -58 35.5t-35 28.5q-13 13 -13 28q0 17 20 21l166 -150z" />
    <glyph glyph-name="acutecomb" unicode="&#x301;" 
d="M-236 599l165 150q20 -4 20 -21q0 -15 -13 -28q-16 -16 -35.5 -29t-58.5 -35l-72 -43z" />
    <glyph glyph-name="uni0302" unicode="&#x302;" 
d="M-245 693q25 23 55 57q26 -29 49 -50.5t64 -57.5l27 -23q-3 -18 -19 -18q-15 0 -30 15q-17 15 -31 34t-41 61l-19 27q-8 -11 -25 -38q-24 -36 -37 -53t-29 -31q-15 -15 -30 -15q-16 0 -19 18q60 51 85 74z" />
    <glyph glyph-name="tildecomb" unicode="&#x303;" 
d="M-173 631q-20 13 -45 37q-23 21 -38.5 31.5t-32.5 10.5q-25 0 -33.5 -26t-6.5 -61h-44q6 100 80 100q23 0 42 -12.5t46 -37.5q22 -21 38 -32t33 -11q25 0 33.5 26.5t6.5 61.5h44q-6 -100 -80 -100q-23 0 -43 13z" />
    <glyph glyph-name="uni0304" unicode="&#x304;" 
d="M-371 687q108 -6 161 -6q54 0 160 6v-33q-99 7 -160 7q-60 0 -161 -7v33z" />
    <glyph glyph-name="uni0306" unicode="&#x306;" 
d="M-286.5 624.5q-36.5 39.5 -39.5 103.5h44q-2 -52 17 -91t77 -39t77.5 39t17.5 91h43q-3 -64 -39 -103.5t-99 -39.5q-62 0 -98.5 39.5z" />
    <glyph glyph-name="uni0307" unicode="&#x307;" 
d="M-50 644l-47 -48l-48 48l48 47z" />
    <glyph glyph-name="uni0308" unicode="&#x308;" 
d="M-203 644l-47 -48l-48 48l48 47zM-50 644l-47 -48l-48 48l48 47z" />
    <glyph glyph-name="uni030A" unicode="&#x30a;" 
d="M-200 609q-25 26 -25 61t25 61.5t63 26.5t62.5 -26.5t24.5 -61.5t-24.5 -61t-62.5 -26t-63 26zM-83 617.5q21 22.5 21 52.5t-21 52.5t-54 22.5t-54 -22.5t-21 -52.5t21 -52.5t54 -22.5t54 22.5z" />
    <glyph glyph-name="uni030B" unicode="&#x30b;" 
d="M-313 599l126 150q20 -4 20 -23q0 -13 -11 -27q-17 -21 -44 -43t-85 -63zM-197 599l126 150q20 -4 20 -23q0 -13 -11 -27q-17 -21 -44 -43t-85 -63z" />
    <glyph glyph-name="uni030C" unicode="&#x30c;" 
d="M-311 746q15 0 30 -15q16 -13 27.5 -28.5t36.5 -53.5l27 -39q5 7 10 14.5t11 15.5q26 39 40 57.5t30 33.5q15 15 30 15q16 0 19 -18l-27 -23q-41 -36 -64 -57.5t-49 -50.5q-30 34 -55 57t-85 74q3 18 19 18z" />
    <glyph glyph-name="uni0312" unicode="&#x312;" 
d="M-141 623l82 161l6 -6l-42 -110l45 -45l-45 -46z" />
    <glyph glyph-name="uni0326" unicode="&#x326;" 
d="M-50 -134l-82 -161l-6 6l43 110l-46 45l46 46z" />
    <glyph glyph-name="uni0327" unicode="&#x327;" 
d="M-266.5 -265q-39.5 25 -63.5 71l35 35q20 -61 48.5 -90t70.5 -29q44 0 63 25.5t19 67.5q0 46 -29 74t-91 28q-8 0 -30 -2v13l43 82h44l-73 -84q22 2 32 2q71 0 109.5 -32.5t38.5 -79.5q0 -46 -35 -76t-90 -30q-52 0 -91.5 25z" />
    <glyph glyph-name="uni0328" unicode="&#x328;" 
d="M-311 -264q-33 26 -33 75q0 41 23.5 68.5t73.5 65.5q49 36 77 65h12q-28 -32 -62 -64q-44 -43 -62 -70t-18 -66q0 -44 23.5 -66t57.5 -22q37 0 61 19t39.5 48t33.5 78l35 -35q-24 -39 -45 -64t-52 -41.5t-74 -16.5q-57 0 -90 26z" />
    <glyph glyph-name="Wgrave" unicode="&#x1e80;" horiz-adv-x="956" 
d="M675 44q-3 -10 -3 -19q0 -10 6 -25h-71l-132 463l-120 -419q-2 -6 -2 -18q0 -13 5 -26h-70l-200 700q-8 32 -15.5 51.5t-22.5 48.5h78q2 -25 6 -44.5t8 -34t6 -21.5l191 -667l130 452l-61 215q-9 32 -16.5 51.5t-22.5 48.5h78q2 -28 6 -45t15 -55l31 -110l33 113
q2 5 3.5 11.5t4.5 13.5q5 17 9.5 34t5.5 38h24q-11 -22 -17 -40t-11 -36l-6 -20l-39 -136l152 -535l193 670q2 5 3.5 11.5t4.5 13.5q5 17 9.5 34t5.5 38h24q-16 -32 -26 -72l-7 -24zM558 868q-15 9 -74 43q-39 23 -58 35.5t-35 28.5q-13 13 -13 28q0 17 20 21l166 -150z" />
    <glyph glyph-name="wgrave" unicode="&#x1e81;" horiz-adv-x="716" 
d="M678 397q0 -42 -16 -79l-109 -254q-8 -17 -11.5 -28.5t-3.5 -23.5q0 -8 1 -12h-60l-94 220l-66 -156q-7 -15 -11.5 -28.5t-4.5 -24.5q0 -7 1 -11h-60l-168 394q-13 30 -37 71h69q6 -28 24 -68l158 -367l88 206l-68 158q-7 17 -16.5 34.5t-20.5 36.5h70q5 -25 23 -68
l159 -367l121 283q13 32 13 54q0 17 -5 28.5t-10.5 21t-8.5 14.5q-4 10 -4 13q0 12 10.5 17.5t25.5 3.5q11 -31 11 -68zM429 593q-15 9 -74 43q-39 23 -58 35.5t-35 28.5q-13 13 -13 28q0 17 20 21l166 -150z" />
    <glyph glyph-name="Wacute" unicode="&#x1e82;" horiz-adv-x="956" 
d="M675 44q-3 -10 -3 -19q0 -10 6 -25h-71l-132 463l-120 -419q-2 -6 -2 -18q0 -13 5 -26h-70l-200 700q-8 32 -15.5 51.5t-22.5 48.5h78q2 -25 6 -44.5t8 -34t6 -21.5l191 -667l130 452l-61 215q-9 32 -16.5 51.5t-22.5 48.5h78q2 -28 6 -45t15 -55l31 -110l33 113
q2 5 3.5 11.5t4.5 13.5q5 17 9.5 34t5.5 38h24q-11 -22 -17 -40t-11 -36l-6 -20l-39 -136l152 -535l193 670q2 5 3.5 11.5t4.5 13.5q5 17 9.5 34t5.5 38h24q-16 -32 -26 -72l-7 -24zM414 874l165 150q20 -4 20 -21q0 -15 -13 -28q-16 -16 -35.5 -29t-58.5 -35l-72 -43z" />
    <glyph glyph-name="wacute" unicode="&#x1e83;" horiz-adv-x="716" 
d="M678 397q0 -42 -16 -79l-109 -254q-8 -17 -11.5 -28.5t-3.5 -23.5q0 -8 1 -12h-60l-94 220l-66 -156q-7 -15 -11.5 -28.5t-4.5 -24.5q0 -7 1 -11h-60l-168 394q-13 30 -37 71h69q6 -28 24 -68l158 -367l88 206l-68 158q-7 17 -16.5 34.5t-20.5 36.5h70q5 -25 23 -68
l159 -367l121 283q13 32 13 54q0 17 -5 28.5t-10.5 21t-8.5 14.5q-4 10 -4 13q0 12 10.5 17.5t25.5 3.5q11 -31 11 -68zM285 599l165 150q20 -4 20 -21q0 -15 -13 -28q-16 -16 -35.5 -29t-58.5 -35l-72 -43z" />
    <glyph glyph-name="Wdieresis" unicode="&#x1e84;" horiz-adv-x="956" 
d="M675 44q-3 -10 -3 -19q0 -10 6 -25h-71l-132 463l-120 -419q-2 -6 -2 -18q0 -13 5 -26h-70l-200 700q-8 32 -15.5 51.5t-22.5 48.5h78q2 -25 6 -44.5t8 -34t6 -21.5l191 -667l130 452l-61 215q-9 32 -16.5 51.5t-22.5 48.5h78q2 -28 6 -45t15 -55l31 -110l33 113
q2 5 3.5 11.5t4.5 13.5q5 17 9.5 34t5.5 38h24q-11 -22 -17 -40t-11 -36l-6 -20l-39 -136l152 -535l193 670q2 5 3.5 11.5t4.5 13.5q5 17 9.5 34t5.5 38h24q-16 -32 -26 -72l-7 -24zM461 919l-47 -48l-48 48l48 47zM614 919l-47 -48l-48 48l48 47z" />
    <glyph glyph-name="wdieresis" unicode="&#x1e85;" horiz-adv-x="716" 
d="M678 397q0 -42 -16 -79l-109 -254q-8 -17 -11.5 -28.5t-3.5 -23.5q0 -8 1 -12h-60l-94 220l-66 -156q-7 -15 -11.5 -28.5t-4.5 -24.5q0 -7 1 -11h-60l-168 394q-13 30 -37 71h69q6 -28 24 -68l158 -367l88 206l-68 158q-7 17 -16.5 34.5t-20.5 36.5h70q5 -25 23 -68
l159 -367l121 283q13 32 13 54q0 17 -5 28.5t-10.5 21t-8.5 14.5q-4 10 -4 13q0 12 10.5 17.5t25.5 3.5q11 -31 11 -68zM332 644l-47 -48l-48 48l48 47zM485 644l-47 -48l-48 48l48 47z" />
    <glyph glyph-name="Ygrave" unicode="&#x1ef2;" horiz-adv-x="657" 
d="M298 0q6 89 6 188v163l-192 355q-14 27 -26 45t-36 49h83q7 -21 15.5 -39.5t18.5 -36.5l10 -18l181 -333l180 333q32 59 47 94h22q-22 -32 -36 -58t-19 -35l-191 -356v-163q0 -81 6 -188h-69zM412 873q-15 9 -74 43q-39 23 -58 35.5t-35 28.5q-13 13 -13 28q0 17 20 21
l166 -150z" />
    <glyph glyph-name="ygrave" unicode="&#x1ef3;" horiz-adv-x="493" 
d="M42 -136q-3 13 3.5 22t17.5 9q15 0 23 -14q11 -17 23.5 -25.5t29.5 -8.5q43 0 75 41t57 112h-45l-156 406q-14 35 -30 59h71q2 -17 6 -30.5t10 -28.5l150 -388l139 388q9 27 16 59h23q-9 -15 -14 -28.5t-11 -30.5l-145 -406q-30 -83 -64 -124t-88 -41q-49 0 -91 29z
M323 593q-15 9 -74 43q-39 23 -58 35.5t-35 28.5q-13 13 -13 28q0 17 20 21l166 -150z" />
    <glyph glyph-name="endash" unicode="&#x2013;" horiz-adv-x="952" 
d="M70 276q207 -5 406 -5t406 5v-33q-186 6 -406 6t-406 -6v33z" />
    <glyph glyph-name="emdash" unicode="&#x2014;" horiz-adv-x="1262" 
d="M70 276q277 -5 561 -5t561 5v-33q-249 6 -561 6t-561 -6v33z" />
    <glyph glyph-name="quoteleft" unicode="&#x2018;" horiz-adv-x="235" 
d="M70 642l89 173l6 -6l-47 -120l47 -47l-47 -48z" />
    <glyph glyph-name="quoteright" unicode="&#x2019;" horiz-adv-x="235" 
d="M165 764l-89 -173l-6 5l48 120l-48 48l48 47z" />
    <glyph glyph-name="quotesinglbase" unicode="&#x201a;" horiz-adv-x="235" 
d="M165 28l-89 -173l-6 5l48 120l-48 48l48 47z" />
    <glyph glyph-name="quotedblleft" unicode="&#x201c;" horiz-adv-x="362" 
d="M70 642l89 173l6 -6l-47 -120l47 -47l-47 -48zM197 642l90 173l5 -6l-47 -120l47 -47l-47 -48z" />
    <glyph glyph-name="quotedblright" unicode="&#x201d;" horiz-adv-x="362" 
d="M292 764l-89 -173l-6 5l48 120l-48 48l48 47zM165 764l-89 -173l-6 5l48 120l-48 48l48 47z" />
    <glyph glyph-name="quotedblbase" unicode="&#x201e;" horiz-adv-x="362" 
d="M292 28l-89 -173l-6 5l48 120l-48 48l48 47zM165 28l-89 -173l-6 5l48 120l-48 48l48 47z" />
    <glyph glyph-name="dagger" unicode="&#x2020;" horiz-adv-x="573" 
d="M280 -170q-1 266 -4 365.5t-14 190.5q11 45 15 82.5t3 103.5q-63 -1 -116 -12q-32 -6 -44 -6q-18 0 -29 5.5t-11 18.5q0 12 11.5 17.5t28.5 5.5q13 0 43 -6q55 -11 117 -11q-1 55 -5.5 95.5t-5.5 46.5q-6 46 -6 58q0 40 23 40t23 -40q0 -12 -6 -58q-1 -6 -5.5 -46.5
t-5.5 -95.5q40 1 63 3.5t53 7.5q32 6 45 6q17 0 28.5 -5.5t11.5 -17.5q0 -13 -11 -18.5t-29 -5.5q-13 0 -45 6q-53 11 -116 12q1 -68 5 -105.5t15 -80.5q-11 -90 -14.5 -187t-5.5 -369h-12z" />
    <glyph glyph-name="daggerdbl" unicode="&#x2021;" horiz-adv-x="513" 
d="M237 -244q0 12 6 58q1 6 5.5 46.5t5.5 95.5q-62 0 -117 -11q-30 -6 -43 -6q-17 0 -28.5 5.5t-11.5 17.5q0 13 11 18.5t29 5.5q12 0 44 -6q53 -11 116 -12q1 54 -3.5 87.5t-15.5 67.5q12 36 15.5 68t3.5 79t-3.5 79t-15.5 68q11 34 15.5 67.5t3.5 87.5q-63 -1 -116 -12
q-32 -6 -44 -6q-18 0 -29 5.5t-11 18.5q0 12 11.5 17.5t28.5 5.5q13 0 43 -6q55 -11 117 -11q-1 55 -5.5 95.5t-5.5 46.5q-6 46 -6 58q0 40 23 40t23 -40q0 -11 -6 -57q-11 -77 -11 -143q40 1 63 3.5t53 7.5q24 6 44 6q17 0 28.5 -5.5t11.5 -17.5q0 -13 -11 -18.5t-29 -5.5
q-12 0 -44 6q-50 11 -116 12q0 -54 4.5 -87.5t15.5 -67.5q-12 -37 -16 -70.5t-4 -76.5t4 -76.5t16 -70.5q-11 -34 -15.5 -67.5t-4.5 -87.5q66 1 116 12q32 6 44 6q18 0 29 -5.5t11 -18.5q0 -12 -11.5 -17.5t-28.5 -5.5q-20 0 -44 6q-30 5 -53 7.5t-63 3.5q0 -66 11 -143
q6 -46 6 -57q0 -40 -23 -40t-23 40z" />
    <glyph glyph-name="bullet" unicode="&#x2022;" horiz-adv-x="373" 
d="M303 258l-116 -116l-117 116l117 117z" />
    <glyph glyph-name="ellipsis" unicode="&#x2026;" horiz-adv-x="600" 
d="M165 28l-47 -48l-48 48l48 47zM348 28l-47 -48l-48 48l48 47zM530 28l-47 -48l-48 48l48 47z" />
    <glyph glyph-name="perthousand" unicode="&#x2030;" horiz-adv-x="1649" 
d="M383 7q198 437 327 784q-63 1 -165 13q-40 5 -82 8.5t-81 3.5q-31 0 -48 -1q50 -10 89 -41t60 -74.5t21 -90.5q0 -54 -27.5 -102.5t-77 -78.5t-112.5 -30t-112.5 30t-77 78.5t-27.5 102.5q0 48 21.5 93t61.5 76t93 39q69 12 167 12q87 0 176 -10t164 -26
q-101 -225 -181 -415t-150 -378zM377.5 439q36.5 29 53.5 74.5t17 95.5t-17 95.5t-53.5 74.5t-90.5 29t-90.5 -29t-53.5 -74.5t-17 -95.5t17 -95.5t53.5 -74.5t90.5 -29t90.5 29zM737.5 10q-49.5 30 -77 78.5t-27.5 102.5t27.5 103t77 79t112.5 30t112.5 -30t77 -79
t27.5 -103t-27.5 -102.5t-77 -78.5t-112.5 -30t-112.5 30zM1249.5 10q-49.5 30 -77 78.5t-27.5 102.5t27.5 103t77 79t112.5 30t112.5 -30t77 -79t27.5 -103t-27.5 -102.5t-77 -78.5t-112.5 -30t-112.5 30zM940 21q36 29 53 74.5t17 95.5t-17 95.5t-53 74.5t-90 29
t-90.5 -29t-53.5 -74.5t-17 -95.5t17 -95.5t53.5 -74.5t90.5 -29t90 29zM1452.5 21q36.5 29 53.5 74.5t17 95.5t-17 95.5t-53.5 74.5t-90.5 29t-90 -29t-53 -74.5t-17 -95.5t17 -95.5t53 -74.5t90 -29t90.5 29z" />
    <glyph glyph-name="guilsinglleft" unicode="&#x2039;" horiz-adv-x="363" 
d="M70 233q96 76 205 187q18 -3 18 -18q0 -16 -16 -30q-21 -20 -64 -48q-71 -47 -130 -91q59 -44 130 -91q43 -28 64 -48q16 -14 16 -30q0 -7 -4.5 -12.5t-13.5 -6.5q-108 110 -205 188z" />
    <glyph glyph-name="guilsinglright" unicode="&#x203a;" horiz-adv-x="363" 
d="M70 65q0 14 15 29q12 11 28 22.5t35 24.5q71 47 132 92q-61 45 -132 92q-19 13 -35 24.5t-28 22.5q-15 15 -15 29q0 7 4.5 12.5t13.5 6.5q109 -111 205 -187q-97 -78 -205 -188q-18 3 -18 20z" />
    <glyph glyph-name="fraction" unicode="&#x2044;" horiz-adv-x="443" 
d="M10 -155q89 197 203.5 477t187.5 481l32 -14q-89 -197 -203.5 -477t-187.5 -481z" />
    <glyph glyph-name="Euro" unicode="&#x20ac;" horiz-adv-x="941" 
d="M670.5 68.5q41.5 19.5 73.5 52.5t70 86l57 -27q-77 -75 -144.5 -109.5t-153.5 -34.5q-88 0 -156.5 38t-111.5 102.5t-57 144.5q-90 0 -178 -5l21 27q92 -4 154 -4q-4 27 -4 61q0 14 2 40q-85 -2 -123 -4l21 27l104 -4q11 85 53.5 154.5t112.5 110t162 40.5
q86 0 153.5 -34.5t144.5 -109.5l-57 -27q-38 53 -70 86t-73.5 52.5t-96.5 19.5q-81 0 -138.5 -40.5t-89.5 -106.5t-41 -146h84q179 0 280 5l-21 -27q-125 6 -285 6h-59q-2 -28 -2 -42q0 -34 4 -62h56q132 0 257 5l-21 -27q-128 6 -290 6q17 -118 84.5 -195.5t181.5 -77.5
q55 0 96.5 19.5z" />
    <glyph glyph-name="trademark" unicode="&#x2122;" horiz-adv-x="698" 
d="M318 777q-29 6 -47.5 8.5t-49.5 2.5h-10v-78q0 -87 5 -180h-43q5 93 5 180v78h-10q-30 0 -48.5 -2t-48.5 -9l-21 23h290zM648 800q-1 -16 -4 -90l-1 -30l1 -32q3 -98 4 -118h-43q5 93 5 170v52l-104 -234h-13l-109 231v-49q0 -77 5 -170h-22q1 20 4 118l1 32l-1 30
q-3 74 -4 90h29l115 -243l107 243h30z" />
    <glyph glyph-name="arrowleft" unicode="&#x2190;" horiz-adv-x="614" 
d="M266 57q-47 53 -107.5 102t-108.5 74q49 25 109 73.5t107 101.5l26 -2l-1 -26l-48 -34q-60 -43 -95 -67t-68 -40l68 1q99 1 210.5 4t184.5 8l21 -20l-21 -20q-75 7 -166 9.5t-239 4.5l-58 1q29 -15 67.5 -41t76.5 -53l67 -47l1 -27z" />
    <glyph glyph-name="arrowup" unicode="&#x2191;" horiz-adv-x="449" 
d="M398 244l-27 2l-42 59q-37 51 -60 86t-38 65q3 -323 15 -462l-20 -22l-21 22q10 141 13 462q-15 -30 -38 -65t-60 -86l-42 -59l-27 -2l-2 27q52 46 100.5 106.5t75.5 108.5q26 -48 74.5 -108t100.5 -107z" />
    <glyph glyph-name="arrowright" unicode="&#x2192;" horiz-adv-x="614" 
d="M322 59l1 27l67 47q38 27 76.5 53t67.5 41l-58 -1q-269 -2 -404 -14l-22 20l22 20q73 -5 184 -8t210 -4l68 -1q-31 15 -64 37.5t-90 62.5q-38 28 -57 41l-1 26l26 2q47 -53 107 -101.5t109 -73.5q-48 -25 -108.5 -74t-107.5 -102z" />
    <glyph glyph-name="arrowdown" unicode="&#x2193;" horiz-adv-x="449" 
d="M400 191q-53 -47 -101.5 -107t-73.5 -109q-26 49 -75 109t-101 107l2 27l27 -2l42 -59q37 -51 60 -86t38 -65q-3 321 -13 462l21 21l20 -21q-12 -139 -15 -463q15 31 37 64t62 90q17 21 41 57l27 2z" />
    <glyph glyph-name="arrowboth" unicode="&#x2194;" horiz-adv-x="758" 
d="M266 57q-47 53 -107.5 102t-108.5 74q49 25 109 73.5t107 101.5l26 -2l-1 -26l-48 -34q-60 -43 -95 -67t-68 -40q151 1 204 3.5t95 12.5q42 -10 94.5 -12.5t203.5 -3.5q-32 16 -67.5 40t-93.5 66l-49 35l-2 26l27 2q47 -53 107 -101.5t109 -73.5q-48 -25 -108.5 -74
t-107.5 -102l-27 2l2 27l60 42q103 75 151 99q-158 -2 -208.5 -4.5t-90.5 -13.5q-41 11 -91.5 13.5t-207.5 4.5q29 -15 67.5 -41t76.5 -53l67 -47l1 -27z" />
    <glyph glyph-name="arrowupdn" unicode="&#x2195;" horiz-adv-x="451" 
d="M50 345q53 47 101.5 107t73.5 109q26 -49 75 -109t101 -107l-2 -26l-27 1q-24 36 -41 57q-40 57 -62 90t-37 64q1 -151 3.5 -204t12.5 -95q-10 -42 -12.5 -94.5t-3.5 -203.5q15 30 38 65t60 86l42 59l27 2l2 -27q-52 -47 -101 -107t-75 -109q-25 49 -73.5 109t-101.5 107
l2 27l27 -2q24 -36 41 -57q40 -57 62 -90t37 -64q-1 152 -4 205t-13 94q10 42 13 94.5t4 204.5q-14 -29 -35 -60.5t-59 -85.5q-16 -21 -46 -65l-27 -1z" />
    <glyph glyph-name="uni2196" unicode="&#x2196;" horiz-adv-x="471" 
d="M79 138q1 14 1 43q0 63 -8 126.5t-22 107.5q44 -14 107.5 -22t126.5 -8q29 0 43 1l17 -20l-20 -17l-71 12q-121 18 -177 37l22 -21q208 -205 314 -297l1 -29l-30 1q-53 63 -122.5 136.5t-176.5 182.5l-17 18q19 -56 37 -177l12 -71l-17 -20z" />
    <glyph glyph-name="uni2197" unicode="&#x2197;" horiz-adv-x="471" 
d="M372 121l-17 20l12 71q18 121 37 177l-17 -18q-107 -109 -176.5 -182.5t-122.5 -136.5l-30 -1l1 29q106 92 314 297l22 21q-56 -19 -177 -37l-71 -12l-20 17l17 20q14 -1 43 -1q63 0 126.5 8t107.5 22q-14 -44 -22 -107.5t-8 -126.5q0 -29 1 -43z" />
    <glyph glyph-name="uni2198" unicode="&#x2198;" horiz-adv-x="471" 
d="M392 320q-1 -14 -1 -43q0 -63 8 -126.5t22 -107.5q-43 14 -105.5 22t-124.5 8q-32 0 -47 -1l-17 20l20 18q41 -7 67 -11q16 -3 78 -14t103 -24l-54 53q-17 16 -113 109t-169 155l-1 30l30 -1q56 -67 134.5 -149.5t181.5 -188.5q-19 56 -37 177l-12 71l17 21z" />
    <glyph glyph-name="uni2199" unicode="&#x2199;" horiz-adv-x="471" 
d="M99 338l17 -20l-12 -70q-18 -123 -37 -179q103 106 181.5 188.5t134.5 149.5l30 1l-1 -30q-73 -62 -169 -155t-113 -109l-54 -53q41 13 103 24t78 14q26 4 67 11l20 -18l-17 -20q-16 1 -49 1q-63 0 -124 -8t-104 -21q14 43 22 106.5t8 126.5q0 29 -1 43z" />
    <glyph glyph-name="minus" unicode="&#x2212;" horiz-adv-x="561" 
d="M50 276q130 -5 231 -5q100 0 230 5v-33q-117 6 -230 6q-114 0 -231 -6v33z" />
    <glyph glyph-name="approxequal" unicode="&#x2248;" horiz-adv-x="517" 
d="M304.5 296.5q-21.5 8.5 -49.5 25.5q-27 16 -46 24t-40 8q-26 0 -44.5 -13.5t-39.5 -40.5l-35 29q26 25 54 39t63 14q25 0 45.5 -8.5t49.5 -25.5t47 -24.5t39 -7.5q26 0 44.5 13.5t39.5 40.5l35 -29q-53 -53 -116 -53q-25 0 -46.5 8.5zM304.5 151.5q-21.5 8.5 -49.5 25.5
q-27 16 -46 24t-40 8q-26 0 -44.5 -13.5t-39.5 -40.5l-35 29q26 25 54 39t63 14q25 0 45.5 -8.5t49.5 -25.5t47 -24.5t39 -7.5q26 0 44.5 13.5t39.5 40.5l35 -29q-53 -53 -116 -53q-25 0 -46.5 8.5z" />
    <glyph glyph-name="notequal" unicode="&#x2260;" horiz-adv-x="561" 
d="M511 323q-93 6 -182 6q-52 -86 -81 -138h45q95 0 218 5v-33q-128 7 -217 7l-58 -1q-22 -40 -66 -123l-23 13q47 73 70 110q-83 -2 -167 -6v33q60 -3 180 -5q50 84 82 139q-137 0 -262 -7v33q128 -5 227 -5h47q49 85 84 154l23 -13q-37 -56 -89 -141q112 2 169 5v-33z" />
    <glyph glyph-name="lessequal" unicode="&#x2264;" horiz-adv-x="400" 
d="M331 132q-76 50 -132.5 82t-148.5 78q94 48 150 79.5t131 81.5l19 -30q-125 -65 -264 -131q82 -38 132.5 -63t131.5 -67zM350 65q-82 6 -150 6t-150 -6v33q92 -5 150 -5t150 5v-33z" />
    <glyph glyph-name="greaterequal" unicode="&#x2265;" horiz-adv-x="400" 
d="M50 162q81 42 131.5 67t132.5 63q-139 66 -264 131l19 30q75 -50 131 -81.5t150 -79.5q-92 -46 -148.5 -78t-132.5 -82zM50 98q92 -5 150 -5t150 5v-33q-82 6 -150 6t-150 -6v33z" />
    <glyph glyph-name="i.loclTRK" horiz-adv-x="164" 
d="M135 648l-52 -50l-53 50l53 50zM50 0q6 68 6 178v110q0 109 -6 177h64q-6 -68 -6 -177v-110q0 -110 6 -178h-64z" />
    <glyph glyph-name="e.ss01" horiz-adv-x="558" 
d="M159 11q-52 31 -81 86.5t-29 126.5t29.5 131t81 95t115.5 35q55 0 97.5 -26.5t65.5 -69t23 -90.5h-346q-7 -32 -7 -73q0 -59 20.5 -112t61.5 -85.5t98 -32.5q81 0 132 50t98 149h12q-44 -101 -103 -158t-150 -57q-66 0 -118 31zM404 311q0 68 -35 115t-95 47
q-62 0 -102 -44t-56 -118h288z" />
    <glyph glyph-name="eacute.ss01" horiz-adv-x="558" 
d="M159 11q-52 31 -81 86.5t-29 126.5t29.5 131t81 95t115.5 35q55 0 97.5 -26.5t65.5 -69t23 -90.5h-346q-7 -32 -7 -73q0 -59 20.5 -112t61.5 -85.5t98 -32.5q81 0 132 50t98 149h12q-44 -101 -103 -158t-150 -57q-66 0 -118 31zM404 311q0 68 -35 115t-95 47
q-62 0 -102 -44t-56 -118h288zM199 599l165 150q20 -4 20 -21q0 -15 -13 -28q-16 -16 -35.5 -29t-58.5 -35l-72 -43z" />
    <glyph glyph-name="ecaron.ss01" horiz-adv-x="558" 
d="M159 11q-52 31 -81 86.5t-29 126.5t29.5 131t81 95t115.5 35q55 0 97.5 -26.5t65.5 -69t23 -90.5h-346q-7 -32 -7 -73q0 -59 20.5 -112t61.5 -85.5t98 -32.5q81 0 132 50t98 149h12q-44 -101 -103 -158t-150 -57q-66 0 -118 31zM404 311q0 68 -35 115t-95 47
q-62 0 -102 -44t-56 -118h288zM154 746q15 0 30 -15q16 -13 27.5 -28.5t36.5 -53.5l27 -39q5 7 10 14.5t11 15.5q26 39 40 57.5t30 33.5q15 15 30 15q16 0 19 -18l-27 -23q-41 -36 -64 -57.5t-49 -50.5q-30 34 -55 57t-85 74q3 18 19 18z" />
    <glyph glyph-name="ecircumflex.ss01" horiz-adv-x="558" 
d="M159 11q-52 31 -81 86.5t-29 126.5t29.5 131t81 95t115.5 35q55 0 97.5 -26.5t65.5 -69t23 -90.5h-346q-7 -32 -7 -73q0 -59 20.5 -112t61.5 -85.5t98 -32.5q81 0 132 50t98 149h12q-44 -101 -103 -158t-150 -57q-66 0 -118 31zM404 311q0 68 -35 115t-95 47
q-62 0 -102 -44t-56 -118h288zM220 693q25 23 55 57q26 -29 49 -50.5t64 -57.5l27 -23q-3 -18 -19 -18q-15 0 -30 15q-17 15 -31 34t-41 61l-19 27q-8 -11 -25 -38q-24 -36 -37 -53t-29 -31q-15 -15 -30 -15q-16 0 -19 18q60 51 85 74z" />
    <glyph glyph-name="edieresis.ss01" horiz-adv-x="558" 
d="M159 11q-52 31 -81 86.5t-29 126.5t29.5 131t81 95t115.5 35q55 0 97.5 -26.5t65.5 -69t23 -90.5h-346q-7 -32 -7 -73q0 -59 20.5 -112t61.5 -85.5t98 -32.5q81 0 132 50t98 149h12q-44 -101 -103 -158t-150 -57q-66 0 -118 31zM404 311q0 68 -35 115t-95 47
q-62 0 -102 -44t-56 -118h288zM247 644l-47 -48l-48 48l48 47zM400 644l-47 -48l-48 48l48 47z" />
    <glyph glyph-name="edotaccent.ss01" horiz-adv-x="558" 
d="M159 11q-52 31 -81 86.5t-29 126.5t29.5 131t81 95t115.5 35q55 0 97.5 -26.5t65.5 -69t23 -90.5h-346q-7 -32 -7 -73q0 -59 20.5 -112t61.5 -85.5t98 -32.5q81 0 132 50t98 149h12q-44 -101 -103 -158t-150 -57q-66 0 -118 31zM404 311q0 68 -35 115t-95 47
q-62 0 -102 -44t-56 -118h288zM323 644l-47 -48l-48 48l48 47z" />
    <glyph glyph-name="egrave.ss01" horiz-adv-x="558" 
d="M159 11q-52 31 -81 86.5t-29 126.5t29.5 131t81 95t115.5 35q55 0 97.5 -26.5t65.5 -69t23 -90.5h-346q-7 -32 -7 -73q0 -59 20.5 -112t61.5 -85.5t98 -32.5q81 0 132 50t98 149h12q-44 -101 -103 -158t-150 -57q-66 0 -118 31zM404 311q0 68 -35 115t-95 47
q-62 0 -102 -44t-56 -118h288zM343 593q-15 9 -74 43q-39 23 -58 35.5t-35 28.5q-13 13 -13 28q0 17 20 21l166 -150z" />
    <glyph glyph-name="emacron.ss01" horiz-adv-x="558" 
d="M159 11q-52 31 -81 86.5t-29 126.5t29.5 131t81 95t115.5 35q55 0 97.5 -26.5t65.5 -69t23 -90.5h-346q-7 -32 -7 -73q0 -59 20.5 -112t61.5 -85.5t98 -32.5q81 0 132 50t98 149h12q-44 -101 -103 -158t-150 -57q-66 0 -118 31zM404 311q0 68 -35 115t-95 47
q-62 0 -102 -44t-56 -118h288zM115 687q108 -6 161 -6q54 0 160 6v-33q-99 7 -160 7q-60 0 -161 -7v33z" />
    <glyph glyph-name="eogonek.ss01" horiz-adv-x="558" 
d="M390 -259q24 19 39.5 48t33.5 78l35 -35q-24 -39 -45 -64t-52 -41.5t-74 -16.5q-57 0 -90 26t-33 75q0 41 23.5 69t73.5 64q42 32 64 53q-40 -17 -88 -17q-66 0 -118 31t-81 86.5t-29 126.5t29.5 131t81 95t115.5 35q55 0 97.5 -26.5t65.5 -69t23 -90.5h-346
q-7 -32 -7 -73q0 -59 20.5 -112t61.5 -85.5t98 -32.5q81 0 132 50t98 149h12q-28 -66 -62 -113t-79 -73q-15 -17 -61 -63q-44 -43 -62 -70t-18 -66q0 -44 23.5 -66t57.5 -22q37 0 61 19zM172 429q-40 -44 -56 -118h288q0 68 -35 115t-95 47q-62 0 -102 -44z" />
    <glyph glyph-name="f.ss01" horiz-adv-x="420" 
d="M152 0q6 94 6 186v122q0 60 21 95t81 50q-103 0 -172.5 43t-69.5 138q0 60 30.5 102t78 63t97.5 21q40 0 76.5 -10.5t63 -23.5t82.5 -43q1 -17 -7.5 -26t-23.5 -9q-22 0 -42 19l-18 19q-28 30 -54.5 46t-73.5 16q-36 0 -71 -21.5t-57.5 -60.5t-22.5 -90q0 -79 49.5 -125
t126.5 -46h133v-12q-82 0 -119.5 -16t-46.5 -44.5t-9 -84.5v-122q0 -92 6 -186h-64z" />
    <glyph glyph-name="k.ss01" horiz-adv-x="523" 
d="M385 105q25 -33 46 -55t55 -50h-96q-14 26 -30.5 50.5t-38.5 54.5l-85 115q-21 -8 -76 -26l-34 -11q0 -108 6 -183h-64q6 77 6 188v425q0 110 -6 187h64q-6 -77 -6 -187v-417q78 26 123.5 46t75.5 49.5t30 72.5q0 28 -17.5 52.5t-56.5 47.5l6 11q59 -28 91.5 -54
t32.5 -61q0 -41 -33 -71t-94 -56z" />
    <glyph glyph-name="uni0137.ss01" horiz-adv-x="523" 
d="M385 105q25 -33 46 -55t55 -50h-96q-14 26 -30.5 50.5t-38.5 54.5l-85 115q-21 -8 -76 -26l-34 -11q0 -108 6 -183h-64q6 77 6 188v425q0 110 -6 187h64q-6 -77 -6 -187v-417q78 26 123.5 46t75.5 49.5t30 72.5q0 28 -17.5 52.5t-56.5 47.5l6 11q59 -28 91.5 -54
t32.5 -61q0 -41 -33 -71t-94 -56zM295 -134l-82 -161l-6 6l43 110l-46 45l46 46z" />
    <glyph glyph-name="y.ss01" horiz-adv-x="527" 
d="M147 -208q17 7 32 12.5t28 11.5q82 32 120.5 52t59.5 53t21 89v98q-27 -52 -76 -90t-113 -38q-72 0 -106.5 44t-34.5 139v116q0 52 -1.5 87t-8.5 99h62v-313q0 -156 104 -156q59 0 103.5 37.5t70.5 89.5v156q0 52 -2 87t-9 99h63v-436q0 -65 -26 -102.5t-75.5 -62
t-162.5 -66.5l-49 -18v12z" />
    <glyph glyph-name="yacute.ss01" horiz-adv-x="527" 
d="M147 -208q17 7 32 12.5t28 11.5q82 32 120.5 52t59.5 53t21 89v98q-27 -52 -76 -90t-113 -38q-72 0 -106.5 44t-34.5 139v116q0 52 -1.5 87t-8.5 99h62v-313q0 -156 104 -156q59 0 103.5 37.5t70.5 89.5v156q0 52 -2 87t-9 99h63v-436q0 -65 -26 -102.5t-75.5 -62
t-162.5 -66.5l-49 -18v12zM188 599l165 150q20 -4 20 -21q0 -15 -13 -28q-16 -16 -35.5 -29t-58.5 -35l-72 -43z" />
    <glyph glyph-name="ycircumflex.ss01" horiz-adv-x="527" 
d="M147 -208q17 7 32 12.5t28 11.5q82 32 120.5 52t59.5 53t21 89v98q-27 -52 -76 -90t-113 -38q-72 0 -106.5 44t-34.5 139v116q0 52 -1.5 87t-8.5 99h62v-313q0 -156 104 -156q59 0 103.5 37.5t70.5 89.5v156q0 52 -2 87t-9 99h63v-436q0 -65 -26 -102.5t-75.5 -62
t-162.5 -66.5l-49 -18v12zM209 693q25 23 55 57q26 -29 49 -50.5t64 -57.5l27 -23q-3 -18 -19 -18q-15 0 -30 15q-17 15 -31 34t-41 61l-19 27q-8 -11 -25 -38q-24 -36 -37 -53t-29 -31q-15 -15 -30 -15q-16 0 -19 18q60 51 85 74z" />
    <glyph glyph-name="ydieresis.ss01" horiz-adv-x="527" 
d="M147 -208q17 7 32 12.5t28 11.5q82 32 120.5 52t59.5 53t21 89v98q-27 -52 -76 -90t-113 -38q-72 0 -106.5 44t-34.5 139v116q0 52 -1.5 87t-8.5 99h62v-313q0 -156 104 -156q59 0 103.5 37.5t70.5 89.5v156q0 52 -2 87t-9 99h63v-436q0 -65 -26 -102.5t-75.5 -62
t-162.5 -66.5l-49 -18v12zM235 644l-47 -48l-48 48l48 47zM388 644l-47 -48l-48 48l48 47z" />
    <glyph glyph-name="ygrave.ss01" horiz-adv-x="527" 
d="M147 -208q17 7 32 12.5t28 11.5q82 32 120.5 52t59.5 53t21 89v98q-27 -52 -76 -90t-113 -38q-72 0 -106.5 44t-34.5 139v116q0 52 -1.5 87t-8.5 99h62v-313q0 -156 104 -156q59 0 103.5 37.5t70.5 89.5v156q0 52 -2 87t-9 99h63v-436q0 -65 -26 -102.5t-75.5 -62
t-162.5 -66.5l-49 -18v12zM331 593q-15 9 -74 43q-39 23 -58 35.5t-35 28.5q-13 13 -13 28q0 17 20 21l166 -150z" />
    <glyph glyph-name="C_O" horiz-adv-x="1389" 
d="M235 37q-86 57 -130.5 155t-44.5 218q0 116 50 209.5t137 147t194 53.5q208 0 311 -208l-66 -18q-29 95 -90 154.5t-155 59.5q-93 0 -165 -53t-112 -143.5t-40 -198.5q0 -114 36 -208t109.5 -150t181.5 -56q133 0 216.5 88.5t116.5 241.5h12q-34 -163 -122.5 -256
t-233.5 -93q-119 0 -205 57zM956.5 392.5q-56.5 32.5 -86.5 85t-30 112.5t30 112.5t86.5 85t132.5 32.5q75 0 132 -32.5t87.5 -85.5t30.5 -112t-30.5 -112t-87.5 -85.5t-132 -32.5q-76 0 -132.5 32.5zM1195 403q44 32 66 82.5t22 104.5t-22 104.5t-66 82.5t-106 32
q-61 0 -105 -32t-66 -82.5t-22 -104.5t22 -104.5t66 -82.5t105 -32q62 0 106 32zM1138 28l-48 -48l-47 48l47 47z" />
    <glyph glyph-name="E_S_T_D" horiz-adv-x="2004" 
d="M531 243l58 22q6 -80 39 -142t87 -96.5t119 -34.5q76 0 124.5 43t48.5 125q0 41 -23 77t-60.5 70t-115.5 95l-37 29l-20 16q-70 55 -102 84.5t-49 62t-17 75.5q0 71 49.5 111t132.5 40q82 0 143 -45.5t105 -134.5l-58 -18q-10 78 -57 132t-135 54q-67 0 -105.5 -32.5
t-38.5 -87.5q0 -36 15.5 -64t41.5 -51.5t81 -65.5l42 -32l31 -24q85 -68 125.5 -105.5t64 -79t23.5 -93.5q0 -93 -60 -143t-152 -50q-226 0 -300 263zM70 0q8 102 8 188v425q0 85 -8 187h429l-36 -41q-57 16 -123.5 22.5t-110.5 6.5h-94v-356h71q53 0 95.5 1.5t104.5 8.5
v-32q-62 7 -104.5 8.5t-95.5 1.5h-71v-407h126q80 0 139.5 5.5t128.5 22.5l-23 -41h-436zM1263 0q6 107 6 188v600h-11q-38 0 -93.5 -6.5t-113.5 -22.5l-36 41h565l-37 -41q-57 16 -112.5 22.5t-94.5 6.5h-10v-600q0 -99 6 -188h-69zM1640 380q5 93 5 180v60q0 87 -5 180
h108q93 0 144.5 -56t51.5 -154q0 -60 -23.5 -108t-67.5 -75t-105 -27h-108zM1747 393q45 0 81.5 24.5t57 69t20.5 103.5q0 95 -44 146.5t-115 51.5h-69v-395h69zM1831 28l-48 -48l-47 48l47 47z" />
    <glyph glyph-name="L_T_D" horiz-adv-x="1110" 
d="M70 0q8 102 8 188v425q0 98 -6 187h69q-6 -107 -6 -187v-600h454q81 0 143 5.5t130 22.5l-24 -41h-768zM461 380q5 93 5 180v228h-16q-59 0 -120 -12l-12 24h330l-13 -24q-61 12 -120 12h-16v-228q0 -87 5 -180h-43zM743 380q5 93 5 180v60q0 87 -5 180h108
q93 0 144.5 -56t51.5 -154q0 -60 -23.5 -108t-67.5 -75t-105 -27h-108zM850 393q45 0 81.5 24.5t57 69t20.5 103.5q0 95 -44 146.5t-115 51.5h-69v-395h69zM1050 28l-48 -48l-47 48l47 47z" />
    <glyph glyph-name="S_T" horiz-adv-x="928" 
d="M40 243l58 22q5 -80 38.5 -142t87 -96.5t118.5 -34.5q77 0 125.5 42.5t48.5 125.5q0 40 -22.5 76t-60 69.5t-112.5 92.5l-41 33l-20 16q-70 55 -102 84.5t-49 62t-17 75.5q0 71 49.5 111t132.5 40q82 0 143 -45.5t105 -134.5l-58 -18q-10 78 -57 132t-135 54
q-67 0 -105.5 -32.5t-38.5 -87.5q0 -36 15.5 -64t41.5 -51.5t81 -65.5l42 -32l31 -24q85 -68 125.5 -105.5t64 -79t23.5 -93.5q0 -93 -60.5 -143t-151.5 -50q-226 0 -300 263zM721 380q5 93 5 180v228h-16q-59 0 -119 -12l-13 24h330l-13 -24q-60 12 -119 12h-16v-228
q0 -87 5 -180h-44zM791 28l-48 -48l-47 48l47 47z" />
    <glyph glyph-name="S_T_R" horiz-adv-x="1633" 
d="M1453 82.5q26 -38.5 59 -54.5t82 -16v-12q-74 0 -120 18.5t-75.5 58t-54.5 108.5q-27 75 -61.5 115t-76.5 55t-101 15h-44v-182q0 -81 6 -188h-69q6 89 6 188v425q0 98 -6 187h148q145 0 230.5 -48t85.5 -167q0 -105 -68 -154.5t-185 -58.5q64 -13 112 -54.5t79 -124.5
q27 -72 53 -110.5zM1061 383h85q111 0 183 45.5t72 156.5q0 112 -72 157.5t-183 45.5h-85v-405zM40 243l58 22q5 -80 38.5 -142t87 -96.5t118.5 -34.5q77 0 125.5 42.5t48.5 125.5q0 40 -22.5 76t-60 69.5t-112.5 92.5l-41 33l-20 16q-70 55 -102 84.5t-49 62t-17 75.5
q0 71 49.5 111t132.5 40q82 0 143 -45.5t105 -134.5l-58 -18q-10 78 -57 132t-135 54q-67 0 -105.5 -32.5t-38.5 -87.5q0 -36 15.5 -64t41.5 -51.5t81 -65.5l42 -32l31 -24q85 -68 125.5 -105.5t64 -79t23.5 -93.5q0 -93 -60.5 -143t-151.5 -50q-226 0 -300 263zM721 380
q5 93 5 180v228h-16q-59 0 -119 -12l-13 24h330l-13 -24q-60 12 -119 12h-16v-228q0 -87 5 -180h-44zM791 28l-48 -48l-47 48l47 47z" />
    <glyph glyph-name="s_t" horiz-adv-x="786" 
d="M747 204q-18 -128 -49.5 -178.5t-83.5 -50.5q-49 0 -74.5 35.5t-25.5 122.5v320h-108v12h12q69 0 105 49t36 120q0 90 -50.5 138t-129.5 48t-124.5 -37.5t-45.5 -109.5q0 -50 23 -91.5t71 -100.5q29 -37 47 -62t33 -54q-3 -8 -10 -13t-16 -5q-11 0 -20 8.5t-13 24.5
q-10 42 -36.5 67t-80.5 25q-46 0 -72.5 -18t-26.5 -54q0 -27 17.5 -48t47 -39t83.5 -46q57 -29 87 -49.5t46.5 -47t16.5 -64.5q0 -56 -42.5 -91t-116.5 -35q-84 0 -138 42.5t-70 122.5q12 17 28 17q13 0 21.5 -11.5t8.5 -33.5q0 -32 17.5 -60.5t52 -46t81.5 -17.5
q58 0 87.5 29t29.5 75q0 30 -15 50.5t-42.5 37.5t-90.5 51q-55 29 -85 49t-47 44t-17 57q0 49 39 74t99 25q46 0 78 -16q-60 58 -92 104t-32 101q0 47 28.5 83t78.5 55.5t112 19.5q63 0 115 -23t83 -68t31 -107q0 -55 -29.5 -102t-84.5 -67h215v-12h-143v-325
q0 -77 15.5 -107t46.5 -30q39 0 65 48t43 165h11z" />
    <glyph glyph-name="eight.ss01" horiz-adv-x="748" 
d="M223.5 9q-69.5 29 -112.5 88t-43 145q0 107 66 173t168 83q-85 16 -132 74t-47 151v77h502v-77q0 -93 -47 -151t-131 -74q101 -17 167 -83t66 -173q0 -86 -43 -145t-112.5 -88t-150.5 -29t-150.5 29zM518 558q51 54 51 150v80h-390v-80q0 -96 51 -150t144 -54t144 54z
M495 20q56 28 90 84.5t34 137.5q0 80 -34 136.5t-90 85t-121 28.5t-121 -28.5t-90 -85t-34 -136.5q0 -81 34 -137.5t90 -84.5t121 -28t121 28z" />
    <glyph glyph-name="eight.ss02" horiz-adv-x="704" 
d="M147 41.5q-79 61.5 -79 177.5q0 101 69.5 180.5t188.5 146.5q-46 27 -91.5 48t-122.5 54v152h480v-152l-20 -9q-125 -52 -194 -93q119 -68 188.5 -147.5t69.5 -179.5q0 -116 -79 -177.5t-205 -61.5t-205 61.5zM537 653v135h-370v-135q115 -53 185 -92q70 39 185 92z
M513 49.5q62 57.5 62 166.5q0 97 -60.5 174.5t-162.5 140.5q-102 -63 -162.5 -140.5t-60.5 -174.5q0 -109 62 -166.5t161 -57.5t161 57.5z" />
    <glyph glyph-name="periodcentered.case" horiz-adv-x="235" 
d="M165 401l-47 -48l-48 48l48 47z" />
    <glyph glyph-name="bullet.case" horiz-adv-x="373" 
d="M303 400l-116 -117l-117 117l117 116z" />
    <glyph glyph-name="parenleft.case" horiz-adv-x="379" 
d="M348 -70q-86 41 -148.5 115.5t-96 169t-33.5 195.5q0 98 35 188t99 160t148 112v-12q-107 -66 -166.5 -187.5t-59.5 -260.5q0 -146 56.5 -275t165.5 -193v-12z" />
    <glyph glyph-name="parenright.case" horiz-adv-x="379" 
d="M32 -58q109 64 165 193t56 275q0 139 -59 260.5t-166 187.5v12q84 -42 147.5 -112t98.5 -159.5t35 -188.5q0 -101 -33 -195.5t-95.5 -169t-148.5 -115.5v12z" />
    <glyph glyph-name="braceleft.case" horiz-adv-x="399" 
d="M371 858q-69 0 -97.5 -27t-28.5 -86q0 -39 13 -109q8 -37 8 -76q0 -77 -37 -114.5t-93 -45.5q56 -8 93 -46t37 -115q0 -30 -8 -75q-13 -70 -13 -109q0 -59 28.5 -86t97.5 -27v-12q-92 0 -132.5 37t-40.5 115q0 38 9 86q9 47 9 81q0 84 -40.5 114.5t-105.5 30.5v12
q65 0 105.5 31t40.5 115q0 35 -9 81q-9 48 -9 86q0 77 41 114t132 37v-12z" />
    <glyph glyph-name="braceright.case" horiz-adv-x="399" 
d="M183 552q0 -84 40.5 -115t105.5 -31v-12q-65 0 -105.5 -30.5t-40.5 -114.5q0 -34 9 -81q9 -48 9 -86q0 -78 -40.5 -115t-132.5 -37v12q69 0 97.5 27t28.5 86q0 39 -13 109q-8 45 -8 75q0 77 37 115t93 46q-56 8 -93 45.5t-37 114.5q0 39 8 76q13 70 13 109q0 59 -28.5 86
t-97.5 27v12q91 0 132 -37t41 -114q0 -38 -9 -86q-9 -46 -9 -81z" />
    <glyph glyph-name="bracketleft.case" horiz-adv-x="372" 
d="M345 -70h-275v940h275v-12h-226v-916h226v-12z" />
    <glyph glyph-name="bracketright.case" horiz-adv-x="372" 
d="M302 870v-940h-274v12h225v916h-225v12h274z" />
    <glyph glyph-name="hyphen.case" horiz-adv-x="663" 
d="M70 417q130 -5 262 -5q131 0 261 5v-33q-117 6 -261 6q-145 0 -262 -6v33z" />
    <glyph glyph-name="endash.case" horiz-adv-x="952" 
d="M70 417q207 -5 406 -5t406 5v-33q-186 6 -406 6t-406 -6v33z" />
    <glyph glyph-name="emdash.case" horiz-adv-x="1262" 
d="M70 417q277 -5 561 -5t561 5v-33q-249 6 -561 6t-561 -6v33z" />
    <glyph glyph-name="guillemotleft.001" horiz-adv-x="515" 
d="M70 233q96 76 205 187q18 -3 18 -18q0 -16 -16 -30q-21 -20 -64 -48q-71 -47 -130 -91q59 -44 130 -91q43 -28 64 -48q16 -14 16 -30q0 -7 -4.5 -12.5t-13.5 -6.5q-108 110 -205 188zM223 233q96 76 205 187q18 -3 18 -18q0 -16 -16 -30q-21 -20 -64 -48
q-71 -47 -130 -91q59 -44 130 -91q43 -28 64 -48q16 -14 16 -30q0 -7 -4.5 -12.5t-13.5 -6.5q-108 110 -205 188z" />
    <glyph glyph-name="guillemotright.001" horiz-adv-x="515" 
d="M92.5 51.5q-4.5 5.5 -4.5 12.5q0 16 15 29q19 18 67 50q84 57 128 90q-73 55 -127 88q-21 14 -38 26.5t-30 24.5q-15 15 -15 29q0 7 4.5 12.5t13.5 6.5q112 -114 204 -187q-92 -74 -204 -188q-9 1 -13.5 6.5zM244.5 51.5q-4.5 5.5 -4.5 12.5q0 14 15 29q19 18 65 48
q9 6 45 30.5t85 61.5q-66 49 -129 90q-7 5 -29 20t-37 29q-15 15 -15 29q0 7 4.5 12.5t13.5 6.5q109 -111 205 -187q-97 -78 -205 -188q-9 1 -13.5 6.5z" />
    <glyph glyph-name="guilsinglleft.001" horiz-adv-x="363" 
d="M70 233q96 76 205 187q18 -3 18 -18q0 -16 -16 -30q-21 -20 -64 -48q-71 -47 -130 -91q59 -44 130 -91q43 -28 64 -48q16 -14 16 -30q0 -7 -4.5 -12.5t-13.5 -6.5q-108 110 -205 188z" />
    <glyph glyph-name="guilsinglright.001" horiz-adv-x="363" 
d="M70 65q0 14 15 29q12 11 28 22.5t35 24.5q71 47 132 92q-61 45 -132 92q-19 13 -35 24.5t-28 22.5q-15 15 -15 29q0 7 4.5 12.5t13.5 6.5q109 -111 205 -187q-97 -78 -205 -188q-18 3 -18 20z" />
    <glyph glyph-name="arrowright.case" horiz-adv-x="614" 
d="M323 252q44 30 65 46q54 38 85.5 59t60.5 35q-324 -3 -462 -15l-22 20l22 21q140 -11 462 -13q-29 14 -60.5 35t-85.5 59q-21 16 -65 46l-1 27l26 2q47 -52 107 -101t109 -75q-49 -25 -109 -73.5t-107 -101.5l-26 2z" />
    <glyph glyph-name="arrowleft.case" horiz-adv-x="614" 
d="M266 223q-47 53 -107 101.5t-109 73.5q49 26 109 75t107 101l26 -2l-1 -27q-36 -24 -57 -41q-57 -40 -90 -62t-64 -37q322 2 463 13l21 -21l-21 -20q-139 12 -463 15q29 -14 60.5 -35t85.5 -59q21 -16 65 -46l1 -27z" />
    <glyph glyph-name="arrowright.ss01.case" horiz-adv-x="950" 
d="M678 261q83 97 190 130h-491q-44 -48 -68 -80.5t-45 -72.5l-22 23q53 58 123 130h-52q-45 -49 -69 -81.5t-44 -71.5l-22 23q53 58 123 130h-52q-45 -49 -69 -81.5t-44 -71.5l-21 23q49 54 123 130l-53 -1q-45 -47 -68.5 -80t-43.5 -72l-22 23q53 57 122 129
q-38 -1 -84 -6v25q46 -5 84 -6q-61 63 -122 130l22 22q20 -39 43.5 -72t68.5 -80h53q-75 75 -123 130l21 22q20 -39 44.5 -71.5t68.5 -80.5h52q-73 74 -123 130l22 22q20 -39 44.5 -71.5t68.5 -80.5h52q-73 74 -123 130l22 22q21 -40 45 -72.5t68 -79.5h490
q-107 32 -189 130l23 23q34 -56 82 -94.5t117 -58.5v-12q-69 -20 -117 -59t-82 -95z" />
    <glyph glyph-name="arrowleft.ss01.case" horiz-adv-x="950" 
d="M249 237q-34 56 -82 95t-117 59v11q69 20 117 59t82 95l23 -24q-83 -97 -190 -130h491q45 49 69 81.5t44 71.5l22 -23q-53 -58 -123 -130h52q45 49 69 81.5t44 71.5l22 -23q-53 -58 -123 -130h52q45 49 69 81.5t44 71.5l21 -23q-49 -54 -123 -130l52 1q44 46 68 78.5
t45 73.5l22 -23q-53 -57 -122 -129q38 1 84 6v-25q-46 5 -84 6q76 -78 122 -130l-22 -22q-21 41 -45 73.5t-68 78.5l-52 1q62 -63 123 -131l-21 -22q-20 39 -44 71.5t-69 81.5h-53q74 -75 124 -131l-22 -22q-20 39 -44 71.5t-69 81.5h-52q76 -79 123 -131l-22 -22
q-20 39 -44 71.5t-69 81.5h-491q108 -33 190 -131z" />
    <glyph glyph-name="arrowright.ss02.case" horiz-adv-x="1717" 
d="M816 16q-4 2 -14 6.5t-20 6.5q-15 3 -48 3l-37 2q-83 8 -174 38q-39 13 -81 25.5t-77 19.5q-1 -7 -8 -14q-5 -5 -15.5 -9.5t-15.5 -6.5q-4 -2 -17 -2q-7 0 -13.5 1t-13.5 1q-9 0 -14 -2l-42 -13q-18 -6 -35 -6q-22 0 -43 12q-29 17 -43 51t-25 84q-10 49 -10 104
q0 28 4 84q4 51 15 92.5t38 69.5l46 2q52 0 93 4q11 1 28 1q29 0 41 -9.5t13 -34.5q72 3 121 28q14 7 29.5 20t20.5 17q18 14 59 39q50 30 113 50q25 8 49 11.5t47 4.5t31 2q22 1 47.5 5t36.5 6q14 3 42 7q6 1 26 3.5t38 9.5q12 5 24.5 13.5t19.5 12.5q69 42 110 42
q36 0 36 -50q0 -19 -4 -38q-12 -63 -46 -97t-93 -49q38 -3 86 -9t67 -8q117 -14 172 -18q10 -1 64.5 -4.5t101.5 -12.5q101 -19 101 -73q0 -55 -91 -60q-14 -1 -41 -1q-36 0 -54 1l-57 1l-167 1q-41 0 -127 -2q36 -18 60.5 -45t24.5 -60q0 -37 -28 -63t-65 -26q-5 0 -17 2
q9 -16 9 -32q0 -31 -27 -54t-58 -23q-9 0 -21 2q-14 3 -21 1q-6 -6 -14 -20q-5 -11 -10.5 -18.5t-16.5 -17.5q-27 -24 -72 -21q-14 1 -38 13zM1079 745q31 0 48 7q20 9 48 25q-4 4 -11 4q-22 0 -53 -17.5t-33 -18.5h1zM694 120q-7 18 -7 34q0 33 20 54q13 10 31 10
q8 0 11 -1q-6 15 -6 28q0 31 26 50t59 17l-12 21q-42 -13 -76 -20t-68 -7q-48 0 -93.5 19t-64.5 59h7q17 -34 57.5 -50.5t84.5 -16.5q35 0 67.5 8.5t80.5 25.5q-3 12 -3 26q0 31 17 48q14 14 39 14q15 0 38 -7q12 -4 36 -19q19 -12 34 -17q21 -6 41 -6q15 0 26.5 1t19.5 2
q41 3 123 3h62h283q97 0 97 46q0 25 -34 37.5t-95 20.5q-52 6 -102 9l-59 5q-103 11 -146 16q-113 14 -175 19q-8 -2 -31.5 -10t-43.5 -8q-16 0 -36 -5q-8 -2 -14.5 -4.5t-11.5 -4.5q-26 -10 -41 -12v6l53 19q22 10 63 16q16 2 38 8q55 15 96 34q39 18 63.5 54.5t29.5 83.5
q1 9 1 21t-1 20q-15 -13 -38.5 -24t-43.5 -11q-14 0 -27 8q-7 -2 -17 -8.5t-17 -10.5q-34 -17 -96 -26l-25 -4q-45 -9 -72 -9q-91 0 -188 -33q-35 -12 -84 -41q-15 -9 -43 -31q-20 -16 -31 -23q-55 -39 -153 -39l-31 1q-31 -63 -31 -165q0 -117 36 -213q34 2 69.5 -6.5
t82.5 -25.5q46 -16 68 -21q72 -18 118 -27q41 -8 102 -10q-46 31 -63 72zM234 89q28 10 42 10q12 0 36 -4q-3 10 -10 30q-12 34 -25 104.5t-13 116.5q0 69 19 127q17 59 46 76q-9 13 -26 13q-18 0 -54 -4l-32 -3l-86 -5q-19 -22 -26 -54.5t-15 -89.5q-6 -43 -6 -87
q0 -45 7 -83q16 -89 50 -132q21 -25 48 -25q17 0 45 10zM338 526q0 12 -5 18q-4 -3 -8.5 -9t-7.5 -9h21zM838 354q4 0 16 15q30 38 22 51q-8 2 -12 2q-17 0 -29 -14q-9 -12 -9 -29q0 -5 2 -19q6 -6 10 -6zM1152.5 220q12.5 10 19.5 24q8 15 8 32q0 51 -84 102q-58 -5 -73 -5
q6 -2 45 -9v-9q-51 3 -82 12q-38 10 -71 38q-9 8 -25 13v-5q0 -12 -9 -26l-20 -35q-2 -4 -7.5 -6.5t-11.5 -2.5q-7 0 -10 2q4 -16 24 -36q21 -21 45.5 -31t62.5 -20q55 -14 83 -31q5 -3 17 -10.5t22.5 -11.5t20.5 -4q5 0 19 4q14 5 26.5 15zM1057 112q19 18 19 43
q0 30 -41 55q-23 14 -50.5 23t-31.5 10q-34 9 -58.5 19t-47.5 28q-6 5 -18 5q-9 0 -13 -1q2 -2 2 -5q0 -4 -3 -10q-2 -5 -5.5 -17.5t-8.5 -22t-12 -14.5q-5 -4 -13 -4q-5 0 -8 1q8 -14 21.5 -25.5t28 -21t21.5 -14.5q17 -12 55 -25q25 -9 41 -16.5t30 -20.5q8 1 21.5 -2
t19.5 -3q32 0 51 18zM772 232q4 0 7 3q11 11 14 19q2 3 11 20t3 19q-16 -3 -36 -22q-10 -10 -10 -24q0 -4 2 -12q5 -3 9 -3zM719.5 163.5q11.5 6.5 19.5 17.5t4 19q-16 2 -27 -8.5t-11 -30.5q3 -4 14.5 2.5zM929 54q6 6 12.5 17t9.5 16q-14 13 -31 20.5t-42 15.5l-22 8
q-46 18 -93 65q-2 2 -6 2q-1 -10 -11 -22t-22.5 -19.5t-18.5 -6.5q3 -30 22.5 -53t30 -30t40.5 -24q38 -21 69 -21q30 0 62 32zM333 99q11 5 15.5 8.5t8.5 9.5q-15 4 -35 2z" />
    <glyph glyph-name="arrowleft.ss02.case" horiz-adv-x="1717" 
d="M791 17q-11 10 -16.5 17.5t-10.5 18.5q-8 14 -14 20q-7 2 -21 -1q-12 -2 -21 -2q-31 0 -58 23t-27 54q0 16 9 32q-12 -2 -17 -2q-36 0 -64.5 26.5t-28.5 62.5q0 33 24.5 60t60.5 45q-86 2 -127 2l-167 -1l-57 -1q-18 -1 -54 -1q-27 0 -41 1q-91 5 -91 60q0 54 101 73
q47 9 101.5 12.5t64.5 4.5q55 4 172 18q19 2 67 8t86 9q-59 15 -93 49t-46 97q-4 19 -4 38q0 50 36 50q25 0 51.5 -11.5t58.5 -30.5q7 -4 19.5 -12.5t24.5 -13.5q18 -7 38 -9.5t26 -3.5q28 -4 42 -7q11 -2 36.5 -6t47.5 -5q8 -1 35 -2.5t50 -5.5t42 -10q63 -20 113 -50
q41 -25 59 -39q5 -4 20.5 -17t29.5 -20q49 -25 121 -28q1 25 13 34.5t41 9.5q17 0 28 -1q41 -4 93 -4l46 -2q27 -28 38 -69.5t15 -92.5q4 -56 4 -84q0 -55 -10 -104q-11 -50 -25 -84t-43 -51q-21 -12 -43 -12q-17 0 -35 6l-42 13q-5 2 -14 2q-7 0 -13.5 -1t-13.5 -1
q-13 0 -17 2q-5 2 -15.5 6.5t-15.5 9.5q-6 7 -8 14q-35 -7 -77 -19.5t-81 -25.5q-91 -30 -174 -38l-37 -2q-33 0 -48 -3q-10 -2 -20 -6.5t-14 -6.5q-24 -12 -38 -13q-45 -3 -72 21zM639 738q-2 1 -33 18.5t-53 17.5q-7 0 -11 -4q28 -16 48 -25q18 -7 48 -7h1zM1062 51
q46 9 118 27q22 5 68 21q47 17 82.5 25.5t69.5 6.5q36 96 36 213q0 102 -31 165l-31 -1q-98 0 -153 39q-11 7 -31 23q-28 22 -43 31q-49 29 -84 41q-97 33 -188 33q-27 0 -72 9l-25 4q-62 9 -96 26q-7 4 -17 10.5t-17 8.5q-13 -8 -27 -8q-20 0 -43.5 11t-38.5 24l-1 -20
q0 -53 25.5 -96t68.5 -63q41 -19 96 -34q22 -6 38 -8q41 -6 63 -16l53 -19v-6q-15 2 -41 12q-5 2 -11.5 4.5t-14.5 4.5q-20 5 -36 5q-20 0 -43.5 8t-31.5 10q-61 -5 -175 -19q-43 -5 -146 -16l-59 -5q-50 -3 -102 -9q-61 -8 -95 -20.5t-34 -37.5q0 -46 97 -46h283h62
q82 0 123 -3q8 -1 19.5 -2t26.5 -1q20 0 41 6q15 5 34 17q24 15 36 19q23 7 38 7q25 0 39 -14q17 -17 17 -48q0 -14 -3 -26q48 -17 80.5 -25.5t67.5 -8.5q44 0 84.5 16.5t57.5 50.5h7q-19 -40 -64.5 -59t-93.5 -19q-34 0 -68 7t-76 20l-12 -21q33 2 59 -17t26 -50
q0 -13 -6 -28q4 1 11 1q18 0 31 -10q20 -21 20 -54q0 -16 -7 -34q-17 -41 -63 -72q61 2 102 10zM1576 97q34 43 50 132q7 38 7 83q0 44 -6 87q-8 57 -15 89.5t-26 54.5l-86 5l-32 3q-36 4 -54 4q-17 0 -26 -13q29 -17 46 -76q19 -58 19 -127q0 -46 -13 -116.5t-25 -104.5
q-7 -20 -10 -30q24 4 36 4q14 0 42 -10t45 -10q27 0 48 25zM1400 519q-3 3 -7.5 9t-8.5 9q-5 -6 -5 -18h21zM891 372q0 17 -9 29q-12 14 -29 14q-4 0 -12 -2q-8 -13 22 -51q12 -15 16 -15t10 6q2 14 2 19zM610 194q12 0 23 5t21.5 11.5t15.5 9.5q28 17 83 31q38 10 62.5 20
t45.5 31q20 20 24 36q-3 -2 -10 -2q-6 0 -11.5 2.5t-7.5 6.5l-20 35q-11 19 -9 31q-16 -5 -25 -13q-33 -28 -71 -38q-31 -9 -82 -12v9q39 7 45 9q-15 0 -73 5q-84 -51 -84 -102q0 -17 8 -32q7 -14 19.5 -24t26.5 -15q14 -4 19 -4zM730.5 90q13.5 3 21.5 2q14 13 30 20.5
t41 16.5q38 13 55 25q7 5 23.5 16t29 22.5t18.5 22.5q-3 -1 -8 -1q-8 0 -13 4q-8 5 -13 16t-8 22t-5 16q0 1 -2 6.5t1 8.5q-4 1 -13 1q-12 0 -18 -5q-23 -18 -47.5 -28t-58.5 -19q-4 -1 -31.5 -10t-50.5 -23q-41 -25 -41 -55q0 -25 19 -43t51 -18q6 0 19.5 3zM956 240
q0 14 -10 24q-20 19 -36 22q-6 -2 3 -19t11 -20q3 -8 14 -19q3 -3 7 -3q5 0 9 3q2 8 2 12zM1001 184.5q-11 10.5 -27 8.5q-4 -8 4 -19t19.5 -17.5t14.5 -2.5q0 20 -11 30.5zM919 36q1 1 22.5 12t44.5 38t26 57q-6 -1 -18.5 6.5t-22.5 19.5t-11 22q-4 0 -6 -2
q-47 -47 -93 -65l-22 -8q-25 -8 -42 -15.5t-31 -20.5q3 -5 9.5 -16t12.5 -17q32 -32 62 -32q31 0 69 21zM1395 112l-13 1q-10 0 -22 -3q4 -6 8.5 -9.5t15.5 -8.5z" />
    <glyph glyph-name="arrowup.ss01" horiz-adv-x="419" 
d="M346 454q-97 80 -131 189v-491q49 -45 81.5 -69t71.5 -44l-22 -22q-52 47 -131 123v-52q49 -45 81.5 -69t71.5 -44l-22 -22q-56 50 -131 124v-53q49 -45 81.5 -69t71.5 -44l-22 -21q-68 61 -131 123l1 -52q46 -44 78.5 -68t73.5 -45l-22 -22q-52 46 -130 122q1 -38 6 -84
h-25q5 46 6 84q-72 -69 -129 -122l-23 22q41 21 73.5 45t78.5 68l1 52q-76 -74 -130 -123l-23 21q39 20 71.5 44t81.5 69v53q-69 -68 -130 -124l-23 22q39 20 71.5 44t81.5 69v52q-72 -70 -130 -123l-23 22q39 20 71.5 44t81.5 69v491q-33 -108 -130 -189l-24 23
q57 34 95.5 82t58.5 116h11q20 -68 58.5 -116t95.5 -82z" />
    <glyph glyph-name="arrowright.ss01" horiz-adv-x="950" 
d="M678 104q84 99 190 130h-491q-44 -47 -68 -79.5t-45 -72.5l-22 22q50 56 123 130h-52q-44 -48 -68.5 -80.5t-44.5 -71.5l-22 22q50 56 123 130h-52q-44 -48 -68.5 -80.5t-44.5 -71.5l-21 22q48 55 123 130l-53 -1q-44 -47 -68 -79t-44 -72l-22 22q50 56 122 129
q-38 -1 -84 -6v26q46 -5 84 -6q-61 61 -122 129l22 22q20 -40 44 -72t68 -79l53 -1q-75 75 -123 130l21 22q20 -39 44.5 -71.5t68.5 -80.5h52q-73 74 -123 130l22 22q20 -39 44.5 -71.5t68.5 -80.5h52q-73 74 -123 130l22 22q21 -40 45 -72.5t68 -79.5h490q-105 31 -189 130
l23 24q34 -56 82 -95t117 -59v-12q-69 -20 -117 -58.5t-82 -94.5z" />
    <glyph glyph-name="arrowdown.ss01" horiz-adv-x="419" 
d="M369 21q-57 -35 -95.5 -83t-58.5 -116h-11q-20 68 -58.5 116t-95.5 83l24 23q97 -83 130 -190v491q-49 45 -81.5 69t-71.5 44l23 22q58 -53 130 -123v52q-49 45 -81.5 69t-71.5 44l23 22q58 -53 130 -123v52q-49 45 -81.5 69t-71.5 44l23 21q54 -49 130 -123l-1 52
q-46 44 -78.5 68t-73.5 45l23 22q57 -53 129 -122q-1 38 -6 84h25q-5 -46 -6 -84q78 76 130 122l22 -22q-41 -21 -73.5 -45t-78.5 -68l-1 -52q63 62 131 123l22 -21q-39 -20 -71.5 -44t-81.5 -69v-53q75 74 131 124l22 -22q-39 -20 -71.5 -44t-81.5 -69v-52q79 76 131 123
l22 -22q-39 -20 -71.5 -44t-81.5 -69v-491q33 108 131 190z" />
    <glyph glyph-name="arrowleft.ss01" horiz-adv-x="950" 
d="M249 81q-34 56 -82 94.5t-117 58.5v12q69 20 117 59t82 95l23 -24q-84 -99 -190 -130h491q44 48 68.5 80.5t44.5 71.5l22 -22q-50 -56 -123 -130h52q44 48 68.5 80.5t44.5 71.5l22 -22q-50 -56 -123 -130h52q44 48 68.5 80.5t44.5 71.5l21 -22q-48 -55 -123 -130l52 1
q44 46 68 78t45 73l22 -22q-50 -56 -122 -129q38 1 84 6v-26q-46 5 -84 6q72 -73 122 -129l-22 -22q-21 41 -45 73t-68 78l-52 1q62 -62 123 -130l-21 -22q-20 39 -44.5 71.5t-68.5 80.5h-53q72 -72 124 -130l-22 -22q-20 39 -44.5 71.5t-68.5 80.5h-52q73 -74 123 -130
l-22 -22q-20 39 -44.5 71.5t-68.5 80.5h-491q106 -31 190 -130z" />
    <glyph glyph-name="arrowup.ss02" horiz-adv-x="934" 
d="M91 317q10 11 17.5 16.5t18.5 10.5q14 8 20 14q2 7 -1 21q-2 12 -2 21q0 31 23 58t54 27q16 0 32 -9q-2 12 -2 17q0 36 26.5 64.5t62.5 28.5q33 0 60 -24.5t45 -60.5q2 86 2 127l-1 167l-1 57q-1 18 -1 54q0 27 1 41q5 91 60 91q54 0 73 -101q9 -47 12.5 -101.5
t4.5 -64.5q4 -55 18 -172q2 -19 8 -67t9 -86q15 59 49 93t97 46q19 4 38 4q50 0 50 -36q0 -25 -11.5 -51.5t-30.5 -58.5q-4 -7 -12.5 -19.5t-13.5 -24.5q-7 -18 -9.5 -38t-3.5 -26q-4 -28 -7 -42q-2 -11 -6 -36.5t-5 -47.5q-1 -8 -2.5 -35t-5.5 -50t-10 -42
q-20 -63 -50 -113q-25 -41 -39 -59q-4 -5 -17 -20.5t-20 -29.5q-25 -49 -28 -121q25 -1 34.5 -13t9.5 -41q0 -17 -1 -28q-4 -41 -4 -93l-2 -46q-28 -27 -69.5 -38t-92.5 -15q-56 -4 -84 -4q-55 0 -104 10q-50 11 -84 25t-51 43q-12 21 -12 43q0 17 6 35l13 42q2 5 2 14
q0 7 -1 13.5t-1 13.5q0 13 2 17q2 5 6.5 15.5t9.5 15.5q6 6 14 8q-7 35 -19.5 77t-25.5 81q-30 91 -38 174l-2 37q0 33 -3 48q-2 10 -6.5 20t-6.5 14q-12 24 -13 38q-3 45 21 72zM125 46q9 -46 27 -118q5 -22 21 -68q17 -47 25.5 -82.5t6.5 -69.5q96 -36 213 -36
q102 0 165 31l-1 31q0 98 39 153q7 11 23 31q22 28 31 43q29 49 41 84q33 97 33 188q0 27 9 72l4 25q9 62 26 96q4 7 10.5 17t8.5 17q-8 13 -8 27q0 20 11 43.5t24 38.5q-4 1 -20 1q-53 0 -96 -25.5t-63 -68.5q-19 -41 -34 -96q-6 -22 -8 -38q-6 -41 -16 -63l-19 -53h-6
q2 15 12 41q2 5 4.5 11.5t4.5 14.5q5 20 5 36q0 20 8 43.5t10 31.5q-5 62 -19 175q-5 43 -16 146l-5 59q-3 50 -9 102q-8 61 -20.5 95t-37.5 34q-46 0 -46 -97v-283v-62q0 -82 -3 -123q-1 -8 -2 -19.5t-1 -26.5q0 -20 6 -41q5 -15 17 -34q15 -24 19 -36q7 -23 7 -38
q0 -25 -14 -39q-17 -17 -48 -17q-14 0 -26 3q-17 -48 -25.5 -80.5t-8.5 -67.5q0 -44 16.5 -84.5t50.5 -57.5v-7q-40 19 -59 64.5t-19 93.5q0 34 7 68t20 76l-21 12q2 -33 -17 -59t-50 -26q-13 0 -28 6q1 -3 1 -11q0 -18 -10 -31q-21 -20 -54 -20q-16 0 -34 7q-41 17 -72 63
q2 -61 10 -102zM268 498q0 -12 5 -23t11.5 -21.5t9.5 -15.5q17 -28 31 -83q10 -38 20 -62.5t31 -45.5q20 -20 36 -24q-2 3 -2 10q0 6 2.5 11.5t6.5 7.5l35 20q19 11 31 9q-5 16 -13 25q-28 33 -38 71q-9 31 -12 82h9q7 -39 9 -45q0 16 5 73q-51 84 -102 84q-17 0 -32 -8
q-14 -7 -24 -19.5t-15 -26.5q-4 -14 -4 -19zM812 469q1 2 18.5 33t17.5 53q0 7 -4 11q-16 -28 -25 -48q-7 -17 -7 -48v-1zM164 377.5q3 -13.5 2 -21.5q13 -14 20.5 -30t16.5 -41q13 -38 25 -55q5 -7 16 -23.5t22.5 -29t22.5 -18.5q-1 3 -1 8q0 8 4 13q5 8 16 13t22 8t16 5
q1 0 6.5 2t8.5 -1q1 4 1 13q0 12 -5 18q-18 23 -28 47.5t-19 58.5q-1 4 -10 31.5t-23 50.5q-25 41 -55 41q-25 0 -43 -19t-18 -51q0 -6 3 -19.5zM110 189q1 -1 12 -22.5t38 -44.5t57 -26q-1 6 6.5 18.5t19.5 22.5t22 11q0 4 -2 6q-47 47 -65 93l-8 22q-8 25 -15.5 42
t-20.5 31q-5 -3 -16 -9.5t-17 -12.5q-32 -32 -32 -62q0 -31 21 -69zM446 217q17 0 29 9q14 12 14 29q0 4 -2 12q-13 8 -51 -22q-15 -12 -15 -16t6 -10q14 -2 19 -2zM314 152q14 0 24 10q19 20 22 36q-2 6 -19 -3t-20 -11q-8 -3 -19 -14q-3 -3 -3 -7t3 -9q8 -2 12 -2z
M258.5 107q10.5 11 8.5 27q-8 4 -19 -4t-17.5 -19.5t-2.5 -14.5q20 0 30.5 11zM186 -287l1 13q0 10 -3 22q-6 -4 -9.5 -8.5t-8.5 -15.5zM593 -292q3 3 9 7.5t9 8.5q-6 5 -18 5v-21zM171 -468q43 -34 132 -50q38 -7 83 -7q44 0 87 6q57 8 89.5 15t54.5 26l5 86l3 32
q4 36 4 54q0 17 -13 26q-17 -29 -76 -46q-58 -19 -127 -19q-46 0 -116.5 13t-104.5 25q-20 7 -30 10q4 -24 4 -36q0 -14 -10 -42t-10 -45q0 -27 25 -48z" />
    <glyph glyph-name="arrowright.ss02" horiz-adv-x="1717" 
d="M816 -132q-4 2 -14 6.5t-20 6.5q-15 3 -48 3l-37 2q-83 8 -174 38q-39 13 -81 25.5t-77 19.5q-1 -8 -8 -14q-5 -5 -15.5 -9.5t-15.5 -6.5q-4 -2 -17 -2q-7 0 -13.5 1t-13.5 1q-9 0 -14 -2l-42 -13q-18 -6 -35 -6q-22 0 -43 12q-29 17 -43 51t-25 84q-10 49 -10 104
q0 28 4 84q4 51 15 92.5t38 69.5l46 2q52 0 93 4q11 1 28 1q29 0 41 -9.5t13 -34.5q72 3 121 28q14 7 29.5 20t20.5 17q18 14 59 39q50 30 113 50q25 8 49 11.5t47 4.5t31 2q22 1 47.5 5t36.5 6q14 3 42 7q6 1 26 3.5t38 9.5q12 5 24.5 13.5t19.5 12.5q69 42 110 42
q36 0 36 -50q0 -19 -4 -38q-12 -63 -46 -97t-93 -49q38 -3 86 -9t67 -8q117 -14 172 -18q10 -1 64.5 -4.5t101.5 -12.5q101 -19 101 -73q0 -55 -91 -60q-14 -1 -41 -1q-36 0 -54 1l-57 1l-167 1q-41 0 -127 -2q36 -18 60.5 -45t24.5 -60q0 -37 -28 -63t-65 -26q-5 0 -17 2
q9 -16 9 -32q0 -31 -27 -54t-58 -23q-9 0 -21 2q-14 3 -21 1q-6 -6 -14 -20q-5 -11 -10.5 -18.5t-16.5 -17.5q-27 -24 -72 -21q-14 1 -38 13zM1079 597q31 0 48 7q20 9 48 25q-4 4 -11 4q-22 0 -53 -17.5t-33 -18.5h1zM694 -28q-7 17 -7 34q0 33 20 54q13 10 31 10
q8 0 11 -1q-6 15 -6 28q0 31 26 50t59 17l-12 21q-42 -13 -76 -20t-68 -7q-48 0 -93.5 19t-64.5 59h7q17 -34 57.5 -50.5t84.5 -16.5q35 0 67.5 8.5t80.5 25.5q-3 12 -3 26q0 31 17 48q14 14 39 14q15 0 38 -7q12 -4 36 -19q19 -12 34 -17q21 -6 41 -6q15 0 26.5 1t19.5 2
q41 3 123 3h62h283q97 0 97 46q0 25 -34 37.5t-95 20.5q-52 6 -102 9l-59 5q-103 11 -146 16q-114 14 -175 19q-8 -2 -31.5 -10t-43.5 -8q-16 0 -36 -5q-8 -2 -14.5 -4.5t-11.5 -4.5q-26 -10 -41 -12v6l53 19q22 10 63 16q16 2 38 8q55 15 96 34q39 18 63.5 54.5t29.5 83.5
q1 9 1 21t-1 20q-15 -13 -38.5 -24t-43.5 -11q-14 0 -27 8q-7 -2 -17 -8.5t-17 -10.5q-34 -17 -96 -26l-25 -4q-45 -9 -72 -9q-91 0 -188 -33q-35 -12 -84 -41q-15 -9 -43 -31q-20 -16 -31 -23q-55 -39 -153 -39l-31 1q-31 -63 -31 -165q0 -117 36 -213q34 2 69.5 -6.5
t82.5 -25.5q46 -16 68 -21q72 -18 118 -27q41 -8 102 -10q-46 31 -63 72zM234 -59q28 10 42 10q12 0 36 -4q-3 10 -10 30q-12 34 -25 104.5t-13 116.5q0 69 19 127q17 59 46 76q-9 13 -26 13q-18 0 -54 -4l-32 -3l-86 -5q-19 -22 -26 -54.5t-15 -89.5q-6 -43 -6 -87
q0 -45 7 -83q16 -89 50 -132q21 -25 48 -25q17 0 45 10zM338 378q0 12 -5 18q-4 -3 -8.5 -9t-7.5 -9h21zM838 206q4 0 16 15q30 38 22 51q-8 2 -12 2q-17 0 -29 -14q-9 -12 -9 -29q0 -5 2 -19q6 -6 10 -6zM1152.5 72q12.5 10 19.5 24q8 15 8 32q0 51 -84 102q-58 -5 -73 -5
q6 -2 45 -9v-9q-51 3 -82 12q-38 10 -71 38q-9 8 -25 13v-5q0 -12 -9 -26l-20 -35q-2 -4 -7.5 -6.5t-11.5 -2.5q-7 0 -10 2q4 -16 24 -36q21 -21 45.5 -31t62.5 -20q55 -14 83 -31q5 -3 17 -10.5t22.5 -11.5t20.5 -4q5 0 19 4q14 5 26.5 15zM1057 -36q19 18 19 43
q0 30 -41 55q-23 14 -50.5 23t-31.5 10q-34 9 -58.5 19t-47.5 28q-6 5 -18 5q-9 0 -13 -1q2 -2 2 -5q0 -4 -3 -10q-2 -5 -5.5 -17.5t-8.5 -22t-12 -14.5q-5 -4 -13 -4q-5 0 -8 1q8 -14 21.5 -25.5t28 -21t21.5 -14.5q17 -12 55 -25q25 -9 41 -16.5t30 -20.5q8 1 21.5 -2
t19.5 -3q32 0 51 18zM772 84q4 0 7 3q11 11 14 19q2 3 11 20t3 19q-16 -3 -36 -22q-10 -10 -10 -24q0 -4 2 -12q5 -3 9 -3zM719.5 15.5q11.5 6.5 19.5 17.5t4 19q-16 2 -27 -8.5t-11 -30.5q3 -4 14.5 2.5zM929 -94q6 6 12.5 17t9.5 16q-14 13 -31 20.5t-42 15.5l-22 8
q-46 18 -93 65q-2 2 -6 2q-1 -10 -11 -22t-22.5 -19.5t-18.5 -6.5q3 -30 22.5 -53t30 -30t40.5 -24q38 -21 69 -21q30 0 62 32zM333 -49q11 5 15.5 8.5t8.5 9.5q-15 4 -35 2z" />
    <glyph glyph-name="arrowdown.ss02" horiz-adv-x="934" 
d="M83 293q2 4 6.5 14t6.5 20q3 15 3 48l2 37q8 83 38 174q13 39 25.5 81t19.5 77q-7 1 -14 8q-5 5 -9.5 15.5t-6.5 15.5q-2 4 -2 17q0 7 1 13.5t1 13.5q0 9 -2 14l-13 42q-6 18 -6 35q0 22 12 43q17 29 51 43t84 25q49 10 104 10q28 0 84 -4q51 -4 92.5 -15t69.5 -38l2 -46
q0 -52 4 -93q1 -11 1 -28q0 -29 -9.5 -41t-34.5 -13q3 -72 28 -121q7 -14 20 -29.5t17 -20.5q14 -18 39 -59q30 -50 50 -113q8 -25 11.5 -49t4.5 -47t2 -31q1 -22 5 -47.5t6 -36.5q3 -14 7 -42q1 -6 3.5 -26t9.5 -38q5 -12 13.5 -24.5t12.5 -19.5q42 -69 42 -110
q0 -36 -50 -36q-19 0 -38 4q-63 12 -97 46t-49 93q-3 -38 -9 -86t-8 -67q-14 -117 -18 -172q-1 -10 -4.5 -64.5t-12.5 -101.5q-19 -101 -73 -101q-55 0 -60 91q-1 14 -1 41q0 36 1 54l1 57l1 167q0 41 -2 127q-18 -36 -45 -60.5t-60 -24.5q-37 0 -63 28t-26 65q0 5 2 17
q-16 -9 -32 -9q-31 0 -54 27t-23 58q0 9 2 21q3 14 1 21q-6 6 -20 14q-11 5 -18.5 10.5t-17.5 16.5q-24 27 -21 72q1 14 13 38zM156 875q10 -28 10 -42q0 -12 -4 -36q10 3 30 10q34 12 104.5 25t116.5 13q69 0 127 -19q59 -17 76 -46q13 9 13 26q0 18 -4 54l-3 32l-5 86
q-22 19 -54.5 26t-89.5 15q-43 6 -87 6q-45 0 -83 -7q-89 -16 -132 -50q-25 -21 -25 -48q0 -17 10 -45zM187 415q18 7 34 7q33 0 54 -20q10 -13 10 -31q0 -7 -1 -11q15 6 28 6q31 0 50 -26t17 -59l21 12q-13 42 -20 76t-7 68q0 48 19 93.5t59 64.5v-7q-34 -17 -50.5 -57.5
t-16.5 -84.5q0 -35 8.5 -67.5t25.5 -80.5q12 3 26 3q31 0 48 -17q14 -14 14 -39q0 -15 -7 -38q-4 -12 -19 -36q-12 -19 -17 -34q-6 -21 -6 -41q0 -15 1 -26.5t2 -19.5q3 -41 3 -123v-62v-283q0 -97 46 -97q25 0 37.5 34t20.5 95q6 52 9 102l5 59q11 103 16 146
q14 113 19 175q-2 8 -10 31.5t-8 43.5q0 16 -5 36q-2 8 -4.5 14.5t-4.5 11.5q-10 26 -12 41h6l19 -53q10 -22 16 -63q2 -16 8 -38q15 -55 34 -96q18 -39 54.5 -63.5t83.5 -29.5q9 -1 21 -1t20 1q-13 15 -24 38.5t-11 43.5q0 14 8 27q-2 7 -8.5 17t-10.5 17q-17 34 -26 96
l-4 25q-9 45 -9 72q0 91 -33 188q-12 35 -41 84q-9 15 -31 43q-16 20 -23 31q-39 55 -39 153l1 31q-63 31 -165 31q-117 0 -213 -36q2 -34 -6.5 -69.5t-25.5 -82.5q-16 -46 -21 -68q-18 -72 -27 -118q-8 -41 -10 -102q31 46 72 63zM593 771q12 0 18 5q-3 4 -9 8.5t-9 7.5
v-21zM166 776q5 -11 8.5 -15.5t9.5 -8.5q4 15 2 35zM121 180q6 -6 17 -12.5t16 -9.5q13 14 20.5 31t15.5 42l8 22q18 46 65 93q2 2 2 6q-10 1 -22 11t-19.5 22.5t-6.5 18.5q-30 -3 -53 -22.5t-30 -30t-24 -40.5q-21 -38 -21 -69q0 -30 32 -62zM230.5 389.5
q6.5 -11.5 17.5 -19.5t19 -4q2 16 -8.5 27t-30.5 11q-4 -3 2.5 -14.5zM299 337q0 -4 3 -7q11 -11 19 -14q3 -2 20 -11t19 -3q-3 16 -22 36q-10 10 -24 10q-4 0 -12 -2q-3 -4 -3 -9zM179 52q18 -19 43 -19q30 0 55 41q14 23 23 50.5t10 31.5q9 34 19 58.5t28 47.5q5 6 5 18
q0 9 -1 13q-2 -2 -5 -2q-4 0 -10 3q-5 2 -17.5 5.5t-22 8.5t-14.5 12q-4 5 -4 13q0 5 1 8q-14 -8 -25.5 -21.5t-21 -28t-14.5 -21.5q-12 -17 -25 -55q-9 -25 -16.5 -41t-20.5 -30q1 -8 -2 -21.5t-3 -19.5q0 -32 18 -51zM421 271q0 -4 15 -16q38 -30 51 -22q2 8 2 12
q0 17 -14 29q-12 9 -29 9q-5 0 -19 -2q-6 -6 -6 -10zM287 -43.5q10 -12.5 24 -19.5q15 -8 32 -8q51 0 102 84q-5 58 -5 73q-2 -6 -9 -45h-9q3 51 12 82q10 38 38 71q8 9 13 25h-5q-12 0 -26 9l-35 20q-4 2 -6.5 7.5t-2.5 11.5q0 7 2 10q-16 -4 -36 -24q-21 -21 -31 -45.5
t-20 -62.5q-14 -55 -31 -83q-3 -5 -10.5 -17t-11.5 -22.5t-4 -20.5q0 -5 4 -19q5 -14 15 -26.5zM812 30q0 -31 7 -48q9 -20 25 -48q4 4 4 11q0 22 -17.5 53t-18.5 33v-1z" />
    <glyph glyph-name="arrowleft.ss02" horiz-adv-x="1717" 
d="M791 -126q-11 10 -16.5 17.5t-10.5 18.5q-8 14 -14 20q-7 2 -21 -1q-12 -2 -21 -2q-31 0 -58 23t-27 54q0 16 9 32q-12 -2 -17 -2q-36 0 -64.5 26.5t-28.5 62.5q0 33 24.5 60t60.5 45q-86 2 -127 2l-167 -1l-57 -1q-18 -1 -54 -1q-27 0 -41 1q-91 5 -91 60q0 54 101 73
q47 9 101.5 12.5t64.5 4.5q55 4 172 18q19 2 67 8t86 9q-59 15 -93 49t-46 97q-4 19 -4 38q0 50 36 50q25 0 51.5 -11.5t58.5 -30.5q7 -4 19.5 -12.5t24.5 -13.5q18 -7 38 -9.5t26 -3.5q28 -4 42 -7q11 -2 36.5 -6t47.5 -5q8 -1 35 -2.5t50 -5.5t42 -10q63 -20 113 -50
q41 -25 59 -39q5 -4 20.5 -17t29.5 -20q49 -25 121 -28q1 25 13 34.5t41 9.5q17 0 28 -1q41 -4 93 -4l46 -2q27 -28 38 -69.5t15 -92.5q4 -56 4 -84q0 -55 -10 -104q-11 -50 -25 -84t-43 -51q-21 -12 -43 -12q-17 0 -35 6l-42 13q-5 2 -14 2q-7 0 -13.5 -1t-13.5 -1
q-13 0 -17 2q-5 2 -15.5 6.5t-15.5 9.5q-6 6 -8 14q-35 -7 -77 -19.5t-81 -25.5q-91 -30 -174 -38l-37 -2q-33 0 -48 -3q-10 -2 -20 -6.5t-14 -6.5q-24 -12 -38 -13q-45 -3 -72 21zM639 595q-2 1 -33 18.5t-53 17.5q-7 0 -11 -4q28 -16 48 -25q18 -7 48 -7h1zM1062 -92
q46 9 118 27q22 5 68 21q47 17 82.5 25.5t69.5 6.5q36 96 36 213q0 102 -31 165l-31 -1q-98 0 -153 39q-11 7 -31 23q-28 22 -43 31q-49 29 -84 41q-97 33 -188 33q-27 0 -72 9l-25 4q-62 9 -96 26q-7 4 -17 10.5t-17 8.5q-13 -8 -27 -8q-20 0 -43.5 11t-38.5 24l-1 -20
q0 -53 25.5 -96t68.5 -63q41 -19 96 -34q22 -6 38 -8q41 -6 63 -16l53 -19v-6q-15 2 -41 12q-5 2 -11.5 4.5t-14.5 4.5q-20 5 -36 5q-20 0 -43.5 8t-31.5 10q-61 -5 -175 -19q-43 -5 -146 -16l-59 -5q-50 -3 -102 -9q-61 -8 -95 -20.5t-34 -37.5q0 -46 97 -46h283h62
q82 0 123 -3q8 -1 19.5 -2t26.5 -1q20 0 41 6q15 5 34 17q24 15 36 19q23 7 38 7q25 0 39 -14q17 -17 17 -48q0 -14 -3 -26q48 -17 80.5 -25.5t67.5 -8.5q44 0 84.5 16.5t57.5 50.5h7q-19 -40 -64.5 -59t-93.5 -19q-34 0 -68 7t-76 20l-12 -21q33 2 59 -17t26 -50
q0 -13 -6 -28q4 1 11 1q18 0 31 -10q20 -21 20 -54q0 -17 -7 -34q-17 -41 -63 -72q61 2 102 10zM1576 -46q34 43 50 132q7 38 7 83q0 44 -6 87q-8 57 -15 89.5t-26 54.5l-86 5l-32 3q-36 4 -54 4q-17 0 -26 -13q29 -17 46 -76q19 -58 19 -127q0 -46 -13 -116.5t-25 -104.5
q-7 -20 -10 -30q24 4 36 4q14 0 42 -10t45 -10q27 0 48 25zM1400 376q-3 3 -7.5 9t-8.5 9q-5 -6 -5 -18h21zM891 229q0 17 -9 29q-12 14 -29 14q-4 0 -12 -2q-8 -13 22 -51q12 -15 16 -15t10 6q2 14 2 19zM610 51q12 0 23 5t21.5 11.5t15.5 9.5q28 17 83 31q38 10 62.5 20
t45.5 31q20 20 24 36q-3 -2 -10 -2q-6 0 -11.5 2.5t-7.5 6.5l-20 35q-11 19 -9 31q-16 -5 -25 -13q-33 -28 -71 -38q-31 -9 -82 -12v9q39 7 45 9q-15 0 -73 5q-84 -51 -84 -102q0 -17 8 -32q7 -14 19.5 -24t26.5 -15q14 -4 19 -4zM730.5 -53q13.5 3 21.5 2q14 13 30 20.5
t41 16.5q38 13 55 25q7 5 23.5 16t29 22.5t18.5 22.5q-3 -1 -8 -1q-8 0 -13 4q-8 5 -13 16t-8 22t-5 16q0 1 -2 6.5t1 8.5q-4 1 -13 1q-12 0 -18 -5q-23 -18 -47.5 -28t-58.5 -19q-4 -1 -31.5 -10t-50.5 -23q-41 -25 -41 -55q0 -25 19 -43t51 -18q6 0 19.5 3zM956 97
q0 14 -10 24q-20 19 -36 22q-6 -2 3 -19t11 -20q3 -8 14 -19q3 -3 7 -3q5 0 9 3q2 8 2 12zM1001 41.5q-11 10.5 -27 8.5q-4 -8 4 -19t19.5 -17.5t14.5 -2.5q0 20 -11 30.5zM919 -107q1 1 22.5 12t44.5 38t26 57q-6 -1 -18.5 6.5t-22.5 19.5t-11 22q-4 0 -6 -2
q-47 -47 -93 -65l-22 -8q-25 -8 -42 -15.5t-31 -20.5q3 -5 9.5 -16t12.5 -17q32 -32 62 -32q31 0 69 21zM1395 -31l-13 1q-10 0 -22 -3q4 -6 8.5 -9.5t15.5 -8.5z" />
    </font>
</defs>
</svg>
